<?xml version="1.0" standalone="no"?>
<!DOCTYPE svg PUBLIC "-//W3C//DTD SVG 1.1//EN" "http://www.w3.org/Graphics/SVG/1.1/DTD/svg11.dtd" >
<svg xmlns="http://www.w3.org/2000/svg" xmlns:xlink="http://www.w3.org/1999/xlink" version="1.1">
<metadata>
Created by FontForge 20230101 at Thu Oct 31 16:42:19 2013
 By Webmaster
Copyright (c) 2006-2013 by Jan Fromm. All rights reserved.
</metadata>
<defs>
<font id="CamingoCode-Italic" horiz-adv-x="550" >
  <font-face 
    font-family="CamingoCode"
    font-weight="400"
    font-style="italic"
    font-stretch="normal"
    units-per-em="1000"
    panose-1="2 11 5 9 4 3 2 9 2 3"
    ascent="750"
    descent="-250"
    x-height="490"
    cap-height="695"
    bbox="-159 -250 678 1050"
    underline-thickness="65"
    underline-position="-263"
    slope="-11"
    unicode-range="U+000D-F8FF"
  />
<missing-glyph 
d="M106 263q0 36 13 67.5t35.5 54t53.5 35.5t67 13t67.5 -13t54 -35.5t35.5 -54t13 -67.5t-13 -67t-35.5 -53.5t-54 -35.5t-67.5 -13t-67 13t-53.5 35.5t-35.5 53.5t-13 67zM279 336h47l5 -16q4 -13 13 -13q10 0 10 14v16v3q0 13 -3 16q-4 4 -14 4h-110q-13 0 -13 -10
t13 -14l16 -5v-131q0 -22 -15 -22q-7 0 -11 3.5t-7 8t-6.5 8t-7.5 3.5q-8 0 -12.5 -5t-4.5 -12q0 -12 11.5 -20.5t31.5 -8.5q57 0 57 62v33h33l2 -7q3 -11 11 -11q10 0 10 12v36q0 13 -10 13q-8 0 -11 -11l-2 -8h-33v62z" />
    <glyph glyph-name=".notdef" 
d="M106 263q0 36 13 67.5t35.5 54t53.5 35.5t67 13t67.5 -13t54 -35.5t35.5 -54t13 -67.5t-13 -67t-35.5 -53.5t-54 -35.5t-67.5 -13t-67 13t-53.5 35.5t-35.5 53.5t-13 67zM279 336h47l5 -16q4 -13 13 -13q10 0 10 14v16v3q0 13 -3 16q-4 4 -14 4h-110q-13 0 -13 -10
t13 -14l16 -5v-131q0 -22 -15 -22q-7 0 -11 3.5t-7 8t-6.5 8t-7.5 3.5q-8 0 -12.5 -5t-4.5 -12q0 -12 11.5 -20.5t31.5 -8.5q57 0 57 62v33h33l2 -7q3 -11 11 -11q10 0 10 12v36q0 13 -10 13q-8 0 -11 -11l-2 -8h-33v62z" />
    <glyph glyph-name=".null" 
 />
    <glyph glyph-name="nonmarkingreturn" unicode="&#xd;" 
 />
    <glyph glyph-name="space" unicode=" " 
 />
    <glyph glyph-name="uni00A0" unicode="&#xa0;" 
 />
    <glyph glyph-name="a" unicode="a" 
d="M366 74q-18 -17 -39.5 -32t-45.5 -26.5t-50 -18.5t-52 -7q-63 0 -100 38.5t-37 115.5q0 81 21 147t57.5 112.5t86 71.5t107.5 25q40 0 72 -11.5t57 -27.5l9 29h65l-95 -490h-64zM422 403q-22 14 -49 24.5t-61 10.5q-42 0 -77.5 -22.5t-61 -61.5t-39 -90t-13.5 -109
q0 -50 21 -75.5t61 -25.5q19 0 40 7t43.5 20.5t45 32t42.5 41.5z" />
    <glyph glyph-name="aogonek" unicode="&#x105;" 
d="M422 403q-22 14 -49 24.5t-61 10.5q-42 0 -77.5 -22.5t-61 -61.5t-39 -90t-13.5 -109q0 -50 21 -75.5t61 -25.5q19 0 40 7t43.5 20.5t45 32t42.5 41.5zM422 0q-25 -16 -49 -32.5t-41 -33.5t-28 -34.5t-11 -35.5q0 -17 11 -25t32 -8q18 0 33.5 3.5t29.5 8.5l2 -50
q-20 -7 -41.5 -11t-45.5 -4q-45 0 -67.5 19t-22.5 54q0 23 11.5 44t30 40.5t42.5 36.5t50 31l8 71q-18 -17 -39.5 -32t-45.5 -26.5t-50 -18.5t-52 -7q-63 0 -100 38.5t-37 115.5q0 81 21 147t57.5 112.5t86 71.5t107.5 25q40 0 72 -11.5t57 -27.5l9 29h65z" />
    <glyph glyph-name="ae" unicode="&#xe6;" 
d="M230 232q-54 0 -87 -11t-51 -28t-24 -38t-6 -42q0 -33 16 -47.5t39 -14.5q26 0 50.5 14t50.5 46q0 30 2.5 59t9.5 62zM86 477q31 11 63 16.5t63 5.5q25 0 42.5 -5.5t28.5 -15t17.5 -22.5t7.5 -27q22 32 53 53t82 21q47 0 77.5 -27.5t30.5 -83.5q0 -35 -12.5 -64t-42 -51
t-77.5 -34.5t-119 -12.5q-5 -23 -7.5 -47.5t-2.5 -44.5q0 -46 17 -66t61 -20q27 0 52 4.5t51 12.5l5 -59q-30 -9 -60.5 -14.5t-62.5 -5.5q-54 0 -81 17t-38 46q-30 -31 -62.5 -47t-71.5 -16q-21 0 -40.5 6.5t-34.5 20.5t-24.5 35.5t-9.5 51.5q0 33 10.5 66t38 59.5t76 42.5
t123.5 16q1 8 4 19t6 23.5t5 24.5t2 21q0 33 -15 47.5t-46 14.5q-26 0 -51 -5t-53 -15zM308 285q51 0 84.5 8t53 21t27.5 31t8 39q0 29 -14.5 43.5t-39.5 14.5q-23 0 -41 -12.5t-33 -34t-26 -49.5t-19 -61z" />
    <glyph glyph-name="agrave" unicode="&#xe0;" 
d="M366 74q-18 -17 -39.5 -32t-45.5 -26.5t-50 -18.5t-52 -7q-63 0 -100 38.5t-37 115.5q0 81 21 147t57.5 112.5t86 71.5t107.5 25q40 0 72 -11.5t57 -27.5l9 29h65l-95 -490h-64zM422 403q-22 14 -49 24.5t-61 10.5q-42 0 -77.5 -22.5t-61 -61.5t-39 -90t-13.5 -109
q0 -50 21 -75.5t61 -25.5q19 0 40 7t43.5 20.5t45 32t42.5 41.5zM286 748l97 -144l-40 -33l-109 136z" />
    <glyph glyph-name="aacute" unicode="&#xe1;" 
d="M366 74q-18 -17 -39.5 -32t-45.5 -26.5t-50 -18.5t-52 -7q-63 0 -100 38.5t-37 115.5q0 81 21 147t57.5 112.5t86 71.5t107.5 25q40 0 72 -11.5t57 -27.5l9 29h65l-95 -490h-64zM422 403q-22 14 -49 24.5t-61 10.5q-42 0 -77.5 -22.5t-61 -61.5t-39 -90t-13.5 -109
q0 -50 21 -75.5t61 -25.5q19 0 40 7t43.5 20.5t45 32t42.5 41.5zM432 742l44 -48l-141 -122l-33 36z" />
    <glyph glyph-name="acircumflex" unicode="&#xe2;" 
d="M366 74q-18 -17 -39.5 -32t-45.5 -26.5t-50 -18.5t-52 -7q-63 0 -100 38.5t-37 115.5q0 81 21 147t57.5 112.5t86 71.5t107.5 25q40 0 72 -11.5t57 -27.5l9 29h65l-95 -490h-64zM422 403q-22 14 -49 24.5t-61 10.5q-42 0 -77.5 -22.5t-61 -61.5t-39 -90t-13.5 -109
q0 -50 21 -75.5t61 -25.5q19 0 40 7t43.5 20.5t45 32t42.5 41.5zM373 741l108 -127l-38 -40l-82 90l-109 -88l-30 39z" />
    <glyph glyph-name="adieresis" unicode="&#xe4;" 
d="M366 74q-18 -17 -39.5 -32t-45.5 -26.5t-50 -18.5t-52 -7q-63 0 -100 38.5t-37 115.5q0 81 21 147t57.5 112.5t86 71.5t107.5 25q40 0 72 -11.5t57 -27.5l9 29h65l-95 -490h-64zM422 403q-22 14 -49 24.5t-61 10.5q-42 0 -77.5 -22.5t-61 -61.5t-39 -90t-13.5 -109
q0 -50 21 -75.5t61 -25.5q19 0 40 7t43.5 20.5t45 32t42.5 41.5zM311 673q0 -9 -3 -22q-5 -25 -17.5 -35.5t-38.5 -10.5q-45 0 -45 30q0 8 3 22q5 25 18 36t39 11q44 0 44 -31zM505 673q0 -9 -3 -22q-4 -25 -17 -35.5t-39 -10.5q-44 0 -44 30q0 8 2 22q5 25 18 36t40 11
q43 0 43 -31z" />
    <glyph glyph-name="atilde" unicode="&#xe3;" 
d="M366 74q-18 -17 -39.5 -32t-45.5 -26.5t-50 -18.5t-52 -7q-63 0 -100 38.5t-37 115.5q0 81 21 147t57.5 112.5t86 71.5t107.5 25q40 0 72 -11.5t57 -27.5l9 29h65l-95 -490h-64zM422 403q-22 14 -49 24.5t-61 10.5q-42 0 -77.5 -22.5t-61 -61.5t-39 -90t-13.5 -109
q0 -50 21 -75.5t61 -25.5q19 0 40 7t43.5 20.5t45 32t42.5 41.5zM199 626q10 17 21.5 32t25 25t29 16t32.5 6q19 0 33 -8t26 -18t23 -18t23 -8q16 0 31.5 12.5t29.5 36.5l37 -28q-10 -18 -22 -32.5t-25.5 -25t-28.5 -16t-32 -5.5q-19 0 -33 7.5t-26 17.5t-23 18.5t-23 8.5
q-16 0 -31.5 -13t-29.5 -36z" />
    <glyph glyph-name="abreve" unicode="&#x103;" 
d="M366 74q-18 -17 -39.5 -32t-45.5 -26.5t-50 -18.5t-52 -7q-63 0 -100 38.5t-37 115.5q0 81 21 147t57.5 112.5t86 71.5t107.5 25q40 0 72 -11.5t57 -27.5l9 29h65l-95 -490h-64zM422 403q-22 14 -49 24.5t-61 10.5q-42 0 -77.5 -22.5t-61 -61.5t-39 -90t-13.5 -109
q0 -50 21 -75.5t61 -25.5q19 0 40 7t43.5 20.5t45 32t42.5 41.5zM307 714q-5 -33 8 -54t45 -21q29 0 50 21t27 54h57q-10 -58 -47.5 -94.5t-94.5 -36.5q-59 0 -84.5 36.5t-15.5 94.5h55z" />
    <glyph glyph-name="amacron" unicode="&#x101;" 
d="M366 74q-18 -17 -39.5 -32t-45.5 -26.5t-50 -18.5t-52 -7q-63 0 -100 38.5t-37 115.5q0 81 21 147t57.5 112.5t86 71.5t107.5 25q40 0 72 -11.5t57 -27.5l9 29h65l-95 -490h-64zM422 403q-22 14 -49 24.5t-61 10.5q-42 0 -77.5 -22.5t-61 -61.5t-39 -90t-13.5 -109
q0 -50 21 -75.5t61 -25.5q19 0 40 7t43.5 20.5t45 32t42.5 41.5zM230 680h258l-11 -59h-258z" />
    <glyph glyph-name="acaron" unicode="&#x1ce;" 
d="M366 74q-18 -17 -39.5 -32t-45.5 -26.5t-50 -18.5t-52 -7q-63 0 -100 38.5t-37 115.5q0 81 21 147t57.5 112.5t86 71.5t107.5 25q40 0 72 -11.5t57 -27.5l9 29h65l-95 -490h-64zM422 403q-22 14 -49 24.5t-61 10.5q-42 0 -77.5 -22.5t-61 -61.5t-39 -90t-13.5 -109
q0 -50 21 -75.5t61 -25.5q19 0 40 7t43.5 20.5t45 32t42.5 41.5zM270 736l82 -90l110 88l29 -38l-150 -127l-109 127z" />
    <glyph glyph-name="adotaccent" unicode="&#x227;" 
d="M366 74q-18 -17 -39.5 -32t-45.5 -26.5t-50 -18.5t-52 -7q-63 0 -100 38.5t-37 115.5q0 81 21 147t57.5 112.5t86 71.5t107.5 25q40 0 72 -11.5t57 -27.5l9 29h65l-95 -490h-64zM422 403q-22 14 -49 24.5t-61 10.5q-42 0 -77.5 -22.5t-61 -61.5t-39 -90t-13.5 -109
q0 -50 21 -75.5t61 -25.5q19 0 40 7t43.5 20.5t45 32t42.5 41.5zM407 672q0 -6 -0.5 -11t-1.5 -11q-4 -25 -16 -35t-40 -10q-24 0 -35 7.5t-11 24.5q0 9 2 21q4 25 16 35.5t41 10.5q24 0 34.5 -8t10.5 -24z" />
    <glyph glyph-name="aring" unicode="&#xe5;" 
d="M366 74q-18 -17 -39.5 -32t-45.5 -26.5t-50 -18.5t-52 -7q-63 0 -100 38.5t-37 115.5q0 81 21 147t57.5 112.5t86 71.5t107.5 25q40 0 72 -11.5t57 -27.5l9 29h65l-95 -490h-64zM422 403q-22 14 -49 24.5t-61 10.5q-42 0 -77.5 -22.5t-61 -61.5t-39 -90t-13.5 -109
q0 -50 21 -75.5t61 -25.5q19 0 40 7t43.5 20.5t45 32t42.5 41.5zM462 664q0 -24 -8 -43.5t-22.5 -34t-34 -23t-41.5 -8.5q-44 0 -71 27t-27 71q0 23 8 43t22.5 34.5t34 22.5t41.5 8q44 0 71 -26.5t27 -70.5zM413 663q0 25 -13.5 40t-36.5 15q-25 0 -40.5 -17t-15.5 -47
q0 -26 13 -40.5t37 -14.5q25 0 40.5 16.5t15.5 47.5z" />
    <glyph glyph-name="aeacute" unicode="&#x1fd;" 
d="M230 232q-54 0 -87 -11t-51 -28t-24 -38t-6 -42q0 -33 16 -47.5t39 -14.5q26 0 50.5 14t50.5 46q0 30 2.5 59t9.5 62zM86 477q31 11 63 16.5t63 5.5q25 0 42.5 -5.5t28.5 -15t17.5 -22.5t7.5 -27q22 32 53 53t82 21q47 0 77.5 -27.5t30.5 -83.5q0 -35 -12.5 -64t-42 -51
t-77.5 -34.5t-119 -12.5q-5 -23 -7.5 -47.5t-2.5 -44.5q0 -46 17 -66t61 -20q27 0 52 4.5t51 12.5l5 -59q-30 -9 -60.5 -14.5t-62.5 -5.5q-54 0 -81 17t-38 46q-30 -31 -62.5 -47t-71.5 -16q-21 0 -40.5 6.5t-34.5 20.5t-24.5 35.5t-9.5 51.5q0 33 10.5 66t38 59.5t76 42.5
t123.5 16q1 8 4 19t6 23.5t5 24.5t2 21q0 33 -15 47.5t-46 14.5q-26 0 -51 -5t-53 -15zM308 285q51 0 84.5 8t53 21t27.5 31t8 39q0 29 -14.5 43.5t-39.5 14.5q-23 0 -41 -12.5t-33 -34t-26 -49.5t-19 -61zM431 742l44 -48l-141 -122l-33 36z" />
    <glyph glyph-name="aemacron" unicode="&#x1e3;" 
d="M230 232q-54 0 -87 -11t-51 -28t-24 -38t-6 -42q0 -33 16 -47.5t39 -14.5q26 0 50.5 14t50.5 46q0 30 2.5 59t9.5 62zM86 477q31 11 63 16.5t63 5.5q25 0 42.5 -5.5t28.5 -15t17.5 -22.5t7.5 -27q22 32 53 53t82 21q47 0 77.5 -27.5t30.5 -83.5q0 -35 -12.5 -64t-42 -51
t-77.5 -34.5t-119 -12.5q-5 -23 -7.5 -47.5t-2.5 -44.5q0 -46 17 -66t61 -20q27 0 52 4.5t51 12.5l5 -59q-30 -9 -60.5 -14.5t-62.5 -5.5q-54 0 -81 17t-38 46q-30 -31 -62.5 -47t-71.5 -16q-21 0 -40.5 6.5t-34.5 20.5t-24.5 35.5t-9.5 51.5q0 33 10.5 66t38 59.5t76 42.5
t123.5 16q1 8 4 19t6 23.5t5 24.5t2 21q0 33 -15 47.5t-46 14.5q-26 0 -51 -5t-53 -15zM308 285q51 0 84.5 8t53 21t27.5 31t8 39q0 29 -14.5 43.5t-39.5 14.5q-23 0 -41 -12.5t-33 -34t-26 -49.5t-19 -61zM224 680h258l-11 -59h-258z" />
    <glyph glyph-name="b" unicode="b" 
d="M176 738h77l-34 -176q-3 -16 -6.5 -34.5t-8 -36.5t-8.5 -36.5t-8 -33.5l1 -1q16 15 36.5 30t44 25.5t49 17.5t51.5 7q63 0 100.5 -39t37.5 -115q0 -81 -21 -147t-57.5 -112.5t-86.5 -71.5t-108 -25q-40 0 -72 11.5t-56 27.5l-9 -29h-65zM127 87q23 -13 50 -24t60 -11
q43 0 78 23t60.5 61.5t39.5 89.5t14 109q0 50 -21.5 75.5t-60.5 25.5q-20 0 -41 -7t-43 -20t-44.5 -32t-42.5 -42z" />
    <glyph glyph-name="c" unicode="c" 
d="M430 10q-30 -8 -69.5 -14t-84.5 -6q-107 0 -156.5 39.5t-49.5 125.5q0 22 2 43.5t7 48.5q13 71 39 119.5t63.5 78t84.5 42.5t102 13q38 0 75 -5.5t68 -13.5l-18 -59q-28 7 -60.5 11.5t-67.5 4.5q-38 0 -71 -8.5t-60 -30t-46.5 -59t-30.5 -94.5q-5 -23 -7 -42.5t-2 -38.5
q0 -59 33 -86t112 -27q41 0 75 5t61 12z" />
    <glyph glyph-name="ccedilla" unicode="&#xe7;" 
d="M220 -6q-80 10 -115 49t-35 112q0 22 2 43.5t7 48.5q13 71 39 119.5t63.5 78t84.5 42.5t102 13q38 0 75 -5.5t68 -13.5l-18 -59q-28 7 -60.5 11.5t-67.5 4.5q-38 0 -71 -8.5t-60 -30t-46.5 -59t-30.5 -94.5q-5 -23 -7 -42.5t-2 -38.5q0 -59 33 -86t112 -27q41 0 75 5
t61 12l1 -59q-30 -8 -68 -13.5t-81 -5.5h-10l-13 -45q42 -1 61 -19.5t19 -47.5q0 -21 -9.5 -39.5t-27.5 -32t-43 -21t-57 -7.5q-18 0 -34.5 1.5t-30.5 5.5l11 43q14 -3 27.5 -4.5t29.5 -1.5q40 0 55.5 16t15.5 35q0 16 -13 24.5t-46 8.5h-23z" />
    <glyph glyph-name="cacute" unicode="&#x107;" 
d="M430 10q-30 -8 -69.5 -14t-84.5 -6q-107 0 -156.5 39.5t-49.5 125.5q0 22 2 43.5t7 48.5q13 71 39 119.5t63.5 78t84.5 42.5t102 13q38 0 75 -5.5t68 -13.5l-18 -59q-28 7 -60.5 11.5t-67.5 4.5q-38 0 -71 -8.5t-60 -30t-46.5 -59t-30.5 -94.5q-5 -23 -7 -42.5t-2 -38.5
q0 -59 33 -86t112 -27q41 0 75 5t61 12zM453 742l44 -48l-141 -122l-33 36z" />
    <glyph glyph-name="ccircumflex" unicode="&#x109;" 
d="M430 10q-30 -8 -69.5 -14t-84.5 -6q-107 0 -156.5 39.5t-49.5 125.5q0 22 2 43.5t7 48.5q13 71 39 119.5t63.5 78t84.5 42.5t102 13q38 0 75 -5.5t68 -13.5l-18 -59q-28 7 -60.5 11.5t-67.5 4.5q-38 0 -71 -8.5t-60 -30t-46.5 -59t-30.5 -94.5q-5 -23 -7 -42.5t-2 -38.5
q0 -59 33 -86t112 -27q41 0 75 5t61 12zM392 741l108 -127l-38 -40l-82 90l-109 -88l-30 39z" />
    <glyph glyph-name="ccaron" unicode="&#x10d;" 
d="M430 10q-30 -8 -69.5 -14t-84.5 -6q-107 0 -156.5 39.5t-49.5 125.5q0 22 2 43.5t7 48.5q13 71 39 119.5t63.5 78t84.5 42.5t102 13q38 0 75 -5.5t68 -13.5l-18 -59q-28 7 -60.5 11.5t-67.5 4.5q-38 0 -71 -8.5t-60 -30t-46.5 -59t-30.5 -94.5q-5 -23 -7 -42.5t-2 -38.5
q0 -59 33 -86t112 -27q41 0 75 5t61 12zM294 736l82 -90l110 88l29 -38l-150 -127l-109 127z" />
    <glyph glyph-name="cdotaccent" unicode="&#x10b;" 
d="M430 10q-30 -8 -69.5 -14t-84.5 -6q-107 0 -156.5 39.5t-49.5 125.5q0 22 2 43.5t7 48.5q13 71 39 119.5t63.5 78t84.5 42.5t102 13q38 0 75 -5.5t68 -13.5l-18 -59q-28 7 -60.5 11.5t-67.5 4.5q-38 0 -71 -8.5t-60 -30t-46.5 -59t-30.5 -94.5q-5 -23 -7 -42.5t-2 -38.5
q0 -59 33 -86t112 -27q41 0 75 5t61 12zM431 672q0 -6 -0.5 -11t-1.5 -11q-4 -25 -16 -35t-40 -10q-24 0 -35 7.5t-11 24.5q0 9 2 21q4 25 16 35.5t41 10.5q24 0 34.5 -8t10.5 -24z" />
    <glyph glyph-name="d" unicode="d" 
d="M366 74q-18 -17 -39.5 -32t-45.5 -26.5t-50 -18.5t-52 -7q-63 0 -100 38.5t-37 115.5q0 81 21 147t57.5 112.5t86 71.5t107.5 25q39 0 70 -10.5t54 -24.5l1 1q3 31 8 62t10 56l31 154h77l-142 -738h-65zM423 403q-23 14 -50 24.5t-61 10.5q-42 0 -77.5 -22.5t-61 -61.5
t-39 -90t-13.5 -109q0 -50 21 -75.5t61 -25.5q19 0 40.5 7t44 20.5t45 32t42.5 41.5z" />
    <glyph glyph-name="dcroat" unicode="&#x111;" 
d="M366 74q-18 -17 -39.5 -32t-45.5 -26.5t-50 -18.5t-52 -7q-63 0 -100 38.5t-37 115.5q0 81 21 147t57.5 112.5t86 71.5t107.5 25q39 0 70 -10.5t54 -24.5l1 1q3 30 7.5 58t9.5 52l2 13h-123l11 59h124l18 90h77l-17 -90h66l-12 -59h-65l-114 -589h-65zM423 403
q-23 14 -50 24.5t-61 10.5q-42 0 -77.5 -22.5t-61 -61.5t-39 -90t-13.5 -109q0 -50 21 -75.5t61 -25.5q19 0 40.5 7t44 20.5t45 32t42.5 41.5z" />
    <glyph glyph-name="eth" unicode="&#xf0;" 
d="M439 643q29 -58 45.5 -122t16.5 -130q0 -125 -25.5 -203.5t-65.5 -123.5t-88.5 -61.5t-93.5 -16.5q-92 0 -136 45t-44 129q0 59 15 119t46.5 108t80 78t115.5 30q36 0 64.5 -9t49.5 -21q-12 77 -47 147l-105 -51l-25 49l106 51q-10 17 -20.5 32.5t-22.5 31.5l66 32
q12 -16 23 -31.5t21 -32.5l104 51l26 -49zM236 48q32 0 66 15.5t61.5 52.5t45 99t17.5 155q0 7 -0.5 14t-1.5 14q-25 17 -52.5 26.5t-61.5 9.5q-49 0 -84 -26t-57.5 -65.5t-32.5 -87.5t-10 -93q0 -53 26.5 -83.5t83.5 -30.5z" />
    <glyph glyph-name="dcaron" unicode="&#x10f;" 
d="M340 72q-17 -16 -36 -30.5t-41 -26t-46.5 -18.5t-51.5 -7q-62 0 -95.5 38t-33.5 112q0 47 7.5 92t22 85t36 73.5t49.5 58t62.5 38t75.5 13.5q37 0 67.5 -10.5t54.5 -24.5l1 1q4 32 9.5 62t10.5 56l30 154h72l-142 -738h-59zM397 404q-21 13 -47.5 23.5t-58.5 10.5
q-28 0 -51.5 -11.5t-43.5 -31.5t-35.5 -47t-26 -59t-16 -66.5t-5.5 -68.5q0 -50 17.5 -75t63.5 -25q39 0 76 23.5t77 66.5zM617 779l61 -14l-78 -183l-44 11z" />
    <glyph glyph-name="e" unicode="e" 
d="M428 18q-35 -12 -82 -20t-99 -8q-94 0 -141.5 38.5t-47.5 124.5q0 22 2 44.5t7 49.5q13 72 39 121.5t61.5 79.5t77.5 43t88 13q78 0 120 -33.5t42 -89.5q0 -42 -20 -72.5t-62.5 -50t-110 -28.5t-162.5 -9q-2 -17 -3.5 -31t-1.5 -31q0 -57 30 -82t94 -25q47 0 90 7.5
t75 17.5zM150 274q70 0 121 5t84 16.5t49 30.5t16 47q0 31 -22.5 50.5t-72.5 19.5q-26 0 -52.5 -7.5t-49.5 -26.5t-42 -52t-31 -83z" />
    <glyph glyph-name="eogonek" unicode="&#x119;" 
d="M150 274q70 0 121 5t84 16.5t49 30.5t16 47q0 31 -22.5 50.5t-72.5 19.5q-26 0 -52.5 -7.5t-49.5 -26.5t-42 -52t-31 -83zM428 18q-75 -44 -116.5 -81t-41.5 -73q0 -17 10.5 -25t30.5 -8q18 0 34 3.5t30 8.5l3 -50q-20 -7 -42 -11t-46 -4q-45 0 -67.5 19t-22.5 54
q0 23 11.5 44.5t30 40.5t41 34.5t45.5 28.5q-12 -3 -34.5 -6t-46.5 -3q-94 0 -141.5 38.5t-47.5 124.5q0 22 2 44.5t7 49.5q13 72 39 121.5t61.5 79.5t77.5 43t88 13q78 0 120 -33.5t42 -89.5q0 -42 -20 -72.5t-62.5 -50t-110 -28.5t-162.5 -9q-2 -17 -3.5 -31t-1.5 -31
q0 -57 30 -82t94 -25q47 0 90 7.5t75 17.5z" />
    <glyph glyph-name="egrave" unicode="&#xe8;" 
d="M428 18q-35 -12 -82 -20t-99 -8q-94 0 -141.5 38.5t-47.5 124.5q0 22 2 44.5t7 49.5q13 72 39 121.5t61.5 79.5t77.5 43t88 13q78 0 120 -33.5t42 -89.5q0 -42 -20 -72.5t-62.5 -50t-110 -28.5t-162.5 -9q-2 -17 -3.5 -31t-1.5 -31q0 -57 30 -82t94 -25q47 0 90 7.5
t75 17.5zM150 274q70 0 121 5t84 16.5t49 30.5t16 47q0 31 -22.5 50.5t-72.5 19.5q-26 0 -52.5 -7.5t-49.5 -26.5t-42 -52t-31 -83zM297 748l97 -144l-40 -33l-109 136z" />
    <glyph glyph-name="eacute" unicode="&#xe9;" 
d="M428 18q-35 -12 -82 -20t-99 -8q-94 0 -141.5 38.5t-47.5 124.5q0 22 2 44.5t7 49.5q13 72 39 121.5t61.5 79.5t77.5 43t88 13q78 0 120 -33.5t42 -89.5q0 -42 -20 -72.5t-62.5 -50t-110 -28.5t-162.5 -9q-2 -17 -3.5 -31t-1.5 -31q0 -57 30 -82t94 -25q47 0 90 7.5
t75 17.5zM150 274q70 0 121 5t84 16.5t49 30.5t16 47q0 31 -22.5 50.5t-72.5 19.5q-26 0 -52.5 -7.5t-49.5 -26.5t-42 -52t-31 -83zM428 742l44 -48l-141 -122l-33 36z" />
    <glyph glyph-name="ecircumflex" unicode="&#xea;" 
d="M428 18q-35 -12 -82 -20t-99 -8q-94 0 -141.5 38.5t-47.5 124.5q0 22 2 44.5t7 49.5q13 72 39 121.5t61.5 79.5t77.5 43t88 13q78 0 120 -33.5t42 -89.5q0 -42 -20 -72.5t-62.5 -50t-110 -28.5t-162.5 -9q-2 -17 -3.5 -31t-1.5 -31q0 -57 30 -82t94 -25q47 0 90 7.5
t75 17.5zM150 274q70 0 121 5t84 16.5t49 30.5t16 47q0 31 -22.5 50.5t-72.5 19.5q-26 0 -52.5 -7.5t-49.5 -26.5t-42 -52t-31 -83zM369 741l108 -127l-38 -40l-82 90l-109 -88l-30 39z" />
    <glyph glyph-name="edieresis" unicode="&#xeb;" 
d="M428 18q-35 -12 -82 -20t-99 -8q-94 0 -141.5 38.5t-47.5 124.5q0 22 2 44.5t7 49.5q13 72 39 121.5t61.5 79.5t77.5 43t88 13q78 0 120 -33.5t42 -89.5q0 -42 -20 -72.5t-62.5 -50t-110 -28.5t-162.5 -9q-2 -17 -3.5 -31t-1.5 -31q0 -57 30 -82t94 -25q47 0 90 7.5
t75 17.5zM150 274q70 0 121 5t84 16.5t49 30.5t16 47q0 31 -22.5 50.5t-72.5 19.5q-26 0 -52.5 -7.5t-49.5 -26.5t-42 -52t-31 -83zM308 673q0 -9 -3 -22q-5 -25 -17.5 -35.5t-38.5 -10.5q-45 0 -45 30q0 8 3 22q5 25 18 36t39 11q44 0 44 -31zM502 673q0 -9 -3 -22
q-4 -25 -17 -35.5t-39 -10.5q-44 0 -44 30q0 8 2 22q5 25 18 36t40 11q43 0 43 -31z" />
    <glyph glyph-name="ebreve" unicode="&#x115;" 
d="M428 18q-35 -12 -82 -20t-99 -8q-94 0 -141.5 38.5t-47.5 124.5q0 22 2 44.5t7 49.5q13 72 39 121.5t61.5 79.5t77.5 43t88 13q78 0 120 -33.5t42 -89.5q0 -42 -20 -72.5t-62.5 -50t-110 -28.5t-162.5 -9q-2 -17 -3.5 -31t-1.5 -31q0 -57 30 -82t94 -25q47 0 90 7.5
t75 17.5zM150 274q70 0 121 5t84 16.5t49 30.5t16 47q0 31 -22.5 50.5t-72.5 19.5q-26 0 -52.5 -7.5t-49.5 -26.5t-42 -52t-31 -83zM300 714q-5 -33 8 -54t45 -21q29 0 50 21t27 54h57q-10 -58 -47.5 -94.5t-94.5 -36.5q-59 0 -84.5 36.5t-15.5 94.5h55z" />
    <glyph glyph-name="emacron" unicode="&#x113;" 
d="M428 18q-35 -12 -82 -20t-99 -8q-94 0 -141.5 38.5t-47.5 124.5q0 22 2 44.5t7 49.5q13 72 39 121.5t61.5 79.5t77.5 43t88 13q78 0 120 -33.5t42 -89.5q0 -42 -20 -72.5t-62.5 -50t-110 -28.5t-162.5 -9q-2 -17 -3.5 -31t-1.5 -31q0 -57 30 -82t94 -25q47 0 90 7.5
t75 17.5zM150 274q70 0 121 5t84 16.5t49 30.5t16 47q0 31 -22.5 50.5t-72.5 19.5q-26 0 -52.5 -7.5t-49.5 -26.5t-42 -52t-31 -83zM229 680h258l-11 -59h-258z" />
    <glyph glyph-name="ecaron" unicode="&#x11b;" 
d="M428 18q-35 -12 -82 -20t-99 -8q-94 0 -141.5 38.5t-47.5 124.5q0 22 2 44.5t7 49.5q13 72 39 121.5t61.5 79.5t77.5 43t88 13q78 0 120 -33.5t42 -89.5q0 -42 -20 -72.5t-62.5 -50t-110 -28.5t-162.5 -9q-2 -17 -3.5 -31t-1.5 -31q0 -57 30 -82t94 -25q47 0 90 7.5
t75 17.5zM150 274q70 0 121 5t84 16.5t49 30.5t16 47q0 31 -22.5 50.5t-72.5 19.5q-26 0 -52.5 -7.5t-49.5 -26.5t-42 -52t-31 -83zM269 736l82 -90l110 88l29 -38l-150 -127l-109 127z" />
    <glyph glyph-name="edotaccent" unicode="&#x117;" 
d="M428 18q-35 -12 -82 -20t-99 -8q-94 0 -141.5 38.5t-47.5 124.5q0 22 2 44.5t7 49.5q13 72 39 121.5t61.5 79.5t77.5 43t88 13q78 0 120 -33.5t42 -89.5q0 -42 -20 -72.5t-62.5 -50t-110 -28.5t-162.5 -9q-2 -17 -3.5 -31t-1.5 -31q0 -57 30 -82t94 -25q47 0 90 7.5
t75 17.5zM150 274q70 0 121 5t84 16.5t49 30.5t16 47q0 31 -22.5 50.5t-72.5 19.5q-26 0 -52.5 -7.5t-49.5 -26.5t-42 -52t-31 -83zM406 672q0 -6 -0.5 -11t-1.5 -11q-4 -25 -16 -35t-40 -10q-24 0 -35 7.5t-11 24.5q0 9 2 21q4 25 16 35.5t41 10.5q24 0 34.5 -8t10.5 -24z
" />
    <glyph glyph-name="f" unicode="f" 
d="M249 -53q-19 -94 -72 -132.5t-137 -38.5q-27 0 -53.5 3t-49.5 8l14 59q20 -5 43 -7t47 -2q25 0 46.5 6t37.5 19t27.5 35t18.5 55l93 478h-177l12 60h177l17 90q19 95 72 133.5t137 38.5q27 0 53.5 -3.5t48.5 -8.5l-13 -59q-20 5 -43 7t-47 2q-26 0 -47 -5.5t-37.5 -19
t-28 -35.5t-17.5 -55l-17 -85h189l-11 -60h-189z" />
    <glyph glyph-name="g" unicode="g" 
d="M422 403q-22 14 -49 24.5t-61 10.5q-42 0 -77.5 -22.5t-61 -61.5t-39 -90t-13.5 -109q0 -50 21 -75.5t61 -25.5q19 0 40 7t43.5 20.5t45 32t42.5 41.5zM418 -24q-11 -53 -33 -91t-55.5 -62t-80 -35t-106.5 -11q-37 0 -71 4t-66 12l11 60q31 -7 63.5 -11t66.5 -4
q83 0 131 31.5t64 110.5q5 26 9.5 45.5t10.5 43.5l-1 1q-16 -16 -36.5 -30t-44 -25t-49.5 -18t-52 -7q-63 0 -100 38.5t-37 115.5q0 81 21 147t57.5 112.5t86 71.5t107.5 25q40 0 72 -11.5t57 -27.5l9 29h65z" />
    <glyph glyph-name="gacute" unicode="&#x1f5;" 
d="M422 403q-22 14 -49 24.5t-61 10.5q-42 0 -77.5 -22.5t-61 -61.5t-39 -90t-13.5 -109q0 -50 21 -75.5t61 -25.5q19 0 40 7t43.5 20.5t45 32t42.5 41.5zM418 -24q-11 -53 -33 -91t-55.5 -62t-80 -35t-106.5 -11q-37 0 -71 4t-66 12l11 60q31 -7 63.5 -11t66.5 -4
q83 0 131 31.5t64 110.5q5 26 9.5 45.5t10.5 43.5l-1 1q-16 -16 -36.5 -30t-44 -25t-49.5 -18t-52 -7q-63 0 -100 38.5t-37 115.5q0 81 21 147t57.5 112.5t86 71.5t107.5 25q40 0 72 -11.5t57 -27.5l9 29h65zM432 742l44 -48l-141 -122l-33 36z" />
    <glyph glyph-name="gcircumflex" unicode="&#x11d;" 
d="M422 403q-22 14 -49 24.5t-61 10.5q-42 0 -77.5 -22.5t-61 -61.5t-39 -90t-13.5 -109q0 -50 21 -75.5t61 -25.5q19 0 40 7t43.5 20.5t45 32t42.5 41.5zM418 -24q-11 -53 -33 -91t-55.5 -62t-80 -35t-106.5 -11q-37 0 -71 4t-66 12l11 60q31 -7 63.5 -11t66.5 -4
q83 0 131 31.5t64 110.5q5 26 9.5 45.5t10.5 43.5l-1 1q-16 -16 -36.5 -30t-44 -25t-49.5 -18t-52 -7q-63 0 -100 38.5t-37 115.5q0 81 21 147t57.5 112.5t86 71.5t107.5 25q40 0 72 -11.5t57 -27.5l9 29h65zM373 741l108 -127l-38 -40l-82 90l-109 -88l-30 39z" />
    <glyph glyph-name="gbreve" unicode="&#x11f;" 
d="M422 403q-22 14 -49 24.5t-61 10.5q-42 0 -77.5 -22.5t-61 -61.5t-39 -90t-13.5 -109q0 -50 21 -75.5t61 -25.5q19 0 40 7t43.5 20.5t45 32t42.5 41.5zM418 -24q-11 -53 -33 -91t-55.5 -62t-80 -35t-106.5 -11q-37 0 -71 4t-66 12l11 60q31 -7 63.5 -11t66.5 -4
q83 0 131 31.5t64 110.5q5 26 9.5 45.5t10.5 43.5l-1 1q-16 -16 -36.5 -30t-44 -25t-49.5 -18t-52 -7q-63 0 -100 38.5t-37 115.5q0 81 21 147t57.5 112.5t86 71.5t107.5 25q40 0 72 -11.5t57 -27.5l9 29h65zM307 714q-5 -33 8 -54t45 -21q29 0 50 21t27 54h57
q-10 -58 -47.5 -94.5t-94.5 -36.5q-59 0 -84.5 36.5t-15.5 94.5h55z" />
    <glyph glyph-name="gcaron" unicode="&#x1e7;" 
d="M422 403q-22 14 -49 24.5t-61 10.5q-42 0 -77.5 -22.5t-61 -61.5t-39 -90t-13.5 -109q0 -50 21 -75.5t61 -25.5q19 0 40 7t43.5 20.5t45 32t42.5 41.5zM418 -24q-11 -53 -33 -91t-55.5 -62t-80 -35t-106.5 -11q-37 0 -71 4t-66 12l11 60q31 -7 63.5 -11t66.5 -4
q83 0 131 31.5t64 110.5q5 26 9.5 45.5t10.5 43.5l-1 1q-16 -16 -36.5 -30t-44 -25t-49.5 -18t-52 -7q-63 0 -100 38.5t-37 115.5q0 81 21 147t57.5 112.5t86 71.5t107.5 25q40 0 72 -11.5t57 -27.5l9 29h65zM270 736l82 -90l110 88l29 -38l-150 -127l-109 127z" />
    <glyph glyph-name="gdotaccent" unicode="&#x121;" 
d="M422 403q-22 14 -49 24.5t-61 10.5q-42 0 -77.5 -22.5t-61 -61.5t-39 -90t-13.5 -109q0 -50 21 -75.5t61 -25.5q19 0 40 7t43.5 20.5t45 32t42.5 41.5zM418 -24q-11 -53 -33 -91t-55.5 -62t-80 -35t-106.5 -11q-37 0 -71 4t-66 12l11 60q31 -7 63.5 -11t66.5 -4
q83 0 131 31.5t64 110.5q5 26 9.5 45.5t10.5 43.5l-1 1q-16 -16 -36.5 -30t-44 -25t-49.5 -18t-52 -7q-63 0 -100 38.5t-37 115.5q0 81 21 147t57.5 112.5t86 71.5t107.5 25q40 0 72 -11.5t57 -27.5l9 29h65zM407 672q0 -6 -0.5 -11t-1.5 -11q-4 -25 -16 -35t-40 -10
q-24 0 -35 7.5t-11 24.5q0 9 2 21q4 25 16 35.5t41 10.5q24 0 34.5 -8t10.5 -24z" />
    <glyph glyph-name="gcommaaccent" unicode="&#x123;" 
d="M422 403q-22 14 -49 24.5t-61 10.5q-42 0 -77.5 -22.5t-61 -61.5t-39 -90t-13.5 -109q0 -50 21 -75.5t61 -25.5q19 0 40 7t43.5 20.5t45 32t42.5 41.5zM418 -24q-11 -53 -33 -91t-55.5 -62t-80 -35t-106.5 -11q-37 0 -71 4t-66 12l11 60q31 -7 63.5 -11t66.5 -4
q83 0 131 31.5t64 110.5q5 26 9.5 45.5t10.5 43.5l-1 1q-16 -16 -36.5 -30t-44 -25t-49.5 -18t-52 -7q-63 0 -100 38.5t-37 115.5q0 81 21 147t57.5 112.5t86 71.5t107.5 25q40 0 72 -11.5t57 -27.5l9 29h65zM503 694q-11 -5 -28 -12t-34.5 -14.5t-32.5 -15t-24 -12.5
q-1 -28 -12.5 -41.5t-38.5 -13.5q-21 0 -29.5 7.5t-8.5 22.5v8t2 10q2 13 8.5 22t18.5 16t32 14.5t51 16.5q8 3 19.5 7t23.5 7.5t23.5 7t20.5 6.5z" />
    <glyph glyph-name="h" unicode="h" 
d="M176 738h77l-34 -176q-3 -16 -6.5 -34t-8 -36.5t-8.5 -36.5t-8 -34l1 -1q17 16 38 30.5t44.5 25.5t49 17.5t53.5 6.5q62 0 92 -29.5t30 -86.5q0 -14 -2 -28.5t-5 -29.5l-63 -326h-79l62 321q2 11 4 22.5t2 24.5q0 35 -16 51.5t-52 16.5q-40 0 -83.5 -26t-87.5 -75
l-66 -335h-77z" />
    <glyph glyph-name="hbar" unicode="&#x127;" 
d="M147 589h-65l11 59h64l19 90h77l-17 -90h125l-12 -59h-125l-5 -29l-6.5 -32.5t-8 -36t-8.5 -36.5t-8 -34l1 -1q17 16 38 30.5t44.5 25.5t49 17.5t53.5 6.5q62 0 92 -29.5t30 -86.5q0 -14 -2 -28.5t-5 -29.5l-63 -326h-79l62 321q2 11 4 22.5t2 24.5q0 35 -16 51.5
t-52 16.5q-40 0 -83.5 -26t-87.5 -75l-66 -335h-77z" />
    <glyph glyph-name="hcircumflex" unicode="&#x125;" 
d="M176 738h77l-34 -176q-3 -16 -6.5 -34t-8 -36.5t-8.5 -36.5t-8 -34l1 -1q17 16 38 30.5t44.5 25.5t49 17.5t53.5 6.5q62 0 92 -29.5t30 -86.5q0 -14 -2 -28.5t-5 -29.5l-63 -326h-79l62 321q2 11 4 22.5t2 24.5q0 35 -16 51.5t-52 16.5q-40 0 -83.5 -26t-87.5 -75
l-66 -335h-77zM406 925l119 -84l-31 -45l-98 61l-119 -61l-21 45z" />
    <glyph glyph-name="hcaron" unicode="&#x21f;" 
d="M176 738h77l-34 -176q-3 -16 -6.5 -34t-8 -36.5t-8.5 -36.5t-8 -34l1 -1q17 16 38 30.5t44.5 25.5t49 17.5t53.5 6.5q62 0 92 -29.5t30 -86.5q0 -14 -2 -28.5t-5 -29.5l-63 -326h-79l62 321q2 11 4 22.5t2 24.5q0 35 -16 51.5t-52 16.5q-40 0 -83.5 -26t-87.5 -75
l-66 -335h-77zM281 896l98 -62l119 62l21 -46l-150 -84l-119 84z" />
    <glyph glyph-name="i" unicode="i" 
d="M28 60h200l72 370h-195l12 60h273l-83 -430h150l-12 -60h-428zM439 675q0 -5 -0.5 -11t-2.5 -11q-3 -14 -7.5 -24t-12 -16t-18 -8.5t-26.5 -2.5q-26 0 -38 7.5t-12 22.5q0 7 0.5 12.5t2.5 11.5q3 14 7 23.5t11.5 15.5t18.5 8.5t26 2.5q26 0 38.5 -7.5t12.5 -23.5z" />
    <glyph glyph-name="iogonek" unicode="&#x12f;" 
d="M28 60h200l72 370h-195l12 60h273l-83 -430h150l-12 -60h-153q-26 -16 -50 -32.5t-41 -33.5t-28 -34.5t-11 -35.5q0 -17 11 -25t32 -8q18 0 33.5 3.5t29.5 8.5l2 -50q-19 -7 -41 -11t-46 -4q-45 0 -67.5 19t-22.5 54q0 23 11.5 44t30 40t41 35.5t46.5 29.5h-205zM439 675
q0 -5 -0.5 -11t-2.5 -11q-3 -14 -7.5 -24t-12 -16t-18 -8.5t-26.5 -2.5q-26 0 -38 7.5t-12 22.5q0 7 0.5 12.5t2.5 11.5q3 14 7 23.5t11.5 15.5t18.5 8.5t26 2.5q26 0 38.5 -7.5t12.5 -23.5z" />
    <glyph glyph-name="dotlessi" unicode="&#x131;" 
d="M28 60h200l72 370h-195l12 60h273l-83 -430h150l-12 -60h-428z" />
    <glyph glyph-name="i.dotaccent" 
d="M28 60h200l72 370h-195l12 60h273l-83 -430h150l-12 -60h-428zM439 675q0 -5 -0.5 -11t-2.5 -11q-3 -14 -7.5 -24t-12 -16t-18 -8.5t-26.5 -2.5q-26 0 -38 7.5t-12 22.5q0 7 0.5 12.5t2.5 11.5q3 14 7 23.5t11.5 15.5t18.5 8.5t26 2.5q26 0 38.5 -7.5t12.5 -23.5z" />
    <glyph glyph-name="igrave" unicode="&#xec;" 
d="M307 748l97 -144l-40 -33l-109 136zM28 60h200l72 370h-195l12 60h273l-83 -430h150l-12 -60h-428z" />
    <glyph glyph-name="iacute" unicode="&#xed;" 
d="M436 742l44 -48l-141 -122l-33 36zM28 60h200l72 370h-195l12 60h273l-83 -430h150l-12 -60h-428z" />
    <glyph glyph-name="icircumflex" unicode="&#xee;" 
d="M28 60h200l72 370h-195l12 60h273l-83 -430h150l-12 -60h-428zM386 741l108 -127l-38 -40l-82 90l-109 -88l-30 39z" />
    <glyph glyph-name="idieresis" unicode="&#xef;" 
d="M327 673q0 -9 -3 -22q-5 -25 -17.5 -35.5t-38.5 -10.5q-45 0 -45 30q0 8 3 22q5 25 18 36t39 11q44 0 44 -31zM521 673q0 -9 -3 -22q-4 -25 -17 -35.5t-39 -10.5q-44 0 -44 30q0 8 2 22q5 25 18 36t40 11q43 0 43 -31zM28 60h200l72 370h-195l12 60h273l-83 -430h150
l-12 -60h-428z" />
    <glyph glyph-name="itilde" unicode="&#x129;" 
d="M214 626q10 17 21.5 32t25 25t29 16t32.5 6q19 0 33 -8t26 -18t23 -18t23 -8q16 0 31.5 12.5t29.5 36.5l37 -28q-10 -18 -22 -32.5t-25.5 -25t-28.5 -16t-32 -5.5q-19 0 -33 7.5t-26 17.5t-23 18.5t-23 8.5q-16 0 -31.5 -13t-29.5 -36zM28 60h200l72 370h-195l12 60h273
l-83 -430h150l-12 -60h-428z" />
    <glyph glyph-name="ibreve" unicode="&#x12d;" 
d="M315 714q-5 -33 8 -54t45 -21q29 0 50 21t27 54h57q-10 -58 -47.5 -94.5t-94.5 -36.5q-59 0 -84.5 36.5t-15.5 94.5h55zM28 60h200l72 370h-195l12 60h273l-83 -430h150l-12 -60h-428z" />
    <glyph glyph-name="imacron" unicode="&#x12b;" 
d="M247 680h258l-11 -59h-258zM28 60h200l72 370h-195l12 60h273l-83 -430h150l-12 -60h-428z" />
    <glyph glyph-name="icaron" unicode="&#x1d0;" 
d="M285 736l82 -90l110 88l29 -38l-150 -127l-109 127zM28 60h200l72 370h-195l12 60h273l-83 -430h150l-12 -60h-428z" />
    <glyph glyph-name="ij" unicode="&#x133;" 
d="M150 490h78l-95 -490h-78zM495 490l-104 -535q-8 -45 -24.5 -78.5t-43.5 -55.5t-65.5 -33t-92.5 -11q-27 0 -54.5 3t-52.5 7l14 59q21 -4 45.5 -6t50.5 -2q67 0 100 30.5t45 89.5l104 532h78zM279 675q0 -5 -0.5 -11t-1.5 -11q-4 -14 -8.5 -24t-11.5 -16t-18 -8.5
t-26 -2.5q-26 0 -38.5 7.5t-12.5 22.5q0 7 0.5 12.5t2.5 11.5q3 14 7.5 23.5t12 15.5t18.5 8.5t26 2.5q26 0 38 -7.5t12 -23.5zM547 675q0 -5 -0.5 -11t-2.5 -11q-4 -14 -8 -24t-11.5 -16t-18.5 -8.5t-26 -2.5q-26 0 -38 7.5t-12 22.5q0 7 0.5 12.5t1.5 11.5q3 14 7.5 23.5
t12 15.5t18.5 8.5t26 2.5q26 0 38.5 -7.5t12.5 -23.5z" />
    <glyph glyph-name="j" unicode="j" 
d="M125 430l11 60h319l-103 -532q-9 -46 -27 -80.5t-47 -57t-72 -33.5t-103 -11q-35 0 -68 3.5t-60 8.5l13 60q23 -5 53 -8t62 -3q43 0 73 8.5t50 24.5t31 39.5t18 55.5l90 465h-240zM504 675q0 -5 -0.5 -11t-1.5 -11q-4 -14 -8.5 -24t-11.5 -16t-18 -8.5t-27 -2.5
q-25 0 -37 7.5t-12 22.5q0 7 0.5 12.5t1.5 11.5q3 14 7.5 23.5t12 15.5t18.5 8.5t26 2.5q26 0 38 -7.5t12 -23.5z" />
    <glyph glyph-name="dotlessj" unicode="&#x237;" 
d="M125 430l11 60h319l-103 -532q-9 -46 -27 -80.5t-47 -57t-72 -33.5t-103 -11q-35 0 -68 3.5t-60 8.5l13 60q23 -5 53 -8t62 -3q43 0 73 8.5t50 24.5t31 39.5t18 55.5l90 465h-240z" />
    <glyph glyph-name="jcircumflex" unicode="&#x135;" 
d="M125 430l11 60h319l-103 -532q-9 -46 -27 -80.5t-47 -57t-72 -33.5t-103 -11q-35 0 -68 3.5t-60 8.5l13 60q23 -5 53 -8t62 -3q43 0 73 8.5t50 24.5t31 39.5t18 55.5l90 465h-240zM441 741l108 -127l-38 -40l-82 90l-109 -88l-30 39z" />
    <glyph glyph-name="k" unicode="k" 
d="M183 738h78l-89 -456l278 208h102l-298 -224l212 -266h-94l-204 258l-50 -258h-78z" />
    <glyph glyph-name="kcaron" unicode="&#x1e9;" 
d="M183 738h78l-89 -456l278 208h102l-298 -224l212 -266h-94l-204 258l-50 -258h-78zM287 896l98 -62l119 62l21 -46l-150 -84l-119 84z" />
    <glyph glyph-name="kcommaaccent" unicode="&#x137;" 
d="M183 738h78l-89 -456l278 208h102l-298 -224l212 -266h-94l-204 258l-50 -258h-78zM54 -183q11 5 28 12t34.5 15t32.5 15t24 12q1 29 12.5 42t38.5 13q21 0 29.5 -7.5t8.5 -22.5v-7.5t-2 -10.5q-2 -14 -8.5 -22.5t-18.5 -16t-32 -14.5t-51 -16q-9 -3 -20.5 -6.5
t-23.5 -7.5t-23.5 -7.5t-19.5 -5.5z" />
    <glyph glyph-name="kgreenlandic" unicode="&#x138;" 
d="M134 490h79l-43 -223l280 223h102l-301 -237l215 -253h-94l-207 243l-47 -243h-78z" />
    <glyph glyph-name="l" unicode="l" 
d="M451 60l-11 -60h-259l131 678h-170l12 60h248l-131 -678h180z" />
    <glyph glyph-name="lslash" unicode="&#x142;" 
d="M451 60l-11 -60h-260l73 380l-133 -58l-15 53l161 71l45 232h-169l12 60h247l-49 -256l135 61l16 -53l-165 -73l-68 -357h181z" />
    <glyph glyph-name="lacute" unicode="&#x13a;" 
d="M451 60l-11 -60h-259l131 678h-170l12 60h248l-131 -678h180zM487 912l23 -57l-173 -72l-18 44z" />
    <glyph glyph-name="lcaron" unicode="&#x13e;" 
d="M554 780l66 -17l-108 -182l-51 11zM451 60l-11 -60h-262l131 678h-167l12 60h245l-131 -678h183z" />
    <glyph glyph-name="ldot" unicode="&#x140;" 
d="M419 60l-13 -60h-249l131 678h-149l11 60h228l-131 -678h172zM548 322q0 -6 -1 -12l-2 -12q-3 -16 -7.5 -26.5t-12.5 -17t-19.5 -9t-28.5 -2.5q-28 0 -39.5 8.5t-11.5 27.5q0 7 1 12.5t2 12.5q3 16 8 26.5t12.5 16.5t19 8.5t28.5 2.5q28 0 39.5 -8t11.5 -28z" />
    <glyph glyph-name="lcommaaccent" unicode="&#x13c;" 
d="M451 60l-11 -60h-259l131 678h-170l12 60h248l-131 -678h180zM45 -183q11 5 28 12t34.5 15t32.5 15t24 12q1 29 12.5 42t38.5 13q21 0 29.5 -7.5t8.5 -22.5v-7.5t-2 -10.5q-2 -14 -8.5 -22.5t-18.5 -16t-32 -14.5t-51 -16q-9 -3 -20.5 -6.5t-23.5 -7.5t-23.5 -7.5
t-19.5 -5.5z" />
    <glyph glyph-name="m" unicode="m" 
d="M88 490h61l-7 -61q24 29 52.5 50t64.5 21q34 0 53 -20t23 -54q24 30 55 52t68 22q39 0 60.5 -23t21.5 -66q0 -11 -1 -21.5t-4 -25.5l-70 -364h-73l69 356q2 13 3 21.5t1 17.5q0 19 -7 30t-23 11q-23 0 -49 -25.5t-55 -67.5l-66 -343h-72l68 356q2 13 3 22t1 17
q0 19 -7 30t-23 11q-23 0 -49.5 -26t-54.5 -68l-66 -342h-72z" />
    <glyph glyph-name="n" unicode="n" 
d="M127 490h65l-8 -74q17 17 39 32t46 26.5t50.5 18.5t54.5 7q62 0 92 -29.5t30 -86.5q0 -14 -2 -28.5t-5 -29.5l-63 -326h-79l62 321q2 11 4 22.5t2 24.5q0 35 -16 51.5t-52 16.5q-40 0 -83.5 -26t-87.5 -75l-66 -335h-77z" />
    <glyph glyph-name="eng" unicode="&#x14b;" 
d="M127 490h65l-8 -74q17 17 39 32t46 26.5t50.5 18.5t54.5 7q62 0 92 -29.5t30 -86.5q0 -14 -2 -28.5t-5 -29.5l-75 -382q-17 -88 -62.5 -127.5t-123.5 -39.5q-14 0 -30 1t-31 4l12 60q12 -2 23 -3t22 -1q46 0 73 24t39 84l73 375q2 11 4 22.5t2 24.5q0 35 -16 51.5
t-52 16.5q-40 0 -83.5 -26t-87.5 -75l-66 -335h-77z" />
    <glyph glyph-name="ngrave" unicode="&#x1f9;" 
d="M127 490h65l-8 -74q17 17 39 32t46 26.5t50.5 18.5t54.5 7q62 0 92 -29.5t30 -86.5q0 -14 -2 -28.5t-5 -29.5l-63 -326h-79l62 321q2 11 4 22.5t2 24.5q0 35 -16 51.5t-52 16.5q-40 0 -83.5 -26t-87.5 -75l-66 -335h-77zM285 748l97 -144l-40 -33l-109 136z" />
    <glyph glyph-name="nacute" unicode="&#x144;" 
d="M127 490h65l-8 -74q17 17 39 32t46 26.5t50.5 18.5t54.5 7q62 0 92 -29.5t30 -86.5q0 -14 -2 -28.5t-5 -29.5l-63 -326h-79l62 321q2 11 4 22.5t2 24.5q0 35 -16 51.5t-52 16.5q-40 0 -83.5 -26t-87.5 -75l-66 -335h-77zM432 742l44 -48l-141 -122l-33 36z" />
    <glyph glyph-name="ntilde" unicode="&#xf1;" 
d="M127 490h65l-8 -74q17 17 39 32t46 26.5t50.5 18.5t54.5 7q62 0 92 -29.5t30 -86.5q0 -14 -2 -28.5t-5 -29.5l-63 -326h-79l62 321q2 11 4 22.5t2 24.5q0 35 -16 51.5t-52 16.5q-40 0 -83.5 -26t-87.5 -75l-66 -335h-77zM190 626q10 17 21.5 32t25 25t29 16t32.5 6
q19 0 33 -8t26 -18t23 -18t23 -8q16 0 31.5 12.5t29.5 36.5l37 -28q-10 -18 -22 -32.5t-25.5 -25t-28.5 -16t-32 -5.5q-19 0 -33 7.5t-26 17.5t-23 18.5t-23 8.5q-16 0 -31.5 -13t-29.5 -36z" />
    <glyph glyph-name="ncaron" unicode="&#x148;" 
d="M127 490h65l-8 -74q17 17 39 32t46 26.5t50.5 18.5t54.5 7q62 0 92 -29.5t30 -86.5q0 -14 -2 -28.5t-5 -29.5l-63 -326h-79l62 321q2 11 4 22.5t2 24.5q0 35 -16 51.5t-52 16.5q-40 0 -83.5 -26t-87.5 -75l-66 -335h-77zM261 736l82 -90l110 88l29 -38l-150 -127
l-109 127z" />
    <glyph glyph-name="napostrophe" unicode="&#x149;" 
d="M58 562q18 23 36.5 50t31.5 49q-6 3 -9.5 8.5t-3.5 15.5q0 4 0.5 9t1.5 10q3 12 6.5 19.5t9.5 12t14.5 6.5t21.5 2q21 0 29.5 -6.5t8.5 -20.5v-7.5t-1 -10.5q-3 -14 -7 -23.5t-13 -21.5q-8 -11 -19.5 -25t-24.5 -29t-26.5 -30t-27.5 -28zM138 490h65l-8 -74q18 17 39 32
t45 26.5t50.5 18.5t54.5 7q59 0 88 -29.5t29 -86.5q0 -14 -2 -28.5t-5 -29.5l-63 -326h-78l62 321q2 11 3.5 22.5t1.5 24.5q0 35 -16 51.5t-51 16.5q-40 0 -81 -23.5t-84 -69.5l-66 -343h-79z" />
    <glyph glyph-name="ncommaaccent" unicode="&#x146;" 
d="M127 490h65l-8 -74q17 17 39 32t46 26.5t50.5 18.5t54.5 7q62 0 92 -29.5t30 -86.5q0 -14 -2 -28.5t-5 -29.5l-63 -326h-79l62 321q2 11 4 22.5t2 24.5q0 35 -16 51.5t-52 16.5q-40 0 -83.5 -26t-87.5 -75l-66 -335h-77zM56 -183q11 5 28 12t34.5 15t32.5 15t24 12
q1 29 12.5 42t38.5 13q21 0 29.5 -7.5t8.5 -22.5v-7.5t-2 -10.5q-2 -14 -8.5 -22.5t-18.5 -16t-32 -14.5t-51 -16q-9 -3 -20.5 -6.5t-23.5 -7.5t-23.5 -7.5t-19.5 -5.5z" />
    <glyph glyph-name="o" unicode="o" 
d="M503 340q0 -21 -2.5 -43.5t-7.5 -50.5q-13 -71 -36.5 -120.5t-57 -80.5t-76.5 -45t-94 -14q-43 0 -76.5 9t-56.5 28.5t-35.5 50.5t-12.5 77q0 19 2.5 42t7.5 51q13 72 36.5 121t57.5 80t77 45t95 14q42 0 75 -8.5t56 -28t35.5 -51t12.5 -76.5zM424 335q0 61 -28 84
t-79 23q-34 0 -62 -9t-51 -31.5t-39.5 -60.5t-28.5 -96q-5 -25 -7 -48t-2 -42q0 -61 28.5 -84t80.5 -23q33 0 61 8.5t50.5 31.5t39 61t28.5 96q5 25 7 48.5t2 41.5z" />
    <glyph glyph-name="oe" unicode="&#x153;" 
d="M248 366q0 43 -14.5 59.5t-37.5 16.5q-17 0 -32.5 -8t-30 -28.5t-28 -59t-25.5 -100.5q-7 -37 -10.5 -67t-3.5 -55q0 -42 13 -59t37 -17q17 0 32.5 8t30.5 29t28.5 59.5t25.5 99.5q7 37 11 67t4 55zM476 10q-30 -9 -60.5 -14.5t-62.5 -5.5q-29 0 -49.5 5.5t-34.5 16
t-22 25t-12 31.5q-21 -36 -51.5 -59t-77.5 -23q-52 0 -82.5 30t-29.5 103q0 26 4 57.5t11 69.5q14 76 33 126.5t42.5 79.5t52.5 40.5t63 11.5q26 0 44 -7t30 -19t18.5 -28t9.5 -33q10 18 23.5 33.5t30 27t38.5 18.5t49 7q47 0 77.5 -27.5t30.5 -83.5q0 -35 -12.5 -64
t-42 -51t-77.5 -34.5t-119 -12.5q-4 -20 -7 -45t-3 -47q0 -46 17 -66t61 -20q27 0 52 4.5t51 12.5zM308 285q51 0 84.5 8t53 21t27.5 31t8 39q0 29 -14.5 43.5t-39.5 14.5q-19 0 -36.5 -10t-32.5 -29.5t-27.5 -48.5t-22.5 -69z" />
    <glyph glyph-name="oslash" unicode="&#xf8;" 
d="M88 31q-16 17 -28 45.5t-12 74.5q0 19 2.5 42t7.5 51q13 72 36.5 121t57.5 80t77 45t95 14q30 0 54 -4.5t40 -13.5l59 82l45 -28l-59 -81q17 -18 28.5 -47t11.5 -72q0 -20 -2.5 -43t-7.5 -51q-13 -71 -36.5 -120.5t-57 -80.5t-76.5 -45t-94 -14q-29 0 -53.5 4.5
t-42.5 13.5l-66 -90l-44 28zM170 57q14 -7 30.5 -9.5t35.5 -2.5q33 0 61 9t50.5 32t40 62t29.5 97q5 25 7 48.5t2 41.5t-2 32t-8 27zM381 433q-14 7 -30 10t-35 3q-34 0 -62 -10t-50.5 -33t-40 -61.5t-29.5 -96.5q-5 -25 -7 -48t-2 -42q0 -17 2 -31t8 -27z" />
    <glyph glyph-name="ograve" unicode="&#xf2;" 
d="M503 340q0 -21 -2.5 -43.5t-7.5 -50.5q-13 -71 -36.5 -120.5t-57 -80.5t-76.5 -45t-94 -14q-43 0 -76.5 9t-56.5 28.5t-35.5 50.5t-12.5 77q0 19 2.5 42t7.5 51q13 72 36.5 121t57.5 80t77 45t95 14q42 0 75 -8.5t56 -28t35.5 -51t12.5 -76.5zM424 335q0 61 -28 84
t-79 23q-34 0 -62 -9t-51 -31.5t-39.5 -60.5t-28.5 -96q-5 -25 -7 -48t-2 -42q0 -61 28.5 -84t80.5 -23q33 0 61 8.5t50.5 31.5t39 61t28.5 96q5 25 7 48.5t2 41.5zM292 748l97 -144l-40 -33l-109 136z" />
    <glyph glyph-name="oacute" unicode="&#xf3;" 
d="M503 340q0 -21 -2.5 -43.5t-7.5 -50.5q-13 -71 -36.5 -120.5t-57 -80.5t-76.5 -45t-94 -14q-43 0 -76.5 9t-56.5 28.5t-35.5 50.5t-12.5 77q0 19 2.5 42t7.5 51q13 72 36.5 121t57.5 80t77 45t95 14q42 0 75 -8.5t56 -28t35.5 -51t12.5 -76.5zM424 335q0 61 -28 84
t-79 23q-34 0 -62 -9t-51 -31.5t-39.5 -60.5t-28.5 -96q-5 -25 -7 -48t-2 -42q0 -61 28.5 -84t80.5 -23q33 0 61 8.5t50.5 31.5t39 61t28.5 96q5 25 7 48.5t2 41.5zM418 742l44 -48l-141 -122l-33 36z" />
    <glyph glyph-name="ocircumflex" unicode="&#xf4;" 
d="M503 340q0 -21 -2.5 -43.5t-7.5 -50.5q-13 -71 -36.5 -120.5t-57 -80.5t-76.5 -45t-94 -14q-43 0 -76.5 9t-56.5 28.5t-35.5 50.5t-12.5 77q0 19 2.5 42t7.5 51q13 72 36.5 121t57.5 80t77 45t95 14q42 0 75 -8.5t56 -28t35.5 -51t12.5 -76.5zM424 335q0 61 -28 84
t-79 23q-34 0 -62 -9t-51 -31.5t-39.5 -60.5t-28.5 -96q-5 -25 -7 -48t-2 -42q0 -61 28.5 -84t80.5 -23q33 0 61 8.5t50.5 31.5t39 61t28.5 96q5 25 7 48.5t2 41.5zM362 741l108 -127l-38 -40l-82 90l-109 -88l-30 39z" />
    <glyph glyph-name="odieresis" unicode="&#xf6;" 
d="M503 340q0 -21 -2.5 -43.5t-7.5 -50.5q-13 -71 -36.5 -120.5t-57 -80.5t-76.5 -45t-94 -14q-43 0 -76.5 9t-56.5 28.5t-35.5 50.5t-12.5 77q0 19 2.5 42t7.5 51q13 72 36.5 121t57.5 80t77 45t95 14q42 0 75 -8.5t56 -28t35.5 -51t12.5 -76.5zM424 335q0 61 -28 84
t-79 23q-34 0 -62 -9t-51 -31.5t-39.5 -60.5t-28.5 -96q-5 -25 -7 -48t-2 -42q0 -61 28.5 -84t80.5 -23q33 0 61 8.5t50.5 31.5t39 61t28.5 96q5 25 7 48.5t2 41.5zM305 673q0 -9 -3 -22q-5 -25 -17.5 -35.5t-38.5 -10.5q-45 0 -45 30q0 8 3 22q5 25 18 36t39 11
q44 0 44 -31zM499 673q0 -9 -3 -22q-4 -25 -17 -35.5t-39 -10.5q-44 0 -44 30q0 8 2 22q5 25 18 36t40 11q43 0 43 -31z" />
    <glyph glyph-name="otilde" unicode="&#xf5;" 
d="M503 340q0 -21 -2.5 -43.5t-7.5 -50.5q-13 -71 -36.5 -120.5t-57 -80.5t-76.5 -45t-94 -14q-43 0 -76.5 9t-56.5 28.5t-35.5 50.5t-12.5 77q0 19 2.5 42t7.5 51q13 72 36.5 121t57.5 80t77 45t95 14q42 0 75 -8.5t56 -28t35.5 -51t12.5 -76.5zM424 335q0 61 -28 84
t-79 23q-34 0 -62 -9t-51 -31.5t-39.5 -60.5t-28.5 -96q-5 -25 -7 -48t-2 -42q0 -61 28.5 -84t80.5 -23q33 0 61 8.5t50.5 31.5t39 61t28.5 96q5 25 7 48.5t2 41.5zM192 626q10 17 21.5 32t25 25t29 16t32.5 6q19 0 33 -8t26 -18t23 -18t23 -8q16 0 31.5 12.5t29.5 36.5
l37 -28q-10 -18 -22 -32.5t-25.5 -25t-28.5 -16t-32 -5.5q-19 0 -33 7.5t-26 17.5t-23 18.5t-23 8.5q-16 0 -31.5 -13t-29.5 -36z" />
    <glyph glyph-name="obreve" unicode="&#x14f;" 
d="M503 340q0 -21 -2.5 -43.5t-7.5 -50.5q-13 -71 -36.5 -120.5t-57 -80.5t-76.5 -45t-94 -14q-43 0 -76.5 9t-56.5 28.5t-35.5 50.5t-12.5 77q0 19 2.5 42t7.5 51q13 72 36.5 121t57.5 80t77 45t95 14q42 0 75 -8.5t56 -28t35.5 -51t12.5 -76.5zM424 335q0 61 -28 84
t-79 23q-34 0 -62 -9t-51 -31.5t-39.5 -60.5t-28.5 -96q-5 -25 -7 -48t-2 -42q0 -61 28.5 -84t80.5 -23q33 0 61 8.5t50.5 31.5t39 61t28.5 96q5 25 7 48.5t2 41.5zM295 714q-5 -33 8 -54t45 -21q29 0 50 21t27 54h57q-10 -58 -47.5 -94.5t-94.5 -36.5q-59 0 -84.5 36.5
t-15.5 94.5h55z" />
    <glyph glyph-name="omacron" unicode="&#x14d;" 
d="M503 340q0 -21 -2.5 -43.5t-7.5 -50.5q-13 -71 -36.5 -120.5t-57 -80.5t-76.5 -45t-94 -14q-43 0 -76.5 9t-56.5 28.5t-35.5 50.5t-12.5 77q0 19 2.5 42t7.5 51q13 72 36.5 121t57.5 80t77 45t95 14q42 0 75 -8.5t56 -28t35.5 -51t12.5 -76.5zM424 335q0 61 -28 84
t-79 23q-34 0 -62 -9t-51 -31.5t-39.5 -60.5t-28.5 -96q-5 -25 -7 -48t-2 -42q0 -61 28.5 -84t80.5 -23q33 0 61 8.5t50.5 31.5t39 61t28.5 96q5 25 7 48.5t2 41.5zM228 680h258l-11 -59h-258z" />
    <glyph glyph-name="ocaron" unicode="&#x1d2;" 
d="M503 340q0 -21 -2.5 -43.5t-7.5 -50.5q-13 -71 -36.5 -120.5t-57 -80.5t-76.5 -45t-94 -14q-43 0 -76.5 9t-56.5 28.5t-35.5 50.5t-12.5 77q0 19 2.5 42t7.5 51q13 72 36.5 121t57.5 80t77 45t95 14q42 0 75 -8.5t56 -28t35.5 -51t12.5 -76.5zM424 335q0 61 -28 84
t-79 23q-34 0 -62 -9t-51 -31.5t-39.5 -60.5t-28.5 -96q-5 -25 -7 -48t-2 -42q0 -61 28.5 -84t80.5 -23q33 0 61 8.5t50.5 31.5t39 61t28.5 96q5 25 7 48.5t2 41.5zM264 736l82 -90l110 88l29 -38l-150 -127l-109 127z" />
    <glyph glyph-name="odotaccent" unicode="&#x22f;" 
d="M503 340q0 -21 -2.5 -43.5t-7.5 -50.5q-13 -71 -36.5 -120.5t-57 -80.5t-76.5 -45t-94 -14q-43 0 -76.5 9t-56.5 28.5t-35.5 50.5t-12.5 77q0 19 2.5 42t7.5 51q13 72 36.5 121t57.5 80t77 45t95 14q42 0 75 -8.5t56 -28t35.5 -51t12.5 -76.5zM424 335q0 61 -28 84
t-79 23q-34 0 -62 -9t-51 -31.5t-39.5 -60.5t-28.5 -96q-5 -25 -7 -48t-2 -42q0 -61 28.5 -84t80.5 -23q33 0 61 8.5t50.5 31.5t39 61t28.5 96q5 25 7 48.5t2 41.5zM398 672q0 -6 -0.5 -11t-1.5 -11q-4 -25 -16 -35t-40 -10q-24 0 -35 7.5t-11 24.5q0 9 2 21q4 25 16 35.5
t41 10.5q24 0 34.5 -8t10.5 -24z" />
    <glyph glyph-name="ohungarumlaut" unicode="&#x151;" 
d="M503 340q0 -21 -2.5 -43.5t-7.5 -50.5q-13 -71 -36.5 -120.5t-57 -80.5t-76.5 -45t-94 -14q-43 0 -76.5 9t-56.5 28.5t-35.5 50.5t-12.5 77q0 19 2.5 42t7.5 51q13 72 36.5 121t57.5 80t77 45t95 14q42 0 75 -8.5t56 -28t35.5 -51t12.5 -76.5zM424 335q0 61 -28 84
t-79 23q-34 0 -62 -9t-51 -31.5t-39.5 -60.5t-28.5 -96q-5 -25 -7 -48t-2 -42q0 -61 28.5 -84t80.5 -23q33 0 61 8.5t50.5 31.5t39 61t28.5 96q5 25 7 48.5t2 41.5zM348 742l48 -39l-129 -128l-37 28zM508 734l45 -43l-139 -118l-34 31z" />
    <glyph glyph-name="oslashacute" unicode="&#x1ff;" 
d="M420 742l44 -48l-141 -122l-33 36zM88 31q-16 17 -28 45.5t-12 74.5q0 19 2.5 42t7.5 51q13 72 36.5 121t57.5 80t77 45t95 14q30 0 54 -4.5t40 -13.5l59 82l45 -28l-59 -81q17 -18 28.5 -47t11.5 -72q0 -20 -2.5 -43t-7.5 -51q-13 -71 -36.5 -120.5t-57 -80.5t-76.5 -45
t-94 -14q-29 0 -53.5 4.5t-42.5 13.5l-66 -90l-44 28zM170 57q14 -7 30.5 -9.5t35.5 -2.5q33 0 61 9t50.5 32t40 62t29.5 97q5 25 7 48.5t2 41.5t-2 32t-8 27zM381 433q-14 7 -30 10t-35 3q-34 0 -62 -10t-50.5 -33t-40 -61.5t-29.5 -96.5q-5 -25 -7 -48t-2 -42q0 -17 2 -31
t8 -27z" />
    <glyph glyph-name="p" unicode="p" 
d="M127 490h65l-8 -73q18 16 39.5 31.5t45.5 27t49.5 18t51.5 6.5q63 0 100.5 -38.5t37.5 -115.5q0 -81 -21 -146.5t-57.5 -112t-86.5 -71.5t-108 -25q-38 0 -69 10.5t-54 24.5l-1 -1q-3 -32 -8 -62.5t-10 -56.5l-24 -120h-77zM127 88q23 -14 50 -25t60 -11q43 0 78 23
t60.5 61.5t39.5 90t14 108.5q0 50 -21.5 75.5t-60.5 25.5q-20 0 -41 -7t-43 -20t-44.5 -32t-42.5 -42z" />
    <glyph glyph-name="thorn" unicode="&#xfe;" 
d="M176 738h77l-34 -176q-3 -16 -6.5 -34.5t-8 -36.5t-8.5 -36.5t-8 -33.5l1 -1q16 15 36.5 30t44 25.5t49 17.5t51.5 7q63 0 100.5 -39t37.5 -115q0 -81 -21 -147t-57.5 -112.5t-86.5 -71.5t-108 -25q-38 0 -68.5 10.5t-54.5 24.5l-1 -1q-3 -31 -7 -57.5t-9 -50.5l-26 -130
h-77zM127 87q23 -13 50 -24t60 -11q43 0 78 23t60.5 61.5t39.5 89.5t14 109q0 50 -21.5 75.5t-60.5 25.5q-20 0 -41 -7t-43 -20t-44.5 -32t-42.5 -42z" />
    <glyph glyph-name="q" unicode="q" 
d="M331 -72q3 16 7 34.5l8 37t8.5 36t8.5 33.5l-1 1q-16 -16 -37 -30t-44.5 -25t-49 -18t-51.5 -7q-63 0 -100 39t-37 115q0 82 21 147.5t57.5 112t86 71.5t107.5 25q40 0 72 -11.5t57 -26.5l9 28h65l-137 -704h-78zM423 403q-23 14 -50 24.5t-60 10.5q-42 0 -77.5 -22.5
t-61 -61.5t-39.5 -90t-14 -109q0 -50 21.5 -75.5t61.5 -25.5q19 0 40 7t43.5 20.5t45 32t42.5 41.5z" />
    <glyph glyph-name="r" unicode="r" 
d="M295 403q43 47 89 73.5t92 26.5q24 0 44 -4.5t39 -12.5l-18 -75q-19 11 -38.5 16.5t-45.5 5.5q-37 0 -79 -26t-92 -85l-51 -262h168l-11 -60h-383l12 60h136l72 370h-131l11 60h197z" />
    <glyph glyph-name="racute" unicode="&#x155;" 
d="M295 403q43 47 89 73.5t92 26.5q24 0 44 -4.5t39 -12.5l-18 -75q-19 11 -38.5 16.5t-45.5 5.5q-37 0 -79 -26t-92 -85l-51 -262h168l-11 -60h-383l12 60h136l72 370h-131l11 60h197zM429 742l44 -48l-141 -122l-33 36z" />
    <glyph glyph-name="rcaron" unicode="&#x159;" 
d="M295 403q43 47 89 73.5t92 26.5q24 0 44 -4.5t39 -12.5l-18 -75q-19 11 -38.5 16.5t-45.5 5.5q-37 0 -79 -26t-92 -85l-51 -262h168l-11 -60h-383l12 60h136l72 370h-131l11 60h197zM262 736l82 -90l110 88l29 -38l-150 -127l-109 127z" />
    <glyph glyph-name="rcommaaccent" unicode="&#x157;" 
d="M295 403q43 47 89 73.5t92 26.5q24 0 44 -4.5t39 -12.5l-18 -75q-19 11 -38.5 16.5t-45.5 5.5q-37 0 -79 -26t-92 -85l-51 -262h168l-11 -60h-383l12 60h136l72 370h-131l11 60h197zM11 -183q11 5 28 12t34.5 15t32.5 15t24 12q1 29 12.5 42t38.5 13q21 0 29.5 -7.5
t8.5 -22.5v-7.5t-2 -10.5q-2 -14 -8.5 -22.5t-18.5 -16t-32 -14.5t-51 -16q-9 -3 -20.5 -6.5t-23.5 -7.5t-23.5 -7.5t-19.5 -5.5z" />
    <glyph glyph-name="s" unicode="s" 
d="M55 71q36 -10 79.5 -16t85.5 -6q45 0 75 7t48.5 17.5t26 26t7.5 32.5q0 16 -5.5 27t-19.5 21t-39 20t-64 23q-40 12 -67.5 25t-44.5 28.5t-24.5 34t-7.5 44.5q0 30 12.5 56.5t39.5 46.5t70 31t103 11q44 0 82 -5.5t68 -13.5l-14 -58q-30 8 -66.5 13t-76.5 5t-67.5 -6
t-43.5 -16.5t-23 -24.5t-7 -30q0 -14 5 -24.5t18.5 -20t37 -19t59.5 -20.5q43 -14 72 -27.5t46 -29.5t24.5 -35.5t7.5 -45.5q0 -33 -12.5 -60.5t-41.5 -47.5t-74.5 -32t-110.5 -12q-45 0 -90 6t-81 16z" />
    <glyph glyph-name="scedilla" unicode="&#x15f;" 
d="M185 -9q-41 2 -77.5 7.5t-65.5 13.5l13 59q36 -10 79.5 -16t85.5 -6q45 0 75 7t48.5 17.5t26 26t7.5 32.5q0 16 -5.5 27t-19.5 21t-39 20t-64 23q-40 12 -67.5 25t-44.5 28.5t-24.5 34t-7.5 44.5q0 30 12.5 56.5t39.5 46.5t70 31t103 11q44 0 82 -5.5t68 -13.5l-14 -58
q-30 8 -66.5 13t-76.5 5t-67.5 -6t-43.5 -16.5t-23 -24.5t-7 -30q0 -14 5 -24.5t18.5 -20t37 -19t59.5 -20.5q43 -14 72 -27.5t46 -29.5t24.5 -35.5t7.5 -45.5q0 -66 -52 -106.5t-163 -44.5l-13 -45q43 -1 61.5 -19.5t18.5 -47.5q0 -21 -9.5 -39.5t-27 -32t-43 -21
t-57.5 -7.5q-17 0 -33.5 1.5t-31.5 5.5l11 43q14 -3 27.5 -4.5t30.5 -1.5q39 0 55 16t16 35q0 16 -13 24.5t-46 8.5h-24z" />
    <glyph glyph-name="germandbls" unicode="&#xdf;" 
d="M142 573q10 49 28.5 82.5t47 55t66.5 31.5t87 10q38 0 66.5 -8.5t47 -23.5t28 -35.5t9.5 -44.5q0 -25 -7.5 -45.5t-20.5 -39t-31 -35.5t-39 -35q-20 -17 -36 -31.5t-26.5 -27.5t-16.5 -26.5t-6 -29.5q0 -12 3 -22.5t11 -20.5t22 -20t35 -22q28 -17 47 -31.5t30.5 -29.5
t16 -32.5t4.5 -38.5q0 -36 -14 -66t-40.5 -51t-65.5 -33t-88 -12q-34 0 -63 4t-54 12l14 58q25 -8 50 -11.5t52 -3.5q65 0 98.5 27t33.5 66q0 16 -3.5 28t-13 22.5t-25.5 20.5t-40 23q-25 14 -42 27.5t-27 27.5t-14.5 29.5t-4.5 33.5q0 46 26.5 80.5t72.5 74.5
q21 19 36.5 34t26 28.5t16 27t5.5 30.5q0 27 -22 43.5t-64 16.5q-59 0 -92.5 -27.5t-45.5 -92.5l-121 -623q-19 -92 -64 -131.5t-112 -39.5q-23 0 -43 2t-39 7l13 59q29 -7 63 -7q42 0 67 26t37 89z" />
    <glyph glyph-name="sacute" unicode="&#x15b;" 
d="M58 71q36 -10 79.5 -16t85.5 -6q45 0 75 7t48.5 17.5t26 26t7.5 32.5q0 16 -5.5 27t-19.5 21t-39 20t-64 23q-40 12 -67.5 25t-44.5 28.5t-24.5 34t-7.5 44.5q0 30 12.5 56.5t39.5 46.5t70 31t103 11q44 0 82 -5.5t68 -13.5l-14 -58q-30 8 -66.5 13t-76.5 5t-67.5 -6
t-43.5 -16.5t-23 -24.5t-7 -30q0 -14 5 -24.5t18.5 -20t37 -19t59.5 -20.5q43 -14 72 -27.5t46 -29.5t24.5 -35.5t7.5 -45.5q0 -33 -12.5 -60.5t-41.5 -47.5t-74.5 -32t-110.5 -12q-45 0 -90 6t-81 16zM424 742l44 -48l-141 -122l-33 36z" />
    <glyph glyph-name="scircumflex" unicode="&#x15d;" 
d="M58 71q36 -10 79.5 -16t85.5 -6q45 0 75 7t48.5 17.5t26 26t7.5 32.5q0 16 -5.5 27t-19.5 21t-39 20t-64 23q-40 12 -67.5 25t-44.5 28.5t-24.5 34t-7.5 44.5q0 30 12.5 56.5t39.5 46.5t70 31t103 11q44 0 82 -5.5t68 -13.5l-14 -58q-30 8 -66.5 13t-76.5 5t-67.5 -6
t-43.5 -16.5t-23 -24.5t-7 -30q0 -14 5 -24.5t18.5 -20t37 -19t59.5 -20.5q43 -14 72 -27.5t46 -29.5t24.5 -35.5t7.5 -45.5q0 -33 -12.5 -60.5t-41.5 -47.5t-74.5 -32t-110.5 -12q-45 0 -90 6t-81 16zM372 741l108 -127l-38 -40l-82 90l-109 -88l-30 39z" />
    <glyph glyph-name="scaron" unicode="&#x161;" 
d="M58 71q36 -10 79.5 -16t85.5 -6q45 0 75 7t48.5 17.5t26 26t7.5 32.5q0 16 -5.5 27t-19.5 21t-39 20t-64 23q-40 12 -67.5 25t-44.5 28.5t-24.5 34t-7.5 44.5q0 30 12.5 56.5t39.5 46.5t70 31t103 11q44 0 82 -5.5t68 -13.5l-14 -58q-30 8 -66.5 13t-76.5 5t-67.5 -6
t-43.5 -16.5t-23 -24.5t-7 -30q0 -14 5 -24.5t18.5 -20t37 -19t59.5 -20.5q43 -14 72 -27.5t46 -29.5t24.5 -35.5t7.5 -45.5q0 -33 -12.5 -60.5t-41.5 -47.5t-74.5 -32t-110.5 -12q-45 0 -90 6t-81 16zM272 736l82 -90l110 88l29 -38l-150 -127l-109 127z" />
    <glyph glyph-name="scommaaccent" unicode="&#x219;" 
d="M58 71q36 -10 79.5 -16t85.5 -6q45 0 75 7t48.5 17.5t26 26t7.5 32.5q0 16 -5.5 27t-19.5 21t-39 20t-64 23q-40 12 -67.5 25t-44.5 28.5t-24.5 34t-7.5 44.5q0 30 12.5 56.5t39.5 46.5t70 31t103 11q44 0 82 -5.5t68 -13.5l-14 -58q-30 8 -66.5 13t-76.5 5t-67.5 -6
t-43.5 -16.5t-23 -24.5t-7 -30q0 -14 5 -24.5t18.5 -20t37 -19t59.5 -20.5q43 -14 72 -27.5t46 -29.5t24.5 -35.5t7.5 -45.5q0 -33 -12.5 -60.5t-41.5 -47.5t-74.5 -32t-110.5 -12q-45 0 -90 6t-81 16zM52 -183q11 5 28 12t34.5 15t32.5 15t24 12q1 29 12.5 42t38.5 13
q21 0 29.5 -7.5t8.5 -22.5v-7.5t-2 -10.5q-2 -14 -8.5 -22.5t-18.5 -16t-32 -14.5t-51 -16q-9 -3 -20.5 -6.5t-23.5 -7.5t-23.5 -7.5t-19.5 -5.5z" />
    <glyph glyph-name="t" unicode="t" 
d="M233 490l32 165l81 12l-35 -177h230l-12 -60h-230l-54 -277q-2 -12 -3.5 -20.5t-1.5 -16.5q0 -33 23.5 -48t75.5 -15q40 0 70 6.5t46 11.5v-58q-19 -6 -55 -13.5t-85 -7.5q-81 0 -117.5 27t-36.5 82q0 9 1.5 21.5t4.5 28.5l54 279h-140l12 60h140z" />
    <glyph glyph-name="tbar" unicode="&#x167;" 
d="M234 490l33 165l80 12l-34 -177h229l-12 -60h-229l-21 -107h216l-11 -59h-216l-23 -115q-2 -11 -3 -18.5t-1 -14.5q0 -33 23 -48t76 -15q39 0 69 6.5t47 11.5v-58q-20 -6 -56 -13.5t-84 -7.5q-81 0 -117.5 27t-36.5 82q0 9 1.5 21.5t4.5 27.5l22 114h-127l12 59h126
l21 107h-140l12 60h139z" />
    <glyph glyph-name="tcaron" unicode="&#x165;" 
d="M228 490l32 165l80 12l-34 -177h229l-11 -60h-230l-54 -277q-2 -12 -3.5 -20.5t-1.5 -16.5q0 -33 23.5 -48t75.5 -15q39 0 69.5 6.5t46.5 11.5v-58q-20 -6 -56 -13.5t-84 -7.5q-81 0 -117.5 27t-36.5 82q0 9 1.5 21.5t4.5 28.5l54 279h-135l12 60h135zM531 793l66 -23
l-110 -186l-46 16z" />
    <glyph glyph-name="tcommaaccent" unicode="&#x21b;" 
d="M233 490l32 165l81 12l-35 -177h230l-12 -60h-230l-54 -277q-2 -12 -3.5 -20.5t-1.5 -16.5q0 -33 23.5 -48t75.5 -15q40 0 70 6.5t46 11.5v-58q-19 -6 -55 -13.5t-85 -7.5q-81 0 -117.5 27t-36.5 82q0 9 1.5 21.5t4.5 28.5l54 279h-140l12 60h140zM89 -183q11 5 28 12
t34.5 15t32.5 15t24 12q1 29 12.5 42t38.5 13q21 0 29.5 -7.5t8.5 -22.5v-7.5t-2 -10.5q-2 -14 -8.5 -22.5t-18.5 -16t-32 -14.5t-51 -16q-9 -3 -20.5 -6.5t-23.5 -7.5t-23.5 -7.5t-19.5 -5.5z" />
    <glyph glyph-name="uni0163" unicode="&#x163;" 
d="M93 490h140l32 165l81 12l-35 -177h230l-12 -60h-230l-54 -277q-2 -12 -3.5 -20.5t-1.5 -16.5q0 -33 23.5 -48t75.5 -15q40 0 70 6.5t46 11.5v-58q-19 -6 -54.5 -13.5t-83.5 -7.5h-6l-15 -46q43 -1 62 -19.5t19 -47.5q0 -21 -9.5 -39.5t-27 -32t-43 -21t-57.5 -7.5
q-18 0 -34.5 1.5t-30.5 5.5l11 43q14 -3 27.5 -4.5t29.5 -1.5q40 0 55.5 16t15.5 35q0 16 -13 24.5t-46 8.5h-23l29 90q-48 8 -74 32t-26 72q0 9 1.5 21.5t4.5 28.5l54 279h-140z" />
    <glyph glyph-name="u" unicode="u" 
d="M366 74q-18 -17 -39 -32t-45 -26.5t-50.5 -18.5t-55.5 -7q-61 0 -91 29.5t-30 87.5q0 13 1.5 27.5t4.5 29.5l63 326h79l-62 -320q-2 -11 -4 -23t-2 -25q0 -35 16 -51.5t53 -16.5q39 0 82.5 26.5t88.5 74.5l65 335h78l-95 -490h-65z" />
    <glyph glyph-name="uogonek" unicode="&#x173;" 
d="M423 0q-26 -16 -49.5 -32.5t-41 -33.5t-28 -34.5t-10.5 -35.5q0 -17 11 -25t31 -8q18 0 34 3.5t30 8.5l2 -50q-20 -7 -42 -11t-45 -4q-45 0 -67.5 19t-22.5 54q0 23 11.5 44t30 40.5t42.5 36.5t49 31l9 72q-17 -17 -38.5 -32t-46 -27t-51 -19t-55.5 -7q-61 0 -91 29.5
t-30 87.5q0 13 1.5 27.5t4.5 29.5l63 326h79l-62 -320q-2 -11 -4 -23t-2 -25q0 -35 16 -51.5t53 -16.5q39 0 82.5 26.5t88.5 74.5l65 335h78z" />
    <glyph glyph-name="ugrave" unicode="&#xf9;" 
d="M366 74q-18 -17 -39 -32t-45 -26.5t-50.5 -18.5t-55.5 -7q-61 0 -91 29.5t-30 87.5q0 13 1.5 27.5t4.5 29.5l63 326h79l-62 -320q-2 -11 -4 -23t-2 -25q0 -35 16 -51.5t53 -16.5q39 0 82.5 26.5t88.5 74.5l65 335h78l-95 -490h-65zM283 748l97 -144l-40 -33l-109 136z
" />
    <glyph glyph-name="uacute" unicode="&#xfa;" 
d="M366 74q-18 -17 -39 -32t-45 -26.5t-50.5 -18.5t-55.5 -7q-61 0 -91 29.5t-30 87.5q0 13 1.5 27.5t4.5 29.5l63 326h79l-62 -320q-2 -11 -4 -23t-2 -25q0 -35 16 -51.5t53 -16.5q39 0 82.5 26.5t88.5 74.5l65 335h78l-95 -490h-65zM429 742l44 -48l-141 -122l-33 36z" />
    <glyph glyph-name="ucircumflex" unicode="&#xfb;" 
d="M366 74q-18 -17 -39 -32t-45 -26.5t-50.5 -18.5t-55.5 -7q-61 0 -91 29.5t-30 87.5q0 13 1.5 27.5t4.5 29.5l63 326h79l-62 -320q-2 -11 -4 -23t-2 -25q0 -35 16 -51.5t53 -16.5q39 0 82.5 26.5t88.5 74.5l65 335h78l-95 -490h-65zM362 741l108 -127l-38 -40l-82 90
l-109 -88l-30 39z" />
    <glyph glyph-name="udieresis" unicode="&#xfc;" 
d="M366 74q-18 -17 -39 -32t-45 -26.5t-50.5 -18.5t-55.5 -7q-61 0 -91 29.5t-30 87.5q0 13 1.5 27.5t4.5 29.5l63 326h79l-62 -320q-2 -11 -4 -23t-2 -25q0 -35 16 -51.5t53 -16.5q39 0 82.5 26.5t88.5 74.5l65 335h78l-95 -490h-65zM306 673q0 -9 -3 -22
q-5 -25 -17.5 -35.5t-38.5 -10.5q-45 0 -45 30q0 8 3 22q5 25 18 36t39 11q44 0 44 -31zM500 673q0 -9 -3 -22q-4 -25 -17 -35.5t-39 -10.5q-44 0 -44 30q0 8 2 22q5 25 18 36t40 11q43 0 43 -31z" />
    <glyph glyph-name="utilde" unicode="&#x169;" 
d="M366 74q-18 -17 -39 -32t-45 -26.5t-50.5 -18.5t-55.5 -7q-61 0 -91 29.5t-30 87.5q0 13 1.5 27.5t4.5 29.5l63 326h79l-62 -320q-2 -11 -4 -23t-2 -25q0 -35 16 -51.5t53 -16.5q39 0 82.5 26.5t88.5 74.5l65 335h78l-95 -490h-65zM192 626q10 17 21.5 32t25 25t29 16
t32.5 6q19 0 33 -8t26 -18t23 -18t23 -8q16 0 31.5 12.5t29.5 36.5l37 -28q-10 -18 -22 -32.5t-25.5 -25t-28.5 -16t-32 -5.5q-19 0 -33 7.5t-26 17.5t-23 18.5t-23 8.5q-16 0 -31.5 -13t-29.5 -36z" />
    <glyph glyph-name="ubreve" unicode="&#x16d;" 
d="M366 74q-18 -17 -39 -32t-45 -26.5t-50.5 -18.5t-55.5 -7q-61 0 -91 29.5t-30 87.5q0 13 1.5 27.5t4.5 29.5l63 326h79l-62 -320q-2 -11 -4 -23t-2 -25q0 -35 16 -51.5t53 -16.5q39 0 82.5 26.5t88.5 74.5l65 335h78l-95 -490h-65zM295 714q-5 -33 8 -54t45 -21
q29 0 50 21t27 54h57q-10 -58 -47.5 -94.5t-94.5 -36.5q-59 0 -84.5 36.5t-15.5 94.5h55z" />
    <glyph glyph-name="umacron" unicode="&#x16b;" 
d="M366 74q-18 -17 -39 -32t-45 -26.5t-50.5 -18.5t-55.5 -7q-61 0 -91 29.5t-30 87.5q0 13 1.5 27.5t4.5 29.5l63 326h79l-62 -320q-2 -11 -4 -23t-2 -25q0 -35 16 -51.5t53 -16.5q39 0 82.5 26.5t88.5 74.5l65 335h78l-95 -490h-65zM226 680h258l-11 -59h-258z" />
    <glyph glyph-name="ucaron" unicode="&#x1d4;" 
d="M366 74q-18 -17 -39 -32t-45 -26.5t-50.5 -18.5t-55.5 -7q-61 0 -91 29.5t-30 87.5q0 13 1.5 27.5t4.5 29.5l63 326h79l-62 -320q-2 -11 -4 -23t-2 -25q0 -35 16 -51.5t53 -16.5q39 0 82.5 26.5t88.5 74.5l65 335h78l-95 -490h-65zM263 736l82 -90l110 88l29 -38
l-150 -127l-109 127z" />
    <glyph glyph-name="uring" unicode="&#x16f;" 
d="M366 74q-18 -17 -39 -32t-45 -26.5t-50.5 -18.5t-55.5 -7q-61 0 -91 29.5t-30 87.5q0 13 1.5 27.5t4.5 29.5l63 326h79l-62 -320q-2 -11 -4 -23t-2 -25q0 -35 16 -51.5t53 -16.5q39 0 82.5 26.5t88.5 74.5l65 335h78l-95 -490h-65zM457 664q0 -24 -8 -43.5t-22.5 -34
t-34 -23t-41.5 -8.5q-44 0 -71 27t-27 71q0 23 8 43t22.5 34.5t34 22.5t41.5 8q44 0 71 -26.5t27 -70.5zM408 663q0 25 -13.5 40t-36.5 15q-25 0 -40.5 -17t-15.5 -47q0 -26 13 -40.5t37 -14.5q25 0 40.5 16.5t15.5 47.5z" />
    <glyph glyph-name="uhungarumlaut" unicode="&#x171;" 
d="M366 74q-18 -17 -39 -32t-45 -26.5t-50.5 -18.5t-55.5 -7q-61 0 -91 29.5t-30 87.5q0 13 1.5 27.5t4.5 29.5l63 326h79l-62 -320q-2 -11 -4 -23t-2 -25q0 -35 16 -51.5t53 -16.5q39 0 82.5 26.5t88.5 74.5l65 335h78l-95 -490h-65zM352 742l48 -39l-129 -128l-37 28z
M512 734l45 -43l-139 -118l-34 31z" />
    <glyph glyph-name="v" unicode="v" 
d="M157 490l52 -268q5 -24 8.5 -44t6.5 -39.5t6 -39.5t6 -44h1q12 24 23 44.5t21.5 40t22 39.5t24.5 43l158 268h80l-285 -490h-107l-95 490h78z" />
    <glyph glyph-name="w" unicode="w" 
d="M130 490l-4 -287q-1 -37 -2.5 -70.5t-4.5 -71.5h2q10 23 18 44t18 45l99 233h92l8 -233q0 -23 0.5 -42.5t0.5 -46.5h3q12 39 23.5 72.5t25.5 69.5l108 287h74l-189 -490h-102l-8 233q-1 21 -1.5 41t-0.5 44h-2q-9 -23 -17 -42.5t-17 -42.5l-99 -233h-101l1 490h75z" />
    <glyph glyph-name="wcircumflex" unicode="&#x175;" 
d="M130 490l-4 -287q-1 -37 -2.5 -70.5t-4.5 -71.5h2q10 23 18 44t18 45l99 233h92l8 -233q0 -23 0.5 -42.5t0.5 -46.5h3q12 39 23.5 72.5t25.5 69.5l108 287h74l-189 -490h-102l-8 233q-1 21 -1.5 41t-0.5 44h-2q-9 -23 -17 -42.5t-17 -42.5l-99 -233h-101l1 490h75z
M363 741l108 -127l-38 -40l-82 90l-109 -88l-30 39z" />
    <glyph glyph-name="x" unicode="x" 
d="M173 490l111 -195l2 -1q13 15 25.5 29t27.5 30l128 137h91l-232 -242l144 -248h-88l-118 207l-2 2q-13 -16 -26 -31t-28 -32l-131 -146h-91l235 253l-134 237h86z" />
    <glyph glyph-name="y" unicode="y" 
d="M160 490l52 -259q4 -23 7.5 -43.5t6.5 -40t5.5 -39.5t6.5 -43h1q12 24 23 44.5t21.5 40t21.5 39.5t24 42l153 259h84l-334 -561q-28 -46 -51.5 -75.5t-48.5 -46.5t-52.5 -23.5t-60.5 -6.5q-18 0 -36 2t-33 6l12 60q15 -3 30 -5t30 -2q18 0 35 4t33 14.5t32.5 29.5
t35.5 49l40 65h-22l-97 490h81z" />
    <glyph glyph-name="yacute" unicode="&#xfd;" 
d="M160 490l52 -259q4 -23 7.5 -43.5t6.5 -40t5.5 -39.5t6.5 -43h1q12 24 23 44.5t21.5 40t21.5 39.5t24 42l153 259h84l-334 -561q-28 -46 -51.5 -75.5t-48.5 -46.5t-52.5 -23.5t-60.5 -6.5q-18 0 -36 2t-33 6l12 60q15 -3 30 -5t30 -2q18 0 35 4t33 14.5t32.5 29.5
t35.5 49l40 65h-22l-97 490h81zM433 742l44 -48l-141 -122l-33 36z" />
    <glyph glyph-name="ycircumflex" unicode="&#x177;" 
d="M160 490l52 -259q4 -23 7.5 -43.5t6.5 -40t5.5 -39.5t6.5 -43h1q12 24 23 44.5t21.5 40t21.5 39.5t24 42l153 259h84l-334 -561q-28 -46 -51.5 -75.5t-48.5 -46.5t-52.5 -23.5t-60.5 -6.5q-18 0 -36 2t-33 6l12 60q15 -3 30 -5t30 -2q18 0 35 4t33 14.5t32.5 29.5
t35.5 49l40 65h-22l-97 490h81zM363 741l108 -127l-38 -40l-82 90l-109 -88l-30 39z" />
    <glyph glyph-name="ydieresis" unicode="&#xff;" 
d="M160 490l52 -259q4 -23 7.5 -43.5t6.5 -40t5.5 -39.5t6.5 -43h1q12 24 23 44.5t21.5 40t21.5 39.5t24 42l153 259h84l-334 -561q-28 -46 -51.5 -75.5t-48.5 -46.5t-52.5 -23.5t-60.5 -6.5q-18 0 -36 2t-33 6l12 60q15 -3 30 -5t30 -2q18 0 35 4t33 14.5t32.5 29.5
t35.5 49l40 65h-22l-97 490h81zM303 673q0 -9 -3 -22q-5 -25 -17.5 -35.5t-38.5 -10.5q-45 0 -45 30q0 8 3 22q5 25 18 36t39 11q44 0 44 -31zM497 673q0 -9 -3 -22q-4 -25 -17 -35.5t-39 -10.5q-44 0 -44 30q0 8 2 22q5 25 18 36t40 11q43 0 43 -31z" />
    <glyph glyph-name="ymacron" unicode="&#x233;" 
d="M160 490l52 -259q4 -23 7.5 -43.5t6.5 -40t5.5 -39.5t6.5 -43h1q12 24 23 44.5t21.5 40t21.5 39.5t24 42l153 259h84l-334 -561q-28 -46 -51.5 -75.5t-48.5 -46.5t-52.5 -23.5t-60.5 -6.5q-18 0 -36 2t-33 6l12 60q15 -3 30 -5t30 -2q18 0 35 4t33 14.5t32.5 29.5
t35.5 49l40 65h-22l-97 490h81zM226 680h258l-11 -59h-258z" />
    <glyph glyph-name="z" unicode="z" 
d="M28 51l373 377h-281l12 62h391l-10 -48l-375 -380h309l-11 -62h-418z" />
    <glyph glyph-name="zacute" unicode="&#x17a;" 
d="M28 51l373 377h-281l12 62h391l-10 -48l-375 -380h309l-11 -62h-418zM435 742l44 -48l-141 -122l-33 36z" />
    <glyph glyph-name="zcaron" unicode="&#x17e;" 
d="M28 51l373 377h-281l12 62h391l-10 -48l-375 -380h309l-11 -62h-418zM275 736l82 -90l110 88l29 -38l-150 -127l-109 127z" />
    <glyph glyph-name="zdotaccent" unicode="&#x17c;" 
d="M28 51l373 377h-281l12 62h391l-10 -48l-375 -380h309l-11 -62h-418zM418 672q0 -6 -0.5 -11t-1.5 -11q-4 -25 -16 -35t-40 -10q-24 0 -35 7.5t-11 24.5q0 9 2 21q4 25 16 35.5t41 10.5q24 0 34.5 -8t10.5 -24z" />
    <glyph glyph-name="A" unicode="A" 
d="M305 695h115l68 -695h-80l-20 192h-246l-94 -192h-81zM387 255l-17 189q-5 54 -9.5 100t-8.5 98h-1q-12 -26 -22.5 -50t-21.5 -47.5t-23 -48t-26 -52.5l-90 -189h219z" />
    <glyph glyph-name="Aogonek" unicode="&#x104;" 
d="M305 695h115l68 -695q-26 -17 -49.5 -33.5t-40.5 -33t-27.5 -34t-10.5 -34.5q0 -32 41 -32q18 0 34 3t30 8l2 -52q-20 -6 -41.5 -10t-45.5 -4q-45 0 -68 18.5t-23 54.5q0 23 11 43.5t29 40t41.5 36t48.5 29.5h-11l-20 192h-246l-94 -192h-81zM387 255l-17 189
q-5 54 -9.5 100t-8.5 98h-1q-12 -26 -22.5 -50t-21.5 -47.5t-23 -48t-26 -52.5l-90 -189h219z" />
    <glyph glyph-name="AE" unicode="&#xc6;" 
d="M293 695h326l-13 -63h-167l-46 -241h154l-11 -62h-155l-51 -266h166l-12 -63h-246l37 194h-149l-93 -194h-80zM287 256l73 378h-22l-184 -378h133z" />
    <glyph glyph-name="Agrave" unicode="&#xc0;" 
d="M305 695h115l68 -695h-80l-20 192h-246l-94 -192h-81zM387 255l-17 189q-5 54 -9.5 100t-8.5 98h-1q-12 -26 -22.5 -50t-21.5 -47.5t-23 -48t-26 -52.5l-90 -189h219zM287 899l156 -91l-26 -45l-162 79z" />
    <glyph glyph-name="Aacute" unicode="&#xc1;" 
d="M305 695h115l68 -695h-80l-20 192h-246l-94 -192h-81zM387 255l-17 189q-5 54 -9.5 100t-8.5 98h-1q-12 -26 -22.5 -50t-21.5 -47.5t-23 -48t-26 -52.5l-90 -189h219zM480 893l23 -57l-173 -72l-18 44z" />
    <glyph glyph-name="Acircumflex" unicode="&#xc2;" 
d="M305 695h115l68 -695h-80l-20 192h-246l-94 -192h-81zM387 255l-17 189q-5 54 -9.5 100t-8.5 98h-1q-12 -26 -22.5 -50t-21.5 -47.5t-23 -48t-26 -52.5l-90 -189h219zM391 895l119 -84l-31 -45l-98 61l-119 -61l-21 45z" />
    <glyph glyph-name="Adieresis" unicode="&#xc4;" 
d="M305 695h115l68 -695h-80l-20 192h-246l-94 -192h-81zM387 255l-17 189q-5 54 -9.5 100t-8.5 98h-1q-12 -26 -22.5 -50t-21.5 -47.5t-23 -48t-26 -52.5l-90 -189h219zM322 844q0 -10 -3 -24q-3 -12 -6.5 -21t-10 -14t-16 -7.5t-23.5 -2.5q-45 0 -45 31q0 10 4 24
q2 12 6 21t10 14t15.5 7.5t23.5 2.5q45 0 45 -31zM551 844q0 -10 -4 -24q-2 -12 -6 -21t-10 -14t-16 -7.5t-23 -2.5q-45 0 -45 31q0 10 3 24q3 12 7 21t10 14t15.5 7.5t23.5 2.5q45 0 45 -31z" />
    <glyph glyph-name="Atilde" unicode="&#xc3;" 
d="M305 695h115l68 -695h-80l-20 192h-246l-94 -192h-81zM387 255l-17 189q-5 54 -9.5 100t-8.5 98h-1q-12 -26 -22.5 -50t-21.5 -47.5t-23 -48t-26 -52.5l-90 -189h219zM222 812q22 26 48 42t61 16q18 0 32.5 -5.5t26.5 -13t24 -13t26 -5.5q17 0 34.5 8.5t33.5 26.5l30 -34
q-21 -26 -47.5 -42t-60.5 -16q-19 0 -33 6t-26.5 12.5t-24 12.5t-25.5 6q-18 0 -35 -8.5t-33 -26.5z" />
    <glyph glyph-name="Abreve" unicode="&#x102;" 
d="M305 695h115l68 -695h-80l-20 192h-246l-94 -192h-81zM387 255l-17 189q-5 54 -9.5 100t-8.5 98h-1q-12 -26 -22.5 -50t-21.5 -47.5t-23 -48t-26 -52.5l-90 -189h219zM311 879q-3 -27 13 -46t53 -19q38 0 60.5 19t28.5 46h56q-4 -25 -16 -46t-31.5 -37.5t-46 -26
t-58.5 -9.5t-55 9.5t-37 26t-19 37.5t-1 46h53z" />
    <glyph glyph-name="Amacron" unicode="&#x100;" 
d="M305 695h115l68 -695h-80l-20 192h-246l-94 -192h-81zM387 255l-17 189q-5 54 -9.5 100t-8.5 98h-1q-12 -26 -22.5 -50t-21.5 -47.5t-23 -48t-26 -52.5l-90 -189h219zM232 852h313l-11 -56h-312z" />
    <glyph glyph-name="Acaron" unicode="&#x1cd;" 
d="M305 695h115l68 -695h-80l-20 192h-246l-94 -192h-81zM387 255l-17 189q-5 54 -9.5 100t-8.5 98h-1q-12 -26 -22.5 -50t-21.5 -47.5t-23 -48t-26 -52.5l-90 -189h219zM278 888l98 -62l119 62l21 -46l-150 -84l-119 84z" />
    <glyph glyph-name="Adotaccent" unicode="&#x226;" 
d="M305 695h115l68 -695h-80l-20 192h-246l-94 -192h-81zM387 255l-17 189q-5 54 -9.5 100t-8.5 98h-1q-12 -26 -22.5 -50t-21.5 -47.5t-23 -48t-26 -52.5l-90 -189h219zM433 843q0 -6 -0.5 -11.5t-2.5 -11.5q-2 -13 -6.5 -21.5t-11 -13.5t-16 -7.5t-23.5 -2.5
q-23 0 -34 7.5t-11 24.5q0 6 1 11.5t2 11.5q2 13 6.5 21.5t11 14t16 7.5t23.5 2q24 0 34.5 -7t10.5 -25z" />
    <glyph glyph-name="Aring" unicode="&#xc5;" 
d="M305 695h115l68 -695h-80l-20 192h-246l-94 -192h-81zM387 255l-17 189q-5 54 -9.5 100t-8.5 98h-1q-12 -26 -22.5 -50t-21.5 -47.5t-23 -48t-26 -52.5l-90 -189h219zM479 835q0 -22 -8 -41t-22.5 -33t-34 -22t-41.5 -8q-21 0 -39 6.5t-30.5 18.5t-20 29.5t-7.5 39.5
q0 23 8 41.5t22 32.5t33.5 22t42.5 8q41 0 69 -25t28 -69zM430 833q0 26 -13.5 39t-36.5 13q-25 0 -40 -15t-15 -43q0 -25 13.5 -38.5t36.5 -13.5q24 0 39.5 15t15.5 43z" />
    <glyph glyph-name="AEacute" unicode="&#x1fc;" 
d="M293 695h326l-13 -63h-167l-46 -241h154l-11 -62h-155l-51 -266h166l-12 -63h-246l37 194h-149l-93 -194h-80zM287 256l73 378h-22l-184 -378h133zM554 893l23 -57l-173 -72l-18 44z" />
    <glyph glyph-name="AEmacron" unicode="&#x1e2;" 
d="M293 695h326l-13 -63h-167l-46 -241h154l-11 -62h-155l-51 -266h166l-12 -63h-246l37 194h-149l-93 -194h-80zM287 256l73 378h-22l-184 -378h133zM304 852h313l-11 -56h-312z" />
    <glyph glyph-name="B" unicode="B" 
d="M163 695h177q57 0 97 -8.5t64.5 -26t35.5 -43t11 -59.5q0 -40 -12.5 -72t-33.5 -56.5t-47.5 -41t-55.5 -24.5q50 -10 77.5 -43t27.5 -84q0 -54 -17.5 -98t-52.5 -74.5t-88.5 -47.5t-126.5 -17h-191zM227 62q100 0 147 42.5t47 124.5q0 24 -7.5 42.5t-25 31.5t-46 20
t-70.5 7h-101l-52 -268h108zM279 391q51 0 86.5 12.5t58 34t32.5 49.5t10 59q0 21 -6.5 37t-22.5 27t-42 17t-66 6h-99l-47 -242h96z" />
    <glyph glyph-name="C" unicode="C" 
d="M452 12q-31 -8 -75.5 -15.5t-89.5 -7.5q-58 0 -100.5 11.5t-70.5 35.5t-42.5 62t-14.5 93q0 38 4.5 74.5t13.5 82.5q20 107 54.5 176t79.5 109.5t99.5 56.5t115.5 16q47 0 86 -6t67 -14l-19 -62q-25 7 -61 12.5t-77 5.5q-44 0 -84.5 -12t-75 -45t-61.5 -90.5t-44 -148.5
q-9 -42 -13 -77t-4 -72q0 -79 39.5 -111.5t122.5 -32.5q36 0 76 5.5t71 14.5z" />
    <glyph glyph-name="Ccedilla" unicode="&#xc7;" 
d="M222 -6q-38 5 -68.5 18t-51.5 36.5t-32 58.5t-11 84q0 38 4.5 74.5t13.5 82.5q20 107 54.5 176t79.5 109.5t99.5 56.5t115.5 16q47 0 86 -6t67 -14l-19 -62q-25 7 -61 12.5t-77 5.5q-44 0 -84.5 -12t-75 -45t-61.5 -90.5t-44 -148.5q-9 -42 -13 -77t-4 -72
q0 -79 39.5 -111.5t122.5 -32.5q36 0 76 5.5t71 14.5l3 -61q-31 -8 -74.5 -15.5t-88.5 -7.5h-15l-14 -43q45 -1 64.5 -19t19.5 -49q0 -20 -9 -38t-26.5 -32t-44 -22t-60.5 -8q-18 0 -35.5 1.5t-31.5 5.5l11 44q14 -3 27.5 -4.5t30.5 -1.5q41 0 58 16t17 35q0 16 -13.5 24
t-47.5 8h-26z" />
    <glyph glyph-name="Cacute" unicode="&#x106;" 
d="M452 12q-31 -8 -75.5 -15.5t-89.5 -7.5q-58 0 -100.5 11.5t-70.5 35.5t-42.5 62t-14.5 93q0 38 4.5 74.5t13.5 82.5q20 107 54.5 176t79.5 109.5t99.5 56.5t115.5 16q47 0 86 -6t67 -14l-19 -62q-25 7 -61 12.5t-77 5.5q-44 0 -84.5 -12t-75 -45t-61.5 -90.5t-44 -148.5
q-9 -42 -13 -77t-4 -72q0 -79 39.5 -111.5t122.5 -32.5q36 0 76 5.5t71 14.5zM529 893l23 -57l-173 -72l-18 44z" />
    <glyph glyph-name="Ccircumflex" unicode="&#x108;" 
d="M452 12q-31 -8 -75.5 -15.5t-89.5 -7.5q-58 0 -100.5 11.5t-70.5 35.5t-42.5 62t-14.5 93q0 38 4.5 74.5t13.5 82.5q20 107 54.5 176t79.5 109.5t99.5 56.5t115.5 16q47 0 86 -6t67 -14l-19 -62q-25 7 -61 12.5t-77 5.5q-44 0 -84.5 -12t-75 -45t-61.5 -90.5t-44 -148.5
q-9 -42 -13 -77t-4 -72q0 -79 39.5 -111.5t122.5 -32.5q36 0 76 5.5t71 14.5zM440 895l119 -84l-31 -45l-98 61l-119 -61l-21 45z" />
    <glyph glyph-name="Ccaron" unicode="&#x10c;" 
d="M452 12q-31 -8 -75.5 -15.5t-89.5 -7.5q-58 0 -100.5 11.5t-70.5 35.5t-42.5 62t-14.5 93q0 38 4.5 74.5t13.5 82.5q20 107 54.5 176t79.5 109.5t99.5 56.5t115.5 16q47 0 86 -6t67 -14l-19 -62q-25 7 -61 12.5t-77 5.5q-44 0 -84.5 -12t-75 -45t-61.5 -90.5t-44 -148.5
q-9 -42 -13 -77t-4 -72q0 -79 39.5 -111.5t122.5 -32.5q36 0 76 5.5t71 14.5zM327 888l98 -62l119 62l21 -46l-150 -84l-119 84z" />
    <glyph glyph-name="Cdotaccent" unicode="&#x10a;" 
d="M452 12q-31 -8 -75.5 -15.5t-89.5 -7.5q-58 0 -100.5 11.5t-70.5 35.5t-42.5 62t-14.5 93q0 38 4.5 74.5t13.5 82.5q20 107 54.5 176t79.5 109.5t99.5 56.5t115.5 16q47 0 86 -6t67 -14l-19 -62q-25 7 -61 12.5t-77 5.5q-44 0 -84.5 -12t-75 -45t-61.5 -90.5t-44 -148.5
q-9 -42 -13 -77t-4 -72q0 -79 39.5 -111.5t122.5 -32.5q36 0 76 5.5t71 14.5zM480 843q0 -6 -0.5 -11.5t-2.5 -11.5q-2 -13 -6.5 -21.5t-11 -13.5t-16 -7.5t-23.5 -2.5q-23 0 -34 7.5t-11 24.5q0 6 1 11.5t2 11.5q2 13 6.5 21.5t11 14t16 7.5t23.5 2q24 0 34.5 -7t10.5 -25z
" />
    <glyph glyph-name="D" unicode="D" 
d="M150 695h178q54 0 95 -9.5t68.5 -32t42 -60.5t14.5 -94q0 -33 -4.5 -69t-12.5 -80q-19 -100 -49.5 -167t-74 -107.5t-99 -58t-123.5 -17.5h-170zM191 63q49 0 90 13.5t73 46t56 88.5t40 141q4 19 7 38.5t5.5 37t3.5 33.5t1 30q0 41 -9.5 68t-28.5 43t-47.5 23t-64.5 7
h-100l-111 -569h85z" />
    <glyph glyph-name="Eth" unicode="&#xd0;" 
d="M98 336h-70l11 61h71l59 298h166q51 0 90.5 -9.5t66.5 -32t41.5 -60.5t14.5 -94q0 -33 -4.5 -69t-12.5 -80q-19 -100 -49.5 -167t-73 -107.5t-97 -58t-120.5 -17.5h-157zM197 63q47 0 86 13.5t71 46t56 88.5t40 141q4 19 7 38.5t5.5 37t3.5 33.5t1 30q0 41 -9.5 68
t-28 43t-45.5 23t-61 7h-87l-46 -235h130l-11 -61h-131l-53 -273h72z" />
    <glyph glyph-name="Dcaron" unicode="&#x10e;" 
d="M150 695h178q54 0 95 -9.5t68.5 -32t42 -60.5t14.5 -94q0 -33 -4.5 -69t-12.5 -80q-19 -100 -49.5 -167t-74 -107.5t-99 -58t-123.5 -17.5h-170zM191 63q49 0 90 13.5t73 46t56 88.5t40 141q4 19 7 38.5t5.5 37t3.5 33.5t1 30q0 41 -9.5 68t-28.5 43t-47.5 23t-64.5 7
h-100l-111 -569h85zM246 888l98 -62l119 62l21 -46l-150 -84l-119 84z" />
    <glyph glyph-name="Dcroat" unicode="&#x110;" 
d="M98 336h-70l11 61h71l59 298h166q51 0 90.5 -9.5t66.5 -32t41.5 -60.5t14.5 -94q0 -33 -4.5 -69t-12.5 -80q-19 -100 -49.5 -167t-73 -107.5t-97 -58t-120.5 -17.5h-157zM197 63q47 0 86 13.5t71 46t56 88.5t40 141q4 19 7 38.5t5.5 37t3.5 33.5t1 30q0 41 -9.5 68
t-28 43t-45.5 23t-61 7h-87l-46 -235h130l-11 -61h-131l-53 -273h72z" />
    <glyph glyph-name="E" unicode="E" 
d="M178 695h387l-13 -63h-307l-47 -241h285l-12 -62h-284l-52 -266h307l-12 -63h-387z" />
    <glyph glyph-name="Eogonek" unicode="&#x118;" 
d="M178 695h387l-13 -63h-307l-47 -241h285l-12 -62h-284l-52 -266h307l-12 -63q-27 -17 -50 -33.5t-40 -33t-27.5 -33.5t-10.5 -34q-1 -34 41 -34q17 0 32.5 3.5t31.5 8.5l1 -52q-21 -6 -42.5 -10t-44.5 -4q-48 0 -70 19t-19 57q1 22 12 43t29 39.5t40.5 34.5t46.5 29h-317
z" />
    <glyph glyph-name="Egrave" unicode="&#xc8;" 
d="M178 695h387l-13 -63h-307l-47 -241h285l-12 -62h-284l-52 -266h307l-12 -63h-387zM284 899l156 -91l-26 -45l-162 79z" />
    <glyph glyph-name="Eacute" unicode="&#xc9;" 
d="M178 695h387l-13 -63h-307l-47 -241h285l-12 -62h-284l-52 -266h307l-12 -63h-387zM493 893l23 -57l-173 -72l-18 44z" />
    <glyph glyph-name="Ecircumflex" unicode="&#xca;" 
d="M178 695h387l-13 -63h-307l-47 -241h285l-12 -62h-284l-52 -266h307l-12 -63h-387zM403 895l119 -84l-31 -45l-98 61l-119 -61l-21 45z" />
    <glyph glyph-name="Edieresis" unicode="&#xcb;" 
d="M178 695h387l-13 -63h-307l-47 -241h285l-12 -62h-284l-52 -266h307l-12 -63h-387zM328 844q0 -10 -3 -24q-3 -12 -6.5 -21t-10 -14t-16 -7.5t-23.5 -2.5q-45 0 -45 31q0 10 4 24q2 12 6 21t10 14t15.5 7.5t23.5 2.5q45 0 45 -31zM557 844q0 -10 -4 -24q-2 -12 -6 -21
t-10 -14t-16 -7.5t-23 -2.5q-45 0 -45 31q0 10 3 24q3 12 7 21t10 14t15.5 7.5t23.5 2.5q45 0 45 -31z" />
    <glyph glyph-name="Ebreve" unicode="&#x114;" 
d="M178 695h387l-13 -63h-307l-47 -241h285l-12 -62h-284l-52 -266h307l-12 -63h-387zM319 879q-3 -27 13 -46t53 -19q38 0 60.5 19t28.5 46h56q-4 -25 -16 -46t-31.5 -37.5t-46 -26t-58.5 -9.5t-55 9.5t-37 26t-19 37.5t-1 46h53z" />
    <glyph glyph-name="Emacron" unicode="&#x112;" 
d="M178 695h387l-13 -63h-307l-47 -241h285l-12 -62h-284l-52 -266h307l-12 -63h-387zM238 852h313l-11 -56h-312z" />
    <glyph glyph-name="Ecaron" unicode="&#x11a;" 
d="M178 695h387l-13 -63h-307l-47 -241h285l-12 -62h-284l-52 -266h307l-12 -63h-387zM290 888l98 -62l119 62l21 -46l-150 -84l-119 84z" />
    <glyph glyph-name="Edotaccent" unicode="&#x116;" 
d="M178 695h387l-13 -63h-307l-47 -241h285l-12 -62h-284l-52 -266h307l-12 -63h-387zM449 843q0 -6 -0.5 -11.5t-2.5 -11.5q-2 -13 -6.5 -21.5t-11 -13.5t-16 -7.5t-23.5 -2.5q-23 0 -34 7.5t-11 24.5q0 6 1 11.5t2 11.5q2 13 6.5 21.5t11 14t16 7.5t23.5 2q24 0 34.5 -7
t10.5 -25z" />
    <glyph glyph-name="F" unicode="F" 
d="M186 695h387l-13 -63h-308l-46 -241h280l-12 -62h-280l-64 -329h-79z" />
    <glyph glyph-name="G" unicode="G" 
d="M445 22q-18 -7 -41.5 -13t-49 -10.5t-51.5 -7.5t-51 -3q-50 0 -89 10t-66 33t-41 61.5t-14 97.5q0 35 4.5 73.5t13.5 84.5q21 102 52.5 171t74.5 110.5t95.5 59t114.5 17.5q46 0 87 -6t75 -17l-18 -61q-32 8 -69.5 14t-76.5 6q-47 0 -86.5 -13.5t-71 -46.5t-56.5 -91
t-42 -146q-9 -43 -13.5 -80t-4.5 -71q0 -43 9.5 -70.5t27.5 -43.5t44 -22t59 -6q32 0 63.5 5.5t52.5 13.5l50 256h-145l13 62h221z" />
    <glyph glyph-name="Gacute" unicode="&#x1f4;" 
d="M445 22q-18 -7 -41.5 -13t-49 -10.5t-51.5 -7.5t-51 -3q-50 0 -89 10t-66 33t-41 61.5t-14 97.5q0 35 4.5 73.5t13.5 84.5q21 102 52.5 171t74.5 110.5t95.5 59t114.5 17.5q46 0 87 -6t75 -17l-18 -61q-32 8 -69.5 14t-76.5 6q-47 0 -86.5 -13.5t-71 -46.5t-56.5 -91
t-42 -146q-9 -43 -13.5 -80t-4.5 -71q0 -43 9.5 -70.5t27.5 -43.5t44 -22t59 -6q32 0 63.5 5.5t52.5 13.5l50 256h-145l13 62h221zM515 893l23 -57l-173 -72l-18 44z" />
    <glyph glyph-name="Gcircumflex" unicode="&#x11c;" 
d="M445 22q-18 -7 -41.5 -13t-49 -10.5t-51.5 -7.5t-51 -3q-50 0 -89 10t-66 33t-41 61.5t-14 97.5q0 35 4.5 73.5t13.5 84.5q21 102 52.5 171t74.5 110.5t95.5 59t114.5 17.5q46 0 87 -6t75 -17l-18 -61q-32 8 -69.5 14t-76.5 6q-47 0 -86.5 -13.5t-71 -46.5t-56.5 -91
t-42 -146q-9 -43 -13.5 -80t-4.5 -71q0 -43 9.5 -70.5t27.5 -43.5t44 -22t59 -6q32 0 63.5 5.5t52.5 13.5l50 256h-145l13 62h221zM418 895l119 -84l-31 -45l-98 61l-119 -61l-21 45z" />
    <glyph glyph-name="Gbreve" unicode="&#x11e;" 
d="M445 22q-18 -7 -41.5 -13t-49 -10.5t-51.5 -7.5t-51 -3q-50 0 -89 10t-66 33t-41 61.5t-14 97.5q0 35 4.5 73.5t13.5 84.5q21 102 52.5 171t74.5 110.5t95.5 59t114.5 17.5q46 0 87 -6t75 -17l-18 -61q-32 8 -69.5 14t-76.5 6q-47 0 -86.5 -13.5t-71 -46.5t-56.5 -91
t-42 -146q-9 -43 -13.5 -80t-4.5 -71q0 -43 9.5 -70.5t27.5 -43.5t44 -22t59 -6q32 0 63.5 5.5t52.5 13.5l50 256h-145l13 62h221zM333 879q-3 -27 13 -46t53 -19q38 0 60.5 19t28.5 46h56q-4 -25 -16 -46t-31.5 -37.5t-46 -26t-58.5 -9.5t-55 9.5t-37 26t-19 37.5t-1 46h53
z" />
    <glyph glyph-name="Gcaron" unicode="&#x1e6;" 
d="M445 22q-18 -7 -41.5 -13t-49 -10.5t-51.5 -7.5t-51 -3q-50 0 -89 10t-66 33t-41 61.5t-14 97.5q0 35 4.5 73.5t13.5 84.5q21 102 52.5 171t74.5 110.5t95.5 59t114.5 17.5q46 0 87 -6t75 -17l-18 -61q-32 8 -69.5 14t-76.5 6q-47 0 -86.5 -13.5t-71 -46.5t-56.5 -91
t-42 -146q-9 -43 -13.5 -80t-4.5 -71q0 -43 9.5 -70.5t27.5 -43.5t44 -22t59 -6q32 0 63.5 5.5t52.5 13.5l50 256h-145l13 62h221zM305 888l98 -62l119 62l21 -46l-150 -84l-119 84z" />
    <glyph glyph-name="Gdotaccent" unicode="&#x120;" 
d="M445 22q-18 -7 -41.5 -13t-49 -10.5t-51.5 -7.5t-51 -3q-50 0 -89 10t-66 33t-41 61.5t-14 97.5q0 35 4.5 73.5t13.5 84.5q21 102 52.5 171t74.5 110.5t95.5 59t114.5 17.5q46 0 87 -6t75 -17l-18 -61q-32 8 -69.5 14t-76.5 6q-47 0 -86.5 -13.5t-71 -46.5t-56.5 -91
t-42 -146q-9 -43 -13.5 -80t-4.5 -71q0 -43 9.5 -70.5t27.5 -43.5t44 -22t59 -6q32 0 63.5 5.5t52.5 13.5l50 256h-145l13 62h221zM455 843q0 -6 -0.5 -11.5t-2.5 -11.5q-2 -13 -6.5 -21.5t-11 -13.5t-16 -7.5t-23.5 -2.5q-23 0 -34 7.5t-11 24.5q0 6 1 11.5t2 11.5
q2 13 6.5 21.5t11 14t16 7.5t23.5 2q24 0 34.5 -7t10.5 -25z" />
    <glyph glyph-name="Gcommaaccent" unicode="&#x122;" 
d="M445 22q-18 -7 -41.5 -13t-49 -10.5t-51.5 -7.5t-51 -3q-50 0 -89 10t-66 33t-41 61.5t-14 97.5q0 35 4.5 73.5t13.5 84.5q21 102 52.5 171t74.5 110.5t95.5 59t114.5 17.5q46 0 87 -6t75 -17l-18 -61q-32 8 -69.5 14t-76.5 6q-47 0 -86.5 -13.5t-71 -46.5t-56.5 -91
t-42 -146q-9 -43 -13.5 -80t-4.5 -71q0 -43 9.5 -70.5t27.5 -43.5t44 -22t59 -6q32 0 63.5 5.5t52.5 13.5l50 256h-145l13 62h221zM72 -183q11 5 28 12t34.5 15t32.5 15t24 12q1 29 12.5 42t38.5 13q21 0 29.5 -7.5t8.5 -22.5v-7.5t-2 -10.5q-2 -14 -8.5 -22.5t-18.5 -16
t-32 -14.5t-51 -16q-9 -3 -20.5 -6.5t-23.5 -7.5t-23.5 -7.5t-19.5 -5.5z" />
    <glyph glyph-name="H" unicode="H" 
d="M150 695h80l-59 -302h265l60 302h80l-135 -695h-80l63 328h-266l-63 -328h-80z" />
    <glyph glyph-name="Hbar" unicode="&#x126;" 
d="M132 511h-70l11 60h71l25 124h79l-25 -124h230l25 124h79l-25 -124h71l-11 -60h-72l-98 -511h-79l61 317h-231l-60 -317h-79zM415 378l27 133h-230l-26 -133h229z" />
    <glyph glyph-name="Hcircumflex" unicode="&#x124;" 
d="M150 695h80l-59 -302h265l60 302h80l-135 -695h-80l63 328h-266l-63 -328h-80zM395 895l119 -84l-31 -45l-98 61l-119 -61l-21 45z" />
    <glyph glyph-name="Hcaron" unicode="&#x21e;" 
d="M150 695h80l-59 -302h265l60 302h80l-135 -695h-80l63 328h-266l-63 -328h-80zM281 888l98 -62l119 62l21 -46l-150 -84l-119 84z" />
    <glyph glyph-name="I" unicode="I" 
d="M34 65h166l110 565h-165l13 65h411l-13 -65h-166l-110 -565h164l-12 -65h-410z" />
    <glyph glyph-name="Iogonek" unicode="&#x12e;" 
d="M34 65h166l110 565h-165l13 65h411l-13 -65h-166l-110 -565h164l-12 -65h-159q-26 -17 -49.5 -33.5t-41 -33t-27.5 -34t-10 -34.5q0 -32 41 -32q18 0 34 3t30 8l2 -52q-20 -6 -42 -10t-45 -4q-45 0 -68 18.5t-23 54.5q0 23 11 43.5t29 40t41 36t47 29.5h-180z" />
    <glyph glyph-name="Igrave" unicode="&#xcc;" 
d="M34 65h166l110 565h-165l13 65h411l-13 -65h-166l-110 -565h164l-12 -65h-410zM290 899l156 -91l-26 -45l-162 79z" />
    <glyph glyph-name="Iacute" unicode="&#xcd;" 
d="M34 65h166l110 565h-165l13 65h411l-13 -65h-166l-110 -565h164l-12 -65h-410zM476 893l23 -57l-173 -72l-18 44z" />
    <glyph glyph-name="Icircumflex" unicode="&#xce;" 
d="M34 65h166l110 565h-165l13 65h411l-13 -65h-166l-110 -565h164l-12 -65h-410zM396 895l119 -84l-31 -45l-98 61l-119 -61l-21 45z" />
    <glyph glyph-name="Idieresis" unicode="&#xcf;" 
d="M34 65h166l110 565h-165l13 65h411l-13 -65h-166l-110 -565h164l-12 -65h-410zM323 844q0 -10 -3 -24q-3 -12 -6.5 -21t-10 -14t-16 -7.5t-23.5 -2.5q-45 0 -45 31q0 10 4 24q2 12 6 21t10 14t15.5 7.5t23.5 2.5q45 0 45 -31zM552 844q0 -10 -4 -24q-2 -12 -6 -21
t-10 -14t-16 -7.5t-23 -2.5q-45 0 -45 31q0 10 3 24q3 12 7 21t10 14t15.5 7.5t23.5 2.5q45 0 45 -31z" />
    <glyph glyph-name="Itilde" unicode="&#x128;" 
d="M34 65h166l110 565h-165l13 65h411l-13 -65h-166l-110 -565h164l-12 -65h-410zM225 812q22 26 48 42t61 16q18 0 32.5 -5.5t26.5 -13t24 -13t26 -5.5q17 0 34.5 8.5t33.5 26.5l30 -34q-21 -26 -47.5 -42t-60.5 -16q-19 0 -33 6t-26.5 12.5t-24 12.5t-25.5 6
q-18 0 -35 -8.5t-33 -26.5z" />
    <glyph glyph-name="Ibreve" unicode="&#x12c;" 
d="M34 65h166l110 565h-165l13 65h411l-13 -65h-166l-110 -565h164l-12 -65h-410zM312 879q-3 -27 13 -46t53 -19q38 0 60.5 19t28.5 46h56q-4 -25 -16 -46t-31.5 -37.5t-46 -26t-58.5 -9.5t-55 9.5t-37 26t-19 37.5t-1 46h53z" />
    <glyph glyph-name="Imacron" unicode="&#x12a;" 
d="M34 65h166l110 565h-165l13 65h411l-13 -65h-166l-110 -565h164l-12 -65h-410zM234 852h313l-11 -56h-312z" />
    <glyph glyph-name="Icaron" unicode="&#x1cf;" 
d="M34 65h166l110 565h-165l13 65h411l-13 -65h-166l-110 -565h164l-12 -65h-410zM280 888l98 -62l119 62l21 -46l-150 -84l-119 84z" />
    <glyph glyph-name="Idotaccent" unicode="&#x130;" 
d="M34 65h166l110 565h-165l13 65h411l-13 -65h-166l-110 -565h164l-12 -65h-410zM437 843q0 -6 -0.5 -11.5t-2.5 -11.5q-2 -13 -6.5 -21.5t-11 -13.5t-16 -7.5t-23.5 -2.5q-23 0 -34 7.5t-11 24.5q0 6 1 11.5t2 11.5q2 13 6.5 21.5t11 14t16 7.5t23.5 2q24 0 34.5 -7
t10.5 -25z" />
    <glyph glyph-name="IJ" unicode="&#x132;" 
d="M173 695h80l-135 -695h-80zM557 695l-103 -524q-9 -50 -23.5 -84t-35.5 -55t-49 -30t-65 -9q-19 0 -39 2t-41 7l14 62q18 -4 31.5 -5t29.5 -1q40 0 63 25t35 86l102 526h81z" />
    <glyph glyph-name="J" unicode="J" 
d="M181 630l13 65h349l-98 -502q-12 -56 -32.5 -94.5t-53 -62t-77.5 -33.5t-104 -10q-40 0 -77 4t-72 13l14 64q30 -8 62.5 -12t71.5 -4q42 0 74 7.5t54.5 24.5t37.5 44t22 66l84 430h-268z" />
    <glyph glyph-name="Jcircumflex" unicode="&#x134;" 
d="M181 630l13 65h349l-98 -502q-12 -56 -32.5 -94.5t-53 -62t-77.5 -33.5t-104 -10q-40 0 -77 4t-72 13l14 64q30 -8 62.5 -12t71.5 -4q42 0 74 7.5t54.5 24.5t37.5 44t22 66l84 430h-268zM428 895l119 -84l-31 -45l-98 61l-119 -61l-21 45z" />
    <glyph glyph-name="K" unicode="K" 
d="M172 695h79l-64 -329l330 329h96l-345 -341l220 -354h-91l-214 346l-67 -346h-79z" />
    <glyph glyph-name="Kcaron" unicode="&#x1e8;" 
d="M172 695h79l-64 -329l330 329h96l-345 -341l220 -354h-91l-214 346l-67 -346h-79zM288 888l98 -62l119 62l21 -46l-150 -84l-119 84z" />
    <glyph glyph-name="Kcommaaccent" unicode="&#x136;" 
d="M172 695h79l-64 -329l330 329h96l-345 -341l220 -354h-91l-214 346l-67 -346h-79zM63 -183q11 5 28 12t34.5 15t32.5 15t24 12q1 29 12.5 42t38.5 13q21 0 29.5 -7.5t8.5 -22.5v-7.5t-2 -10.5q-2 -14 -8.5 -22.5t-18.5 -16t-32 -14.5t-51 -16q-9 -3 -20.5 -6.5
t-23.5 -7.5t-23.5 -7.5t-19.5 -5.5z" />
    <glyph glyph-name="L" unicode="L" 
d="M187 695h79l-123 -630h311l-12 -65h-390z" />
    <glyph glyph-name="Lslash" unicode="&#x141;" 
d="M142 346l-76 -35l-18 58l108 49l53 277h79l-46 -238l124 58l17 -57l-155 -73l-62 -320h288l-12 -65h-368z" />
    <glyph glyph-name="Lacute" unicode="&#x139;" 
d="M187 695h79l-123 -630h311l-12 -65h-390zM465 893l23 -57l-173 -72l-18 44z" />
    <glyph glyph-name="Lcaron" unicode="&#x13d;" 
d="M187 695h79l-123 -630h311l-12 -65h-390zM393 774l65 -18l-85 -193l-48 15z" />
    <glyph glyph-name="Ldot" unicode="&#x13f;" 
d="M187 695h79l-123 -630h311l-12 -65h-390zM476 390q0 -6 -0.5 -12.5t-2.5 -12.5q-3 -17 -7.5 -27.5t-12.5 -17t-19.5 -9t-29.5 -2.5q-29 0 -41.5 9.5t-12.5 29.5q0 6 0.5 12.5t1.5 12.5q4 17 8 27.5t12 17t20 9t29 2.5q29 0 42 -9.5t13 -29.5z" />
    <glyph glyph-name="Lcommaaccent" unicode="&#x13b;" 
d="M187 695h79l-123 -630h311l-12 -65h-390zM73 -183q11 5 28 12t34.5 15t32.5 15t24 12q1 29 12.5 42t38.5 13q21 0 29.5 -7.5t8.5 -22.5v-7.5t-2 -10.5q-2 -14 -8.5 -22.5t-18.5 -16t-32 -14.5t-51 -16q-9 -3 -20.5 -6.5t-23.5 -7.5t-23.5 -7.5t-19.5 -5.5z" />
    <glyph glyph-name="M" unicode="M" 
d="M140 695h112l18 -343q2 -29 3 -54t0 -62h3q13 36 23.5 61t23.5 55l152 343h111l-104 -695h-70l64 418q8 57 17.5 106.5t20.5 105.5h-3q-13 -32 -24.5 -59t-25.5 -60l-156 -351h-89l-19 351q-2 33 -3.5 60t-1.5 59h-3q-10 -53 -20.5 -103.5t-24.5 -108.5l-98 -418h-72z
" />
    <glyph glyph-name="N" unicode="N" 
d="M148 695h103l105 -435q5 -23 10 -44t9.5 -41.5t9 -41.5t9.5 -43h4q6 48 12.5 92.5t14.5 90.5l82 422h71l-135 -695h-103l-105 435q-6 23 -11 43.5t-9.5 41t-9 41.5t-8.5 44h-4q-6 -48 -12.5 -92.5t-15.5 -90.5l-81 -422h-71z" />
    <glyph glyph-name="Eng" unicode="&#x14a;" 
d="M148 695h103l105 -435q5 -23 10 -43.5t9.5 -41t9 -41.5t9.5 -44h4q6 47 12 92.5t15 90.5l82 422h71l-146 -753q-9 -47 -24.5 -78.5t-37.5 -51.5t-50 -28t-63 -8q-20 0 -37.5 2t-38.5 7l14 61q16 -3 29.5 -4.5t28.5 -1.5q39 0 62.5 22t36.5 81l11 57h-23l-105 435
q-6 22 -10.5 42.5t-9.5 41t-9.5 41.5t-8.5 45h-4q-6 -47 -12.5 -92.5t-15.5 -90.5l-81 -422h-71z" />
    <glyph glyph-name="Ngrave" unicode="&#x1f8;" 
d="M148 695h103l105 -435q5 -23 10 -44t9.5 -41.5t9 -41.5t9.5 -43h4q6 48 12.5 92.5t14.5 90.5l82 422h71l-135 -695h-103l-105 435q-6 23 -11 43.5t-9.5 41t-9 41.5t-8.5 44h-4q-6 -48 -12.5 -92.5t-15.5 -90.5l-81 -422h-71zM276 899l156 -91l-26 -45l-162 79z" />
    <glyph glyph-name="Nacute" unicode="&#x143;" 
d="M148 695h103l105 -435q5 -23 10 -44t9.5 -41.5t9 -41.5t9.5 -43h4q6 48 12.5 92.5t14.5 90.5l82 422h71l-135 -695h-103l-105 435q-6 23 -11 43.5t-9.5 41t-9 41.5t-8.5 44h-4q-6 -48 -12.5 -92.5t-15.5 -90.5l-81 -422h-71zM505 893l23 -57l-173 -72l-18 44z" />
    <glyph glyph-name="Ntilde" unicode="&#xd1;" 
d="M148 695h103l105 -435q5 -23 10 -44t9.5 -41.5t9 -41.5t9.5 -43h4q6 48 12.5 92.5t14.5 90.5l82 422h71l-135 -695h-103l-105 435q-6 23 -11 43.5t-9.5 41t-9 41.5t-8.5 44h-4q-6 -48 -12.5 -92.5t-15.5 -90.5l-81 -422h-71zM225 812q22 26 48 42t61 16q18 0 32.5 -5.5
t26.5 -13t24 -13t26 -5.5q17 0 34.5 8.5t33.5 26.5l30 -34q-21 -26 -47.5 -42t-60.5 -16q-19 0 -33 6t-26.5 12.5t-24 12.5t-25.5 6q-18 0 -35 -8.5t-33 -26.5z" />
    <glyph glyph-name="Ncaron" unicode="&#x147;" 
d="M148 695h103l105 -435q5 -23 10 -44t9.5 -41.5t9 -41.5t9.5 -43h4q6 48 12.5 92.5t14.5 90.5l82 422h71l-135 -695h-103l-105 435q-6 23 -11 43.5t-9.5 41t-9 41.5t-8.5 44h-4q-6 -48 -12.5 -92.5t-15.5 -90.5l-81 -422h-71zM286 888l98 -62l119 62l21 -46l-150 -84
l-119 84z" />
    <glyph glyph-name="Ncommaaccent" unicode="&#x145;" 
d="M148 695h103l105 -435q5 -23 10 -44t9.5 -41.5t9 -41.5t9.5 -43h4q6 48 12.5 92.5t14.5 90.5l82 422h71l-135 -695h-103l-105 435q-6 23 -11 43.5t-9.5 41t-9 41.5t-8.5 44h-4q-6 -48 -12.5 -92.5t-15.5 -90.5l-81 -422h-71zM64 -183q11 5 28 12t34.5 15t32.5 15t24 12
q1 29 12.5 42t38.5 13q21 0 29.5 -7.5t8.5 -22.5v-7.5t-2 -10.5q-2 -14 -8.5 -22.5t-18.5 -16t-32 -14.5t-51 -16q-9 -3 -20.5 -6.5t-23.5 -7.5t-23.5 -7.5t-19.5 -5.5z" />
    <glyph glyph-name="O" unicode="O" 
d="M547 509q0 -35 -5.5 -76.5t-13.5 -84.5q-19 -101 -44.5 -169.5t-61 -111.5t-83 -62t-112.5 -19q-97 0 -141 47.5t-44 152.5q0 35 5 76.5t13 84.5q20 101 45.5 169.5t61 111.5t83 62t112.5 19q96 0 140.5 -47.5t44.5 -152.5zM468 504q0 75 -26.5 108t-89.5 33
q-43 0 -75 -15t-57 -50.5t-44.5 -93t-35.5 -141.5q-4 -19 -7.5 -40t-6 -41t-4 -39t-1.5 -34q0 -75 26 -108t89 -33q43 0 75 15t57.5 50.5t44.5 92.5t36 142q4 19 7.5 40t6 41t4 39t1.5 34z" />
    <glyph glyph-name="OE" unicode="&#x152;" 
d="M353 634q-12 5 -26 7.5t-34 2.5q-29 0 -53 -11t-45.5 -43t-40.5 -90.5t-38 -154.5q-12 -61 -18.5 -108t-6.5 -80q0 -60 19.5 -83t64.5 -23q20 0 36.5 2.5t30.5 7.5zM246 0q-19 -5 -41.5 -8.5t-46.5 -3.5q-35 0 -62 8t-45.5 27t-27.5 51t-8 79q0 42 5.5 89.5t16.5 106.5
q22 112 48 182t57.5 109t70.5 53t86 14q25 0 47.5 -3.5t41.5 -8.5h231l-13 -63h-174l-47 -241h162l-12 -62h-162l-51 -266h174l-12 -63h-238z" />
    <glyph glyph-name="Oslash" unicode="&#xd8;" 
d="M74 50q-17 25 -24.5 57.5t-7.5 78.5q0 35 5 76.5t13 84.5q20 101 45.5 169.5t61 111.5t83 62t112.5 19q36 0 63 -6.5t47 -20.5l62 99l50 -27l-69 -109q17 -24 24.5 -57t7.5 -79q0 -35 -5 -75.5t-14 -85.5q-19 -101 -44.5 -169.5t-61 -111.5t-83 -62t-112.5 -19
q-36 0 -63 6.5t-47 20.5l-62 -98l-50 27zM438 626q-16 12 -36.5 18t-48.5 6q-46 0 -79.5 -16t-59.5 -51.5t-45.5 -94t-36.5 -143.5q-8 -40 -13.5 -81.5t-5.5 -72.5q0 -19 1.5 -35.5t5.5 -31.5zM151 69q16 -12 36.5 -18t48.5 -6q45 0 78.5 16t59.5 51.5t45.5 93.5t36.5 144
q8 40 14 81.5t6 72.5q0 19 -1.5 35.5t-5.5 31.5z" />
    <glyph glyph-name="Ograve" unicode="&#xd2;" 
d="M547 509q0 -35 -5.5 -76.5t-13.5 -84.5q-19 -101 -44.5 -169.5t-61 -111.5t-83 -62t-112.5 -19q-97 0 -141 47.5t-44 152.5q0 35 5 76.5t13 84.5q20 101 45.5 169.5t61 111.5t83 62t112.5 19q96 0 140.5 -47.5t44.5 -152.5zM468 504q0 75 -26.5 108t-89.5 33
q-43 0 -75 -15t-57 -50.5t-44.5 -93t-35.5 -141.5q-4 -19 -7.5 -40t-6 -41t-4 -39t-1.5 -34q0 -75 26 -108t89 -33q43 0 75 15t57.5 50.5t44.5 92.5t36 142q4 19 7.5 40t6 41t4 39t1.5 34zM271 899l156 -91l-26 -45l-162 79z" />
    <glyph glyph-name="Oacute" unicode="&#xd3;" 
d="M547 509q0 -35 -5.5 -76.5t-13.5 -84.5q-19 -101 -44.5 -169.5t-61 -111.5t-83 -62t-112.5 -19q-97 0 -141 47.5t-44 152.5q0 35 5 76.5t13 84.5q20 101 45.5 169.5t61 111.5t83 62t112.5 19q96 0 140.5 -47.5t44.5 -152.5zM468 504q0 75 -26.5 108t-89.5 33
q-43 0 -75 -15t-57 -50.5t-44.5 -93t-35.5 -141.5q-4 -19 -7.5 -40t-6 -41t-4 -39t-1.5 -34q0 -75 26 -108t89 -33q43 0 75 15t57.5 50.5t44.5 92.5t36 142q4 19 7.5 40t6 41t4 39t1.5 34zM496 893l23 -57l-173 -72l-18 44z" />
    <glyph glyph-name="Ocircumflex" unicode="&#xd4;" 
d="M547 509q0 -35 -5.5 -76.5t-13.5 -84.5q-19 -101 -44.5 -169.5t-61 -111.5t-83 -62t-112.5 -19q-97 0 -141 47.5t-44 152.5q0 35 5 76.5t13 84.5q20 101 45.5 169.5t61 111.5t83 62t112.5 19q96 0 140.5 -47.5t44.5 -152.5zM468 504q0 75 -26.5 108t-89.5 33
q-43 0 -75 -15t-57 -50.5t-44.5 -93t-35.5 -141.5q-4 -19 -7.5 -40t-6 -41t-4 -39t-1.5 -34q0 -75 26 -108t89 -33q43 0 75 15t57.5 50.5t44.5 92.5t36 142q4 19 7.5 40t6 41t4 39t1.5 34zM399 895l119 -84l-31 -45l-98 61l-119 -61l-21 45z" />
    <glyph glyph-name="Odieresis" unicode="&#xd6;" 
d="M547 509q0 -35 -5.5 -76.5t-13.5 -84.5q-19 -101 -44.5 -169.5t-61 -111.5t-83 -62t-112.5 -19q-97 0 -141 47.5t-44 152.5q0 35 5 76.5t13 84.5q20 101 45.5 169.5t61 111.5t83 62t112.5 19q96 0 140.5 -47.5t44.5 -152.5zM468 504q0 75 -26.5 108t-89.5 33
q-43 0 -75 -15t-57 -50.5t-44.5 -93t-35.5 -141.5q-4 -19 -7.5 -40t-6 -41t-4 -39t-1.5 -34q0 -75 26 -108t89 -33q43 0 75 15t57.5 50.5t44.5 92.5t36 142q4 19 7.5 40t6 41t4 39t1.5 34zM320 844q0 -10 -3 -24q-3 -12 -6.5 -21t-10 -14t-16 -7.5t-23.5 -2.5q-45 0 -45 31
q0 10 4 24q2 12 6 21t10 14t15.5 7.5t23.5 2.5q45 0 45 -31zM549 844q0 -10 -4 -24q-2 -12 -6 -21t-10 -14t-16 -7.5t-23 -2.5q-45 0 -45 31q0 10 3 24q3 12 7 21t10 14t15.5 7.5t23.5 2.5q45 0 45 -31z" />
    <glyph glyph-name="Otilde" unicode="&#xd5;" 
d="M547 509q0 -35 -5.5 -76.5t-13.5 -84.5q-19 -101 -44.5 -169.5t-61 -111.5t-83 -62t-112.5 -19q-97 0 -141 47.5t-44 152.5q0 35 5 76.5t13 84.5q20 101 45.5 169.5t61 111.5t83 62t112.5 19q96 0 140.5 -47.5t44.5 -152.5zM468 504q0 75 -26.5 108t-89.5 33
q-43 0 -75 -15t-57 -50.5t-44.5 -93t-35.5 -141.5q-4 -19 -7.5 -40t-6 -41t-4 -39t-1.5 -34q0 -75 26 -108t89 -33q43 0 75 15t57.5 50.5t44.5 92.5t36 142q4 19 7.5 40t6 41t4 39t1.5 34zM222 812q22 26 48 42t61 16q18 0 32.5 -5.5t26.5 -13t24 -13t26 -5.5q17 0 34.5 8.5
t33.5 26.5l30 -34q-21 -26 -47.5 -42t-60.5 -16q-19 0 -33 6t-26.5 12.5t-24 12.5t-25.5 6q-18 0 -35 -8.5t-33 -26.5z" />
    <glyph glyph-name="Obreve" unicode="&#x14e;" 
d="M547 509q0 -35 -5.5 -76.5t-13.5 -84.5q-19 -101 -44.5 -169.5t-61 -111.5t-83 -62t-112.5 -19q-97 0 -141 47.5t-44 152.5q0 35 5 76.5t13 84.5q20 101 45.5 169.5t61 111.5t83 62t112.5 19q96 0 140.5 -47.5t44.5 -152.5zM468 504q0 75 -26.5 108t-89.5 33
q-43 0 -75 -15t-57 -50.5t-44.5 -93t-35.5 -141.5q-4 -19 -7.5 -40t-6 -41t-4 -39t-1.5 -34q0 -75 26 -108t89 -33q43 0 75 15t57.5 50.5t44.5 92.5t36 142q4 19 7.5 40t6 41t4 39t1.5 34zM312 879q-3 -27 13 -46t53 -19q38 0 60.5 19t28.5 46h56q-4 -25 -16 -46
t-31.5 -37.5t-46 -26t-58.5 -9.5t-55 9.5t-37 26t-19 37.5t-1 46h53z" />
    <glyph glyph-name="Omacron" unicode="&#x14c;" 
d="M547 509q0 -35 -5.5 -76.5t-13.5 -84.5q-19 -101 -44.5 -169.5t-61 -111.5t-83 -62t-112.5 -19q-97 0 -141 47.5t-44 152.5q0 35 5 76.5t13 84.5q20 101 45.5 169.5t61 111.5t83 62t112.5 19q96 0 140.5 -47.5t44.5 -152.5zM468 504q0 75 -26.5 108t-89.5 33
q-43 0 -75 -15t-57 -50.5t-44.5 -93t-35.5 -141.5q-4 -19 -7.5 -40t-6 -41t-4 -39t-1.5 -34q0 -75 26 -108t89 -33q43 0 75 15t57.5 50.5t44.5 92.5t36 142q4 19 7.5 40t6 41t4 39t1.5 34zM233 852h313l-11 -56h-312z" />
    <glyph glyph-name="Ocaron" unicode="&#x1d1;" 
d="M547 509q0 -35 -5.5 -76.5t-13.5 -84.5q-19 -101 -44.5 -169.5t-61 -111.5t-83 -62t-112.5 -19q-97 0 -141 47.5t-44 152.5q0 35 5 76.5t13 84.5q20 101 45.5 169.5t61 111.5t83 62t112.5 19q96 0 140.5 -47.5t44.5 -152.5zM468 504q0 75 -26.5 108t-89.5 33
q-43 0 -75 -15t-57 -50.5t-44.5 -93t-35.5 -141.5q-4 -19 -7.5 -40t-6 -41t-4 -39t-1.5 -34q0 -75 26 -108t89 -33q43 0 75 15t57.5 50.5t44.5 92.5t36 142q4 19 7.5 40t6 41t4 39t1.5 34zM282 888l98 -62l119 62l21 -46l-150 -84l-119 84z" />
    <glyph glyph-name="Odotaccent" unicode="&#x22e;" 
d="M547 509q0 -35 -5.5 -76.5t-13.5 -84.5q-19 -101 -44.5 -169.5t-61 -111.5t-83 -62t-112.5 -19q-97 0 -141 47.5t-44 152.5q0 35 5 76.5t13 84.5q20 101 45.5 169.5t61 111.5t83 62t112.5 19q96 0 140.5 -47.5t44.5 -152.5zM468 504q0 75 -26.5 108t-89.5 33
q-43 0 -75 -15t-57 -50.5t-44.5 -93t-35.5 -141.5q-4 -19 -7.5 -40t-6 -41t-4 -39t-1.5 -34q0 -75 26 -108t89 -33q43 0 75 15t57.5 50.5t44.5 92.5t36 142q4 19 7.5 40t6 41t4 39t1.5 34zM436 843q0 -6 -0.5 -11.5t-2.5 -11.5q-2 -13 -6.5 -21.5t-11 -13.5t-16 -7.5
t-23.5 -2.5q-23 0 -34 7.5t-11 24.5q0 6 1 11.5t2 11.5q2 13 6.5 21.5t11 14t16 7.5t23.5 2q24 0 34.5 -7t10.5 -25z" />
    <glyph glyph-name="Ohungarumlaut" unicode="&#x150;" 
d="M547 509q0 -35 -5.5 -76.5t-13.5 -84.5q-19 -101 -44.5 -169.5t-61 -111.5t-83 -62t-112.5 -19q-97 0 -141 47.5t-44 152.5q0 35 5 76.5t13 84.5q20 101 45.5 169.5t61 111.5t83 62t112.5 19q96 0 140.5 -47.5t44.5 -152.5zM468 504q0 75 -26.5 108t-89.5 33
q-43 0 -75 -15t-57 -50.5t-44.5 -93t-35.5 -141.5q-4 -19 -7.5 -40t-6 -41t-4 -39t-1.5 -34q0 -75 26 -108t89 -33q43 0 75 15t57.5 50.5t44.5 92.5t36 142q4 19 7.5 40t6 41t4 39t1.5 34zM397 908l37 -46l-154 -104l-28 36zM591 897l30 -52l-162 -88l-25 40z" />
    <glyph glyph-name="Oslashacute" unicode="&#x1fe;" 
d="M454 913l44 -48l-141 -122l-33 36zM74 50q-17 25 -24.5 57.5t-7.5 78.5q0 35 5 76.5t13 84.5q20 101 45.5 169.5t61 111.5t83 62t112.5 19q36 0 63 -6.5t47 -20.5l62 99l50 -27l-69 -109q17 -24 24.5 -57t7.5 -79q0 -35 -5 -75.5t-14 -85.5q-19 -101 -44.5 -169.5
t-61 -111.5t-83 -62t-112.5 -19q-36 0 -63 6.5t-47 20.5l-62 -98l-50 27zM438 626q-16 12 -36.5 18t-48.5 6q-46 0 -79.5 -16t-59.5 -51.5t-45.5 -94t-36.5 -143.5q-8 -40 -13.5 -81.5t-5.5 -72.5q0 -19 1.5 -35.5t5.5 -31.5zM151 69q16 -12 36.5 -18t48.5 -6q45 0 78.5 16
t59.5 51.5t45.5 93.5t36.5 144q8 40 14 81.5t6 72.5q0 19 -1.5 35.5t-5.5 31.5z" />
    <glyph glyph-name="P" unicode="P" 
d="M168 695h191q56 0 95.5 -9t64.5 -26.5t36.5 -43.5t11.5 -61q0 -122 -74.5 -187.5t-213.5 -65.5h-107l-59 -302h-80zM287 365q48 0 85.5 12t62.5 35t38 56.5t13 75.5q0 46 -30.5 67.5t-105.5 21.5h-115l-52 -268h104z" />
    <glyph glyph-name="Thorn" unicode="&#xde;" 
d="M168 695h80l-29 -146h111q57 0 96.5 -8.5t64.5 -26.5t36.5 -44t11.5 -61q0 -122 -74 -187t-213 -65h-110l-29 -157h-80zM259 219q49 0 85.5 12t62 35t38.5 56.5t13 76.5q0 46 -30.5 67t-105.5 21h-115l-52 -268h104z" />
    <glyph glyph-name="Q" unicode="Q" 
d="M357 98q32 38 53 100t39 152q4 19 7.5 40t6 41t4 39t1.5 34q0 75 -26.5 108t-89.5 33q-43 0 -75 -15t-57 -50.5t-44.5 -93t-35.5 -141.5q-5 -19 -8.5 -40t-5.5 -41t-3.5 -39t-1.5 -34q0 -75 26 -108t89 -33q20 0 37 3.5t30 9.5l-60 114l59 30zM450 -82l-58 -30l-61 118
q-19 -10 -44 -15t-60 -5q-97 0 -141 47.5t-44 152.5q0 35 5 76.5t13 84.5q20 101 45.5 169.5t61 111.5t83 62t112.5 19q96 0 140.5 -47.5t44.5 -152.5q0 -35 -5.5 -76.5t-13.5 -84.5q-12 -62 -26 -111.5t-30.5 -87.5t-37 -66t-45.5 -48z" />
    <glyph glyph-name="R" unicode="R" 
d="M163 695h183q58 0 98.5 -9t65.5 -26t36 -42t11 -57q0 -53 -15 -93.5t-44 -68.5t-71.5 -44t-96.5 -19l140 -336h-86l-136 329h-77l-63 -329h-80zM287 391q51 0 87 10t58.5 30.5t33 49.5t10.5 68q0 21 -6.5 37t-22.5 26t-43 15.5t-67 5.5h-107l-47 -242h104z" />
    <glyph glyph-name="Racute" unicode="&#x154;" 
d="M163 695h183q58 0 98.5 -9t65.5 -26t36 -42t11 -57q0 -53 -15 -93.5t-44 -68.5t-71.5 -44t-96.5 -19l140 -336h-86l-136 329h-77l-63 -329h-80zM287 391q51 0 87 10t58.5 30.5t33 49.5t10.5 68q0 21 -6.5 37t-22.5 26t-43 15.5t-67 5.5h-107l-47 -242h104zM477 893
l23 -57l-173 -72l-18 44z" />
    <glyph glyph-name="Rcaron" unicode="&#x158;" 
d="M163 695h183q58 0 98.5 -9t65.5 -26t36 -42t11 -57q0 -53 -15 -93.5t-44 -68.5t-71.5 -44t-96.5 -19l140 -336h-86l-136 329h-77l-63 -329h-80zM287 391q51 0 87 10t58.5 30.5t33 49.5t10.5 68q0 21 -6.5 37t-22.5 26t-43 15.5t-67 5.5h-107l-47 -242h104zM266 888
l98 -62l119 62l21 -46l-150 -84l-119 84z" />
    <glyph glyph-name="Rcommaaccent" unicode="&#x156;" 
d="M163 695h183q58 0 98.5 -9t65.5 -26t36 -42t11 -57q0 -53 -15 -93.5t-44 -68.5t-71.5 -44t-96.5 -19l140 -336h-86l-136 329h-77l-63 -329h-80zM287 391q51 0 87 10t58.5 30.5t33 49.5t10.5 68q0 21 -6.5 37t-22.5 26t-43 15.5t-67 5.5h-107l-47 -242h104zM52 -183
q11 5 28 12t34.5 15t32.5 15t24 12q1 29 12.5 42t38.5 13q21 0 29.5 -7.5t8.5 -22.5v-7.5t-2 -10.5q-2 -14 -8.5 -22.5t-18.5 -16t-32 -14.5t-51 -16q-9 -3 -20.5 -6.5t-23.5 -7.5t-23.5 -7.5t-19.5 -5.5z" />
    <glyph glyph-name="S" unicode="S" 
d="M38 75q19 -6 40 -10.5t42.5 -7.5t43 -4.5t42.5 -1.5q103 0 151.5 37.5t48.5 101.5q0 21 -6 37t-22 31t-42 31.5t-65 36.5q-44 24 -74 43t-49 40t-27 46t-8 58q0 92 67.5 143t203.5 51q20 0 41.5 -1.5t41.5 -4.5t39.5 -7t36.5 -8l-17 -63q-30 9 -69 15t-79 6
q-96 0 -140.5 -32t-44.5 -87q0 -21 5.5 -37t20.5 -30.5t40.5 -30.5t65.5 -37q45 -24 75.5 -44t50 -41t27.5 -45.5t8 -57.5q0 -100 -71.5 -157t-212.5 -57q-49 0 -92.5 6.5t-85.5 17.5z" />
    <glyph glyph-name="Scedilla" unicode="&#x15e;" 
d="M173 -11q-38 2 -77 8t-72 15l14 63q19 -6 40 -10.5t42.5 -7.5t43 -4.5t42.5 -1.5q103 0 151.5 37.5t48.5 101.5q0 21 -6 37t-22 31t-42 31.5t-65 36.5q-44 24 -74 43t-49 40t-27 46t-8 58q0 92 67.5 143t203.5 51q20 0 41.5 -1.5t41.5 -4.5t39.5 -7t36.5 -8l-17 -63
q-30 9 -69 15t-79 6q-96 0 -140.5 -32t-44.5 -87q0 -21 5.5 -37t20.5 -30.5t40.5 -30.5t65.5 -37q45 -24 75.5 -44t50 -41t27.5 -45.5t8 -57.5q0 -98 -68 -153t-191 -60l-13 -43q44 -1 64 -19t20 -49q0 -20 -9 -38t-26.5 -32t-44 -22t-61.5 -8q-17 0 -34.5 1.5t-31.5 5.5
l11 44q14 -3 27.5 -4.5t29.5 -1.5q42 0 58.5 16t16.5 35q0 16 -13.5 24t-47.5 8h-26z" />
    <glyph glyph-name="uni1E9E" unicode="&#x1e9e;" 
d="M149 695h399l-12 -57l-172 -226q69 -12 107.5 -55.5t38.5 -112.5q0 -57 -17.5 -103.5t-50 -80t-78.5 -51.5t-103 -18q-28 0 -52.5 3.5t-45.5 9.5l14 59q21 -4 39 -7t42 -3q41 0 72.5 13.5t53 38t32.5 58.5t11 74q0 26 -8.5 48.5t-27 38.5t-48.5 25.5t-72 9.5l10 56
l167 217h-232l-122 -632h-80z" />
    <glyph glyph-name="Sacute" unicode="&#x15a;" 
d="M38 75q19 -6 40 -10.5t42.5 -7.5t43 -4.5t42.5 -1.5q103 0 151.5 37.5t48.5 101.5q0 21 -6 37t-22 31t-42 31.5t-65 36.5q-44 24 -74 43t-49 40t-27 46t-8 58q0 92 67.5 143t203.5 51q20 0 41.5 -1.5t41.5 -4.5t39.5 -7t36.5 -8l-17 -63q-30 9 -69 15t-79 6
q-96 0 -140.5 -32t-44.5 -87q0 -21 5.5 -37t20.5 -30.5t40.5 -30.5t65.5 -37q45 -24 75.5 -44t50 -41t27.5 -45.5t8 -57.5q0 -100 -71.5 -157t-212.5 -57q-49 0 -92.5 6.5t-85.5 17.5zM489 893l23 -57l-173 -72l-18 44z" />
    <glyph glyph-name="Scircumflex" unicode="&#x15c;" 
d="M38 75q19 -6 40 -10.5t42.5 -7.5t43 -4.5t42.5 -1.5q103 0 151.5 37.5t48.5 101.5q0 21 -6 37t-22 31t-42 31.5t-65 36.5q-44 24 -74 43t-49 40t-27 46t-8 58q0 92 67.5 143t203.5 51q20 0 41.5 -1.5t41.5 -4.5t39.5 -7t36.5 -8l-17 -63q-30 9 -69 15t-79 6
q-96 0 -140.5 -32t-44.5 -87q0 -21 5.5 -37t20.5 -30.5t40.5 -30.5t65.5 -37q45 -24 75.5 -44t50 -41t27.5 -45.5t8 -57.5q0 -100 -71.5 -157t-212.5 -57q-49 0 -92.5 6.5t-85.5 17.5zM399 895l119 -84l-31 -45l-98 61l-119 -61l-21 45z" />
    <glyph glyph-name="Scaron" unicode="&#x160;" 
d="M38 75q19 -6 40 -10.5t42.5 -7.5t43 -4.5t42.5 -1.5q103 0 151.5 37.5t48.5 101.5q0 21 -6 37t-22 31t-42 31.5t-65 36.5q-44 24 -74 43t-49 40t-27 46t-8 58q0 92 67.5 143t203.5 51q20 0 41.5 -1.5t41.5 -4.5t39.5 -7t36.5 -8l-17 -63q-30 9 -69 15t-79 6
q-96 0 -140.5 -32t-44.5 -87q0 -21 5.5 -37t20.5 -30.5t40.5 -30.5t65.5 -37q45 -24 75.5 -44t50 -41t27.5 -45.5t8 -57.5q0 -100 -71.5 -157t-212.5 -57q-49 0 -92.5 6.5t-85.5 17.5zM285 888l98 -62l119 62l21 -46l-150 -84l-119 84z" />
    <glyph glyph-name="Scommaaccent" unicode="&#x218;" 
d="M38 75q19 -6 40 -10.5t42.5 -7.5t43 -4.5t42.5 -1.5q103 0 151.5 37.5t48.5 101.5q0 21 -6 37t-22 31t-42 31.5t-65 36.5q-44 24 -74 43t-49 40t-27 46t-8 58q0 92 67.5 143t203.5 51q20 0 41.5 -1.5t41.5 -4.5t39.5 -7t36.5 -8l-17 -63q-30 9 -69 15t-79 6
q-96 0 -140.5 -32t-44.5 -87q0 -21 5.5 -37t20.5 -30.5t40.5 -30.5t65.5 -37q45 -24 75.5 -44t50 -41t27.5 -45.5t8 -57.5q0 -100 -71.5 -157t-212.5 -57q-49 0 -92.5 6.5t-85.5 17.5zM50 -183q11 5 28 12t34.5 15t32.5 15t24 12q1 29 12.5 42t38.5 13q21 0 29.5 -7.5
t8.5 -22.5v-7.5t-2 -10.5q-2 -14 -8.5 -22.5t-18.5 -16t-32 -14.5t-51 -16q-9 -3 -20.5 -6.5t-23.5 -7.5t-23.5 -7.5t-19.5 -5.5z" />
    <glyph glyph-name="T" unicode="T" 
d="M309 630h-208l14 65h496l-13 -65h-209l-122 -630h-79z" />
    <glyph glyph-name="Tbar" unicode="&#x166;" 
d="M250 325h-146l11 60h147l47 245h-208l14 65h496l-13 -65h-209l-48 -245h147l-11 -60h-147l-63 -325h-79z" />
    <glyph glyph-name="Tcaron" unicode="&#x164;" 
d="M309 630h-208l14 65h496l-13 -65h-209l-122 -630h-79zM275 888l98 -62l119 62l21 -46l-150 -84l-119 84z" />
    <glyph glyph-name="Tcommaaccent" unicode="&#x21a;" 
d="M309 630h-208l14 65h496l-13 -65h-209l-122 -630h-79zM47 -183q11 5 28 12t34.5 15t32.5 15t24 12q1 29 12.5 42t38.5 13q21 0 29.5 -7.5t8.5 -22.5v-7.5t-2 -10.5q-2 -14 -8.5 -22.5t-18.5 -16t-32 -14.5t-51 -16q-9 -3 -20.5 -6.5t-23.5 -7.5t-23.5 -7.5t-19.5 -5.5z
" />
    <glyph glyph-name="uni0162" unicode="&#x162;" 
d="M309 630h-208l14 65h496l-13 -65h-209l-122 -630h-15l-16 -54q44 -1 64 -19t20 -49q0 -20 -9 -38t-26.5 -32t-44 -22t-60.5 -8q-18 0 -35.5 1.5t-30.5 5.5l10 44q14 -3 27.5 -4.5t30.5 -1.5q41 0 58 16t17 35q0 16 -13.5 24t-47.5 8h-26l29 94h-11z" />
    <glyph glyph-name="U" unicode="U" 
d="M225 695l-90 -463q-5 -22 -7.5 -41.5t-2.5 -36.5q0 -50 25.5 -77t84.5 -27q42 0 71 11.5t49.5 35t33.5 58.5t22 82l90 458h79l-91 -465q-12 -62 -32.5 -108t-51.5 -76t-75 -45t-103 -15q-90 0 -135.5 40t-45.5 123q0 21 3 42.5t8 48.5l88 455h80z" />
    <glyph glyph-name="Uogonek" unicode="&#x172;" 
d="M225 695l-90 -463q-5 -22 -7.5 -41.5t-2.5 -36.5q0 -50 25.5 -77t84.5 -27q42 0 71 11.5t49.5 35t33.5 58.5t22 82l90 458h79l-91 -465q-9 -50 -23 -86.5t-33 -63.5t-42.5 -46t-51.5 -33q-22 -11 -45 -26.5t-42 -34t-31 -38t-12 -37.5q0 -32 41 -32q18 0 33.5 3t29.5 8
l3 -52q-20 -6 -42 -10t-46 -4q-45 0 -67.5 18.5t-22.5 54.5q0 22 10 42.5t26 38.5t35 32.5t35 24.5q-11 -1 -16.5 -1h-11.5q-40 0 -72 9.5t-53.5 29.5t-33 50.5t-11.5 71.5q0 21 3 43t8 48l88 455h80z" />
    <glyph glyph-name="Ugrave" unicode="&#xd9;" 
d="M225 695l-90 -463q-5 -22 -7.5 -41.5t-2.5 -36.5q0 -50 25.5 -77t84.5 -27q42 0 71 11.5t49.5 35t33.5 58.5t22 82l90 458h79l-91 -465q-12 -62 -32.5 -108t-51.5 -76t-75 -45t-103 -15q-90 0 -135.5 40t-45.5 123q0 21 3 42.5t8 48.5l88 455h80zM272 899l156 -91
l-26 -45l-162 79z" />
    <glyph glyph-name="Uacute" unicode="&#xda;" 
d="M225 695l-90 -463q-5 -22 -7.5 -41.5t-2.5 -36.5q0 -50 25.5 -77t84.5 -27q42 0 71 11.5t49.5 35t33.5 58.5t22 82l90 458h79l-91 -465q-12 -62 -32.5 -108t-51.5 -76t-75 -45t-103 -15q-90 0 -135.5 40t-45.5 123q0 21 3 42.5t8 48.5l88 455h80zM494 893l23 -57
l-173 -72l-18 44z" />
    <glyph glyph-name="Ucircumflex" unicode="&#xdb;" 
d="M225 695l-90 -463q-5 -22 -7.5 -41.5t-2.5 -36.5q0 -50 25.5 -77t84.5 -27q42 0 71 11.5t49.5 35t33.5 58.5t22 82l90 458h79l-91 -465q-12 -62 -32.5 -108t-51.5 -76t-75 -45t-103 -15q-90 0 -135.5 40t-45.5 123q0 21 3 42.5t8 48.5l88 455h80zM397 895l119 -84
l-31 -45l-98 61l-119 -61l-21 45z" />
    <glyph glyph-name="Udieresis" unicode="&#xdc;" 
d="M225 695l-90 -463q-5 -22 -7.5 -41.5t-2.5 -36.5q0 -50 25.5 -77t84.5 -27q42 0 71 11.5t49.5 35t33.5 58.5t22 82l90 458h79l-91 -465q-12 -62 -32.5 -108t-51.5 -76t-75 -45t-103 -15q-90 0 -135.5 40t-45.5 123q0 21 3 42.5t8 48.5l88 455h80zM324 844q0 -10 -3 -24
q-3 -12 -6.5 -21t-10 -14t-16 -7.5t-23.5 -2.5q-45 0 -45 31q0 10 4 24q2 12 6 21t10 14t15.5 7.5t23.5 2.5q45 0 45 -31zM553 844q0 -10 -4 -24q-2 -12 -6 -21t-10 -14t-16 -7.5t-23 -2.5q-45 0 -45 31q0 10 3 24q3 12 7 21t10 14t15.5 7.5t23.5 2.5q45 0 45 -31z" />
    <glyph glyph-name="Utilde" unicode="&#x168;" 
d="M225 695l-90 -463q-5 -22 -7.5 -41.5t-2.5 -36.5q0 -50 25.5 -77t84.5 -27q42 0 71 11.5t49.5 35t33.5 58.5t22 82l90 458h79l-91 -465q-12 -62 -32.5 -108t-51.5 -76t-75 -45t-103 -15q-90 0 -135.5 40t-45.5 123q0 21 3 42.5t8 48.5l88 455h80zM225 812q22 26 48 42
t61 16q18 0 32.5 -5.5t26.5 -13t24 -13t26 -5.5q17 0 34.5 8.5t33.5 26.5l30 -34q-21 -26 -47.5 -42t-60.5 -16q-19 0 -33 6t-26.5 12.5t-24 12.5t-25.5 6q-18 0 -35 -8.5t-33 -26.5z" />
    <glyph glyph-name="Ubreve" unicode="&#x16c;" 
d="M225 695l-90 -463q-5 -22 -7.5 -41.5t-2.5 -36.5q0 -50 25.5 -77t84.5 -27q42 0 71 11.5t49.5 35t33.5 58.5t22 82l90 458h79l-91 -465q-12 -62 -32.5 -108t-51.5 -76t-75 -45t-103 -15q-90 0 -135.5 40t-45.5 123q0 21 3 42.5t8 48.5l88 455h80zM316 879q-3 -27 13 -46
t53 -19q38 0 60.5 19t28.5 46h56q-4 -25 -16 -46t-31.5 -37.5t-46 -26t-58.5 -9.5t-55 9.5t-37 26t-19 37.5t-1 46h53z" />
    <glyph glyph-name="Umacron" unicode="&#x16a;" 
d="M225 695l-90 -463q-5 -22 -7.5 -41.5t-2.5 -36.5q0 -50 25.5 -77t84.5 -27q42 0 71 11.5t49.5 35t33.5 58.5t22 82l90 458h79l-91 -465q-12 -62 -32.5 -108t-51.5 -76t-75 -45t-103 -15q-90 0 -135.5 40t-45.5 123q0 21 3 42.5t8 48.5l88 455h80zM233 852h313l-11 -56
h-312z" />
    <glyph glyph-name="Ucaron" unicode="&#x1d3;" 
d="M225 695l-90 -463q-5 -22 -7.5 -41.5t-2.5 -36.5q0 -50 25.5 -77t84.5 -27q42 0 71 11.5t49.5 35t33.5 58.5t22 82l90 458h79l-91 -465q-12 -62 -32.5 -108t-51.5 -76t-75 -45t-103 -15q-90 0 -135.5 40t-45.5 123q0 21 3 42.5t8 48.5l88 455h80zM281 888l98 -62l119 62
l21 -46l-150 -84l-119 84z" />
    <glyph glyph-name="Uring" unicode="&#x16e;" 
d="M225 695l-90 -463q-5 -22 -7.5 -41.5t-2.5 -36.5q0 -50 25.5 -77t84.5 -27q42 0 71 11.5t49.5 35t33.5 58.5t22 82l90 458h79l-91 -465q-12 -62 -32.5 -108t-51.5 -76t-75 -45t-103 -15q-90 0 -135.5 40t-45.5 123q0 21 3 42.5t8 48.5l88 455h80zM487 835q0 -22 -8 -41
t-22.5 -33t-34 -22t-41.5 -8q-21 0 -39 6.5t-30.5 18.5t-20 29.5t-7.5 39.5q0 23 8 41.5t22 32.5t33.5 22t42.5 8q41 0 69 -25t28 -69zM438 833q0 26 -13.5 39t-36.5 13q-25 0 -40 -15t-15 -43q0 -25 13.5 -38.5t36.5 -13.5q24 0 39.5 15t15.5 43z" />
    <glyph glyph-name="Uhungarumlaut" unicode="&#x170;" 
d="M225 695l-90 -463q-5 -22 -7.5 -41.5t-2.5 -36.5q0 -50 25.5 -77t84.5 -27q42 0 71 11.5t49.5 35t33.5 58.5t22 82l90 458h79l-91 -465q-12 -62 -32.5 -108t-51.5 -76t-75 -45t-103 -15q-90 0 -135.5 40t-45.5 123q0 21 3 42.5t8 48.5l88 455h80zM397 908l37 -46
l-154 -104l-28 36zM591 897l30 -52l-162 -88l-25 40z" />
    <glyph glyph-name="V" unicode="V" 
d="M183 695l39 -407q6 -57 9.5 -114t6.5 -118h2q26 61 51.5 118t53.5 113l198 408h80l-338 -695h-115l-68 695h81z" />
    <glyph glyph-name="W" unicode="W" 
d="M158 695l-26 -418q-2 -27 -3.5 -51.5t-3.5 -49.5t-5 -51t-6 -55h3q9 29 19.5 58.5t23.5 65.5l124 341h94l-8 -341q-1 -34 -2 -64t-3 -60h3q8 29 16 55t15.5 51l15 50t16.5 51l137 418h70l-226 -695h-110l8 341q0 36 2 61t5 55h-3q-4 -14 -8 -27.5t-8.5 -27t-10 -28.5
t-11.5 -33l-123 -341h-109l44 695h70z" />
    <glyph glyph-name="Wcircumflex" unicode="&#x174;" 
d="M158 695l-26 -418q-2 -27 -3.5 -51.5t-3.5 -49.5t-5 -51t-6 -55h3q9 29 19.5 58.5t23.5 65.5l124 341h94l-8 -341q-1 -34 -2 -64t-3 -60h3q8 29 16 55t15.5 51l15 50t16.5 51l137 418h70l-226 -695h-110l8 341q0 36 2 61t5 55h-3q-4 -14 -8 -27.5t-8.5 -27t-10 -28.5
t-11.5 -33l-123 -341h-109l44 695h70zM395 895l119 -84l-31 -45l-98 61l-119 -61l-21 45z" />
    <glyph glyph-name="X" unicode="X" 
d="M196 695l113 -289h3q18 26 33 47.5t34 46.5l148 195h88l-267 -345l140 -350h-85l-122 303h-2q-16 -24 -31 -45t-34 -46l-160 -212h-87l276 359l-132 336h85z" />
    <glyph glyph-name="Y" unicode="Y" 
d="M178 695l75 -219q13 -41 21 -69t18 -65h2q12 19 22.5 35.5t21 32t21.5 32t24 34.5l156 219h87l-309 -434l-50 -261h-80l51 262l-138 433h78z" />
    <glyph glyph-name="Yacute" unicode="&#xdd;" 
d="M178 695l75 -219q13 -41 21 -69t18 -65h2q12 19 22.5 35.5t21 32t21.5 32t24 34.5l156 219h87l-309 -434l-50 -261h-80l51 262l-138 433h78zM497 893l23 -57l-173 -72l-18 44z" />
    <glyph glyph-name="Ycircumflex" unicode="&#x176;" 
d="M178 695l75 -219q13 -41 21 -69t18 -65h2q12 19 22.5 35.5t21 32t21.5 32t24 34.5l156 219h87l-309 -434l-50 -261h-80l51 262l-138 433h78zM394 895l119 -84l-31 -45l-98 61l-119 -61l-21 45z" />
    <glyph glyph-name="Ydieresis" unicode="&#x178;" 
d="M178 695l75 -219q13 -41 21 -69t18 -65h2q12 19 22.5 35.5t21 32t21.5 32t24 34.5l156 219h87l-309 -434l-50 -261h-80l51 262l-138 433h78zM320 844q0 -10 -3 -24q-3 -12 -6.5 -21t-10 -14t-16 -7.5t-23.5 -2.5q-45 0 -45 31q0 10 4 24q2 12 6 21t10 14t15.5 7.5
t23.5 2.5q45 0 45 -31zM549 844q0 -10 -4 -24q-2 -12 -6 -21t-10 -14t-16 -7.5t-23 -2.5q-45 0 -45 31q0 10 3 24q3 12 7 21t10 14t15.5 7.5t23.5 2.5q45 0 45 -31z" />
    <glyph glyph-name="Ymacron" unicode="&#x232;" 
d="M178 695l75 -219q13 -41 21 -69t18 -65h2q12 19 22.5 35.5t21 32t21.5 32t24 34.5l156 219h87l-309 -434l-50 -261h-80l51 262l-138 433h78zM233 852h313l-11 -56h-312z" />
    <glyph glyph-name="Z" unicode="Z" 
d="M14 59l451 571h-327l13 65h428l-12 -59l-453 -571h350l-12 -65h-449z" />
    <glyph glyph-name="Zacute" unicode="&#x179;" 
d="M14 59l451 571h-327l13 65h428l-12 -59l-453 -571h350l-12 -65h-449zM501 893l23 -57l-173 -72l-18 44z" />
    <glyph glyph-name="Zcaron" unicode="&#x17d;" 
d="M14 59l451 571h-327l13 65h428l-12 -59l-453 -571h350l-12 -65h-449zM294 888l98 -62l119 62l21 -46l-150 -84l-119 84z" />
    <glyph glyph-name="Zdotaccent" unicode="&#x17b;" 
d="M14 59l451 571h-327l13 65h428l-12 -59l-453 -571h350l-12 -65h-449zM445 843q0 -6 -0.5 -11.5t-2.5 -11.5q-2 -13 -6.5 -21.5t-11 -13.5t-16 -7.5t-23.5 -2.5q-23 0 -34 7.5t-11 24.5q0 6 1 11.5t2 11.5q2 13 6.5 21.5t11 14t16 7.5t23.5 2q24 0 34.5 -7t10.5 -25z" />
    <glyph glyph-name="grave" unicode="`" 
d="M333 748l97 -144l-40 -33l-109 136z" />
    <glyph glyph-name="grave.cap" 
d="M327 899l156 -91l-26 -45l-162 79z" />
    <glyph glyph-name="acute" unicode="&#xb4;" 
d="M398 742l44 -48l-141 -122l-33 36z" />
    <glyph glyph-name="acute.cap" 
d="M461 893l23 -57l-173 -72l-18 44z" />
    <glyph glyph-name="circumflex" unicode="&#x2c6;" 
d="M367 741l108 -127l-38 -40l-82 90l-109 -88l-30 39z" />
    <glyph glyph-name="circumflex.cap" 
d="M399 895l119 -84l-31 -45l-98 61l-119 -61l-21 45z" />
    <glyph glyph-name="dieresis" unicode="&#xa8;" 
d="M308 673q0 -9 -3 -22q-5 -25 -17.5 -35.5t-38.5 -10.5q-45 0 -45 30q0 8 3 22q5 25 18 36t39 11q44 0 44 -31zM502 673q0 -9 -3 -22q-4 -25 -17 -35.5t-39 -10.5q-44 0 -44 30q0 8 2 22q5 25 18 36t40 11q43 0 43 -31z" />
    <glyph glyph-name="dieresis.cap" 
d="M325 844q0 -10 -3 -24q-3 -12 -6.5 -21t-10 -14t-16 -7.5t-23.5 -2.5q-45 0 -45 31q0 10 4 24q2 12 6 21t10 14t15.5 7.5t23.5 2.5q45 0 45 -31zM554 844q0 -10 -4 -24q-2 -12 -6 -21t-10 -14t-16 -7.5t-23 -2.5q-45 0 -45 31q0 10 3 24q3 12 7 21t10 14t15.5 7.5
t23.5 2.5q45 0 45 -31z" />
    <glyph glyph-name="tilde" unicode="&#x2dc;" 
d="M198 626q10 17 21.5 32t25 25t29 16t32.5 6q19 0 33 -8t26 -18t23 -18t23 -8q16 0 31.5 12.5t29.5 36.5l37 -28q-10 -18 -22 -32.5t-25.5 -25t-28.5 -16t-32 -5.5q-19 0 -33 7.5t-26 17.5t-23 18.5t-23 8.5q-16 0 -31.5 -13t-29.5 -36z" />
    <glyph glyph-name="tilde.cap" 
d="M229 812q22 26 48 42t61 16q18 0 32.5 -5.5t26.5 -13t24 -13t26 -5.5q17 0 34.5 8.5t33.5 26.5l30 -34q-21 -26 -47.5 -42t-60.5 -16q-19 0 -33 6t-26.5 12.5t-24 12.5t-25.5 6q-18 0 -35 -8.5t-33 -26.5z" />
    <glyph glyph-name="breve" unicode="&#x2d8;" 
d="M300 714q-5 -33 8 -54t45 -21q29 0 50 21t27 54h57q-10 -58 -47.5 -94.5t-94.5 -36.5q-59 0 -84.5 36.5t-15.5 94.5h55z" />
    <glyph glyph-name="breve.cap" 
d="M319 879q-3 -27 13 -46t53 -19q38 0 60.5 19t28.5 46h56q-4 -25 -16 -46t-31.5 -37.5t-46 -26t-58.5 -9.5t-55 9.5t-37 26t-19 37.5t-1 46h53z" />
    <glyph glyph-name="macron" unicode="&#xaf;" 
d="M230 680h258l-11 -59h-258z" />
    <glyph glyph-name="macron" unicode="&#x2c9;" 
d="M230 680h258l-11 -59h-258z" />
    <glyph glyph-name="macron" unicode="&#x2c9;" 
d="M230 680h258l-11 -59h-258z" />
    <glyph glyph-name="macron.cap" 
d="M236 852h313l-11 -56h-312z" />
    <glyph glyph-name="caron" unicode="&#x2c7;" 
d="M271 736l82 -90l110 88l29 -38l-150 -127l-109 127z" />
    <glyph glyph-name="caron.cap" 
d="M287 888l98 -62l119 62l21 -46l-150 -84l-119 84z" />
    <glyph glyph-name="apostrophe" unicode="&#x2bc;" 
d="M276 562q18 22 37.5 49t32.5 48q-7 4 -10.5 10.5t-3.5 17.5v7t2 10q2 11 5 18.5t9 12.5t14.5 7t21.5 2q22 0 30 -7.5t8 -21.5v-6t-1 -10q-2 -14 -6 -23t-13 -22q-18 -23 -44.5 -54t-53.5 -59z" />
    <glyph glyph-name="dotaccent" unicode="&#x2d9;" 
d="M406 672q0 -6 -0.5 -11t-1.5 -11q-4 -25 -16 -35t-40 -10q-24 0 -35 7.5t-11 24.5q0 9 2 21q4 25 16 35.5t41 10.5q24 0 34.5 -8t10.5 -24z" />
    <glyph glyph-name="dotaccent.cap" 
d="M440 843q0 -6 -0.5 -11.5t-2.5 -11.5q-2 -13 -6.5 -21.5t-11 -13.5t-16 -7.5t-23.5 -2.5q-23 0 -34 7.5t-11 24.5q0 6 1 11.5t2 11.5q2 13 6.5 21.5t11 14t16 7.5t23.5 2q24 0 34.5 -7t10.5 -25z" />
    <glyph glyph-name="ring" unicode="&#x2da;" 
d="M457 664q0 -24 -8 -43.5t-22.5 -34t-34 -23t-41.5 -8.5q-44 0 -71 27t-27 71q0 23 8 43t22.5 34.5t34 22.5t41.5 8q44 0 71 -26.5t27 -70.5zM408 663q0 25 -13.5 40t-36.5 15q-25 0 -40.5 -17t-15.5 -47q0 -26 13 -40.5t37 -14.5q25 0 40.5 16.5t15.5 47.5z" />
    <glyph glyph-name="ring.cap" 
d="M489 835q0 -22 -8 -41t-22.5 -33t-34 -22t-41.5 -8q-21 0 -39 6.5t-30.5 18.5t-20 29.5t-7.5 39.5q0 23 8 41.5t22 32.5t33.5 22t42.5 8q41 0 69 -25t28 -69zM440 833q0 26 -13.5 39t-36.5 13q-25 0 -40 -15t-15 -43q0 -25 13.5 -38.5t36.5 -13.5q24 0 39.5 15t15.5 43z
" />
    <glyph glyph-name="hungarumlaut" unicode="&#x2dd;" 
d="M308 742l48 -39l-129 -128l-37 28zM468 734l45 -43l-139 -118l-34 31z" />
    <glyph glyph-name="hungarumlaut.cap" 
d="M341 908l37 -46l-154 -104l-28 36zM535 897l30 -52l-162 -88l-25 40z" />
    <glyph glyph-name="uni0315" unicode="&#x315;" 
d="M358 774l65 -18l-85 -193l-48 15z" />
    <glyph glyph-name="uni0312" unicode="&#x312;" 
d="M455 694q-11 -5 -28 -12t-34.5 -14.5t-32.5 -15t-24 -12.5q-1 -28 -12.5 -41.5t-38.5 -13.5q-21 0 -29.5 7.5t-8.5 22.5v8t2 10q2 13 8.5 22t18.5 16t32 14.5t51 16.5q8 3 19.5 7t23.5 7.5t23.5 7t20.5 6.5z" />
    <glyph glyph-name="uni0326" unicode="&#x326;" 
d="M84 -183q11 5 28 12t34.5 15t32.5 15t24 12q1 29 12.5 42t38.5 13q21 0 29.5 -7.5t8.5 -22.5v-7.5t-2 -10.5q-2 -14 -8.5 -22.5t-18.5 -16t-32 -14.5t-51 -16q-9 -3 -20.5 -6.5t-23.5 -7.5t-23.5 -7.5t-19.5 -5.5z" />
    <glyph glyph-name="ogonek" unicode="&#x2db;" 
d="M307 0q-26 -16 -49.5 -32.5t-41 -33.5t-28.5 -34.5t-11 -35.5q0 -17 11 -25t32 -8q18 0 33.5 3.5t29.5 8.5l3 -50q-20 -7 -42 -11t-46 -4q-45 0 -67 19t-22 54q0 23 11 44t29.5 40t41 35.5t46.5 29.5h70z" />
    <glyph glyph-name="ogonek.cap" 
d="M307 0q-26 -17 -49.5 -33.5t-41 -33t-27.5 -34t-10 -34.5q0 -32 41 -32q18 0 34 3t30 8l2 -52q-20 -6 -42 -10t-45 -4q-45 0 -68 18.5t-23 54.5q0 23 11 43.5t29 40t41 36t47 29.5h71z" />
    <glyph glyph-name="cedilla" unicode="&#xb8;" 
d="M180 0h52l-16 -54q43 -1 61.5 -19.5t18.5 -47.5q0 -21 -9.5 -39.5t-27 -32t-43 -21t-57.5 -7.5q-17 0 -33.5 1.5t-31.5 5.5l11 43q14 -3 27.5 -4.5t30.5 -1.5q39 0 55 16t16 35q0 16 -13 24.5t-46 8.5h-24z" />
    <glyph glyph-name="cedilla.cap" 
d="M176 0h53l-16 -54q44 -1 64 -19t20 -49q0 -20 -9 -38t-26.5 -32t-44 -22t-60.5 -8q-18 0 -35.5 1.5t-31.5 5.5l11 44q14 -3 27.5 -4.5t30.5 -1.5q41 0 58 16t17 35q0 16 -14 24t-48 8h-25z" />
    <glyph glyph-name="period" unicode="." 
d="M301 73q0 -6 -1 -12.5t-3 -12.5q-3 -17 -7.5 -27.5t-12.5 -17t-19.5 -9t-28.5 -2.5q-29 0 -42 9.5t-13 30.5q0 6 0.5 12t2.5 12q3 17 7.5 27.5t12.5 17t19.5 9t29.5 2.5q29 0 42 -9.5t13 -29.5z" />
    <glyph glyph-name="comma" unicode="," 
d="M30 -155q47 40 87 77t75 77q-8 5 -12.5 12t-4.5 21q0 6 0.5 12t2.5 12q3 17 7.5 27.5t12.5 17t19.5 9t29.5 2.5q29 0 41.5 -9.5t12.5 -29.5q0 -6 -0.5 -12.5t-1.5 -12.5q-3 -11 -5.5 -19t-5.5 -14t-7 -11.5t-9 -11.5q-15 -18 -38.5 -40.5t-52 -47t-60 -49t-60.5 -47.5z
" />
    <glyph glyph-name="colon" unicode=":" 
d="M301 73q0 -6 -1 -12.5t-3 -12.5q-3 -17 -7.5 -27.5t-12.5 -17t-19.5 -9t-28.5 -2.5q-29 0 -42 9.5t-13 30.5q0 6 0.5 12t2.5 12q3 17 7.5 27.5t12.5 17t19.5 9t29.5 2.5q29 0 42 -9.5t13 -29.5zM364 399q0 -6 -0.5 -12.5t-2.5 -12.5q-3 -16 -7.5 -27t-12.5 -17.5
t-19.5 -9t-29.5 -2.5q-29 0 -42 9.5t-13 30.5q0 6 1 12t3 13q3 16 7 27t12 17.5t20 8.5t29 2q29 0 42 -9t13 -30z" />
    <glyph glyph-name="semicolon" unicode=";" 
d="M364 399q0 -6 -0.5 -12.5t-2.5 -12.5q-3 -16 -7.5 -27t-12.5 -17.5t-19.5 -9t-29.5 -2.5q-29 0 -42 9.5t-13 30.5q0 6 1 12t3 13q3 16 7 27t12 17.5t20 8.5t29 2q29 0 42 -9t13 -30zM29 -155q47 40 86.5 77t74.5 77q-7 5 -11.5 12t-4.5 21q0 6 0.5 12t2.5 12
q3 17 7.5 27.5t12.5 17t19.5 9t29.5 2.5q29 0 42 -9.5t13 -29.5q0 -6 -1 -12.5t-3 -12.5q-2 -11 -4.5 -19t-5.5 -14t-7 -11.5t-9 -11.5q-15 -18 -38.5 -40.5t-52 -47t-59.5 -49t-61 -47.5z" />
    <glyph glyph-name="ellipsis" unicode="&#x2026;" 
d="M111 65q0 -9 -2 -21q-3 -15 -7 -25t-10.5 -15.5t-16.5 -8.5t-25 -3q-24 0 -34 7.5t-10 25.5q0 8 3 21q2 15 6 24.5t11 15.5t16.5 8.5t24.5 2.5q24 0 34 -7.5t10 -24.5zM288 65q0 -9 -2 -21q-3 -15 -7 -25t-10.5 -15.5t-16.5 -8.5t-25 -3q-23 0 -33 7.5t-10 25.5q0 8 2 21
q3 15 7 24.5t10.5 15.5t16.5 8.5t25 2.5q23 0 33 -7.5t10 -24.5zM466 65q0 -9 -3 -21q-2 -15 -6.5 -25t-11 -15.5t-16.5 -8.5t-25 -3q-23 0 -33 7.5t-10 25.5q0 8 2 21q3 15 7 24.5t10.5 15.5t16.5 8.5t25 2.5q24 0 34 -7.5t10 -24.5z" />
    <glyph glyph-name="periodcentered" unicode="&#xb7;" 
d="M341 281q0 -6 -0.5 -12.5t-2.5 -12.5q-3 -17 -7.5 -27.5t-12.5 -17t-19.5 -9t-29.5 -2.5q-29 0 -41.5 9.5t-12.5 29.5q0 6 0.5 12.5t1.5 12.5q4 17 8 27.5t12 17t20 9t29 2.5q29 0 42 -9.5t13 -29.5z" />
    <glyph glyph-name="bullet" unicode="&#x2022;" 
d="M391 393q0 -7 -0.5 -16t-2.5 -19q-6 -27 -13.5 -44t-19.5 -27.5t-29.5 -14.5t-43.5 -4q-42 0 -60.5 14t-18.5 46q0 8 1 17t3 19q5 26 12.5 43.5t19.5 28t30 14.5t43 4q43 0 61 -14t18 -47z" />
    <glyph glyph-name="hyphen" unicode="-" 
d="M127 297h315l-13 -67h-315z" />
    <glyph glyph-name="uni00AD" unicode="&#xad;" 
d="M127 297h315l-13 -67h-315z" />
    <glyph glyph-name="endash" unicode="&#x2013;" 
d="M52 297h466l-13 -67h-466z" />
    <glyph glyph-name="emdash" unicode="&#x2014;" 
d="M10 297h550l-13 -67h-550z" />
    <glyph glyph-name="uni2015" unicode="&#x2015;" 
d="M10 297h550l-13 -67h-550z" />
    <glyph glyph-name="underscore" unicode="_" 
d="M-78 -165h549l-13 -65h-549z" />
    <glyph glyph-name="exclam" unicode="!" 
d="M327 738h87l-105 -494h-69zM297 70q0 -6 -0.5 -12t-1.5 -12q-4 -16 -8.5 -26.5t-11.5 -16.5t-18.5 -8.5t-28.5 -2.5q-28 0 -40 8.5t-12 28.5q0 7 0.5 12.5t2.5 11.5q3 16 7 26.5t11.5 16.5t19.5 8.5t29 2.5q28 0 39.5 -8.5t11.5 -28.5z" />
    <glyph glyph-name="exclamdown" unicode="&#xa1;" 
d="M249 288h69l-89 -502h-86zM382 503q0 -6 -0.5 -12t-2.5 -12q-3 -16 -7.5 -26.5t-12 -16.5t-19 -8.5t-28.5 -2.5q-28 0 -40 8.5t-12 28.5q0 6 1 12l2 12q3 16 7.5 26.5t12 16.5t19 8t28.5 2q28 0 40 -8.5t12 -27.5z" />
    <glyph glyph-name="question" unicode="?" 
d="M208 289q4 24 11.5 44t22 39.5t38.5 40.5t61 47q31 22 53.5 40t37.5 35t22.5 34t7.5 36q0 17 -6.5 31.5t-21.5 25t-37.5 16.5t-54.5 6q-43 0 -80.5 -6t-81.5 -18l-4 60q46 12 90.5 19t96.5 7q91 0 135.5 -35t44.5 -91q0 -30 -9.5 -55t-28.5 -48.5t-47 -46.5t-66 -49
q-28 -21 -48 -37t-33.5 -32t-21 -32.5t-11.5 -36.5l-8 -39h-71zM258 70q0 -6 -0.5 -12t-2.5 -12q-3 -16 -7.5 -26.5t-12 -16.5t-18.5 -8.5t-28 -2.5q-29 0 -40.5 8.5t-11.5 28.5q0 7 0.5 12.5t1.5 11.5q3 16 7.5 26.5t12 16.5t19 8.5t28.5 2.5q28 0 40 -8.5t12 -28.5z" />
    <glyph glyph-name="questiondown" unicode="&#xbf;" 
d="M365 239q-5 -25 -12.5 -46t-22 -40.5t-38.5 -40t-62 -46.5q-31 -21 -53 -39t-37.5 -34.5t-22.5 -34t-7 -38.5q0 -39 27.5 -59.5t91.5 -20.5q42 0 80.5 6t80.5 18l5 -59q-45 -12 -90 -19.5t-97 -7.5q-91 0 -135.5 33t-44.5 95q0 31 10 56.5t29 48.5t47 45.5t66 48.5
q28 21 48 37.5t33 32t21 32.5t12 38l8 44h71zM436 503q0 -6 -0.5 -12t-2.5 -12q-3 -16 -7.5 -26.5t-12 -16.5t-18.5 -8.5t-29 -2.5q-28 0 -40 8.5t-12 28.5q0 6 1 12l2 12q4 16 8 26.5t11.5 16.5t19 8t28.5 2q28 0 40 -8.5t12 -27.5z" />
    <glyph glyph-name="quotesingle" unicode="'" 
d="M330 738h81l-58 -247h-60z" />
    <glyph glyph-name="quotedbl" unicode="&#x22;" 
d="M236 738h81l-58 -247h-60zM425 738h81l-58 -247h-60z" />
    <glyph glyph-name="quotesinglbase" unicode="&#x201a;" 
d="M30 -155q47 40 87 77t75 77q-8 5 -12.5 12t-4.5 21q0 6 0.5 12t2.5 12q3 17 7.5 27.5t12.5 17t19.5 9t29.5 2.5q29 0 41.5 -9.5t12.5 -29.5q0 -6 -0.5 -12.5t-1.5 -12.5q-3 -11 -5.5 -19t-5.5 -14t-7 -11.5t-9 -11.5q-15 -18 -38.5 -40.5t-52 -47t-60 -49t-60.5 -47.5z
" />
    <glyph glyph-name="quoteright" unicode="&#x2019;" 
d="M194 482q47 41 86.5 78t74.5 77q-7 4 -11.5 11t-4.5 21q0 6 0.5 12.5t1.5 12.5q3 17 8 27.5t12.5 17t19 8.5t30.5 2q29 0 41.5 -9t12.5 -30q0 -6 -1 -12t-2 -13q-2 -11 -4.5 -18.5t-6 -13.5t-7 -11.5t-9.5 -12.5q-14 -17 -37.5 -40t-52 -47t-60 -49t-60.5 -47z" />
    <glyph glyph-name="quoteleft" unicode="&#x2018;" 
d="M527 745q-47 -41 -87 -78t-74 -77q7 -4 12 -11t5 -21q0 -6 -1 -12t-2 -13q-3 -16 -8 -26.5t-12.5 -17.5t-19.5 -9.5t-29 -2.5q-29 0 -42 9.5t-13 30.5q0 6 0.5 12.5t2.5 12.5q2 11 4.5 19t6 13.5l7 11t9.5 12.5q14 18 38 40.5t52.5 47t59.5 49t61 47.5z" />
    <glyph glyph-name="quotedblbase" unicode="&#x201e;" 
d="M-52 -154q44 40 80 75.5t71 76.5q-7 4 -11.5 11t-4.5 19q0 6 0.5 11.5t2.5 11.5q3 15 7 25.5t11 16.5t17.5 8.5t26.5 2.5q26 0 37.5 -8.5t11.5 -27.5q0 -5 -0.5 -11.5t-2.5 -12.5q-4 -20 -9.5 -30.5t-16.5 -23.5q-16 -19 -37 -40.5t-46.5 -45t-52.5 -46.5t-55 -45z
M166 -154q44 40 80 75.5t71 76.5q-8 4 -12 11t-4 19q0 6 0.5 11.5t1.5 11.5q4 15 8 25.5t11 16.5t17.5 8.5t26.5 2.5q26 0 37 -8.5t11 -27.5q0 -5 -0.5 -11.5t-1.5 -12.5q-4 -20 -9.5 -30.5t-17.5 -23.5q-15 -19 -36.5 -40.5t-46.5 -45t-52 -46.5t-55 -45z" />
    <glyph glyph-name="quotedblright" unicode="&#x201d;" 
d="M105 493q44 39 80 74.5t71 77.5q-8 4 -12 10.5t-4 19.5q0 5 0.5 11t1.5 12q4 15 8 25t11 16.5t17.5 9t26.5 2.5q26 0 37 -8.5t11 -27.5q0 -6 -0.5 -12t-1.5 -12q-4 -20 -9.5 -31t-17.5 -24q-15 -18 -36.5 -40t-46.5 -45t-52 -46.5t-55 -44.5zM322 493q45 39 81 74.5
t70 77.5q-7 4 -11 10.5t-4 19.5q0 5 0.5 11t1.5 12q3 15 7.5 25t11.5 16.5t17.5 9t26.5 2.5q26 0 37 -8.5t11 -27.5q0 -6 -0.5 -12t-1.5 -12q-4 -20 -9.5 -31t-17.5 -24q-15 -18 -36.5 -40t-46.5 -45t-52.5 -46.5t-54.5 -44.5z" />
    <glyph glyph-name="quotedblleft" unicode="&#x201c;" 
d="M396 741q-46 -40 -81.5 -75.5t-70.5 -77.5q8 -4 12 -10.5t4 -18.5q0 -6 -0.5 -12t-1.5 -12q-4 -15 -8 -25t-11 -16t-18 -8.5t-26 -2.5q-26 0 -37 8t-11 27q0 7 0.5 12.5t1.5 12.5q4 20 9.5 31t16.5 23q16 19 37.5 40.5t46.5 44.5t52 46.5t55 45.5zM613 741
q-45 -40 -80.5 -75.5t-70.5 -77.5q7 -4 11.5 -10.5t4.5 -18.5q0 -6 -0.5 -12t-2.5 -12q-3 -15 -7 -25t-11 -16t-17.5 -8.5t-26.5 -2.5q-26 0 -37 8t-11 27q0 7 0.5 12.5t1.5 12.5q4 20 9.5 31t16.5 23q16 19 37.5 40.5t46.5 44.5t52 46.5t55 45.5z" />
    <glyph glyph-name="guilsinglleft" unicode="&#x2039;" 
d="M100 248l314 219l38 -48l-248 -177l176 -181l-50 -41z" />
    <glyph glyph-name="guilsinglright" unicode="&#x203a;" 
d="M450 239l-314 -219l-38 49l248 176l-176 182l50 40z" />
    <glyph glyph-name="guillemotleft" unicode="&#xab;" 
d="M268 245l192 214l54 -32l-158 -187l84 -183l-63 -25zM63 246l197 222l54 -33l-161 -194l88 -192l-62 -26z" />
    <glyph glyph-name="guillemotright" unicode="&#xbb;" 
d="M282 244l-191 -214l-55 32l158 186l-83 184l62 25zM487 243l-196 -222l-54 33l161 193l-89 193l63 26z" />
    <glyph glyph-name="parenleft" unicode="(" 
d="M302 -179q-31 39 -55.5 81t-41.5 86.5t-26 92t-9 100.5q0 98 25 184.5t68.5 162.5t102 142t124.5 123l47 -40q-61 -53 -114 -115t-92 -133.5t-61.5 -152t-22.5 -169.5q0 -47 7.5 -90t21.5 -84t35 -79t48 -75z" />
    <glyph glyph-name="parenright" unicode=")" 
d="M271 792q30 -40 54.5 -82t42 -86.5t26.5 -92.5t9 -100q0 -98 -25 -185t-69 -162.5t-102 -141.5t-125 -123l-46 40q61 53 114 115t92 133t61.5 151.5t22.5 170.5q0 47 -7.5 90t-21.5 83.5t-35 79t-48 75.5z" />
    <glyph glyph-name="braceleft" unicode="{" 
d="M388 -162q-6 -1 -14 -1.5t-17 -0.5q-81 0 -122.5 27.5t-41.5 89.5q0 12 1.5 23.5t3.5 24.5l25 131q4 18 4 36t-7.5 34t-24.5 29t-44 23t-66 16l13 61q48 7 82.5 20.5t57 31.5t35 41.5t18.5 52.5l23 121q8 37 22.5 65.5t39.5 48t62.5 30t90.5 10.5q9 0 19.5 -0.5
t15.5 -1.5l-10 -56q-48 0 -79 -7.5t-49.5 -21.5t-27.5 -34t-14 -46l-23 -120q-6 -34 -20 -60.5t-34.5 -46.5t-49.5 -34.5t-65 -24.5q60 -15 84.5 -46.5t24.5 -72.5q0 -12 -1 -24t-5 -30l-24 -127q-2 -10 -3 -18.5t-1 -16.5q0 -19 7 -32.5t22.5 -22t40.5 -12t62 -3.5z" />
    <glyph glyph-name="braceright" unicode="}" 
d="M181 750q5 1 13.5 1.5t16.5 0.5q81 0 122.5 -27.5t41.5 -89.5q0 -13 -1 -24t-4 -24l-22 -118q-4 -18 -4 -36q0 -36 32.5 -63t109.5 -39l-12 -61q-49 -8 -83 -21t-56.5 -31t-35.5 -41.5t-18 -52.5l-27 -134q-7 -36 -21.5 -65t-40 -48.5t-63 -30t-90.5 -10.5
q-9 0 -19.5 0.5t-15.5 1.5l11 56q47 0 78 7t50 21.5t27.5 34.5t13.5 46l26 133q13 68 54.5 106.5t114.5 59.5q-60 15 -84.5 46.5t-24.5 72.5q0 12 1.5 24t4.5 29l21 115q4 18 4 35q0 19 -7 32t-22.5 21.5t-40.5 12.5t-61 4z" />
    <glyph glyph-name="bracketleft" unicode="[" 
d="M263 752h275l-12 -58h-202l-155 -800h202l-11 -58h-274z" />
    <glyph glyph-name="bracketright" unicode="]" 
d="M42 -106h202l155 800h-202l11 58h275l-178 -916h-274z" />
    <glyph glyph-name="slash" unicode="/" 
d="M500 738h80l-526 -850h-80z" />
    <glyph glyph-name="backslash" unicode="\" 
d="M162 738h70l206 -850h-70z" />
    <glyph glyph-name="bar" unicode="|" 
d="M332 738h77l-184 -952h-78z" />
    <glyph glyph-name="brokenbar" unicode="&#xa6;" 
d="M332 738h77l-76 -393h-77zM220 163h78l-73 -377h-78z" />
    <glyph glyph-name="ampersand" unicode="&#x26;" 
d="M431 132q19 -27 40 -53.5t43 -52.5l-59 -41q-18 22 -35 45t-34 45q-32 -36 -80 -62.5t-114 -26.5q-78 0 -126 43.5t-48 122.5q0 46 14 85t37.5 71.5t54.5 58t65 45.5q-12 31 -20.5 66.5t-8.5 67.5q0 44 12 82t36 65t60 43t85 16q38 0 65.5 -10t45 -26t26 -38.5t8.5 -46.5
q0 -36 -15.5 -68.5t-39.5 -58.5l-50 36q15 20 23.5 40t8.5 44q0 28 -20.5 47.5t-60.5 19.5q-27 0 -48 -10.5t-35 -29.5t-21.5 -44.5t-7.5 -54.5q0 -38 13 -82t35 -91.5t51.5 -96.5t61.5 -97q23 42 39 89t30 105h65q-16 -69 -39.5 -132t-56.5 -115zM351 124q-36 49 -73 110
t-65 121q-26 -15 -48 -35t-38 -44.5t-25.5 -54t-9.5 -63.5q0 -52 29.5 -81.5t81.5 -29.5q50 0 86 22t62 55z" />
    <glyph glyph-name="at" unicode="@" 
d="M403 649q-67 0 -124 -39.5t-98 -109t-64 -164.5t-23 -205q0 -56 10 -96t30 -65.5t48.5 -38t64.5 -12.5q31 0 57 5t51 13l6 -57q-27 -10 -58.5 -15.5t-67.5 -5.5q-98 0 -153 65.5t-55 201.5q0 121 26 227t76 185.5t122 125t164 45.5q41 0 68.5 -10.5t45.5 -28t26 -42
t8 -53.5q0 -14 -1.5 -29.5t-4.5 -32.5l-77 -393h-55l5 53q-25 -24 -57 -43t-69 -19q-49 0 -79 31t-30 92q0 40 12.5 79t40.5 69.5t75 49t115 18.5h37l12 60q3 16 4 28.5t1 25.5q0 38 -19 61.5t-70 23.5zM432 396q-49 0 -81.5 -13.5t-51.5 -35t-26.5 -48.5t-7.5 -55
q0 -38 16 -56t44 -18q24 0 50.5 16t57.5 48l31 162h-32z" />
    <glyph glyph-name="section" unicode="&#xa7;" 
d="M61 -46q28 -7 61.5 -11.5t64.5 -4.5q38 0 63.5 6t41 16.5t23 24.5t7.5 30t-7 28t-22 24.5t-37.5 26.5t-53.5 31q-41 21 -67.5 40.5t-42.5 37.5t-22.5 37.5t-6.5 43.5q0 53 33.5 89.5t87.5 63.5q-12 15 -18.5 32.5t-6.5 42.5q0 32 13 58.5t40.5 45.5t68.5 30t96 11
q35 0 71.5 -5t63.5 -13l-16 -61q-28 7 -61.5 11.5t-64.5 4.5q-38 0 -63.5 -6t-41 -16t-23 -24t-7.5 -31q0 -15 7 -27.5t22 -25t37.5 -26t53.5 -30.5q41 -22 67.5 -41t42.5 -37t22.5 -38t6.5 -44q0 -51 -33 -88t-88 -64q12 -16 18.5 -33.5t6.5 -41.5q0 -33 -13 -59.5
t-40.5 -45.5t-68.5 -29.5t-96 -10.5q-35 0 -71.5 5t-63.5 12zM416 239q0 14 -5.5 26.5t-18.5 25.5t-35.5 28t-57.5 34q-20 12 -36.5 22.5t-32.5 21.5q-44 -19 -66.5 -45.5t-22.5 -57.5q0 -15 5.5 -27.5t18.5 -25.5t35.5 -28t57.5 -34q21 -12 37.5 -22.5t31.5 -21.5
q45 20 67 46t22 58z" />
    <glyph glyph-name="dagger" unicode="&#x2020;" 
d="M266 401h-169l11 60h170l35 183h77l-35 -183h171l-12 -60h-171l-77 -401h-77z" />
    <glyph glyph-name="daggerdbl" unicode="&#x2021;" 
d="M221 170h-170l12 60h170l36 185h-170l12 60h170l32 169h77l-33 -169h171l-12 -60h-170l-36 -185h171l-13 -60h-170l-32 -170h-77z" />
    <glyph glyph-name="asterisk" unicode="*" 
d="M289 394l-186 -114l-28 62l207 78l-180 85l42 62l154 -122l15 199h79l-64 -200l186 114l27 -62l-206 -77l179 -86l-41 -62l-155 122l-15 -199h-78z" />
    <glyph glyph-name="uni2117" unicode="&#x2117;" 
d="M221 513h110q60 0 85.5 -23t25.5 -66q0 -35 -10 -64t-30 -50t-50.5 -33t-72.5 -12h-44l-29 -147h-62zM282 312q52 0 74.5 29.5t22.5 77.5q0 24 -14 34.5t-46 10.5h-45l-29 -152h37zM567 434q0 -84 -19.5 -164.5t-61 -143t-105.5 -101t-153 -38.5q-49 0 -89 14t-68 41.5
t-43 69.5t-15 99q0 84 19.5 164t61 142.5t105.5 101t153 38.5q49 0 89 -14t68 -41.5t43 -69.5t15 -98zM506 430q0 83 -39 127t-121 44q-74 0 -125.5 -34t-84 -89t-47.5 -124.5t-15 -139.5q0 -83 39 -127t121 -44q74 0 125.5 34.5t84 89.5t47.5 124t15 139z" />
    <glyph glyph-name="copyright" unicode="&#xa9;" 
d="M356 139q-22 -8 -45.5 -12.5t-48.5 -4.5q-64 0 -92 33t-28 96q0 35 8 81.5t30 89t60 71.5t99 29q24 0 46 -4t41 -11l-14 -52q-37 13 -75 13q-41 0 -66.5 -23.5t-40 -56t-19.5 -68t-5 -60.5q0 -47 17 -65t55 -18q20 0 38.5 3.5t38.5 10.5zM567 434q0 -84 -19.5 -164.5
t-61 -143t-105.5 -101t-153 -38.5q-49 0 -89 14t-68 41.5t-43 69.5t-15 99q0 84 19.5 164t61 142.5t105.5 101t153 38.5q49 0 89 -14t68 -41.5t43 -69.5t15 -98zM506 430q0 83 -39 127t-121 44q-74 0 -125.5 -34t-84 -89t-47.5 -124.5t-15 -139.5q0 -83 39 -127t121 -44
q74 0 125.5 34.5t84 89.5t47.5 124t15 139z" />
    <glyph glyph-name="registered" unicode="&#xae;" 
d="M520 568q0 -41 -14 -81.5t-41.5 -72t-69.5 -51.5t-98 -20q-74 0 -116 37.5t-42 103.5q0 41 13.5 81.5t41.5 72t70 51.5t98 20q74 0 116 -37.5t42 -103.5zM476 567q0 49 -28.5 76.5t-90.5 27.5q-46 0 -79 -16t-54.5 -42t-31 -59.5t-9.5 -68.5q0 -49 28.5 -76.5t89.5 -27.5
q47 0 80 16t54.5 42t31 59.5t9.5 68.5zM276 632h74q41 0 58 -14t17 -38q0 -30 -20 -47.5t-48 -20.5l43 -90h-46l-39 87h-22l-17 -87h-41zM329 539q31 0 42 11t11 27q0 10 -7.5 16t-30.5 6h-33l-12 -60h30z" />
    <glyph glyph-name="trademark" unicode="&#x2122;" 
d="M163 653h-75l8 42h195l-9 -42h-70l-60 -305h-48zM330 695h71l15 -160l7 -81l40 83l76 158h76l-55 -347h-48l37 224l16 85l-41 -85l-75 -154h-63l-15 154l-8 85l-17 -85l-50 -224h-47z" />
    <glyph glyph-name="servicemark" unicode="&#x2120;" 
d="M42 395q14 -5 30 -8.5t35 -3.5q34 0 54.5 17t20.5 43q0 9 -1.5 17t-6.5 15.5t-14.5 15.5t-23.5 18q-34 24 -46.5 44t-12.5 45q0 48 31.5 75t89.5 27q19 0 35.5 -2.5t30.5 -7.5l-11 -40q-12 5 -26.5 7.5t-30.5 2.5q-35 0 -53 -14.5t-18 -39.5q0 -8 2 -15.5t7 -14.5
t14.5 -14.5t23.5 -17.5q32 -22 45 -42t13 -50q0 -23 -7.5 -43t-23.5 -34.5t-39.5 -23t-54.5 -8.5q-20 0 -39.5 3.5t-34.5 9.5zM329 695h72l15 -160l7 -81l40 83l76 158h76l-55 -347h-48l37 224l16 85l-41 -85l-75 -154h-63l-15 154l-8 85l-17 -85l-50 -224h-47z" />
    <glyph glyph-name="ordfeminine" unicode="&#xaa;" 
d="M126 225h305l-12 -53h-304zM391 349q-25 -23 -61.5 -41.5t-77.5 -18.5q-47 0 -77 29.5t-30 84.5q0 54 15 100.5t42 80.5t65 53t85 19q29 0 53 -8.5t41 -19.5l7 20h51l-68 -351h-51zM431 581q-17 10 -37 18.5t-44 8.5q-31 0 -57.5 -16t-45.5 -43t-29 -62t-10 -75
q0 -36 17 -54.5t47 -18.5q31 0 64 20.5t60 52.5z" />
    <glyph glyph-name="ordmasculine" unicode="&#xba;" 
d="M121 225h301l-11 -53h-301zM497 538q0 -16 -1.5 -31.5t-5.5 -35.5q-10 -52 -28.5 -87.5t-44.5 -58t-59.5 -32.5t-73.5 -10q-68 0 -105.5 28t-37.5 91q0 15 1 31t5 36q10 52 28.5 87.5t44.5 57.5t60 32t74 10q68 0 105.5 -27.5t37.5 -90.5zM434 532q0 43 -23.5 58.5
t-62.5 15.5q-26 0 -48 -6.5t-39.5 -22t-30.5 -41.5t-21 -67q-4 -17 -5.5 -32.5t-1.5 -28.5q0 -42 24 -58.5t65 -16.5q25 0 46.5 6t39 22t30.5 42t21 67q3 17 4.5 33t1.5 29z" />
    <glyph glyph-name="uni2116" unicode="&#x2116;" 
d="M95 644h72l42 -388q4 -41 6.5 -78.5t4.5 -84.5l2 1q3 24 6 45t5.5 41t6 40t7.5 41l74 383h54l-125 -644h-72l-42 388q-4 41 -6.5 78.5t-5.5 84.5l-2 -1q-3 -24 -5.5 -45t-5.5 -41t-6.5 -39.5t-7.5 -41.5l-73 -383h-54zM593 565q0 -33 -9 -81q-9 -49 -21 -81t-27.5 -51.5
t-36 -27t-45.5 -7.5q-37 0 -57 18.5t-20 65.5q0 32 9 80q9 49 21 81t27.5 51.5t36 27.5t45.5 8q37 0 57 -19t20 -65zM543 563q0 25 -8.5 34t-24.5 9q-12 0 -22 -4.5t-18.5 -18t-16.5 -38t-15 -64.5q-5 -27 -8 -45.5t-3 -33.5q0 -25 8.5 -34t25.5 -9q12 0 22 4.5t18 18
t15.5 38t16.5 64.5q5 28 7.5 46.5t2.5 32.5zM360 275h170l-8 -43h-171z" />
    <glyph glyph-name="paragraph" unicode="&#xb6;" 
d="M248 222q-92 3 -131 37t-39 105q0 25 4 55t10 60q12 63 31 104.5t49.5 66.5t76 35t112.5 10h257l-9 -47h-83l-158 -812h-56l158 812h-83l-158 -812h-56z" />
    <glyph glyph-name="numbersign" unicode="#" 
d="M312 183h-152l-72 -183h-50l71 183h-104l9 45h111l76 192h-106l9 46h113l70 178h50l-70 -178h153l70 178h50l-70 -178h105l-8 -46h-113l-76 -192h108l-9 -45h-115l-71 -183h-51zM175 228h153l75 192h-152z" />
    <glyph glyph-name="zero" unicode="0" 
d="M535 486q0 -18 -1.5 -36t-4 -38t-6 -42.5t-8.5 -49.5q-20 -107 -48 -173t-64.5 -101.5t-81 -47.5t-96.5 -12q-93 0 -136.5 40.5t-43.5 131.5q0 36 4.5 73.5t14.5 92.5q20 107 48.5 173t65 101.5t80.5 47.5t96 12q94 0 137.5 -40.5t43.5 -131.5zM429 578q-14 11 -34 16.5
t-50 5.5q-33 0 -64 -9t-58 -37.5t-49.5 -83.5t-38.5 -148q-9 -51 -14 -90t-5 -73q0 -13 1 -23t4 -21zM150 66q14 -11 34 -16.5t51 -5.5q33 0 63.5 8.5t57.5 37.5t49.5 84t38.5 148q9 51 14.5 90.5t5.5 72.5q0 13 -1.5 23t-3.5 21z" />
    <glyph glyph-name="one" unicode="1" 
d="M28 65h198l95 491l-187 -92l-21 49l237 131h65l-112 -579h153l-12 -65h-428z" />
    <glyph glyph-name="two" unicode="2" 
d="M20 54l233 205q41 36 74.5 68t57 62t36 59t12.5 61q0 43 -27 64.5t-90 21.5q-38 0 -79.5 -6t-75.5 -16l-7 59q40 11 87.5 18.5t93.5 7.5t80 -9t56.5 -26.5t33 -43t10.5 -59.5q0 -41 -14.5 -78t-41 -72t-63.5 -71t-82 -74l-184 -158h310l-12 -67h-417z" />
    <glyph glyph-name="three" unicode="3" 
d="M29 68q32 -8 71.5 -13t78.5 -5q46 0 83.5 10.5t64.5 30t42 47.5t15 63q0 26 -8 46.5t-31.5 34.5t-64.5 21.5t-107 7.5l13 61q55 0 100 10.5t77 29t50 44.5t18 57q0 39 -25.5 59.5t-87.5 20.5q-35 0 -73 -4.5t-77 -15.5l-7 58q43 12 88 18.5t88 6.5q88 0 130 -33t42 -95
q0 -40 -17 -71t-43 -53.5t-57 -36.5t-59 -21q60 -10 95 -44t35 -98q0 -50 -21 -90t-58.5 -68.5t-90 -43.5t-114.5 -15q-44 0 -87 5t-77 13z" />
    <glyph glyph-name="four" unicode="4" 
d="M330 152h-304l12 65l355 427h105l-82 -425h81l-14 -67h-80l-29 -152h-73zM344 219l68 354l-297 -354h229z" />
    <glyph glyph-name="five" unicode="5" 
d="M523 644l-13 -66h-265l-40 -205q24 3 44.5 5t41.5 2q95 0 138 -40.5t43 -116.5q0 -62 -22.5 -106.5t-61.5 -73t-91.5 -42.5t-113.5 -14q-35 0 -74 4.5t-74 12.5l14 62q30 -7 68 -11.5t72 -4.5q43 0 80.5 9.5t65 29t43.5 50.5t16 72q0 54 -30.5 80t-103.5 26
q-32 0 -64.5 -3.5t-69.5 -8.5l65 339h332z" />
    <glyph glyph-name="six" unicode="6" 
d="M518 581q-25 5 -52 8.5t-57 3.5q-55 0 -93.5 -16t-65.5 -49t-45 -81t-33 -111q35 21 74.5 33.5t81.5 12.5q78 0 117 -39t39 -110q0 -58 -19 -104t-52 -77.5t-78 -48.5t-97 -17q-41 0 -72.5 10.5t-53 32t-32 52.5t-10.5 73q0 30 3.5 58t8.5 57q20 107 47.5 180.5t66 119.5
t91 66.5t125.5 20.5q32 0 64 -4t57 -11zM406 223q0 46 -24.5 71.5t-75.5 25.5q-36 0 -73 -13t-74 -38q-6 -30 -10 -55.5t-4 -53.5q0 -56 24 -84t78 -28q36 0 65 13t50 36.5t32.5 55.5t11.5 70z" />
    <glyph glyph-name="seven" unicode="7" 
d="M116 0q46 80 90 153.5t87 143.5t87 139t90 142h-341l12 66h426l-10 -56q-49 -76 -94 -148t-89 -144.5t-86.5 -145t-87.5 -150.5h-84z" />
    <glyph glyph-name="eight" unicode="8" 
d="M479 183q0 -40 -15.5 -75t-45.5 -62.5t-74.5 -43.5t-104.5 -16q-43 0 -78 11t-59 30.5t-37.5 47.5t-13.5 63q0 42 15.5 74t41.5 56t58.5 41.5t67.5 30.5q-48 28 -71.5 61.5t-23.5 79.5q0 38 14.5 69.5t42 56t68 38t92.5 13.5q43 0 75.5 -10.5t54 -29t31.5 -42.5t10 -52
q0 -37 -13 -65.5t-35 -50t-51 -38t-62 -31.5q58 -27 85.5 -66t27.5 -90zM309 373q31 12 56.5 25.5t44 30.5t29 37.5t10.5 45.5q0 38 -25 61t-79 23q-29 0 -52.5 -8.5t-40.5 -23t-26 -34t-9 -42.5q0 -38 21.5 -64t70.5 -51zM291 306q-32 -12 -61 -26.5t-51 -33.5t-35.5 -43
t-13.5 -54q0 -50 33.5 -75.5t87.5 -25.5q38 0 66.5 11t47 29t27.5 41t9 47q0 41 -25 72.5t-85 57.5z" />
    <glyph glyph-name="nine" unicode="9" 
d="M45 66q29 -8 60 -12.5t60 -4.5q57 0 96.5 16.5t67 49t45.5 80.5t33 111q-35 -20 -74.5 -32.5t-81.5 -12.5q-78 0 -116.5 39t-38.5 110q0 57 18.5 103t51.5 78t78 48.5t97 16.5q41 0 72.5 -10.5t53 -31.5t32.5 -52.5t11 -73.5q0 -29 -4 -57t-9 -57q-20 -107 -47.5 -181
t-67 -119.5t-94 -66t-129.5 -20.5q-16 0 -32.5 1.5t-33 3.5t-32.5 5t-30 8zM173 420q0 -47 24.5 -72t75.5 -25q36 0 73.5 12.5t73.5 37.5q7 30 10.5 56t3.5 53q0 56 -23.5 84.5t-77.5 28.5q-36 0 -65 -13.5t-50.5 -36.5t-33 -55t-11.5 -70z" />
    <glyph glyph-name="currency" unicode="&#xa4;" 
d="M105 198q-6 13 -9.5 31.5t-3.5 41.5q0 62 18 111t43 81l-70 96l51 39l67 -90q25 18 56 29.5t73 11.5t70 -12t43 -28l87 79l39 -45l-90 -82q6 -15 9.5 -34t3.5 -39q0 -64 -18.5 -114t-43.5 -80l70 -96l-51 -39l-67 91q-23 -17 -54.5 -29t-72.5 -12q-39 0 -67 10.5
t-46 30.5l-89 -81l-39 45zM428 380q0 57 -27.5 84t-79.5 27q-37 0 -67 -15.5t-51.5 -43.5t-33.5 -67.5t-12 -86.5q0 -59 29 -84.5t78 -25.5q37 0 67 15t51.5 43t33.5 67t12 87z" />
    <glyph glyph-name="dollar" unicode="$" 
d="M133 -8q-31 3 -57.5 9t-47.5 13l16 61q26 -8 54 -14t61 -10l102 256q-36 17 -62.5 33.5t-44 35.5t-25.5 42t-8 52q0 41 16.5 75.5t49 59.5t81 39t111.5 14h22l40 99h59l-42 -105q24 -2 46 -6.5t42 -10.5l-18 -61q-25 7 -47.5 11.5t-48.5 7.5l-95 -241q38 -18 65.5 -35
t44.5 -37t25 -43.5t8 -53.5q0 -43 -18 -79t-51.5 -62t-83.5 -41t-113 -15h-24l-39 -98h-59zM214 48h14q41 0 74 9t56 26t35 39t12 49q0 18 -4.5 32.5t-16 28t-30 26t-46.5 26.5zM377 597h-12q-41 0 -73 -9t-53.5 -24t-32.5 -36t-11 -46q0 -19 5.5 -33t17 -26t29.5 -23.5
t42 -24.5z" />
    <glyph glyph-name="Euro" unicode="&#x20ac;" 
d="M46 275h74q4 20 9 47.5t11 49.5h-75l11 56h79q22 72 52.5 116t69 69t83.5 34t98 9q42 0 74.5 -5t59.5 -13l-18 -61q-25 7 -55 11.5t-69 4.5q-35 0 -66.5 -5.5t-59 -23t-50.5 -50t-40 -86.5h228l-11 -56h-234q-6 -22 -11 -49.5t-9 -47.5h235l-12 -57h-227q-2 -9 -2 -16.5
v-14.5q0 -37 9 -63t27 -42.5t46 -23.5t67 -7q38 0 70.5 5t61.5 13l3 -60q-30 -8 -67 -14.5t-80 -6.5q-61 0 -102 12.5t-66 37.5t-35.5 61.5t-10.5 85.5v16t1 17h-80z" />
    <glyph glyph-name="cent" unicode="&#xa2;" 
d="M225 92q-77 13 -109 53t-32 110q0 18 2 35t6 37q12 65 36.5 109.5t62 72t87.5 39t112 11.5l34 95h57l-35 -99q24 -3 45 -7t38 -10l-16 -60q-19 5 -41 9.5t-48 6.5l-122 -343q34 -2 71.5 3t74.5 15l3 -60q-19 -5 -40.5 -9.5t-44 -7t-44.5 -4t-43 -0.5l-34 -98h-57z
M368 496q-40 0 -73 -9t-58.5 -28.5t-42.5 -52.5t-26 -80q-3 -15 -4.5 -29t-1.5 -31q0 -47 19 -74t66 -37z" />
    <glyph glyph-name="sterling" unicode="&#xa3;" 
d="M264 302q-7 -68 -34.5 -127.5t-69.5 -110.5h291l-12 -64h-434l12 64h61q45 54 73.5 114t35.5 124h-97l12 63h87q0 28 -3 51t-3 49q0 47 16.5 82.5t47 60t73 36.5t95.5 12q42 0 78 -4.5t62 -11.5l-15 -61q-28 7 -61.5 10.5t-68.5 3.5q-34 0 -61.5 -8t-47.5 -23.5
t-31 -39.5t-11 -56q0 -25 2.5 -48.5t3.5 -52.5h208l-12 -63h-197z" />
    <glyph glyph-name="yen" unicode="&#xa5;" 
d="M208 101h-151l11 57h151l17 84h-152l11 56h142l-112 346h80l53 -163q6 -19 10.5 -34.5t9 -30.5t9 -29.5t9.5 -31.5h1q11 18 21.5 33t20 30t19.5 30t23 33l111 163h87l-245 -346h142l-11 -56h-151l-17 -84h151l-11 -57h-151l-19 -101h-78z" />
    <glyph glyph-name="florin" unicode="&#x192;" 
d="M233 391l17 94q9 48 25 80.5t40.5 52.5t57.5 29t74 9q30 0 57.5 -4.5t50.5 -10.5l-15 -60q-22 6 -46 9.5t-47 3.5q-24 0 -43.5 -5t-34 -18.5t-24.5 -34.5t-16 -54l-18 -91h167l-11 -59h-167l-56 -282q-10 -50 -26.5 -83.5t-39 -54t-52.5 -29t-68 -8.5q-23 0 -46.5 3.5
t-45.5 8.5l17 60q17 -5 36 -8t40 -3q19 0 35 5.5t29.5 19t24 35.5t17.5 56l57 280h-142l11 59h142z" />
    <glyph glyph-name="zero.inferior" unicode="&#x2080;" 
d="M430 235q0 -13 -2 -29t-5 -33q-9 -52 -26.5 -87t-42 -56t-56.5 -30t-71 -9q-62 0 -98.5 29.5t-36.5 92.5q0 13 1.5 29t4.5 33q10 52 27 87t42 56t57 30t71 9q62 0 98.5 -29.5t36.5 -92.5zM331 306q-8 3 -18 5t-25 2q-23 0 -43.5 -6t-37 -21t-29.5 -42t-21 -69
q-3 -14 -5 -28.5t-2 -28.5q0 -15 2.5 -27t7.5 -24zM190 42q9 -3 19 -5t24 -2q23 0 43.5 6t37 21t29.5 42t22 69q2 14 4 28.5t2 28.5q0 15 -2 27t-8 24z" />
    <glyph glyph-name="one.inferior" unicode="&#x2081;" 
d="M94 51h123l45 233l-119 -34l-10 43l152 55h53l-57 -297h113l-10 -51h-300z" />
    <glyph glyph-name="two.inferior" unicode="&#x2082;" 
d="M102 47l117 85q25 18 45 33.5t35 30.5t23 29.5t8 30.5q0 22 -15 34t-50 12q-23 0 -45.5 -3t-45.5 -9l-2 50q54 14 114 14t88.5 -22t28.5 -63q0 -23 -9 -43t-26 -39t-40 -37t-51 -37l-86 -60h181l-10 -53h-269z" />
    <glyph glyph-name="three.inferior" unicode="&#x2083;" 
d="M109 52q22 -5 46 -7t44 -2q57 0 87 16.5t30 47.5q0 12 -6.5 21.5t-21 16t-40 10t-63.5 3.5l9 47q42 0 69.5 5.5t43.5 14t23 20t7 22.5q0 20 -16 29t-54 9q-21 0 -43.5 -3t-46.5 -8l-3 47q28 6 55 9.5t52 3.5q66 0 94 -21t28 -57q0 -19 -7.5 -34t-20.5 -27t-31 -20
t-37 -12q37 -5 56.5 -24.5t19.5 -49.5q0 -52 -46.5 -83.5t-133.5 -31.5q-26 0 -52.5 2.5t-51.5 7.5z" />
    <glyph glyph-name="four.inferior" unicode="&#x2084;" 
d="M90 127l212 221h89l-43 -223h68l-10 -53h-68l-14 -72h-62l14 72h-197zM285 125l33 170l-165 -170h132z" />
    <glyph glyph-name="five.inferior" unicode="&#x2085;" 
d="M408 348l-9 -49h-167l-18 -94q13 2 25 2.5t26 0.5q59 0 88.5 -22t29.5 -65q0 -31 -14 -54.5t-38 -39.5t-58 -24.5t-75 -8.5q-27 0 -52 2.5t-48 6.5l9 48q21 -4 44 -6t45 -2q54 0 85.5 17.5t31.5 53.5q0 23 -18.5 35.5t-60.5 12.5q-21 0 -41.5 -1.5t-45.5 -3.5l37 191h224
z" />
    <glyph glyph-name="six.inferior" unicode="&#x2086;" 
d="M399 297q-19 4 -41 6t-41 2q-32 0 -53.5 -7.5t-36 -22.5t-24 -35.5t-15.5 -46.5q20 10 43 15t47 5q54 0 83 -23t29 -66q0 -31 -12.5 -55.5t-34 -41.5t-50.5 -26.5t-62 -9.5q-57 0 -88 27.5t-31 77.5q0 14 1 25.5t3 25.5q9 50 23.5 88.5t39 65t60.5 40t88 13.5q22 0 44 -2
t40 -7zM327 118q0 27 -17.5 38t-48.5 11q-18 0 -39.5 -4.5t-42.5 -15.5q-4 -13 -5.5 -24.5t-1.5 -24.5q0 -32 17.5 -45.5t47.5 -13.5q17 0 33.5 5.5t29 15.5t20 24.5t7.5 33.5z" />
    <glyph glyph-name="seven.inferior" unicode="&#x2087;" 
d="M156 348h279l-9 -49q-32 -40 -59.5 -76t-54.5 -72t-53 -73t-54 -78h-73q31 45 59 83t54.5 73.5t53.5 69.5t56 69h-209z" />
    <glyph glyph-name="eight.inferior" unicode="&#x2088;" 
d="M387 98q0 -49 -41 -78t-110 -29q-64 0 -98.5 25t-34.5 65q0 20 9 36t23 28.5t32 22t37 14.5q-56 28 -56 78q0 24 11 42t30.5 30t46 18.5t56.5 6.5q58 0 90 -23t32 -57q0 -37 -26 -59.5t-64 -37.5q27 -12 45 -32t18 -50zM272 202q37 11 59.5 26.5t22.5 39.5
q0 19 -17.5 31.5t-50.5 12.5t-55 -12.5t-22 -36.5q0 -20 14 -33t49 -28zM256 159q-39 -11 -65.5 -28t-26.5 -45q0 -23 20.5 -36t55.5 -13q42 0 63.5 17t21.5 41q0 20 -16.5 35t-52.5 29z" />
    <glyph glyph-name="nine.inferior" unicode="&#x2089;" 
d="M113 53q20 -5 44 -7.5t49 -2.5q31 0 53 7.5t36.5 22t23.5 35.5t16 47q-21 -10 -43.5 -15t-46.5 -5q-54 0 -83 23t-29 66q0 31 12.5 55.5t34 41.5t50.5 26.5t62 9.5q57 0 88.5 -27.5t31.5 -77.5q0 -14 -1.5 -25.5t-3.5 -25.5q-9 -50 -23.5 -88.5t-39 -65t-60.5 -40
t-88 -13.5q-25 0 -50 3t-45 8zM196 230q0 -27 18 -38t48 -11q18 0 39.5 4.5t43.5 15.5q3 13 4.5 24.5t1.5 24.5q0 32 -17.5 45.5t-47.5 13.5q-18 0 -34 -5.5t-28.5 -15.5t-20 -24.5t-7.5 -33.5z" />
    <glyph glyph-name="zero.superior" unicode="&#x2070;" 
d="M497 583q0 -13 -2 -29t-5 -33q-9 -52 -26.5 -87t-42 -56t-56.5 -30t-71 -9q-62 0 -98.5 29.5t-36.5 92.5q0 13 1.5 29t4.5 33q10 52 27 87t42 56t57 30t71 9q62 0 98.5 -29.5t36.5 -92.5zM398 654q-8 3 -18 5t-25 2q-23 0 -43.5 -6t-37 -21t-29.5 -42t-21 -69
q-3 -14 -5 -28.5t-2 -28.5q0 -15 2.5 -27t7.5 -24zM257 390q9 -3 19 -5t24 -2q23 0 43.5 6t37 21t29.5 42t22 69q2 14 4 28.5t2 28.5q0 15 -2 27t-8 24z" />
    <glyph glyph-name="one.superior" unicode="&#xb9;" 
d="M161 399h123l45 233l-119 -34l-10 43l152 55h53l-57 -297h113l-10 -51h-300z" />
    <glyph glyph-name="two.superior" unicode="&#xb2;" 
d="M169 395l117 85q25 18 45 33.5t35 30.5t23 29.5t8 30.5q0 22 -15 34t-50 12q-23 0 -45.5 -3t-45.5 -9l-2 50q54 14 114 14t88.5 -22t28.5 -63q0 -23 -9 -43t-26 -39t-40 -37t-51 -37l-86 -60h181l-10 -53h-269z" />
    <glyph glyph-name="three.superior" unicode="&#xb3;" 
d="M177 400q22 -5 46 -7t44 -2q57 0 87 16.5t30 47.5q0 12 -6.5 21.5t-21 16t-40 10t-63.5 3.5l9 47q42 0 69.5 5.5t43.5 14t23 20t7 22.5q0 20 -16 29t-54 9q-21 0 -43.5 -3t-46.5 -8l-3 47q28 6 55 9.5t52 3.5q66 0 94 -21t28 -57q0 -19 -7.5 -34t-20.5 -27t-31 -20
t-37 -12q37 -5 56.5 -24.5t19.5 -49.5q0 -52 -46.5 -83.5t-133.5 -31.5q-26 0 -52.5 2.5t-51.5 7.5z" />
    <glyph glyph-name="four.superior" unicode="&#x2074;" 
d="M158 475l212 221h89l-43 -223h68l-10 -53h-68l-14 -72h-62l14 72h-197zM353 473l33 170l-165 -170h132z" />
    <glyph glyph-name="five.superior" unicode="&#x2075;" 
d="M476 696l-9 -49h-167l-18 -94q13 2 25 2.5t26 0.5q59 0 88.5 -22t29.5 -65q0 -31 -14 -54.5t-38 -39.5t-58 -24.5t-75 -8.5q-27 0 -52 2.5t-48 6.5l9 48q21 -4 44 -6t45 -2q54 0 85.5 17.5t31.5 53.5q0 23 -18.5 35.5t-60.5 12.5q-21 0 -41.5 -1.5t-45.5 -3.5l37 191h224
z" />
    <glyph glyph-name="six.superior" unicode="&#x2076;" 
d="M466 645q-19 4 -41 6t-41 2q-32 0 -53.5 -7.5t-36 -22.5t-24 -35.5t-15.5 -46.5q20 10 43 15t47 5q54 0 83 -23t29 -66q0 -31 -12.5 -55.5t-34 -41.5t-50.5 -26.5t-62 -9.5q-57 0 -88 27.5t-31 77.5q0 14 1 25.5t3 25.5q9 50 23.5 88.5t39 65t60.5 40t88 13.5q22 0 44 -2
t40 -7zM394 466q0 27 -17.5 38t-48.5 11q-18 0 -39.5 -4.5t-42.5 -15.5q-4 -13 -5.5 -24.5t-1.5 -24.5q0 -32 17.5 -45.5t47.5 -13.5q17 0 33.5 5.5t29 15.5t20 24.5t7.5 33.5z" />
    <glyph glyph-name="seven.superior" unicode="&#x2077;" 
d="M224 696h279l-9 -49q-32 -40 -59.5 -76t-54.5 -72t-53 -73t-54 -78h-73q31 45 59 83t54.5 73.5t53.5 69.5t56 69h-209z" />
    <glyph glyph-name="eight.superior" unicode="&#x2078;" 
d="M454 446q0 -49 -41 -78t-110 -29q-64 0 -98.5 25t-34.5 65q0 20 9 36t23 28.5t32 22t37 14.5q-56 28 -56 78q0 24 11 42t30.5 30t46 18.5t56.5 6.5q58 0 90 -23t32 -57q0 -37 -26 -59.5t-64 -37.5q27 -12 45 -32t18 -50zM339 550q37 11 59.5 26.5t22.5 39.5
q0 19 -17.5 31.5t-50.5 12.5t-55 -12.5t-22 -36.5q0 -20 14 -33t49 -28zM323 507q-39 -11 -65.5 -28t-26.5 -45q0 -23 20.5 -36t55.5 -13q42 0 63.5 17t21.5 41q0 20 -16.5 35t-52.5 29z" />
    <glyph glyph-name="nine.superior" unicode="&#x2079;" 
d="M180 401q20 -5 44 -7.5t49 -2.5q31 0 53 7.5t36.5 22t23.5 35.5t16 47q-21 -10 -43.5 -15t-46.5 -5q-54 0 -83 23t-29 66q0 31 12.5 55.5t34 41.5t50.5 26.5t62 9.5q57 0 88.5 -27.5t31.5 -77.5q0 -14 -1.5 -25.5t-3.5 -25.5q-9 -50 -23.5 -88.5t-39 -65t-60.5 -40
t-88 -13.5q-25 0 -50 3t-45 8zM263 578q0 -27 18 -38t48 -11q18 0 39.5 4.5t43.5 15.5q3 13 4.5 24.5t1.5 24.5q0 32 -17.5 45.5t-47.5 13.5q-18 0 -34 -5.5t-28.5 -15.5t-20 -24.5t-7.5 -33.5z" />
    <glyph glyph-name="zero.frac" 
d="M375 226q0 -17 -2.5 -34.5t-6.5 -37.5q-9 -48 -22 -79t-30.5 -49.5t-38.5 -26t-47 -7.5q-42 0 -64 23t-22 72q0 17 2 34.5t6 37.5q9 48 22.5 79t30.5 49.5t38.5 26t47.5 7.5q42 0 64 -23t22 -72zM322 222q0 30 -10 42.5t-29 12.5q-13 0 -24 -5t-21 -18t-18.5 -36
t-15.5 -60q-4 -19 -6.5 -37t-2.5 -30q0 -30 10 -42.5t29 -12.5q12 0 23 5t21 18t19 36t16 60q4 19 6.5 37t2.5 30z" />
    <glyph glyph-name="one.frac" 
d="M284 249l-61 -31l-17 36l100 59h51l-60 -313h-61z" />
    <glyph glyph-name="two.frac" 
d="M142 47l77 74q35 32 55.5 58.5t20.5 55.5q0 35 -40 35q-14 0 -28 -2.5t-28 -7.5l-1 46q19 6 40.5 9.5t41.5 3.5q40 0 61.5 -19t21.5 -53q0 -40 -26.5 -75t-64.5 -68l-60 -53h119l-10 -51h-187z" />
    <glyph glyph-name="three.frac" 
d="M146 47q26 -6 53 -6q35 0 56 15.5t21 42.5q0 22 -17.5 32.5t-59.5 10.5l9 44q44 0 66.5 15.5t22.5 40.5q0 30 -42 30q-12 0 -25 -1.5t-29 -6.5v45q19 5 37.5 7.5t34.5 2.5q45 0 66 -19t21 -48q0 -17 -6 -30t-16 -24t-23 -18.5t-25 -12.5q24 -5 36.5 -23t12.5 -43
q0 -46 -35.5 -76.5t-94.5 -30.5q-19 0 -38 2t-34 6z" />
    <glyph glyph-name="four.frac" 
d="M129 112l156 201h82l-39 -206h37l-9 -46h-37l-12 -61h-56l11 61h-142zM271 107l31 159l-123 -159h92z" />
    <glyph glyph-name="five.frac" 
d="M369 313l-9 -47h-111l-16 -79q7 1 14 1.5t15 0.5q40 0 60.5 -21t20.5 -58q0 -51 -37.5 -83.5t-100.5 -32.5q-18 0 -36.5 2t-34.5 6l9 45q28 -6 58 -6q40 0 59.5 18t19.5 46q0 39 -48 39q-13 0 -26 -1t-31 -4l33 174h161z" />
    <glyph glyph-name="six.frac" 
d="M363 266q-14 3 -27.5 5t-27.5 2q-26 0 -42 -7.5t-26 -20.5t-16 -30t-10 -37q15 7 30.5 10.5t31.5 3.5q36 0 56 -19t20 -56q0 -27 -9 -50t-25 -39.5t-38.5 -26t-48.5 -9.5q-46 0 -66.5 24.5t-20.5 69.5q0 11 1.5 24t3.5 25q9 45 20.5 79t30 57.5t45.5 35.5t67 12
q34 0 62 -7zM298 111q0 39 -40 39q-12 0 -24.5 -2.5t-27.5 -11.5q-3 -10 -6 -25t-3 -26q0 -26 10.5 -37.5t28.5 -11.5q25 0 43.5 20t18.5 55z" />
    <glyph glyph-name="seven.frac" 
d="M183 313h211l-9 -46q-23 -36 -44 -68t-41 -64t-40 -65t-42 -70h-62q23 39 43.5 73t41 65.5t40.5 62t41 62.5h-148z" />
    <glyph glyph-name="eight.frac" 
d="M351 90q-1 -45 -34 -71.5t-83 -26.5q-49 0 -73 22.5t-24 57.5q0 17 6.5 31t17 25.5t24 20t28.5 15.5q-19 12 -28.5 28t-9.5 37q0 23 8.5 40t23.5 28.5t35 17.5t42 6q48 0 69 -20t21 -50q0 -34 -21.5 -54.5t-48.5 -32.5q22 -12 34.5 -30.5t12.5 -43.5zM267 183
q22 10 38 26t16 36q0 16 -10 25.5t-33 9.5q-21 0 -35.5 -12t-14.5 -35q0 -16 8 -27.5t31 -22.5zM252 143q-25 -12 -43.5 -29t-18.5 -39q0 -21 13 -31t35 -10q24 0 41 14t17 39q0 35 -44 56z" />
    <glyph glyph-name="nine.frac" 
d="M147 48q14 -4 29 -6t32 -2q27 0 44 7.5t27.5 20t16.5 30t11 37.5q-16 -8 -31 -11.5t-33 -3.5q-36 0 -56 19.5t-20 55.5q0 28 9 51t25.5 39t39 25.5t49.5 9.5q45 0 65.5 -24t20.5 -69q0 -12 -1.5 -24.5t-4.5 -25.5q-8 -45 -19.5 -79t-30 -57t-46.5 -35t-70 -12
q-19 0 -35.5 2t-31.5 6zM223 201q0 -39 39 -39q12 0 24.5 3t27.5 11q3 11 5.5 25.5t2.5 26.5q0 25 -10 36.5t-28 11.5q-25 0 -43 -20t-18 -55z" />
    <glyph glyph-name="fraction" unicode="&#x2044;" 
d="M505 664l38 -25l-491 -658l-38 24z" />
    <glyph glyph-name="onehalf" unicode="&#xbd;" 
d="M499 664l38 -25l-491 -658l-38 24zM182 580l-61 -31l-17 36l100 59h51l-60 -313h-61zM285 47l77 74q35 32 55.5 58.5t20.5 55.5q0 35 -40 35q-14 0 -28 -2.5t-28 -7.5l-1 46q19 6 40.5 9.5t41.5 3.5q40 0 61.5 -19t21.5 -53q0 -40 -26.5 -75t-64.5 -68l-60 -53h119
l-10 -51h-187z" />
    <glyph glyph-name="onethird" unicode="&#x2153;" 
d="M500 664l38 -25l-491 -658l-38 24zM182 580l-61 -31l-17 36l100 59h51l-60 -313h-61zM291 47q26 -6 53 -6q35 0 56 15.5t21 42.5q0 22 -17.5 32.5t-59.5 10.5l9 44q44 0 66.5 15.5t22.5 40.5q0 30 -42 30q-12 0 -25 -1.5t-29 -6.5v45q19 5 37.5 7.5t34.5 2.5q45 0 66 -19
t21 -48q0 -17 -6 -30t-16 -24t-23 -18.5t-25 -12.5q24 -5 36.5 -23t12.5 -43q0 -46 -35.5 -76.5t-94.5 -30.5q-19 0 -38 2t-34 6z" />
    <glyph glyph-name="onequarter" unicode="&#xbc;" 
d="M515 664l38 -25l-491 -658l-38 24zM182 580l-61 -31l-17 36l100 59h51l-60 -313h-61zM250 112l156 201h82l-39 -206h37l-9 -46h-37l-12 -61h-56l11 61h-142zM392 107l31 159l-123 -159h92z" />
    <glyph glyph-name="onefifths" unicode="&#x2155;" 
d="M497 664l38 -25l-491 -658l-38 24zM175 580l-61 -31l-17 36l100 59h51l-60 -313h-61zM511 313l-9 -47h-111l-16 -79q7 1 14 1.5t15 0.5q40 0 60.5 -21t20.5 -58q0 -51 -37.5 -83.5t-100.5 -32.5q-18 0 -36.5 2t-34.5 6l9 45q28 -6 58 -6q40 0 59.5 18t19.5 46
q0 39 -48 39q-13 0 -26 -1t-31 -4l33 174h161z" />
    <glyph glyph-name="onesixth" unicode="&#x2159;" 
d="M502 664l38 -25l-491 -658l-38 24zM178 580l-61 -31l-17 36l100 59h51l-60 -313h-61zM496 266q-14 3 -27.5 5t-27.5 2q-26 0 -42 -7.5t-26 -20.5t-16 -30t-10 -37q15 7 30.5 10.5t31.5 3.5q36 0 56 -19t20 -56q0 -27 -9 -50t-25 -39.5t-38.5 -26t-48.5 -9.5
q-46 0 -66.5 24.5t-20.5 69.5q0 11 1.5 24t3.5 25q9 45 20.5 79t30 57.5t45.5 35.5t67 12q34 0 62 -7zM431 111q0 39 -40 39q-12 0 -24.5 -2.5t-27.5 -11.5q-3 -10 -6 -25t-3 -26q0 -26 10.5 -37.5t28.5 -11.5q25 0 43.5 20t18.5 55z" />
    <glyph glyph-name="oneeighth" unicode="&#x215b;" 
d="M494 664l38 -25l-491 -658l-38 24zM178 580l-61 -31l-17 36l100 59h51l-60 -313h-61zM482 90q-1 -45 -34 -71.5t-83 -26.5q-49 0 -73 22.5t-24 57.5q0 17 6.5 31t17 25.5t24 20t28.5 15.5q-19 12 -28.5 28t-9.5 37q0 23 8.5 40t23.5 28.5t35 17.5t42 6q48 0 69 -20
t21 -50q0 -34 -21.5 -54.5t-48.5 -32.5q22 -12 34.5 -30.5t12.5 -43.5zM398 183q22 10 38 26t16 36q0 16 -10 25.5t-33 9.5q-21 0 -35.5 -12t-14.5 -35q0 -16 8 -27.5t31 -22.5zM383 143q-25 -12 -43.5 -29t-18.5 -39q0 -21 13 -31t35 -10q24 0 41 14t17 39q0 35 -44 56z
" />
    <glyph glyph-name="twothirds" unicode="&#x2154;" 
d="M522 664l38 -25l-491 -658l-38 24zM57 378l77 74q35 32 55.5 58.5t20.5 55.5q0 35 -40 35q-14 0 -28 -2.5t-28 -7.5l-1 46q19 6 40.5 9.5t41.5 3.5q40 0 61.5 -19t21.5 -53q0 -40 -26.5 -75t-64.5 -68l-60 -53h119l-10 -51h-187zM298 47q26 -6 53 -6q35 0 56 15.5
t21 42.5q0 22 -17.5 32.5t-59.5 10.5l9 44q44 0 66.5 15.5t22.5 40.5q0 30 -42 30q-12 0 -25 -1.5t-29 -6.5v45q19 5 37.5 7.5t34.5 2.5q45 0 66 -19t21 -48q0 -17 -6 -30t-16 -24t-23 -18.5t-25 -12.5q24 -5 36.5 -23t12.5 -43q0 -46 -35.5 -76.5t-94.5 -30.5q-19 0 -38 2
t-34 6z" />
    <glyph glyph-name="twofifths" unicode="&#x2156;" 
d="M521 664l38 -25l-491 -658l-38 24zM57 378l77 74q35 32 55.5 58.5t20.5 55.5q0 35 -40 35q-14 0 -28 -2.5t-28 -7.5l-1 46q19 6 40.5 9.5t41.5 3.5q40 0 61.5 -19t21.5 -53q0 -40 -26.5 -75t-64.5 -68l-60 -53h119l-10 -51h-187zM519 313l-9 -47h-111l-16 -79q7 1 14 1.5
t15 0.5q40 0 60.5 -21t20.5 -58q0 -51 -37.5 -83.5t-100.5 -32.5q-18 0 -36.5 2t-34.5 6l9 45q28 -6 58 -6q40 0 59.5 18t19.5 46q0 39 -48 39q-13 0 -26 -1t-31 -4l33 174h161z" />
    <glyph glyph-name="threequarters" unicode="&#xbe;" 
d="M521 664l38 -25l-491 -658l-38 24zM250 112l156 201h82l-39 -206h37l-9 -46h-37l-12 -61h-56l11 61h-142zM392 107l31 159l-123 -159h92zM68 378q26 -6 53 -6q35 0 56 15.5t21 42.5q0 22 -17.5 32.5t-59.5 10.5l9 44q44 0 66.5 15.5t22.5 40.5q0 30 -42 30
q-12 0 -25 -1.5t-29 -6.5v45q19 5 37.5 7.5t34.5 2.5q45 0 66 -19t21 -48q0 -17 -6 -30t-16 -24t-23 -18.5t-25 -12.5q24 -5 36.5 -23t12.5 -43q0 -46 -35.5 -76.5t-94.5 -30.5q-19 0 -38 2t-34 6z" />
    <glyph glyph-name="threefifths" unicode="&#x2157;" 
d="M507 664l38 -25l-491 -658l-38 24zM519 313l-9 -47h-111l-16 -79q7 1 14 1.5t15 0.5q40 0 60.5 -21t20.5 -58q0 -51 -37.5 -83.5t-100.5 -32.5q-18 0 -36.5 2t-34.5 6l9 45q28 -6 58 -6q40 0 59.5 18t19.5 46q0 39 -48 39q-13 0 -26 -1t-31 -4l33 174h161zM61 378
q26 -6 53 -6q35 0 56 15.5t21 42.5q0 22 -17.5 32.5t-59.5 10.5l9 44q44 0 66.5 15.5t22.5 40.5q0 30 -42 30q-12 0 -25 -1.5t-29 -6.5v45q19 5 37.5 7.5t34.5 2.5q45 0 66 -19t21 -48q0 -17 -6 -30t-16 -24t-23 -18.5t-25 -12.5q24 -5 36.5 -23t12.5 -43q0 -46 -35.5 -76.5
t-94.5 -30.5q-19 0 -38 2t-34 6z" />
    <glyph glyph-name="threeeighths" unicode="&#x215c;" 
d="M505 664l38 -25l-491 -658l-38 24zM489 90q-1 -45 -34 -71.5t-83 -26.5q-49 0 -73 22.5t-24 57.5q0 17 6.5 31t17 25.5t24 20t28.5 15.5q-19 12 -28.5 28t-9.5 37q0 23 8.5 40t23.5 28.5t35 17.5t42 6q48 0 69 -20t21 -50q0 -34 -21.5 -54.5t-48.5 -32.5
q22 -12 34.5 -30.5t12.5 -43.5zM405 183q22 10 38 26t16 36q0 16 -10 25.5t-33 9.5q-21 0 -35.5 -12t-14.5 -35q0 -16 8 -27.5t31 -22.5zM390 143q-25 -12 -43.5 -29t-18.5 -39q0 -21 13 -31t35 -10q24 0 41 14t17 39q0 35 -44 56zM61 378q26 -6 53 -6q35 0 56 15.5t21 42.5
q0 22 -17.5 32.5t-59.5 10.5l9 44q44 0 66.5 15.5t22.5 40.5q0 30 -42 30q-12 0 -25 -1.5t-29 -6.5v45q19 5 37.5 7.5t34.5 2.5q45 0 66 -19t21 -48q0 -17 -6 -30t-16 -24t-23 -18.5t-25 -12.5q24 -5 36.5 -23t12.5 -43q0 -46 -35.5 -76.5t-94.5 -30.5q-19 0 -38 2t-34 6z
" />
    <glyph glyph-name="fourfifths" unicode="&#x2158;" 
d="M526 311l-9 -46h-112l-15 -79q7 1 14 1.5t15 0.5q39 0 60 -21t21 -58q0 -51 -37 -83t-98 -32q-19 0 -37 1.5t-34 5.5l8 45q30 -6 59 -6q40 0 59.5 18t19.5 46q0 40 -48 40q-13 0 -26.5 -1.5t-30.5 -3.5l33 172h158zM63 451l153 193h78l-38 -200h38l-9 -47h-38l-12 -60
h-53l11 60h-140zM202 444l30 155l-122 -155h92zM531 664l38 -25l-492 -658l-38 24z" />
    <glyph glyph-name="fivesixths" unicode="&#x215a;" 
d="M512 664l38 -25l-491 -658l-38 24zM503 266q-14 3 -27.5 5t-27.5 2q-26 0 -42 -7.5t-26 -20.5t-16 -30t-10 -37q15 7 30.5 10.5t31.5 3.5q36 0 56 -19t20 -56q0 -27 -9 -50t-25 -39.5t-38.5 -26t-48.5 -9.5q-46 0 -66.5 24.5t-20.5 69.5q0 11 1.5 24t3.5 25q9 45 20.5 79
t30 57.5t45.5 35.5t67 12q34 0 62 -7zM438 111q0 39 -40 39q-12 0 -24.5 -2.5t-27.5 -11.5q-3 -10 -6 -25t-3 -26q0 -26 10.5 -37.5t28.5 -11.5q25 0 43.5 20t18.5 55zM286 644l-9 -47h-111l-16 -79q7 1 14 1.5t15 0.5q40 0 60.5 -21t20.5 -58q0 -51 -37.5 -83.5
t-100.5 -32.5q-18 0 -36.5 2t-34.5 6l9 45q28 -6 58 -6q40 0 59.5 18t19.5 46q0 39 -48 39q-13 0 -26 -1t-31 -4l33 174h161z" />
    <glyph glyph-name="fiveeighths" unicode="&#x215d;" 
d="M506 664l38 -25l-491 -658l-38 24zM286 644l-9 -47h-111l-16 -79q7 1 14 1.5t15 0.5q40 0 60.5 -21t20.5 -58q0 -51 -37.5 -83.5t-100.5 -32.5q-18 0 -36.5 2t-34.5 6l9 45q28 -6 58 -6q40 0 59.5 18t19.5 46q0 39 -48 39q-13 0 -26 -1t-31 -4l33 174h161zM489 90
q-1 -45 -34 -71.5t-83 -26.5q-49 0 -73 22.5t-24 57.5q0 17 6.5 31t17 25.5t24 20t28.5 15.5q-19 12 -28.5 28t-9.5 37q0 23 8.5 40t23.5 28.5t35 17.5t42 6q48 0 69 -20t21 -50q0 -34 -21.5 -54.5t-48.5 -32.5q22 -12 34.5 -30.5t12.5 -43.5zM405 183q22 10 38 26t16 36
q0 16 -10 25.5t-33 9.5q-21 0 -35.5 -12t-14.5 -35q0 -16 8 -27.5t31 -22.5zM390 143q-25 -12 -43.5 -29t-18.5 -39q0 -21 13 -31t35 -10q24 0 41 14t17 39q0 35 -44 56z" />
    <glyph glyph-name="seveneighths" unicode="&#x215e;" 
d="M480 664l38 -25l-491 -658l-38 24zM489 90q-1 -45 -34 -71.5t-83 -26.5q-49 0 -73 22.5t-24 57.5q0 17 6.5 31t17 25.5t24 20t28.5 15.5q-19 12 -28.5 28t-9.5 37q0 23 8.5 40t23.5 28.5t35 17.5t42 6q48 0 69 -20t21 -50q0 -34 -21.5 -54.5t-48.5 -32.5
q22 -12 34.5 -30.5t12.5 -43.5zM405 183q22 10 38 26t16 36q0 16 -10 25.5t-33 9.5q-21 0 -35.5 -12t-14.5 -35q0 -16 8 -27.5t31 -22.5zM390 143q-25 -12 -43.5 -29t-18.5 -39q0 -21 13 -31t35 -10q24 0 41 14t17 39q0 35 -44 56zM108 644h211l-9 -46q-23 -36 -44 -68
t-41 -64t-40 -65t-42 -70h-62q23 39 43.5 73t41 65.5t40.5 62t41 62.5h-148z" />
    <glyph glyph-name="percent" unicode="%" 
d="M542 665l38 -27l-543 -659l-38 27zM305 511q-7 -40 -19 -67t-29 -43.5t-38.5 -23.5t-46.5 -7q-44 0 -66 21t-22 67q0 12 1 24t4 28q7 40 19 67t29 43.5t38.5 24t47.5 7.5q43 0 65 -21t22 -68q0 -11 -1 -23.5t-4 -28.5zM251 509q3 16 5 28.5t2 23.5q0 26 -10.5 36
t-30.5 10q-12 0 -23 -4t-20 -14t-16.5 -29t-13.5 -48q-4 -16 -5.5 -28.5t-1.5 -23.5q0 -26 10.5 -36t29.5 -10q13 0 23.5 3.5t19.5 14t16.5 29t14.5 48.5zM490 134q-7 -40 -19 -67.5t-29 -44t-38.5 -23.5t-47.5 -7q-43 0 -65 21t-22 68q0 12 1 24t4 28q7 40 19 67t29 43.5
t38.5 24t46.5 7.5q44 0 66 -21t22 -69q0 -11 -1 -23t-4 -28zM435 132q4 15 5.5 28t1.5 24q0 26 -10.5 36t-29.5 10q-13 0 -23.5 -4t-19.5 -14.5t-17 -29t-14 -47.5q-3 -16 -5 -28.5t-2 -23.5q0 -26 10.5 -36.5t30.5 -10.5q12 0 23 4t20 14.5t16.5 29t13.5 48.5z" />
    <glyph glyph-name="perthousand" unicode="&#x2030;" 
d="M554 421l6 -40l-523 -103l-7 41zM312 563q0 -11 -1.5 -22t-3.5 -24q-7 -37 -19 -62t-29 -40.5t-39.5 -22t-48.5 -6.5q-45 0 -69 20.5t-24 68.5q0 10 1 21.5t3 24.5q7 37 19 62t29.5 40t40 22t48.5 7q45 0 69 -20.5t24 -68.5zM259 561q0 27 -12.5 38t-33.5 11
q-28 0 -47 -18t-30 -71l-3.5 -24.5t-1.5 -19.5q0 -27 12 -38t33 -11q15 0 26.5 4t21 14t17 27t12.5 44q3 14 4.5 24t1.5 20zM235 169q0 -10 -1.5 -21.5t-3.5 -24.5q-6 -37 -18 -62t-29.5 -40t-39.5 -22t-49 -7q-45 0 -69 20.5t-24 68.5q0 11 1.5 22t3.5 24q6 37 18.5 62
t29.5 40.5t39.5 22t48.5 6.5q46 0 69.5 -20.5t23.5 -68.5zM183 167q0 27 -12.5 38t-33.5 11q-29 0 -47.5 -18t-30.5 -71q-2 -14 -3.5 -24t-1.5 -20q0 -27 12 -38t34 -11q14 0 26 4t21.5 14t16.5 27t13 44q3 14 4.5 24.5t1.5 19.5zM502 169q0 -10 -1.5 -21.5t-3.5 -24.5
q-6 -37 -18 -62t-29.5 -40t-40 -22t-48.5 -7q-46 0 -69.5 20.5t-23.5 68.5q0 11 1.5 22t3.5 24q6 37 18.5 62t29.5 40.5t39.5 22t48.5 6.5q45 0 69 -20.5t24 -68.5zM449 167q0 27 -12 38t-34 11q-28 0 -47 -18t-30 -71q-2 -14 -3.5 -24t-1.5 -20q0 -27 12 -38t33 -11
q15 0 26.5 4t21 14t17 27t12.5 44q3 14 4.5 24.5t1.5 19.5z" />
    <glyph glyph-name="plus" unicode="+" 
d="M63 317h192l38 195h66l-38 -195h193l-11 -61h-194l-37 -196h-67l38 196h-192z" />
    <glyph glyph-name="minus" unicode="&#x2212;" 
d="M63 317h451l-11 -61h-452z" />
    <glyph glyph-name="plusminus" unicode="&#xb1;" 
d="M87 389h182l36 185h66l-36 -185h183l-12 -61h-183l-36 -186h-66l37 186h-182zM24 60h431l-12 -60h-431z" />
    <glyph glyph-name="multiply" unicode="&#xd7;" 
d="M288 331l199 163l38 -47l-198 -163l139 -165l-51 -42l-139 165l-200 -164l-38 48l199 163l-137 164l51 42z" />
    <glyph glyph-name="divide" unicode="&#xf7;" 
d="M63 317h451l-11 -61h-452zM363 454q0 -6 -0.5 -11t-2.5 -11q-2 -13 -6 -21.5t-10.5 -14t-16.5 -7.5t-24 -2q-23 0 -33.5 7t-10.5 24q0 10 3 21q2 13 6 22t10.5 14t16.5 7.5t24 2.5q23 0 33.5 -7.5t10.5 -23.5zM305 155q0 -6 -0.5 -11t-1.5 -12q-3 -13 -7 -21t-10.5 -13.5
t-16.5 -7.5t-24 -2q-23 0 -33.5 7.5t-10.5 23.5q0 4 0.5 10t1.5 11q3 13 7 22t10.5 14t16.5 7.5t25 2.5q22 0 32.5 -7.5t10.5 -23.5z" />
    <glyph glyph-name="less" unicode="&#x3c;" 
d="M91 322l425 214l-15 -77l-348 -176l280 -179l-14 -69l-342 217z" />
    <glyph glyph-name="lessequal" unicode="&#x2264;" 
d="M24 60h431l-12 -60h-431zM87 389l468 189l-14 -73l-391 -155l331 -157l-14 -65l-393 191z" />
    <glyph glyph-name="equal" unicode="=" 
d="M55 224h431l-12 -62h-430zM91 411h431l-11 -61h-432z" />
    <glyph glyph-name="notequal" unicode="&#x2260;" 
d="M369 350l-102 -126h219l-12 -62h-253l-104 -131l-48 31l81 100h-106l11 62h140l102 126h-218l12 61h251l104 131l50 -31l-82 -100h108l-11 -61h-142z" />
    <glyph glyph-name="approxequal" unicode="&#x2248;" 
d="M38 185q27 33 61.5 53.5t81.5 20.5q32 0 54.5 -9t42 -20.5t38 -20.5t42.5 -9q35 0 57 15t42 37l37 -42q-28 -33 -62 -53.5t-81 -20.5q-32 0 -54.5 9t-42 20.5t-38 20.5t-42.5 9q-35 0 -57 -15t-42 -37zM75 375q26 33 60.5 53.5t81.5 20.5q32 0 55 -9t41.5 -20.5
t37.5 -20.5t43 -9q35 0 57 14.5t42 37.5l37 -43q-28 -32 -62 -53t-81 -21q-32 0 -54.5 9.5t-42 21t-38 20.5t-42.5 9q-34 0 -56.5 -15t-42.5 -37z" />
    <glyph glyph-name="greaterequal" unicode="&#x2265;" 
d="M24 60h431l-12 -60h-431zM51 199l392 158l-332 154l13 67l394 -189l-13 -70l-468 -191z" />
    <glyph glyph-name="greater" unicode="&#x3e;" 
d="M64 112l348 176l-279 180l14 68l341 -216l-14 -70l-424 -215z" />
    <glyph glyph-name="logicalnot" unicode="&#xac;" 
d="M78 317h411l-36 -189h-67l26 128h-346z" />
    <glyph glyph-name="radical" unicode="&#x221a;" 
d="M118 430h-50l11 60h111l28 -268q2 -24 3.5 -43.5t3 -39.5t3.5 -40t3 -44h1q10 24 19 44t18 39.5t18.5 39.5t19.5 44l227 473h78l-335 -695h-111z" />
    <glyph glyph-name="infinity" unicode="&#x221e;" 
d="M553 326q0 -44 -12 -81t-33 -63t-49.5 -40.5t-60.5 -14.5q-26 0 -46 8t-35 21.5t-25.5 32.5t-19.5 43q-34 -48 -71.5 -77t-86.5 -29q-26 0 -45 9.5t-31.5 26t-18.5 39t-6 49.5q0 45 12 81.5t33 62.5t49.5 40.5t60.5 14.5q26 0 46 -8t35 -21.5t25.5 -33t19.5 -42.5
q34 48 71.5 77t86.5 29q26 0 45 -9.5t31.5 -25.5t18.5 -39t6 -50zM250 287q-16 46 -35.5 72.5t-52.5 26.5q-16 0 -31.5 -9t-27.5 -26.5t-19 -41.5t-7 -53q0 -31 12 -49t38 -18q31 0 61 25t62 73zM316 289q16 -46 35.5 -72.5t52.5 -26.5q16 0 31.5 9.5t27.5 27t19 41t7 52.5
q0 31 -12 49t-38 18q-31 0 -61 -24.5t-62 -73.5z" />
    <glyph glyph-name="partialdiff" unicode="&#x2202;" 
d="M280 752q44 0 78.5 -11t60 -30t43.5 -45t28.5 -57t15.5 -66t5 -72q0 -48 -4.5 -102.5t-16 -108.5t-31.5 -103.5t-51.5 -87.5t-75.5 -60.5t-104 -22.5q-85 0 -128.5 42t-43.5 132q0 34 6 72t18.5 75.5t33 71.5t49.5 59.5t67 41t86 15.5q40 0 69 -7t50 -17q0 48 -8.5 88.5
t-28 69.5t-51.5 46t-80 18zM236 48q55 0 91.5 33t59 85t33 115.5t12.5 123.5q-23 13 -50.5 21t-61.5 8q-38 0 -66.5 -13.5t-49 -36t-34.5 -51t-22 -58.5t-11.5 -59t-3.5 -53q0 -64 26.5 -89.5t76.5 -25.5z" />
    <glyph glyph-name="integral" unicode="&#x222b;" 
d="M-36 -158q17 -3 33 -4t35 -1q62 0 95 26.5t46 93.5l119 616q10 49 28 82.5t45 54.5t64.5 30.5t85.5 9.5q19 0 39 -1.5t38 -4.5l-12 -62q-17 3 -33 4.5t-36 1.5q-62 0 -95 -27t-45 -94l-120 -616q-19 -97 -72.5 -136.5t-150.5 -39.5q-19 0 -38.5 1.5t-37.5 3.5z" />
    <glyph glyph-name="product" unicode="&#x220f;" 
d="M190 677h-88l12 61h514l-12 -61h-89l-172 -891h-74l172 891h-189l-173 -891h-74z" />
    <glyph glyph-name="summation" unicode="&#x2211;" 
d="M-32 -157l326 441l-152 393l11 61h435l-12 -61h-349l157 -398l-322 -432h363l-12 -61h-456z" />
    <glyph glyph-name="lozenge" unicode="&#x25ca;" 
d="M73 371l245 367h105l102 -371l-243 -367h-105zM448 371l-88 312l-208 -316l85 -312z" />
    <glyph glyph-name="asciicircum" unicode="^" 
d="M321 695h83l127 -334h-74l-105 269l-210 -269h-78z" />
    <glyph glyph-name="asciitilde" unicode="~" 
d="M34 199q6 38 20 72t34.5 59.5t48.5 40.5t61 15q27 0 46 -10t33 -25t24.5 -32.5t21 -32.5t23 -25t29.5 -10t32.5 9.5t28 26t22 39.5t14.5 49h60q-6 -38 -19.5 -72t-34.5 -59.5t-48.5 -40.5t-60.5 -15q-28 0 -46.5 10t-32.5 25t-24.5 32.5t-21 32.5t-23.5 25t-30 10
t-32.5 -9.5t-28 -26t-22 -39.5t-14.5 -49h-60z" />
    <glyph glyph-name="degree" unicode="&#xb0;" 
d="M481 521q0 -35 -12.5 -64t-35 -49.5t-53 -32.5t-66.5 -12q-67 0 -104 35t-37 102q0 34 12.5 63t35 50.5t53 32.5t65.5 11q67 0 104.5 -34.5t37.5 -101.5zM419 517q0 42 -21 65t-63 23q-22 0 -40.5 -8t-31.5 -21.5t-20.5 -32t-7.5 -39.5q0 -42 21 -65t63 -23
q22 0 40.5 7.5t31.5 21t20.5 32t7.5 40.5z" />
    <glyph glyph-name="mu" unicode="&#xb5;" 
d="M124 490h79l-62 -320q-2 -11 -4 -23t-2 -25q0 -35 16 -51.5t53 -16.5q39 0 82.5 26.5t88.5 74.5l66 335h77l-95 -490h-65l8 73q-17 -16 -36.5 -31t-41.5 -26.5t-46.5 -18t-49.5 -6.5q-32 0 -51.5 9.5t-30.5 27.5l-1 -1q-4 -31 -8.5 -61t-10.5 -60l-23 -120h-78z" />
    <glyph glyph-name="mu" unicode="&#x3bc;" 
d="M124 490h79l-62 -320q-2 -11 -4 -23t-2 -25q0 -35 16 -51.5t53 -16.5q39 0 82.5 26.5t88.5 74.5l66 335h77l-95 -490h-65l8 73q-17 -16 -36.5 -31t-41.5 -26.5t-46.5 -18t-49.5 -6.5q-32 0 -51.5 9.5t-30.5 27.5l-1 -1q-4 -31 -8.5 -61t-10.5 -60l-23 -120h-78z" />
    <glyph glyph-name="mu" unicode="&#x3bc;" 
d="M124 490h79l-62 -320q-2 -11 -4 -23t-2 -25q0 -35 16 -51.5t53 -16.5q39 0 82.5 26.5t88.5 74.5l66 335h77l-95 -490h-65l8 73q-17 -16 -36.5 -31t-41.5 -26.5t-46.5 -18t-49.5 -6.5q-32 0 -51.5 9.5t-30.5 27.5l-1 -1q-4 -31 -8.5 -61t-10.5 -60l-23 -120h-78z" />
    <glyph glyph-name="pi" unicode="&#x3c0;" 
d="M137 430h-71l12 60h489l-11 -60h-70l-83 -430h-74l83 430h-201l-83 -430h-74z" />
    <glyph glyph-name="Delta" unicode="&#x394;" 
d="M305 695h115l68 -695h-521zM406 63l-35 378q-6 54 -10 101.5t-9 99.5h-1q-12 -26 -23 -50l-22 -48t-23 -49t-26 -52l-184 -380h333z" />
    <glyph glyph-name="Delta" unicode="&#x2206;" 
d="M305 695h115l68 -695h-521zM406 63l-35 378q-6 54 -10 101.5t-9 99.5h-1q-12 -26 -23 -50l-22 -48t-23 -49t-26 -52l-184 -380h333z" />
    <glyph glyph-name="Delta" unicode="&#x2206;" 
d="M305 695h115l68 -695h-521zM406 63l-35 378q-6 54 -10 101.5t-9 99.5h-1q-12 -26 -23 -50l-22 -48t-23 -49t-26 -52l-184 -380h333z" />
    <glyph glyph-name="Omega" unicode="&#x3a9;" 
d="M-11 63h121q-12 14 -23 31.5t-18.5 40t-12.5 50t-5 62.5q0 28 3.5 58t10.5 67q18 99 46 163.5t65 103.5t84 54.5t103 15.5q94 0 141 -47t46 -149q0 -34 -4 -67.5t-12 -76.5q-11 -59 -28.5 -106.5t-38.5 -84.5t-44.5 -65.5t-49.5 -49.5h129l-12 -63h-214l12 63
q29 19 55 47t47 66t37 85.5t27 106.5q8 42 12.5 73.5t4.5 63.5q0 76 -29.5 108t-87.5 32q-37 0 -69.5 -13t-59 -45.5t-48 -87.5t-35.5 -139q-3 -18 -5.5 -34t-4.5 -31.5t-3 -31t-1 -30.5q0 -34 4.5 -60.5t13 -46.5t20 -35t26.5 -28l-12 -63h-203z" />
    <glyph glyph-name="Omega" unicode="&#x2126;" 
d="M-11 63h121q-12 14 -23 31.5t-18.5 40t-12.5 50t-5 62.5q0 28 3.5 58t10.5 67q18 99 46 163.5t65 103.5t84 54.5t103 15.5q94 0 141 -47t46 -149q0 -34 -4 -67.5t-12 -76.5q-11 -59 -28.5 -106.5t-38.5 -84.5t-44.5 -65.5t-49.5 -49.5h129l-12 -63h-214l12 63
q29 19 55 47t47 66t37 85.5t27 106.5q8 42 12.5 73.5t4.5 63.5q0 76 -29.5 108t-87.5 32q-37 0 -69.5 -13t-59 -45.5t-48 -87.5t-35.5 -139q-3 -18 -5.5 -34t-4.5 -31.5t-3 -31t-1 -30.5q0 -34 4.5 -60.5t13 -46.5t20 -35t26.5 -28l-12 -63h-203z" />
    <glyph glyph-name="Omega" unicode="&#x2126;" 
d="M-11 63h121q-12 14 -23 31.5t-18.5 40t-12.5 50t-5 62.5q0 28 3.5 58t10.5 67q18 99 46 163.5t65 103.5t84 54.5t103 15.5q94 0 141 -47t46 -149q0 -34 -4 -67.5t-12 -76.5q-11 -59 -28.5 -106.5t-38.5 -84.5t-44.5 -65.5t-49.5 -49.5h129l-12 -63h-214l12 63
q29 19 55 47t47 66t37 85.5t27 106.5q8 42 12.5 73.5t4.5 63.5q0 76 -29.5 108t-87.5 32q-37 0 -69.5 -13t-59 -45.5t-48 -87.5t-35.5 -139q-3 -18 -5.5 -34t-4.5 -31.5t-3 -31t-1 -30.5q0 -34 4.5 -60.5t13 -46.5t20 -35t26.5 -28l-12 -63h-203z" />
    <glyph glyph-name="arrowup" unicode="&#x2191;" 
d="M240 534l-29 -31l-146 -146l-43 43l253 253l253 -253l-44 -44l-145 144l-29 31v-489h-70v492z" />
    <glyph glyph-name="arrowdown" unicode="&#x2193;" 
d="M66 333l145 -144l29 -32v490h70v-492l29 31l146 146l43 -43l-253 -254l-253 254z" />
    <glyph glyph-name="arrowupdn" unicode="&#x2195;" 
d="M83 220l128 -127l30 -30v571l-30 -30l-129 -128l-43 43l236 233l236 -233l-44 -45l-128 127l-30 31v-572l30 31l129 128l43 -43l-236 -233l-236 233z" />
    <glyph glyph-name="arrowleft" unicode="&#x2190;" 
d="M267 623l49 -43l-161 -168l-33 -32h423v-64h-420l33 -32l160 -167l-51 -44l-262 275z" />
    <glyph glyph-name="arrowright" unicode="&#x2192;" 
d="M5 380h420l-33 32l-160 167l51 44l262 -275l-262 -275l-49 42l161 169l33 32h-423v64z" />
    <glyph glyph-name="arrowboth" unicode="&#x2194;" 
d="M150 582l53 -31l-87 -139l-22 -33h360l-22 33l-86 138l54 32l145 -234l-145 -235l-53 31l87 139l22 33h-360l22 -33l86 -138l-54 -32l-145 235z" />
    <glyph glyph-name="arrownortheast" unicode="&#x2197;" 
d="M400 512l-58 -2h-217v62h383v-398h-68v227l1 59l-362 -362l-46 47z" />
    <glyph glyph-name="arrowsoutheast" unicode="&#x2198;" 
d="M125 165h217l58 -2l-367 368l46 47l362 -363l-1 59v227h68v-398h-383v62z" />
    <glyph glyph-name="arrowsouthwest" unicode="&#x2199;" 
d="M42 501h68v-227l-1 -59l362 363l46 -47l-367 -368l58 2h217v-62h-383v398z" />
    <glyph glyph-name="arrownorthwest" unicode="&#x2196;" 
d="M42 572h383v-62h-217l-58 2l367 -367l-46 -47l-362 362l1 -59v-227h-68v398z" />
    <glyph glyph-name="apple" unicode="&#xf8ff;" 
d="M106 263q0 36 13 67.5t35.5 54t53.5 35.5t67 13t67.5 -13t54 -35.5t35.5 -54t13 -67.5t-13 -67t-35.5 -53.5t-54 -35.5t-67.5 -13t-67 13t-53.5 35.5t-35.5 53.5t-13 67zM279 336h47l5 -16q4 -13 13 -13q10 0 10 14v16v3q0 13 -3 16q-4 4 -14 4h-110q-13 0 -13 -10
t13 -14l16 -5v-131q0 -22 -15 -22q-7 0 -11 3.5t-7 8t-6.5 8t-7.5 3.5q-8 0 -12.5 -5t-4.5 -12q0 -12 11.5 -20.5t31.5 -8.5q57 0 57 62v33h33l2 -7q3 -11 11 -11q10 0 10 12v36q0 13 -10 13q-8 0 -11 -11l-2 -8h-33v62z" />
    <glyph glyph-name="alignment" 
d="M38 752h475v-14h-475v14zM38 709h475v-14h-475v14zM38 658h475v-14h-475v14zM38 545h475v-14h-475v14zM38 504h475v-14h-475v14zM38 0h475v-14h-475v14zM38 -112h475v-13h-475v13zM38 -214h475v-13h-475v13z" />
    <glyph glyph-name="uni25AE" unicode="&#x25ae;" 
d="M0 1050h550v-1300h-550v1300z" />
  </font>
</defs>
</svg>
