<?xml version="1.0" standalone="no"?>
<!DOCTYPE svg PUBLIC "-//W3C//DTD SVG 1.1//EN" "http://www.w3.org/Graphics/SVG/1.1/DTD/svg11.dtd" >
<svg xmlns="http://www.w3.org/2000/svg" xmlns:xlink="http://www.w3.org/1999/xlink" version="1.1">
<metadata>
Created by FontForge 20230101 at Thu Oct 31 16:42:15 2013
 By Webmaster
Copyright (c) 2006-2013 by Jan Fromm. All rights reserved.
</metadata>
<defs>
<font id="CamingoCode-BoldItalic" horiz-adv-x="550" >
  <font-face 
    font-family="CamingoCode"
    font-weight="700"
    font-style="italic"
    font-stretch="normal"
    units-per-em="1000"
    panose-1="2 11 8 9 4 3 2 9 2 3"
    ascent="750"
    descent="-250"
    x-height="495"
    cap-height="695"
    bbox="-160 -250 681 1050"
    underline-thickness="99"
    underline-position="-324"
    slope="-11"
    unicode-range="U+000D-F8FF"
  />
<missing-glyph 
d="M106 263q0 36 13 67.5t35.5 54t53.5 35.5t67 13t67.5 -13t54 -35.5t35.5 -54t13 -67.5t-13 -67t-35.5 -53.5t-54 -35.5t-67.5 -13t-67 13t-53.5 35.5t-35.5 53.5t-13 67zM279 336h47l5 -16q4 -13 13 -13q10 0 10 14v16v3q0 13 -3 16q-4 4 -14 4h-110q-13 0 -13 -10
t13 -14l16 -5v-131q0 -22 -15 -22q-7 0 -11 3.5t-7 8t-6.5 8t-7.5 3.5q-8 0 -12.5 -5t-4.5 -12q0 -12 11.5 -20.5t31.5 -8.5q57 0 57 62v33h33l2 -7q3 -11 11 -11q10 0 10 12v36q0 13 -10 13q-8 0 -11 -11l-2 -8h-33v62z" />
    <glyph glyph-name=".notdef" 
d="M106 263q0 36 13 67.5t35.5 54t53.5 35.5t67 13t67.5 -13t54 -35.5t35.5 -54t13 -67.5t-13 -67t-35.5 -53.5t-54 -35.5t-67.5 -13t-67 13t-53.5 35.5t-35.5 53.5t-13 67zM279 336h47l5 -16q4 -13 13 -13q10 0 10 14v16v3q0 13 -3 16q-4 4 -14 4h-110q-13 0 -13 -10
t13 -14l16 -5v-131q0 -22 -15 -22q-7 0 -11 3.5t-7 8t-6.5 8t-7.5 3.5q-8 0 -12.5 -5t-4.5 -12q0 -12 11.5 -20.5t31.5 -8.5q57 0 57 62v33h33l2 -7q3 -11 11 -11q10 0 10 12v36q0 13 -10 13q-8 0 -11 -11l-2 -8h-33v62z" />
    <glyph glyph-name=".null" 
 />
    <glyph glyph-name="nonmarkingreturn" unicode="&#xd;" 
 />
    <glyph glyph-name="space" unicode=" " 
 />
    <glyph glyph-name="uni00A0" unicode="&#xa0;" 
 />
    <glyph glyph-name="a" unicode="a" 
d="M342 66q-18 -16 -37.5 -30t-41.5 -24t-44.5 -16t-46.5 -6q-63 0 -101 38.5t-38 116.5q0 85 22.5 152t59.5 112.5t86.5 70t103.5 24.5q38 0 66.5 -10.5t51.5 -24.5l9 25h99l-95 -494h-98zM390 384q-17 11 -37.5 19t-45.5 8q-34 0 -62 -21t-48.5 -56.5t-31.5 -80t-11 -90.5
q0 -39 15.5 -57.5t42.5 -18.5q15 0 33 7t36 20t36 30t34 38z" />
    <glyph glyph-name="aogonek" unicode="&#x105;" 
d="M390 384q-17 11 -37.5 19t-45.5 8q-34 0 -62 -21t-48.5 -56.5t-31.5 -80t-11 -90.5q0 -39 15.5 -57.5t42.5 -18.5q15 0 33 7t36 20t36 30t34 38zM436 0q-25 -15 -47 -29.5t-38.5 -29.5t-26 -30t-9.5 -29q0 -15 9 -21.5t27 -6.5t35 3.5t31 8.5l2 -69q-24 -8 -50.5 -13.5
t-54.5 -5.5q-49 0 -74.5 21t-25.5 58q0 22 10 43t28 39.5t40 34t46 28.5l4 64q-18 -16 -37.5 -30t-41.5 -24t-44.5 -16t-46.5 -6q-63 0 -101 38.5t-38 116.5q0 85 22.5 152t59.5 112.5t86.5 70t103.5 24.5q38 0 66.5 -10.5t51.5 -24.5l9 25h99z" />
    <glyph glyph-name="ae" unicode="&#xe6;" 
d="M212 219q-38 0 -62 -8.5t-37 -22t-17.5 -30t-4.5 -32.5q0 -25 11.5 -36t27.5 -11q18 0 36 11.5t38 35.5q0 25 2 45.5t6 47.5zM80 482q32 10 66.5 16t66.5 6q24 0 41 -4.5t28 -11.5t18 -17t10 -22q23 25 52.5 41.5t76.5 16.5q52 0 84.5 -31t32.5 -90q0 -39 -12.5 -70
t-41 -53.5t-74.5 -35t-112 -12.5q-3 -15 -5 -31.5t-2 -30.5q0 -39 15.5 -55.5t52.5 -16.5q26 0 50 4t51 12l7 -87q-33 -9 -65.5 -14.5t-66.5 -5.5q-54 0 -82.5 14t-43.5 41q-28 -27 -58.5 -41t-68.5 -14q-22 0 -42.5 7t-36 22t-25 37.5t-9.5 53.5q0 34 10 67.5t36.5 60
t73 43t118.5 16.5q1 7 3.5 15.5t4.5 18t3.5 18.5t1.5 17q0 25 -12.5 36.5t-39.5 11.5q-25 0 -48.5 -5t-51.5 -14zM326 293q38 0 62.5 6t39 16.5t20.5 25t6 32.5q0 22 -10 33t-26 11q-17 0 -31 -9.5t-25 -26t-20 -39t-16 -49.5z" />
    <glyph glyph-name="agrave" unicode="&#xe0;" 
d="M342 66q-18 -16 -37.5 -30t-41.5 -24t-44.5 -16t-46.5 -6q-63 0 -101 38.5t-38 116.5q0 85 22.5 152t59.5 112.5t86.5 70t103.5 24.5q38 0 66.5 -10.5t51.5 -24.5l9 25h99l-95 -494h-98zM390 384q-17 11 -37.5 19t-45.5 8q-34 0 -62 -21t-48.5 -56.5t-31.5 -80t-11 -90.5
q0 -39 15.5 -57.5t42.5 -18.5q15 0 33 7t36 20t36 30t34 38zM286 766l117 -156l-55 -49l-134 141z" />
    <glyph glyph-name="aacute" unicode="&#xe1;" 
d="M342 66q-18 -16 -37.5 -30t-41.5 -24t-44.5 -16t-46.5 -6q-63 0 -101 38.5t-38 116.5q0 85 22.5 152t59.5 112.5t86.5 70t103.5 24.5q38 0 66.5 -10.5t51.5 -24.5l9 25h99l-95 -494h-98zM390 384q-17 11 -37.5 19t-45.5 8q-34 0 -62 -21t-48.5 -56.5t-31.5 -80t-11 -90.5
q0 -39 15.5 -57.5t42.5 -18.5q15 0 33 7t36 20t36 30t34 38zM438 757l61 -71l-165 -123l-46 53z" />
    <glyph glyph-name="acircumflex" unicode="&#xe2;" 
d="M342 66q-18 -16 -37.5 -30t-41.5 -24t-44.5 -16t-46.5 -6q-63 0 -101 38.5t-38 116.5q0 85 22.5 152t59.5 112.5t86.5 70t103.5 24.5q38 0 66.5 -10.5t51.5 -24.5l9 25h99l-95 -494h-98zM390 384q-17 11 -37.5 19t-45.5 8q-34 0 -62 -21t-48.5 -56.5t-31.5 -80t-11 -90.5
q0 -39 15.5 -57.5t42.5 -18.5q15 0 33 7t36 20t36 30t34 38zM374 755l127 -132l-52 -58l-91 84l-115 -82l-39 57z" />
    <glyph glyph-name="adieresis" unicode="&#xe4;" 
d="M342 66q-18 -16 -37.5 -30t-41.5 -24t-44.5 -16t-46.5 -6q-63 0 -101 38.5t-38 116.5q0 85 22.5 152t59.5 112.5t86.5 70t103.5 24.5q38 0 66.5 -10.5t51.5 -24.5l9 25h99l-95 -494h-98zM390 384q-17 11 -37.5 19t-45.5 8q-34 0 -62 -21t-48.5 -56.5t-31.5 -80t-11 -90.5
q0 -39 15.5 -57.5t42.5 -18.5q15 0 33 7t36 20t36 30t34 38zM320 680q0 -11 -3 -28q-6 -35 -22.5 -48t-51.5 -13q-59 0 -59 39q0 11 3 28q6 34 23 47.5t53 13.5q57 0 57 -39zM528 680q0 -11 -3 -28q-6 -35 -22.5 -48t-51.5 -13q-59 0 -59 39q0 11 3 28q6 34 23 47.5t53 13.5
q57 0 57 -39z" />
    <glyph glyph-name="atilde" unicode="&#xe3;" 
d="M342 66q-18 -16 -37.5 -30t-41.5 -24t-44.5 -16t-46.5 -6q-63 0 -101 38.5t-38 116.5q0 85 22.5 152t59.5 112.5t86.5 70t103.5 24.5q38 0 66.5 -10.5t51.5 -24.5l9 25h99l-95 -494h-98zM390 384q-17 11 -37.5 19t-45.5 8q-34 0 -62 -21t-48.5 -56.5t-31.5 -80t-11 -90.5
q0 -39 15.5 -57.5t42.5 -18.5q15 0 33 7t36 20t36 30t34 38zM185 631q10 18 23.5 34.5t29.5 28.5t34 18.5t37 6.5q21 0 35.5 -7.5t27 -16.5t23.5 -16.5t23 -7.5q16 0 31 12t29 33l50 -42q-12 -18 -25 -34.5t-29 -28t-34 -18.5t-37 -7q-20 0 -35 7.5t-27.5 17t-23.5 16.5
t-23 7q-16 0 -31 -11.5t-28 -33.5z" />
    <glyph glyph-name="abreve" unicode="&#x103;" 
d="M342 66q-18 -16 -37.5 -30t-41.5 -24t-44.5 -16t-46.5 -6q-63 0 -101 38.5t-38 116.5q0 85 22.5 152t59.5 112.5t86.5 70t103.5 24.5q38 0 66.5 -10.5t51.5 -24.5l9 25h99l-95 -494h-98zM390 384q-17 11 -37.5 19t-45.5 8q-34 0 -62 -21t-48.5 -56.5t-31.5 -80t-11 -90.5
q0 -39 15.5 -57.5t42.5 -18.5q15 0 33 7t36 20t36 30t34 38zM314 727q-5 -32 7 -52.5t41 -20.5q28 0 46.5 20.5t24.5 52.5h81q-11 -69 -53.5 -110.5t-108.5 -41.5q-68 0 -97.5 41.5t-16.5 110.5h76z" />
    <glyph glyph-name="amacron" unicode="&#x101;" 
d="M342 66q-18 -16 -37.5 -30t-41.5 -24t-44.5 -16t-46.5 -6q-63 0 -101 38.5t-38 116.5q0 85 22.5 152t59.5 112.5t86.5 70t103.5 24.5q38 0 66.5 -10.5t51.5 -24.5l9 25h99l-95 -494h-98zM390 384q-17 11 -37.5 19t-45.5 8q-34 0 -62 -21t-48.5 -56.5t-31.5 -80t-11 -90.5
q0 -39 15.5 -57.5t42.5 -18.5q15 0 33 7t36 20t36 30t34 38zM223 695h280l-17 -87h-280z" />
    <glyph glyph-name="acaron" unicode="&#x1ce;" 
d="M342 66q-18 -16 -37.5 -30t-41.5 -24t-44.5 -16t-46.5 -6q-63 0 -101 38.5t-38 116.5q0 85 22.5 152t59.5 112.5t86.5 70t103.5 24.5q38 0 66.5 -10.5t51.5 -24.5l9 25h99l-95 -494h-98zM390 384q-17 11 -37.5 19t-45.5 8q-34 0 -62 -21t-48.5 -56.5t-31.5 -80t-11 -90.5
q0 -39 15.5 -57.5t42.5 -18.5q15 0 33 7t36 20t36 30t34 38zM267 750l90 -84l116 82l39 -57l-170 -131l-128 132z" />
    <glyph glyph-name="adotaccent" unicode="&#x227;" 
d="M342 66q-18 -16 -37.5 -30t-41.5 -24t-44.5 -16t-46.5 -6q-63 0 -101 38.5t-38 116.5q0 85 22.5 152t59.5 112.5t86.5 70t103.5 24.5q38 0 66.5 -10.5t51.5 -24.5l9 25h99l-95 -494h-98zM390 384q-17 11 -37.5 19t-45.5 8q-34 0 -62 -21t-48.5 -56.5t-31.5 -80t-11 -90.5
q0 -39 15.5 -57.5t42.5 -18.5q15 0 33 7t36 20t36 30t34 38zM428 678q0 -6 -0.5 -12t-2.5 -13q-6 -36 -22 -49t-53 -13q-30 0 -44.5 10t-14.5 31q0 11 3 26q5 35 21 48t54 13q30 0 44.5 -9.5t14.5 -31.5z" />
    <glyph glyph-name="aring" unicode="&#xe5;" 
d="M342 66q-18 -16 -37.5 -30t-41.5 -24t-44.5 -16t-46.5 -6q-63 0 -101 38.5t-38 116.5q0 85 22.5 152t59.5 112.5t86.5 70t103.5 24.5q38 0 66.5 -10.5t51.5 -24.5l9 25h99l-95 -494h-98zM390 384q-17 11 -37.5 19t-45.5 8q-34 0 -62 -21t-48.5 -56.5t-31.5 -80t-11 -90.5
q0 -39 15.5 -57.5t42.5 -18.5q15 0 33 7t36 20t36 30t34 38zM478 670q0 -25 -9.5 -47t-25 -37.5t-37 -25t-47.5 -9.5q-49 0 -79 29.5t-30 77.5q0 26 9 47.5t25 37.5t38 24.5t46 8.5q49 0 79.5 -29t30.5 -77zM411 668q0 23 -11.5 36.5t-33.5 13.5t-36 -15.5t-14 -42.5
q0 -23 12 -36t33 -13q23 0 36.5 15t13.5 42z" />
    <glyph glyph-name="aeacute" unicode="&#x1fd;" 
d="M212 219q-38 0 -62 -8.5t-37 -22t-17.5 -30t-4.5 -32.5q0 -25 11.5 -36t27.5 -11q18 0 36 11.5t38 35.5q0 25 2 45.5t6 47.5zM80 482q32 10 66.5 16t66.5 6q24 0 41 -4.5t28 -11.5t18 -17t10 -22q23 25 52.5 41.5t76.5 16.5q52 0 84.5 -31t32.5 -90q0 -39 -12.5 -70
t-41 -53.5t-74.5 -35t-112 -12.5q-3 -15 -5 -31.5t-2 -30.5q0 -39 15.5 -55.5t52.5 -16.5q26 0 50 4t51 12l7 -87q-33 -9 -65.5 -14.5t-66.5 -5.5q-54 0 -82.5 14t-43.5 41q-28 -27 -58.5 -41t-68.5 -14q-22 0 -42.5 7t-36 22t-25 37.5t-9.5 53.5q0 34 10 67.5t36.5 60
t73 43t118.5 16.5q1 7 3.5 15.5t4.5 18t3.5 18.5t1.5 17q0 25 -12.5 36.5t-39.5 11.5q-25 0 -48.5 -5t-51.5 -14zM326 293q38 0 62.5 6t39 16.5t20.5 25t6 32.5q0 22 -10 33t-26 11q-17 0 -31 -9.5t-25 -26t-20 -39t-16 -49.5zM438 757l61 -71l-165 -123l-46 53z" />
    <glyph glyph-name="aemacron" unicode="&#x1e3;" 
d="M212 219q-38 0 -62 -8.5t-37 -22t-17.5 -30t-4.5 -32.5q0 -25 11.5 -36t27.5 -11q18 0 36 11.5t38 35.5q0 25 2 45.5t6 47.5zM80 482q32 10 66.5 16t66.5 6q24 0 41 -4.5t28 -11.5t18 -17t10 -22q23 25 52.5 41.5t76.5 16.5q52 0 84.5 -31t32.5 -90q0 -39 -12.5 -70
t-41 -53.5t-74.5 -35t-112 -12.5q-3 -15 -5 -31.5t-2 -30.5q0 -39 15.5 -55.5t52.5 -16.5q26 0 50 4t51 12l7 -87q-33 -9 -65.5 -14.5t-66.5 -5.5q-54 0 -82.5 14t-43.5 41q-28 -27 -58.5 -41t-68.5 -14q-22 0 -42.5 7t-36 22t-25 37.5t-9.5 53.5q0 34 10 67.5t36.5 60
t73 43t118.5 16.5q1 7 3.5 15.5t4.5 18t3.5 18.5t1.5 17q0 25 -12.5 36.5t-39.5 11.5q-25 0 -48.5 -5t-51.5 -14zM326 293q38 0 62.5 6t39 16.5t20.5 25t6 32.5q0 22 -10 33t-26 11q-17 0 -31 -9.5t-25 -26t-20 -39t-16 -49.5zM217 695h280l-17 -87h-280z" />
    <glyph glyph-name="b" unicode="b" 
d="M162 738h119l-34 -177q-3 -15 -6.5 -31t-7.5 -32l-8 -32t-8 -30l1 -1q15 14 33 26.5t38.5 21.5t42.5 15t46 6q63 0 101 -38.5t38 -116.5q0 -85 -22.5 -152t-59.5 -112.5t-86.5 -70t-103.5 -24.5q-37 0 -66 10.5t-52 24.5l-9 -25h-99zM160 110q17 -11 37.5 -18.5
t45.5 -7.5q34 0 62 21t48.5 55.5t31.5 79.5t11 91q0 39 -15 58t-43 19q-16 0 -33.5 -7.5t-35.5 -20t-36 -30.5t-34 -38z" />
    <glyph glyph-name="c" unicode="c" 
d="M438 10q-30 -8 -71 -14t-90 -6q-113 0 -164 42t-51 128q0 21 1.5 41t6.5 46q13 71 39.5 120t65.5 80t88.5 44.5t106.5 13.5q39 0 79 -5.5t71 -13.5l-27 -88q-28 6 -58.5 10.5t-64.5 4.5t-62.5 -8t-51 -27t-39 -51t-26.5 -80q-5 -19 -6.5 -36.5t-1.5 -34.5
q0 -48 27.5 -71.5t96.5 -23.5q41 0 74 5t58 12z" />
    <glyph glyph-name="ccedilla" unicode="&#xe7;" 
d="M210 -5q-77 12 -112.5 52t-35.5 113q0 21 1.5 41t6.5 46q13 71 39.5 120t65.5 80t88.5 44.5t106.5 13.5q39 0 79 -5.5t71 -13.5l-27 -88q-28 6 -58.5 10.5t-64.5 4.5t-62.5 -8t-51 -27t-39 -51t-26.5 -80q-5 -19 -6.5 -36.5t-1.5 -34.5q0 -48 27.5 -71.5t96.5 -23.5
q41 0 74 5t58 12l-1 -88q-30 -8 -69 -13.5t-83 -5.5h-7l-11 -37q43 -3 61.5 -22t18.5 -47q0 -23 -11 -43t-31 -33.5t-47.5 -21t-61.5 -7.5q-20 0 -37.5 1.5t-32.5 5.5l15 57q14 -3 27.5 -4.5t30.5 -1.5q34 0 47.5 12t13.5 28q0 12 -11.5 18.5t-40.5 6.5h-29z" />
    <glyph glyph-name="cacute" unicode="&#x107;" 
d="M438 10q-30 -8 -71 -14t-90 -6q-113 0 -164 42t-51 128q0 21 1.5 41t6.5 46q13 71 39.5 120t65.5 80t88.5 44.5t106.5 13.5q39 0 79 -5.5t71 -13.5l-27 -88q-28 6 -58.5 10.5t-64.5 4.5t-62.5 -8t-51 -27t-39 -51t-26.5 -80q-5 -19 -6.5 -36.5t-1.5 -34.5
q0 -48 27.5 -71.5t96.5 -23.5q41 0 74 5t58 12zM455 757l61 -71l-165 -123l-46 53z" />
    <glyph glyph-name="ccircumflex" unicode="&#x109;" 
d="M438 10q-30 -8 -71 -14t-90 -6q-113 0 -164 42t-51 128q0 21 1.5 41t6.5 46q13 71 39.5 120t65.5 80t88.5 44.5t106.5 13.5q39 0 79 -5.5t71 -13.5l-27 -88q-28 6 -58.5 10.5t-64.5 4.5t-62.5 -8t-51 -27t-39 -51t-26.5 -80q-5 -19 -6.5 -36.5t-1.5 -34.5
q0 -48 27.5 -71.5t96.5 -23.5q41 0 74 5t58 12zM393 755l127 -132l-52 -58l-91 84l-115 -82l-39 57z" />
    <glyph glyph-name="ccaron" unicode="&#x10d;" 
d="M438 10q-30 -8 -71 -14t-90 -6q-113 0 -164 42t-51 128q0 21 1.5 41t6.5 46q13 71 39.5 120t65.5 80t88.5 44.5t106.5 13.5q39 0 79 -5.5t71 -13.5l-27 -88q-28 6 -58.5 10.5t-64.5 4.5t-62.5 -8t-51 -27t-39 -51t-26.5 -80q-5 -19 -6.5 -36.5t-1.5 -34.5
q0 -48 27.5 -71.5t96.5 -23.5q41 0 74 5t58 12zM289 750l90 -84l116 82l39 -57l-170 -131l-128 132z" />
    <glyph glyph-name="cdotaccent" unicode="&#x10b;" 
d="M438 10q-30 -8 -71 -14t-90 -6q-113 0 -164 42t-51 128q0 21 1.5 41t6.5 46q13 71 39.5 120t65.5 80t88.5 44.5t106.5 13.5q39 0 79 -5.5t71 -13.5l-27 -88q-28 6 -58.5 10.5t-64.5 4.5t-62.5 -8t-51 -27t-39 -51t-26.5 -80q-5 -19 -6.5 -36.5t-1.5 -34.5
q0 -48 27.5 -71.5t96.5 -23.5q41 0 74 5t58 12zM447 678q0 -6 -0.5 -12t-2.5 -13q-6 -36 -22 -49t-53 -13q-30 0 -44.5 10t-14.5 31q0 11 3 26q5 35 21 48t54 13q30 0 44.5 -9.5t14.5 -31.5z" />
    <glyph glyph-name="d" unicode="d" 
d="M342 66q-18 -16 -37.5 -30t-41.5 -24t-44.5 -16t-46.5 -6q-63 0 -101 38.5t-38 116.5q0 85 22.5 152t59.5 112.5t86.5 70t103.5 24.5q34 0 61 -8.5t47 -20.5l1 1q1 29 5.5 55.5t9.5 51.5l31 155h119l-142 -738h-99zM391 384q-18 11 -38.5 19t-45.5 8q-34 0 -62 -21
t-48.5 -56.5t-31.5 -80t-11 -90.5q0 -39 15.5 -57.5t42.5 -18.5q15 0 33.5 7t36.5 20t36 30t34 38z" />
    <glyph glyph-name="dcroat" unicode="&#x111;" 
d="M342 66q-18 -16 -37.5 -30t-41.5 -24t-44.5 -16t-46.5 -6q-63 0 -101 38.5t-38 116.5q0 85 22.5 152t59.5 112.5t86.5 70t103.5 24.5q34 0 61 -8.5t47 -20.5l1 1q1 25 4.5 47t7.5 43l2 10h-108l17 86h108l15 76h119l-15 -76h58l-17 -86h-58l-110 -576h-99zM391 384
q-18 11 -38.5 19t-45.5 8q-34 0 -62 -21t-48.5 -56.5t-31.5 -80t-11 -90.5q0 -39 15.5 -57.5t42.5 -18.5q15 0 33.5 7t36.5 20t36 30t34 38z" />
    <glyph glyph-name="eth" unicode="&#xf0;" 
d="M458 634q24 -56 38.5 -117.5t14.5 -125.5q0 -120 -26 -198.5t-66.5 -124t-90.5 -64t-99 -18.5q-94 0 -142 45t-48 134q0 58 14.5 116t45.5 104.5t78.5 76t113.5 29.5q31 0 55.5 -7t44.5 -18q-11 64 -37 121l-96 -46l-38 72l100 47q-9 14 -18 28.5t-20 27.5l103 47
q11 -13 20 -27t18 -29l99 47l37 -72zM241 77q31 0 59 19t50 54t34.5 86t12.5 116v10t-1 9q-20 14 -41.5 21.5t-48.5 7.5q-40 0 -68 -23t-46 -58t-26 -76t-8 -76q0 -43 20.5 -66.5t62.5 -23.5z" />
    <glyph glyph-name="dcaron" unicode="&#x10f;" 
d="M300 63q-15 -15 -32.5 -28t-36.5 -23t-41 -16t-45 -6q-60 0 -91.5 37.5t-31.5 109.5q0 42 6 86t19 84.5t33 76.5t47 62.5t61.5 42t76.5 15.5q31 0 57.5 -8t46.5 -20l1 1q3 28 8 54l10 52l30 155h108l-142 -738h-88zM350 386q-16 11 -35 18t-42 7q-21 0 -39 -12t-33.5 -32
t-27 -45.5t-19.5 -54t-12.5 -56.5t-4.5 -52q0 -36 12.5 -54t44.5 -18q28 0 55.5 19t56.5 54zM595 790l86 -16l-82 -202l-63 12z" />
    <glyph glyph-name="e" unicode="e" 
d="M439 18q-37 -13 -88 -20.5t-103 -7.5q-100 0 -150.5 39.5t-50.5 127.5q0 21 1.5 42.5t5.5 47.5q13 72 40.5 122t65 81.5t82 45t91.5 13.5q83 0 129.5 -35t46.5 -98q0 -44 -20 -76t-62 -53t-106 -30.5t-153 -9.5q-2 -12 -3 -21.5t-1 -21.5q0 -44 25 -63.5t80 -19.5
q45 0 89 7t76 17zM182 283q55 0 95.5 4.5t66.5 14t39 24.5t13 38q0 24 -18 39t-56 15q-20 0 -41 -6.5t-39.5 -21.5t-34.5 -41t-25 -66z" />
    <glyph glyph-name="eogonek" unicode="&#x119;" 
d="M182 283q55 0 95.5 4.5t66.5 14t39 24.5t13 38q0 24 -18 39t-56 15q-20 0 -41 -6.5t-39.5 -21.5t-34.5 -41t-25 -66zM439 18q-72 -41 -111 -73.5t-39 -62.5q0 -15 9 -21.5t27 -6.5t34.5 3.5t30.5 8.5l3 -69q-24 -8 -51 -13.5t-53 -5.5q-49 0 -75.5 21t-26.5 58
q0 22 11 43t27.5 38.5t36.5 32t39 24.5q-8 -2 -22 -3.5t-31 -1.5q-100 0 -150.5 39.5t-50.5 127.5q0 21 1.5 42.5t5.5 47.5q13 72 40.5 122t65 81.5t82 45t91.5 13.5q83 0 129.5 -35t46.5 -98q0 -44 -20 -76t-62 -53t-106 -30.5t-153 -9.5q-2 -12 -3 -21.5t-1 -21.5
q0 -44 25 -63.5t80 -19.5q45 0 89 7t76 17z" />
    <glyph glyph-name="egrave" unicode="&#xe8;" 
d="M439 18q-37 -13 -88 -20.5t-103 -7.5q-100 0 -150.5 39.5t-50.5 127.5q0 21 1.5 42.5t5.5 47.5q13 72 40.5 122t65 81.5t82 45t91.5 13.5q83 0 129.5 -35t46.5 -98q0 -44 -20 -76t-62 -53t-106 -30.5t-153 -9.5q-2 -12 -3 -21.5t-1 -21.5q0 -44 25 -63.5t80 -19.5
q45 0 89 7t76 17zM182 283q55 0 95.5 4.5t66.5 14t39 24.5t13 38q0 24 -18 39t-56 15q-20 0 -41 -6.5t-39.5 -21.5t-34.5 -41t-25 -66zM292 766l117 -156l-55 -49l-134 141z" />
    <glyph glyph-name="eacute" unicode="&#xe9;" 
d="M439 18q-37 -13 -88 -20.5t-103 -7.5q-100 0 -150.5 39.5t-50.5 127.5q0 21 1.5 42.5t5.5 47.5q13 72 40.5 122t65 81.5t82 45t91.5 13.5q83 0 129.5 -35t46.5 -98q0 -44 -20 -76t-62 -53t-106 -30.5t-153 -9.5q-2 -12 -3 -21.5t-1 -21.5q0 -44 25 -63.5t80 -19.5
q45 0 89 7t76 17zM182 283q55 0 95.5 4.5t66.5 14t39 24.5t13 38q0 24 -18 39t-56 15q-20 0 -41 -6.5t-39.5 -21.5t-34.5 -41t-25 -66zM433 757l61 -71l-165 -123l-46 53z" />
    <glyph glyph-name="ecircumflex" unicode="&#xea;" 
d="M439 18q-37 -13 -88 -20.5t-103 -7.5q-100 0 -150.5 39.5t-50.5 127.5q0 21 1.5 42.5t5.5 47.5q13 72 40.5 122t65 81.5t82 45t91.5 13.5q83 0 129.5 -35t46.5 -98q0 -44 -20 -76t-62 -53t-106 -30.5t-153 -9.5q-2 -12 -3 -21.5t-1 -21.5q0 -44 25 -63.5t80 -19.5
q45 0 89 7t76 17zM182 283q55 0 95.5 4.5t66.5 14t39 24.5t13 38q0 24 -18 39t-56 15q-20 0 -41 -6.5t-39.5 -21.5t-34.5 -41t-25 -66zM368 755l127 -132l-52 -58l-91 84l-115 -82l-39 57z" />
    <glyph glyph-name="edieresis" unicode="&#xeb;" 
d="M439 18q-37 -13 -88 -20.5t-103 -7.5q-100 0 -150.5 39.5t-50.5 127.5q0 21 1.5 42.5t5.5 47.5q13 72 40.5 122t65 81.5t82 45t91.5 13.5q83 0 129.5 -35t46.5 -98q0 -44 -20 -76t-62 -53t-106 -30.5t-153 -9.5q-2 -12 -3 -21.5t-1 -21.5q0 -44 25 -63.5t80 -19.5
q45 0 89 7t76 17zM182 283q55 0 95.5 4.5t66.5 14t39 24.5t13 38q0 24 -18 39t-56 15q-20 0 -41 -6.5t-39.5 -21.5t-34.5 -41t-25 -66zM320 680q0 -11 -3 -28q-6 -35 -22.5 -48t-51.5 -13q-59 0 -59 39q0 11 3 28q6 34 23 47.5t53 13.5q57 0 57 -39zM528 680q0 -11 -3 -28
q-6 -35 -22.5 -48t-51.5 -13q-59 0 -59 39q0 11 3 28q6 34 23 47.5t53 13.5q57 0 57 -39z" />
    <glyph glyph-name="ebreve" unicode="&#x115;" 
d="M439 18q-37 -13 -88 -20.5t-103 -7.5q-100 0 -150.5 39.5t-50.5 127.5q0 21 1.5 42.5t5.5 47.5q13 72 40.5 122t65 81.5t82 45t91.5 13.5q83 0 129.5 -35t46.5 -98q0 -44 -20 -76t-62 -53t-106 -30.5t-153 -9.5q-2 -12 -3 -21.5t-1 -21.5q0 -44 25 -63.5t80 -19.5
q45 0 89 7t76 17zM182 283q55 0 95.5 4.5t66.5 14t39 24.5t13 38q0 24 -18 39t-56 15q-20 0 -41 -6.5t-39.5 -21.5t-34.5 -41t-25 -66zM306 727q-5 -32 7 -52.5t41 -20.5q28 0 46.5 20.5t24.5 52.5h81q-11 -69 -53.5 -110.5t-108.5 -41.5q-68 0 -97.5 41.5t-16.5 110.5h76z
" />
    <glyph glyph-name="emacron" unicode="&#x113;" 
d="M439 18q-37 -13 -88 -20.5t-103 -7.5q-100 0 -150.5 39.5t-50.5 127.5q0 21 1.5 42.5t5.5 47.5q13 72 40.5 122t65 81.5t82 45t91.5 13.5q83 0 129.5 -35t46.5 -98q0 -44 -20 -76t-62 -53t-106 -30.5t-153 -9.5q-2 -12 -3 -21.5t-1 -21.5q0 -44 25 -63.5t80 -19.5
q45 0 89 7t76 17zM182 283q55 0 95.5 4.5t66.5 14t39 24.5t13 38q0 24 -18 39t-56 15q-20 0 -41 -6.5t-39.5 -21.5t-34.5 -41t-25 -66zM222 695h280l-17 -87h-280z" />
    <glyph glyph-name="ecaron" unicode="&#x11b;" 
d="M439 18q-37 -13 -88 -20.5t-103 -7.5q-100 0 -150.5 39.5t-50.5 127.5q0 21 1.5 42.5t5.5 47.5q13 72 40.5 122t65 81.5t82 45t91.5 13.5q83 0 129.5 -35t46.5 -98q0 -44 -20 -76t-62 -53t-106 -30.5t-153 -9.5q-2 -12 -3 -21.5t-1 -21.5q0 -44 25 -63.5t80 -19.5
q45 0 89 7t76 17zM182 283q55 0 95.5 4.5t66.5 14t39 24.5t13 38q0 24 -18 39t-56 15q-20 0 -41 -6.5t-39.5 -21.5t-34.5 -41t-25 -66zM264 750l90 -84l116 82l39 -57l-170 -131l-128 132z" />
    <glyph glyph-name="edotaccent" unicode="&#x117;" 
d="M439 18q-37 -13 -88 -20.5t-103 -7.5q-100 0 -150.5 39.5t-50.5 127.5q0 21 1.5 42.5t5.5 47.5q13 72 40.5 122t65 81.5t82 45t91.5 13.5q83 0 129.5 -35t46.5 -98q0 -44 -20 -76t-62 -53t-106 -30.5t-153 -9.5q-2 -12 -3 -21.5t-1 -21.5q0 -44 25 -63.5t80 -19.5
q45 0 89 7t76 17zM182 283q55 0 95.5 4.5t66.5 14t39 24.5t13 38q0 24 -18 39t-56 15q-20 0 -41 -6.5t-39.5 -21.5t-34.5 -41t-25 -66zM423 678q0 -6 -0.5 -12t-2.5 -13q-6 -36 -22 -49t-53 -13q-30 0 -44.5 10t-14.5 31q0 11 3 26q5 35 21 48t54 13q30 0 44.5 -9.5
t14.5 -31.5z" />
    <glyph glyph-name="f" unicode="f" 
d="M272 -40q-20 -101 -76.5 -142.5t-149.5 -41.5q-29 0 -59.5 3.5t-54.5 9.5l19 89q20 -5 44 -7t48 -2q23 0 41 5t31.5 17t23.5 31t15 45l86 438h-163l17 90h163l14 74q21 101 77 142t150 41q30 0 59.5 -3.5t54.5 -8.5l-20 -88q-20 4 -43.5 6.5t-47.5 2.5q-22 0 -40.5 -5.5
t-32.5 -17.5t-23.5 -31t-14.5 -46l-13 -66h175l-17 -90h-175z" />
    <glyph glyph-name="g" unicode="g" 
d="M390 384q-17 11 -37.5 19t-45.5 8q-34 0 -62 -21t-48.5 -56.5t-31.5 -80t-11 -90.5q0 -39 15.5 -57.5t42.5 -18.5q15 0 33 7t36 20t36 30t34 38zM432 -19q-11 -54 -33 -92.5t-57 -63.5t-83 -36.5t-111 -11.5q-41 0 -78 4.5t-69 12.5l16 89q31 -7 65.5 -11t69.5 -4
q69 0 109 26t53 89q5 20 9.5 37.5t9.5 37.5l-1 1q-15 -14 -33 -26t-38.5 -21.5t-42.5 -15.5t-46 -6q-63 0 -101 38.5t-38 116.5q0 85 22.5 152t59.5 112.5t86.5 70t103.5 24.5q38 0 66.5 -10.5t51.5 -24.5l9 25h99z" />
    <glyph glyph-name="gacute" unicode="&#x1f5;" 
d="M390 384q-17 11 -37.5 19t-45.5 8q-34 0 -62 -21t-48.5 -56.5t-31.5 -80t-11 -90.5q0 -39 15.5 -57.5t42.5 -18.5q15 0 33 7t36 20t36 30t34 38zM432 -19q-11 -54 -33 -92.5t-57 -63.5t-83 -36.5t-111 -11.5q-41 0 -78 4.5t-69 12.5l16 89q31 -7 65.5 -11t69.5 -4
q69 0 109 26t53 89q5 20 9.5 37.5t9.5 37.5l-1 1q-15 -14 -33 -26t-38.5 -21.5t-42.5 -15.5t-46 -6q-63 0 -101 38.5t-38 116.5q0 85 22.5 152t59.5 112.5t86.5 70t103.5 24.5q38 0 66.5 -10.5t51.5 -24.5l9 25h99zM438 757l61 -71l-165 -123l-46 53z" />
    <glyph glyph-name="gcircumflex" unicode="&#x11d;" 
d="M390 384q-17 11 -37.5 19t-45.5 8q-34 0 -62 -21t-48.5 -56.5t-31.5 -80t-11 -90.5q0 -39 15.5 -57.5t42.5 -18.5q15 0 33 7t36 20t36 30t34 38zM432 -19q-11 -54 -33 -92.5t-57 -63.5t-83 -36.5t-111 -11.5q-41 0 -78 4.5t-69 12.5l16 89q31 -7 65.5 -11t69.5 -4
q69 0 109 26t53 89q5 20 9.5 37.5t9.5 37.5l-1 1q-15 -14 -33 -26t-38.5 -21.5t-42.5 -15.5t-46 -6q-63 0 -101 38.5t-38 116.5q0 85 22.5 152t59.5 112.5t86.5 70t103.5 24.5q38 0 66.5 -10.5t51.5 -24.5l9 25h99zM374 755l127 -132l-52 -58l-91 84l-115 -82l-39 57z" />
    <glyph glyph-name="gbreve" unicode="&#x11f;" 
d="M390 384q-17 11 -37.5 19t-45.5 8q-34 0 -62 -21t-48.5 -56.5t-31.5 -80t-11 -90.5q0 -39 15.5 -57.5t42.5 -18.5q15 0 33 7t36 20t36 30t34 38zM432 -19q-11 -54 -33 -92.5t-57 -63.5t-83 -36.5t-111 -11.5q-41 0 -78 4.5t-69 12.5l16 89q31 -7 65.5 -11t69.5 -4
q69 0 109 26t53 89q5 20 9.5 37.5t9.5 37.5l-1 1q-15 -14 -33 -26t-38.5 -21.5t-42.5 -15.5t-46 -6q-63 0 -101 38.5t-38 116.5q0 85 22.5 152t59.5 112.5t86.5 70t103.5 24.5q38 0 66.5 -10.5t51.5 -24.5l9 25h99zM314 727q-5 -32 7 -52.5t41 -20.5q28 0 46.5 20.5
t24.5 52.5h81q-11 -69 -53.5 -110.5t-108.5 -41.5q-68 0 -97.5 41.5t-16.5 110.5h76z" />
    <glyph glyph-name="gcaron" unicode="&#x1e7;" 
d="M390 384q-17 11 -37.5 19t-45.5 8q-34 0 -62 -21t-48.5 -56.5t-31.5 -80t-11 -90.5q0 -39 15.5 -57.5t42.5 -18.5q15 0 33 7t36 20t36 30t34 38zM432 -19q-11 -54 -33 -92.5t-57 -63.5t-83 -36.5t-111 -11.5q-41 0 -78 4.5t-69 12.5l16 89q31 -7 65.5 -11t69.5 -4
q69 0 109 26t53 89q5 20 9.5 37.5t9.5 37.5l-1 1q-15 -14 -33 -26t-38.5 -21.5t-42.5 -15.5t-46 -6q-63 0 -101 38.5t-38 116.5q0 85 22.5 152t59.5 112.5t86.5 70t103.5 24.5q38 0 66.5 -10.5t51.5 -24.5l9 25h99zM267 750l90 -84l116 82l39 -57l-170 -131l-128 132z" />
    <glyph glyph-name="gdotaccent" unicode="&#x121;" 
d="M390 384q-17 11 -37.5 19t-45.5 8q-34 0 -62 -21t-48.5 -56.5t-31.5 -80t-11 -90.5q0 -39 15.5 -57.5t42.5 -18.5q15 0 33 7t36 20t36 30t34 38zM432 -19q-11 -54 -33 -92.5t-57 -63.5t-83 -36.5t-111 -11.5q-41 0 -78 4.5t-69 12.5l16 89q31 -7 65.5 -11t69.5 -4
q69 0 109 26t53 89q5 20 9.5 37.5t9.5 37.5l-1 1q-15 -14 -33 -26t-38.5 -21.5t-42.5 -15.5t-46 -6q-63 0 -101 38.5t-38 116.5q0 85 22.5 152t59.5 112.5t86.5 70t103.5 24.5q38 0 66.5 -10.5t51.5 -24.5l9 25h99zM428 678q0 -6 -0.5 -12t-2.5 -13q-6 -36 -22 -49t-53 -13
q-30 0 -44.5 10t-14.5 31q0 11 3 26q5 35 21 48t54 13q30 0 44.5 -9.5t14.5 -31.5z" />
    <glyph glyph-name="gcommaaccent" unicode="&#x123;" 
d="M390 384q-17 11 -37.5 19t-45.5 8q-34 0 -62 -21t-48.5 -56.5t-31.5 -80t-11 -90.5q0 -39 15.5 -57.5t42.5 -18.5q15 0 33 7t36 20t36 30t34 38zM432 -19q-11 -54 -33 -92.5t-57 -63.5t-83 -36.5t-111 -11.5q-41 0 -78 4.5t-69 12.5l16 89q31 -7 65.5 -11t69.5 -4
q69 0 109 26t53 89q5 20 9.5 37.5t9.5 37.5l-1 1q-15 -14 -33 -26t-38.5 -21.5t-42.5 -15.5t-46 -6q-63 0 -101 38.5t-38 116.5q0 85 22.5 152t59.5 112.5t86.5 70t103.5 24.5q38 0 66.5 -10.5t51.5 -24.5l9 25h99zM517 677q-13 -3 -30.5 -8t-35 -10.5t-33 -11t-25.5 -8.5
q-2 -33 -16.5 -47.5t-46.5 -14.5q-26 0 -37 9.5t-11 28.5v10t2 13q4 17 11.5 28t22.5 18.5t39 13.5t62 13q9 1 20.5 3.5t24 4t24.5 4t23 3.5z" />
    <glyph glyph-name="h" unicode="h" 
d="M162 738h119l-34 -177q-3 -15 -6.5 -31t-7.5 -32t-8 -31.5t-8 -30.5l1 -1q16 14 34.5 26.5t39.5 21.5t44 15t47 6q64 0 95 -31t31 -89q0 -14 -2 -28.5t-5 -29.5l-63 -326h-120l61 315q2 10 3.5 20.5t1.5 22.5q0 25 -11.5 37.5t-36.5 12.5q-31 0 -67 -26t-71 -70l-61 -312
h-119z" />
    <glyph glyph-name="hbar" unicode="&#x127;" 
d="M131 576h-58l17 86h57l15 76h119l-15 -76h109l-17 -86h-109l-3 -20q-3 -12 -6 -27t-7 -31t-8 -31.5t-8 -30.5l1 -1q16 14 34.5 26.5t39.5 21.5t44 15t47 6q64 0 95 -31t31 -89q0 -14 -2 -28.5t-5 -29.5l-63 -326h-120l61 315q2 10 3.5 20.5t1.5 22.5q0 25 -11.5 37.5
t-36.5 12.5q-31 0 -67 -26t-71 -70l-61 -312h-119z" />
    <glyph glyph-name="hcircumflex" unicode="&#x125;" 
d="M162 738h119l-34 -177q-3 -15 -6.5 -31t-7.5 -32t-8 -31.5t-8 -30.5l1 -1q16 14 34.5 26.5t39.5 21.5t44 15t47 6q64 0 95 -31t31 -89q0 -14 -2 -28.5t-5 -29.5l-63 -326h-120l61 315q2 10 3.5 20.5t1.5 22.5q0 25 -11.5 37.5t-36.5 12.5q-31 0 -67 -26t-71 -70l-61 -312
h-119zM407 940l136 -88l-42 -65l-107 60l-127 -60l-26 65z" />
    <glyph glyph-name="hcaron" unicode="&#x21f;" 
d="M162 738h119l-34 -177q-3 -15 -6.5 -31t-7.5 -32t-8 -31.5t-8 -30.5l1 -1q16 14 34.5 26.5t39.5 21.5t44 15t47 6q64 0 95 -31t31 -89q0 -14 -2 -28.5t-5 -29.5l-63 -326h-120l61 315q2 10 3.5 20.5t1.5 22.5q0 25 -11.5 37.5t-36.5 12.5q-31 0 -67 -26t-71 -70l-61 -312
h-119zM279 915l107 -59l126 59l26 -65l-166 -88l-136 88z" />
    <glyph glyph-name="i" unicode="i" 
d="M28 89h186l61 316h-180l17 90h300l-78 -406h136l-18 -89h-441zM461 683q0 -7 -0.5 -14t-2.5 -15q-5 -19 -11 -32t-16.5 -21t-24.5 -11t-35 -3q-35 0 -51.5 9.5t-16.5 30.5q0 7 0.5 14.5t2.5 14.5q4 19 10 32t16 20.5t25 11.5t36 4q35 0 51.5 -10t16.5 -31z" />
    <glyph glyph-name="iogonek" unicode="&#x12f;" 
d="M28 89h186l61 316h-180l17 90h300l-78 -406h136l-18 -89h-146q-25 -15 -47 -29.5t-38.5 -29.5t-26 -30t-9.5 -29q0 -15 9 -21.5t28 -6.5q18 0 34.5 3.5t30.5 8.5l2 -69q-24 -8 -50.5 -13.5t-54.5 -5.5q-49 0 -74.5 21t-25.5 58q0 22 11 43t27.5 39t38 33.5t43.5 27.5
h-193zM461 683q0 -7 -0.5 -14t-2.5 -15q-5 -19 -11 -32t-16.5 -21t-24.5 -11t-35 -3q-35 0 -51.5 9.5t-16.5 30.5q0 7 0.5 14.5t2.5 14.5q4 19 10 32t16 20.5t25 11.5t36 4q35 0 51.5 -10t16.5 -31z" />
    <glyph glyph-name="dotlessi" unicode="&#x131;" 
d="M28 89h186l61 316h-180l17 90h300l-78 -406h136l-18 -89h-441z" />
    <glyph glyph-name="i.dotaccent" 
d="M28 89h186l61 316h-180l17 90h300l-78 -406h136l-18 -89h-441zM461 683q0 -7 -0.5 -14t-2.5 -15q-5 -19 -11 -32t-16.5 -21t-24.5 -11t-35 -3q-35 0 -51.5 9.5t-16.5 30.5q0 7 0.5 14.5t2.5 14.5q4 19 10 32t16 20.5t25 11.5t36 4q35 0 51.5 -10t16.5 -31z" />
    <glyph glyph-name="igrave" unicode="&#xec;" 
d="M302 766l117 -156l-55 -49l-134 141zM28 89h186l61 316h-180l17 90h300l-78 -406h136l-18 -89h-441z" />
    <glyph glyph-name="iacute" unicode="&#xed;" 
d="M438 757l61 -71l-165 -123l-46 53zM28 89h186l61 316h-180l17 90h300l-78 -406h136l-18 -89h-441z" />
    <glyph glyph-name="icircumflex" unicode="&#xee;" 
d="M28 89h186l61 316h-180l17 90h300l-78 -406h136l-18 -89h-441zM390 755l127 -132l-52 -58l-91 84l-115 -82l-39 57z" />
    <glyph glyph-name="idieresis" unicode="&#xef;" 
d="M336 680q0 -11 -3 -28q-6 -35 -22.5 -48t-51.5 -13q-59 0 -59 39q0 11 3 28q6 34 23 47.5t53 13.5q57 0 57 -39zM544 680q0 -11 -3 -28q-6 -35 -22.5 -48t-51.5 -13q-59 0 -59 39q0 11 3 28q6 34 23 47.5t53 13.5q57 0 57 -39zM28 89h186l61 316h-180l17 90h300l-78 -406
h136l-18 -89h-441z" />
    <glyph glyph-name="itilde" unicode="&#x129;" 
d="M198 631q10 18 23.5 34.5t29.5 28.5t34 18.5t37 6.5q21 0 35.5 -7.5t27 -16.5t23.5 -16.5t23 -7.5q16 0 31 12t29 33l50 -42q-12 -18 -25 -34.5t-29 -28t-34 -18.5t-37 -7q-20 0 -35 7.5t-27.5 17t-23.5 16.5t-23 7q-16 0 -31 -11.5t-28 -33.5zM28 89h186l61 316h-180
l17 90h300l-78 -406h136l-18 -89h-441z" />
    <glyph glyph-name="ibreve" unicode="&#x12d;" 
d="M321 727q-5 -32 7 -52.5t41 -20.5q28 0 46.5 20.5t24.5 52.5h81q-11 -69 -53.5 -110.5t-108.5 -41.5q-68 0 -97.5 41.5t-16.5 110.5h76zM28 89h186l61 316h-180l17 90h300l-78 -406h136l-18 -89h-441z" />
    <glyph glyph-name="imacron" unicode="&#x12b;" 
d="M239 695h280l-17 -87h-280zM28 89h186l61 316h-180l17 90h300l-78 -406h136l-18 -89h-441z" />
    <glyph glyph-name="icaron" unicode="&#x1d0;" 
d="M280 750l90 -84l116 82l39 -57l-170 -131l-128 132zM28 89h186l61 316h-180l17 90h300l-78 -406h136l-18 -89h-441z" />
    <glyph glyph-name="ij" unicode="&#x133;" 
d="M131 495h120l-96 -495h-120zM515 495l-102 -530q-10 -47 -27 -82.5t-44.5 -59t-69 -35t-99.5 -11.5q-29 0 -56.5 3.5t-53.5 8.5l19 89q20 -4 42.5 -6t47.5 -2q55 0 83 25.5t38 72.5l102 527h120zM301 683q0 -7 -0.5 -14t-2.5 -15q-5 -19 -11 -32t-16 -21t-24.5 -11
t-35.5 -3q-35 0 -51.5 9.5t-16.5 30.5q0 7 0.5 14.5t2.5 14.5q4 19 10.5 32t16.5 20.5t25 11.5t36 4q35 0 51 -10t16 -31zM566 683q0 -7 -0.5 -14t-2.5 -15q-5 -19 -11 -32t-16 -21t-25 -11t-36 -3q-34 0 -50.5 9.5t-16.5 30.5q0 7 0.5 14.5t2.5 14.5q5 19 10.5 32t16 20.5
t25 11.5t35.5 4q35 0 51.5 -10t16.5 -31z" />
    <glyph glyph-name="j" unicode="j" 
d="M114 405l17 90h343l-103 -527q-9 -49 -28 -85t-50.5 -60t-77.5 -35.5t-109 -11.5q-37 0 -73 4t-64 10l19 89q23 -4 53 -7t59 -3q40 0 66.5 6.5t44 20.5t27.5 34.5t15 48.5l84 426h-223zM523 683q0 -7 -0.5 -14t-2.5 -15q-5 -19 -11 -32t-16 -21t-25 -11t-36 -3
q-34 0 -50.5 9.5t-16.5 30.5q0 7 0.5 14.5t2.5 14.5q4 19 10 32t16 20.5t25 11.5t36 4q35 0 51.5 -10t16.5 -31z" />
    <glyph glyph-name="dotlessj" unicode="&#x237;" 
d="M114 405l17 90h343l-103 -527q-9 -49 -28 -85t-50.5 -60t-77.5 -35.5t-109 -11.5q-37 0 -73 4t-64 10l19 89q23 -4 53 -7t59 -3q40 0 66.5 6.5t44 20.5t27.5 34.5t15 48.5l84 426h-223z" />
    <glyph glyph-name="jcircumflex" unicode="&#x135;" 
d="M114 405l17 90h343l-103 -527q-9 -49 -28 -85t-50.5 -60t-77.5 -35.5t-109 -11.5q-37 0 -73 4t-64 10l19 89q23 -4 53 -7t59 -3q40 0 66.5 6.5t44 20.5t27.5 34.5t15 48.5l84 426h-223zM436 755l127 -132l-52 -58l-91 84l-115 -82l-39 57z" />
    <glyph glyph-name="k" unicode="k" 
d="M166 738h120l-89 -455l230 212h142l-251 -230l162 -265h-136l-152 254l-49 -254h-120z" />
    <glyph glyph-name="kcaron" unicode="&#x1e9;" 
d="M166 738h120l-89 -455l230 212h142l-251 -230l162 -265h-136l-152 254l-49 -254h-120zM281 915l107 -59l126 59l26 -65l-166 -88l-136 88z" />
    <glyph glyph-name="kcommaaccent" unicode="&#x137;" 
d="M166 738h120l-89 -455l230 212h142l-251 -230l162 -265h-136l-152 254l-49 -254h-120zM40 -167q12 4 29.5 9t35 10.5t33 10.5t25.5 9q3 33 17.5 47.5t46.5 14.5q25 0 36 -9.5t11 -28.5v-10t-2 -13q-3 -18 -10.5 -29t-22.5 -18.5t-39.5 -13.5t-61.5 -12q-9 -2 -21 -4
t-24 -3.5t-24.5 -4t-22.5 -3.5z" />
    <glyph glyph-name="kgreenlandic" unicode="&#x138;" 
d="M119 495h119l-43 -223l232 223h142l-253 -241l164 -254h-136l-154 243l-47 -243h-120z" />
    <glyph glyph-name="l" unicode="l" 
d="M464 89l-18 -89h-285l125 649h-157l18 89h277l-126 -649h166z" />
    <glyph glyph-name="lslash" unicode="&#x142;" 
d="M464 89l-18 -89h-288l67 347l-111 -48l-22 80l152 66l40 204h-155l18 89h274l-46 -238l115 51l22 -80l-156 -68l-61 -314h169z" />
    <glyph glyph-name="lacute" unicode="&#x13a;" 
d="M464 89l-18 -89h-285l125 649h-157l18 89h277l-126 -649h166zM499 933l31 -83l-196 -72l-26 64z" />
    <glyph glyph-name="lcaron" unicode="&#x13e;" 
d="M544 791l96 -18l-108 -206l-74 12zM464 89l-18 -89h-291l126 649h-152l18 89h271l-126 -649h172z" />
    <glyph glyph-name="ldot" unicode="&#x140;" 
d="M405 89l-18 -89h-267l126 649h-124l18 89h243l-126 -649h148zM553 340q0 -8 -1 -15.5t-3 -15.5q-4 -21 -10 -34.5t-16 -22t-24.5 -11.5t-36.5 -3q-37 0 -51.5 10.5t-14.5 34.5q0 8 1 15.5t3 15.5q4 21 9.5 35t15.5 21.5t25 11t37 3.5q36 0 51 -10t15 -35z" />
    <glyph glyph-name="lcommaaccent" unicode="&#x13c;" 
d="M464 89l-18 -89h-285l125 649h-157l18 89h277l-126 -649h166zM32 -167q12 4 29.5 9t35 10.5t33 10.5t25.5 9q3 33 17.5 47.5t46.5 14.5q25 0 36 -9.5t11 -28.5v-10t-2 -13q-3 -18 -10.5 -29t-22.5 -18.5t-39.5 -13.5t-61.5 -12q-9 -2 -21 -4t-24 -3.5t-24.5 -4
t-22.5 -3.5z" />
    <glyph glyph-name="m" unicode="m" 
d="M79 495h88l-5 -56q22 29 48.5 47t58.5 18q34 0 53 -18t24 -50q23 28 51.5 48t65.5 20q42 0 64.5 -24t22.5 -69q0 -12 -1.5 -24.5t-4.5 -29.5l-69 -357h-105l67 345q2 13 3 21t1 17q0 11 -4 19t-14 8q-16 0 -37 -24.5t-43 -64.5l-62 -321h-105l67 345q2 13 3 21.5t1 16.5
q0 11 -3.5 19t-14.5 8q-16 0 -37 -25t-43 -64l-62 -321h-105z" />
    <glyph glyph-name="n" unicode="n" 
d="M114 495h99l-5 -69q16 16 36 30t42 24.5t46.5 17t50.5 6.5q64 0 95 -31t31 -89q0 -14 -2 -28.5t-5 -29.5l-63 -326h-120l61 315q2 10 3.5 20.5t1.5 22.5q0 25 -11.5 37.5t-36.5 12.5q-31 0 -67 -26t-71 -70l-61 -312h-119z" />
    <glyph glyph-name="eng" unicode="&#x14b;" 
d="M114 495h99l-5 -69q16 16 36 30t42 24.5t46.5 17t50.5 6.5q64 0 95 -31t31 -89q0 -14 -2 -28.5t-5 -29.5l-71 -363q-20 -97 -70 -141.5t-141 -44.5q-16 0 -35 1.5t-36 4.5l17 91q12 -2 22.5 -3t21.5 -1q42 0 66.5 20.5t35.5 74.5l68 350q2 10 3.5 20.5t1.5 22.5
q0 25 -11.5 37.5t-36.5 12.5q-31 0 -67 -26t-71 -70l-61 -312h-119z" />
    <glyph glyph-name="ngrave" unicode="&#x1f9;" 
d="M114 495h99l-5 -69q16 16 36 30t42 24.5t46.5 17t50.5 6.5q64 0 95 -31t31 -89q0 -14 -2 -28.5t-5 -29.5l-63 -326h-120l61 315q2 10 3.5 20.5t1.5 22.5q0 25 -11.5 37.5t-36.5 12.5q-31 0 -67 -26t-71 -70l-61 -312h-119zM276 766l117 -156l-55 -49l-134 141z" />
    <glyph glyph-name="nacute" unicode="&#x144;" 
d="M114 495h99l-5 -69q16 16 36 30t42 24.5t46.5 17t50.5 6.5q64 0 95 -31t31 -89q0 -14 -2 -28.5t-5 -29.5l-63 -326h-120l61 315q2 10 3.5 20.5t1.5 22.5q0 25 -11.5 37.5t-36.5 12.5q-31 0 -67 -26t-71 -70l-61 -312h-119zM435 757l61 -71l-165 -123l-46 53z" />
    <glyph glyph-name="ntilde" unicode="&#xf1;" 
d="M114 495h99l-5 -69q16 16 36 30t42 24.5t46.5 17t50.5 6.5q64 0 95 -31t31 -89q0 -14 -2 -28.5t-5 -29.5l-63 -326h-120l61 315q2 10 3.5 20.5t1.5 22.5q0 25 -11.5 37.5t-36.5 12.5q-31 0 -67 -26t-71 -70l-61 -312h-119zM175 631q10 18 23.5 34.5t29.5 28.5t34 18.5
t37 6.5q21 0 35.5 -7.5t27 -16.5t23.5 -16.5t23 -7.5q16 0 31 12t29 33l50 -42q-12 -18 -25 -34.5t-29 -28t-34 -18.5t-37 -7q-20 0 -35 7.5t-27.5 17t-23.5 16.5t-23 7q-16 0 -31 -11.5t-28 -33.5z" />
    <glyph glyph-name="ncaron" unicode="&#x148;" 
d="M114 495h99l-5 -69q16 16 36 30t42 24.5t46.5 17t50.5 6.5q64 0 95 -31t31 -89q0 -14 -2 -28.5t-5 -29.5l-63 -326h-120l61 315q2 10 3.5 20.5t1.5 22.5q0 25 -11.5 37.5t-36.5 12.5q-31 0 -67 -26t-71 -70l-61 -312h-119zM253 750l90 -84l116 82l39 -57l-170 -131
l-128 132z" />
    <glyph glyph-name="napostrophe" unicode="&#x149;" 
d="M54 558q19 24 36.5 50t31.5 48q-7 4 -10.5 11.5t-3.5 18.5q0 5 0.5 11t1.5 12q3 15 7.5 25t12 15.5t18.5 8.5t28 3q27 0 38 -8.5t11 -26.5q0 -5 -0.5 -10t-1.5 -12q-3 -18 -9 -30t-16 -26q-10 -13 -22.5 -27.5t-26 -29.5t-28.5 -30t-30 -29zM137 495h98l-5 -69
q16 16 35.5 30t42 24.5t46.5 17t49 6.5q59 0 88 -31t29 -89q0 -14 -2 -28.5t-5 -29.5l-63 -326h-120l61 315q2 10 3.5 20.5t1.5 22.5q0 25 -11.5 37.5t-36.5 12.5q-30 0 -60.5 -20.5t-63.5 -59.5l-64 -328h-120z" />
    <glyph glyph-name="ncommaaccent" unicode="&#x146;" 
d="M114 495h99l-5 -69q16 16 36 30t42 24.5t46.5 17t50.5 6.5q64 0 95 -31t31 -89q0 -14 -2 -28.5t-5 -29.5l-63 -326h-120l61 315q2 10 3.5 20.5t1.5 22.5q0 25 -11.5 37.5t-36.5 12.5q-31 0 -67 -26t-71 -70l-61 -312h-119zM37 -167q12 4 29.5 9t35 10.5t33 10.5t25.5 9
q3 33 17.5 47.5t46.5 14.5q25 0 36 -9.5t11 -28.5v-10t-2 -13q-3 -18 -10.5 -29t-22.5 -18.5t-39.5 -13.5t-61.5 -12q-9 -2 -21 -4t-24 -3.5t-24.5 -4t-22.5 -3.5z" />
    <glyph glyph-name="o" unicode="o" 
d="M513 339q0 -20 -2 -41.5t-7 -49.5q-13 -70 -37.5 -120.5t-59 -82t-79.5 -45.5t-99 -14q-46 0 -81 9t-59.5 29.5t-37.5 53t-13 78.5q0 19 2 40.5t7 49.5q13 71 37.5 121t59 81.5t80 46t100.5 14.5q44 0 79 -9t59.5 -30t37.5 -53t13 -78zM394 330q0 49 -21 68t-61 19
q-26 0 -48.5 -8t-41 -27.5t-32.5 -52t-24 -83.5q-4 -21 -6.5 -43.5t-2.5 -38.5q0 -48 21 -67.5t62 -19.5q26 0 48.5 8t40.5 28t32 52.5t24 82.5q4 22 6.5 44.5t2.5 37.5z" />
    <glyph glyph-name="oe" unicode="&#x153;" 
d="M234 363q0 30 -10 42t-25 12q-13 0 -24 -7t-21.5 -25t-21 -51t-21.5 -86q-7 -31 -10.5 -61t-3.5 -56q0 -29 8 -41.5t24 -12.5q12 0 23.5 7t22.5 25.5t22 51.5t22 85q6 31 10.5 61t4.5 56zM485 10q-33 -9 -65.5 -14.5t-66.5 -5.5q-26 0 -45.5 4t-34 12t-24 19.5
t-16.5 26.5q-19 -29 -47.5 -47.5t-73.5 -18.5q-57 0 -88 30.5t-31 105.5q0 26 4 58t12 70q14 76 32.5 126.5t42.5 79.5t54 41t68 12q21 0 38.5 -5t30 -14.5t20.5 -22t12 -26.5q11 14 24.5 26.5t29.5 21t35.5 13.5t42.5 5q54 0 85.5 -31t31.5 -90q0 -39 -12.5 -70t-41 -53.5
t-75 -35t-111.5 -12.5q-3 -15 -5 -31.5t-2 -30.5q0 -39 15.5 -55.5t52.5 -16.5q26 0 50 4t51 12zM326 293q38 0 62.5 6t39.5 17t20.5 25t5.5 32q0 22 -10 33t-26 11q-17 0 -30.5 -9.5t-25 -26t-20.5 -39t-16 -49.5z" />
    <glyph glyph-name="oslash" unicode="&#xf8;" 
d="M83 31q-17 17 -31 46.5t-14 78.5q0 19 2 40.5t7 49.5q13 71 37.5 121t59 81.5t80 46t100.5 14.5q24 0 43.5 -2.5t33.5 -7.5l57 84l65 -38l-55 -81q18 -17 31.5 -47t13.5 -78q0 -19 -2 -41t-7 -50q-13 -70 -37.5 -120.5t-59 -82t-79.5 -45.5t-99 -14q-23 0 -42.5 2
t-36.5 8l-61 -91l-66 38zM202 75q11 -2 20 -3t19 -1q27 0 50 8.5t41.5 29t33.5 54.5t26 86q4 20 6 41t2 37q1 11 0.5 19t-1.5 18zM349 420q-11 2 -20 3t-19 1q-27 0 -50 -9t-41.5 -29.5t-33.5 -54.5t-26 -85q-4 -20 -6 -41t-2 -37q-1 -11 -0.5 -19t1.5 -18z" />
    <glyph glyph-name="ograve" unicode="&#xf2;" 
d="M513 339q0 -20 -2 -41.5t-7 -49.5q-13 -70 -37.5 -120.5t-59 -82t-79.5 -45.5t-99 -14q-46 0 -81 9t-59.5 29.5t-37.5 53t-13 78.5q0 19 2 40.5t7 49.5q13 71 37.5 121t59 81.5t80 46t100.5 14.5q44 0 79 -9t59.5 -30t37.5 -53t13 -78zM394 330q0 49 -21 68t-61 19
q-26 0 -48.5 -8t-41 -27.5t-32.5 -52t-24 -83.5q-4 -21 -6.5 -43.5t-2.5 -38.5q0 -48 21 -67.5t62 -19.5q26 0 48.5 8t40.5 28t32 52.5t24 82.5q4 22 6.5 44.5t2.5 37.5zM287 766l117 -156l-55 -49l-134 141z" />
    <glyph glyph-name="oacute" unicode="&#xf3;" 
d="M513 339q0 -20 -2 -41.5t-7 -49.5q-13 -70 -37.5 -120.5t-59 -82t-79.5 -45.5t-99 -14q-46 0 -81 9t-59.5 29.5t-37.5 53t-13 78.5q0 19 2 40.5t7 49.5q13 71 37.5 121t59 81.5t80 46t100.5 14.5q44 0 79 -9t59.5 -30t37.5 -53t13 -78zM394 330q0 49 -21 68t-61 19
q-26 0 -48.5 -8t-41 -27.5t-32.5 -52t-24 -83.5q-4 -21 -6.5 -43.5t-2.5 -38.5q0 -48 21 -67.5t62 -19.5q26 0 48.5 8t40.5 28t32 52.5t24 82.5q4 22 6.5 44.5t2.5 37.5zM421 757l61 -71l-165 -123l-46 53z" />
    <glyph glyph-name="ocircumflex" unicode="&#xf4;" 
d="M513 339q0 -20 -2 -41.5t-7 -49.5q-13 -70 -37.5 -120.5t-59 -82t-79.5 -45.5t-99 -14q-46 0 -81 9t-59.5 29.5t-37.5 53t-13 78.5q0 19 2 40.5t7 49.5q13 71 37.5 121t59 81.5t80 46t100.5 14.5q44 0 79 -9t59.5 -30t37.5 -53t13 -78zM394 330q0 49 -21 68t-61 19
q-26 0 -48.5 -8t-41 -27.5t-32.5 -52t-24 -83.5q-4 -21 -6.5 -43.5t-2.5 -38.5q0 -48 21 -67.5t62 -19.5q26 0 48.5 8t40.5 28t32 52.5t24 82.5q4 22 6.5 44.5t2.5 37.5zM360 755l127 -132l-52 -58l-91 84l-115 -82l-39 57z" />
    <glyph glyph-name="odieresis" unicode="&#xf6;" 
d="M513 339q0 -20 -2 -41.5t-7 -49.5q-13 -70 -37.5 -120.5t-59 -82t-79.5 -45.5t-99 -14q-46 0 -81 9t-59.5 29.5t-37.5 53t-13 78.5q0 19 2 40.5t7 49.5q13 71 37.5 121t59 81.5t80 46t100.5 14.5q44 0 79 -9t59.5 -30t37.5 -53t13 -78zM394 330q0 49 -21 68t-61 19
q-26 0 -48.5 -8t-41 -27.5t-32.5 -52t-24 -83.5q-4 -21 -6.5 -43.5t-2.5 -38.5q0 -48 21 -67.5t62 -19.5q26 0 48.5 8t40.5 28t32 52.5t24 82.5q4 22 6.5 44.5t2.5 37.5zM313 680q0 -11 -3 -28q-6 -35 -22.5 -48t-51.5 -13q-59 0 -59 39q0 11 3 28q6 34 23 47.5t53 13.5
q57 0 57 -39zM521 680q0 -11 -3 -28q-6 -35 -22.5 -48t-51.5 -13q-59 0 -59 39q0 11 3 28q6 34 23 47.5t53 13.5q57 0 57 -39z" />
    <glyph glyph-name="otilde" unicode="&#xf5;" 
d="M513 339q0 -20 -2 -41.5t-7 -49.5q-13 -70 -37.5 -120.5t-59 -82t-79.5 -45.5t-99 -14q-46 0 -81 9t-59.5 29.5t-37.5 53t-13 78.5q0 19 2 40.5t7 49.5q13 71 37.5 121t59 81.5t80 46t100.5 14.5q44 0 79 -9t59.5 -30t37.5 -53t13 -78zM394 330q0 49 -21 68t-61 19
q-26 0 -48.5 -8t-41 -27.5t-32.5 -52t-24 -83.5q-4 -21 -6.5 -43.5t-2.5 -38.5q0 -48 21 -67.5t62 -19.5q26 0 48.5 8t40.5 28t32 52.5t24 82.5q4 22 6.5 44.5t2.5 37.5zM176 631q10 18 23.5 34.5t29.5 28.5t34 18.5t37 6.5q21 0 35.5 -7.5t27 -16.5t23.5 -16.5t23 -7.5
q16 0 31 12t29 33l50 -42q-12 -18 -25 -34.5t-29 -28t-34 -18.5t-37 -7q-20 0 -35 7.5t-27.5 17t-23.5 16.5t-23 7q-16 0 -31 -11.5t-28 -33.5z" />
    <glyph glyph-name="obreve" unicode="&#x14f;" 
d="M513 339q0 -20 -2 -41.5t-7 -49.5q-13 -70 -37.5 -120.5t-59 -82t-79.5 -45.5t-99 -14q-46 0 -81 9t-59.5 29.5t-37.5 53t-13 78.5q0 19 2 40.5t7 49.5q13 71 37.5 121t59 81.5t80 46t100.5 14.5q44 0 79 -9t59.5 -30t37.5 -53t13 -78zM394 330q0 49 -21 68t-61 19
q-26 0 -48.5 -8t-41 -27.5t-32.5 -52t-24 -83.5q-4 -21 -6.5 -43.5t-2.5 -38.5q0 -48 21 -67.5t62 -19.5q26 0 48.5 8t40.5 28t32 52.5t24 82.5q4 22 6.5 44.5t2.5 37.5zM300 727q-5 -32 7 -52.5t41 -20.5q28 0 46.5 20.5t24.5 52.5h81q-11 -69 -53.5 -110.5t-108.5 -41.5
q-68 0 -97.5 41.5t-16.5 110.5h76z" />
    <glyph glyph-name="omacron" unicode="&#x14d;" 
d="M513 339q0 -20 -2 -41.5t-7 -49.5q-13 -70 -37.5 -120.5t-59 -82t-79.5 -45.5t-99 -14q-46 0 -81 9t-59.5 29.5t-37.5 53t-13 78.5q0 19 2 40.5t7 49.5q13 71 37.5 121t59 81.5t80 46t100.5 14.5q44 0 79 -9t59.5 -30t37.5 -53t13 -78zM394 330q0 49 -21 68t-61 19
q-26 0 -48.5 -8t-41 -27.5t-32.5 -52t-24 -83.5q-4 -21 -6.5 -43.5t-2.5 -38.5q0 -48 21 -67.5t62 -19.5q26 0 48.5 8t40.5 28t32 52.5t24 82.5q4 22 6.5 44.5t2.5 37.5zM220 695h280l-17 -87h-280z" />
    <glyph glyph-name="ocaron" unicode="&#x1d2;" 
d="M513 339q0 -20 -2 -41.5t-7 -49.5q-13 -70 -37.5 -120.5t-59 -82t-79.5 -45.5t-99 -14q-46 0 -81 9t-59.5 29.5t-37.5 53t-13 78.5q0 19 2 40.5t7 49.5q13 71 37.5 121t59 81.5t80 46t100.5 14.5q44 0 79 -9t59.5 -30t37.5 -53t13 -78zM394 330q0 49 -21 68t-61 19
q-26 0 -48.5 -8t-41 -27.5t-32.5 -52t-24 -83.5q-4 -21 -6.5 -43.5t-2.5 -38.5q0 -48 21 -67.5t62 -19.5q26 0 48.5 8t40.5 28t32 52.5t24 82.5q4 22 6.5 44.5t2.5 37.5zM258 750l90 -84l116 82l39 -57l-170 -131l-128 132z" />
    <glyph glyph-name="odotaccent" unicode="&#x22f;" 
d="M513 339q0 -20 -2 -41.5t-7 -49.5q-13 -70 -37.5 -120.5t-59 -82t-79.5 -45.5t-99 -14q-46 0 -81 9t-59.5 29.5t-37.5 53t-13 78.5q0 19 2 40.5t7 49.5q13 71 37.5 121t59 81.5t80 46t100.5 14.5q44 0 79 -9t59.5 -30t37.5 -53t13 -78zM394 330q0 49 -21 68t-61 19
q-26 0 -48.5 -8t-41 -27.5t-32.5 -52t-24 -83.5q-4 -21 -6.5 -43.5t-2.5 -38.5q0 -48 21 -67.5t62 -19.5q26 0 48.5 8t40.5 28t32 52.5t24 82.5q4 22 6.5 44.5t2.5 37.5zM415 678q0 -6 -0.5 -12t-2.5 -13q-6 -36 -22 -49t-53 -13q-30 0 -44.5 10t-14.5 31q0 11 3 26
q5 35 21 48t54 13q30 0 44.5 -9.5t14.5 -31.5z" />
    <glyph glyph-name="ohungarumlaut" unicode="&#x151;" 
d="M513 339q0 -20 -2 -41.5t-7 -49.5q-13 -70 -37.5 -120.5t-59 -82t-79.5 -45.5t-99 -14q-46 0 -81 9t-59.5 29.5t-37.5 53t-13 78.5q0 19 2 40.5t7 49.5q13 71 37.5 121t59 81.5t80 46t100.5 14.5q44 0 79 -9t59.5 -30t37.5 -53t13 -78zM394 330q0 49 -21 68t-61 19
q-26 0 -48.5 -8t-41 -27.5t-32.5 -52t-24 -83.5q-4 -21 -6.5 -43.5t-2.5 -38.5q0 -48 21 -67.5t62 -19.5q26 0 48.5 8t40.5 28t32 52.5t24 82.5q4 22 6.5 44.5t2.5 37.5zM326 757l68 -53l-142 -142l-52 40zM508 749l62 -61l-154 -128l-48 44z" />
    <glyph glyph-name="oslashacute" unicode="&#x1ff;" 
d="M407 757l61 -71l-165 -123l-46 53zM83 31q-17 17 -31 46.5t-14 78.5q0 19 2 40.5t7 49.5q13 71 37.5 121t59 81.5t80 46t100.5 14.5q24 0 43.5 -2.5t33.5 -7.5l57 84l65 -38l-55 -81q18 -17 31.5 -47t13.5 -78q0 -19 -2 -41t-7 -50q-13 -70 -37.5 -120.5t-59 -82
t-79.5 -45.5t-99 -14q-23 0 -42.5 2t-36.5 8l-61 -91l-66 38zM202 75q11 -2 20 -3t19 -1q27 0 50 8.5t41.5 29t33.5 54.5t26 86q4 20 6 41t2 37q1 11 0.5 19t-1.5 18zM349 420q-11 2 -20 3t-19 1q-27 0 -50 -9t-41.5 -29.5t-33.5 -54.5t-26 -85q-4 -20 -6 -41t-2 -37
q-1 -11 -0.5 -19t1.5 -18z" />
    <glyph glyph-name="p" unicode="p" 
d="M114 495h99l-5 -67q18 16 38 30.5t42 24.5t44 16t46 6q63 0 101 -38.5t38 -116.5q0 -85 -22.5 -152t-59.5 -112.5t-86.5 -70t-103.5 -24.5q-34 0 -61 8.5t-47 20.5l-1 -1q-1 -29 -5.5 -55.5t-9.5 -51.5l-24 -124h-119zM160 111q17 -12 37.5 -19.5t45.5 -7.5q34 0 62 21
t48.5 56t31.5 80t11 91q0 39 -15 57.5t-43 18.5q-16 0 -33.5 -7t-35.5 -20t-36 -30.5t-34 -38.5z" />
    <glyph glyph-name="thorn" unicode="&#xfe;" 
d="M162 738h119l-34 -177q-3 -15 -6.5 -31t-7.5 -32l-8 -32t-8 -30l1 -1q15 14 33 26.5t38.5 21.5t42.5 15t46 6q63 0 101 -38.5t38 -116.5q0 -85 -22.5 -152t-59.5 -112.5t-86.5 -70t-103.5 -24.5q-34 0 -60.5 8.5t-47.5 20.5l-1 -1q-1 -29 -4.5 -51t-8.5 -45l-26 -134
h-119zM160 110q17 -11 37.5 -18.5t45.5 -7.5q34 0 62 21t48.5 55.5t31.5 79.5t11 91q0 39 -15 58t-43 19q-16 0 -33.5 -7.5t-35.5 -20t-36 -30.5t-34 -38z" />
    <glyph glyph-name="q" unicode="q" 
d="M304 -66q3 15 6.5 31l7 32t8 31.5t8.5 29.5l-1 1q-15 -14 -33.5 -26t-39 -21.5t-42.5 -15.5t-46 -6q-63 0 -100.5 39t-37.5 116q0 86 22.5 153t59.5 112.5t86.5 69.5t103.5 24q37 0 66 -10.5t52 -23.5l9 25h99l-137 -707h-120zM391 384q-18 11 -38.5 19t-44.5 8
q-34 0 -62.5 -21t-49 -56t-31.5 -80t-11 -91q0 -39 15.5 -57.5t43.5 -18.5q15 0 33 7t36 20t36 30.5t34 38.5z" />
    <glyph glyph-name="r" unicode="r" 
d="M317 413q41 46 84 70.5t85 24.5q23 0 42.5 -4.5t36.5 -12.5l-25 -109q-18 11 -36.5 16.5t-41.5 5.5q-36 0 -74 -25.5t-82 -79.5l-41 -210h149l-17 -89h-392l17 89h124l61 316h-118l17 90h218z" />
    <glyph glyph-name="racute" unicode="&#x155;" 
d="M317 413q41 46 84 70.5t85 24.5q23 0 42.5 -4.5t36.5 -12.5l-25 -109q-18 11 -36.5 16.5t-41.5 5.5q-36 0 -74 -25.5t-82 -79.5l-41 -210h149l-17 -89h-392l17 89h124l61 316h-118l17 90h218zM431 757l61 -71l-165 -123l-46 53z" />
    <glyph glyph-name="rcaron" unicode="&#x159;" 
d="M317 413q41 46 84 70.5t85 24.5q23 0 42.5 -4.5t36.5 -12.5l-25 -109q-18 11 -36.5 16.5t-41.5 5.5q-36 0 -74 -25.5t-82 -79.5l-41 -210h149l-17 -89h-392l17 89h124l61 316h-118l17 90h218zM252 750l90 -84l116 82l39 -57l-170 -131l-128 132z" />
    <glyph glyph-name="rcommaaccent" unicode="&#x157;" 
d="M317 413q41 46 84 70.5t85 24.5q23 0 42.5 -4.5t36.5 -12.5l-25 -109q-18 11 -36.5 16.5t-41.5 5.5q-36 0 -74 -25.5t-82 -79.5l-41 -210h149l-17 -89h-392l17 89h124l61 316h-118l17 90h218zM0 -167q12 4 29.5 9t35 10.5t33 10.5t25.5 9q3 33 17.5 47.5t46.5 14.5
q25 0 36 -9.5t11 -28.5v-10t-2 -13q-3 -18 -10.5 -29t-22.5 -18.5t-39.5 -13.5t-61.5 -12q-9 -2 -21 -4t-24 -3.5t-24.5 -4t-22.5 -3.5z" />
    <glyph glyph-name="s" unicode="s" 
d="M55 99q38 -10 81.5 -16t85.5 -6q38 0 63 4.5t39.5 12.5t20 19t5.5 24q0 11 -5 19.5t-18 16.5t-36.5 17t-60.5 20q-38 12 -64 25t-42.5 29.5t-23 36t-6.5 45.5q0 34 13 63t42 50.5t75 33.5t111 12q45 0 85.5 -5.5t69.5 -13.5l-19 -86q-30 8 -68.5 13t-75.5 5
q-35 0 -57.5 -4t-36 -12t-18.5 -18t-5 -21q0 -12 5 -19.5t17 -15t34 -15.5t56 -19q41 -13 68.5 -26.5t44 -30t23.5 -37t7 -47.5q0 -35 -14 -64.5t-44 -52t-77.5 -34.5t-115.5 -12q-49 0 -94.5 6t-83.5 16z" />
    <glyph glyph-name="scedilla" unicode="&#x15f;" 
d="M174 -9q-39 2 -74 7.5t-64 13.5l19 87q38 -10 81.5 -16t85.5 -6q38 0 63 4.5t39.5 12.5t20 19t5.5 24q0 11 -5 19.5t-18 16.5t-36.5 17t-60.5 20q-38 12 -64 25t-42.5 29.5t-23 36t-6.5 45.5q0 34 13 63t42 50.5t75 33.5t111 12q45 0 85.5 -5.5t69.5 -13.5l-19 -86
q-30 8 -68.5 13t-75.5 5q-35 0 -57.5 -4t-36 -12t-18.5 -18t-5 -21q0 -12 5 -19.5t17 -15t34 -15.5t56 -19q41 -13 68.5 -26.5t44 -30t23.5 -37t7 -47.5q0 -71 -54 -114t-166 -48l-11 -37q43 -3 61.5 -22t18.5 -47q0 -23 -11.5 -43t-31.5 -33.5t-47.5 -21t-60.5 -7.5
q-19 0 -37 1.5t-33 5.5l15 57q14 -3 27.5 -4.5t30.5 -1.5q34 0 47.5 12t13.5 28q0 12 -12 18.5t-40 6.5h-29z" />
    <glyph glyph-name="germandbls" unicode="&#xdf;" 
d="M125 564q10 52 30.5 88t52 58t73.5 32t96 10q44 0 75.5 -10t51 -26.5t29 -39t9.5 -46.5q0 -26 -6.5 -47.5t-18.5 -40.5t-28 -36t-33 -34q-18 -17 -31 -30.5t-21.5 -25.5t-13 -23.5t-4.5 -23.5q0 -11 2.5 -20t8.5 -18t16 -18.5t26 -20.5q22 -18 36.5 -32.5t23.5 -29.5
t13 -31.5t4 -37.5q0 -39 -13.5 -70.5t-40 -53.5t-65.5 -34t-91 -12q-31 0 -60.5 4t-52.5 11l23 86q20 -7 41 -10.5t44 -3.5q48 0 72.5 19.5t24.5 49.5q0 12 -3.5 21.5t-10.5 18t-19 18t-30 21.5q-20 14 -33 27t-21 26.5t-11.5 28.5t-3.5 33q0 46 22.5 82.5t62.5 76.5
q19 20 32.5 35t22 28t12.5 24.5t4 24.5q0 22 -17 35.5t-50 13.5q-46 0 -73 -23.5t-38 -77.5l-117 -600q-19 -100 -69.5 -142t-128.5 -42q-24 0 -46.5 2.5t-42.5 7.5l19 89q28 -6 61 -6q37 0 58 22t31 76z" />
    <glyph glyph-name="sacute" unicode="&#x15b;" 
d="M58 99q38 -10 81.5 -16t85.5 -6q38 0 63 4.5t39.5 12.5t20 19t5.5 24q0 11 -5 19.5t-18 16.5t-36.5 17t-60.5 20q-38 12 -64 25t-42.5 29.5t-23 36t-6.5 45.5q0 34 13 63t42 50.5t75 33.5t111 12q45 0 85.5 -5.5t69.5 -13.5l-19 -86q-30 8 -68.5 13t-75.5 5
q-35 0 -57.5 -4t-36 -12t-18.5 -18t-5 -21q0 -12 5 -19.5t17 -15t34 -15.5t56 -19q41 -13 68.5 -26.5t44 -30t23.5 -37t7 -47.5q0 -35 -14 -64.5t-44 -52t-77.5 -34.5t-115.5 -12q-49 0 -94.5 6t-83.5 16zM423 757l61 -71l-165 -123l-46 53z" />
    <glyph glyph-name="scircumflex" unicode="&#x15d;" 
d="M58 99q38 -10 81.5 -16t85.5 -6q38 0 63 4.5t39.5 12.5t20 19t5.5 24q0 11 -5 19.5t-18 16.5t-36.5 17t-60.5 20q-38 12 -64 25t-42.5 29.5t-23 36t-6.5 45.5q0 34 13 63t42 50.5t75 33.5t111 12q45 0 85.5 -5.5t69.5 -13.5l-19 -86q-30 8 -68.5 13t-75.5 5
q-35 0 -57.5 -4t-36 -12t-18.5 -18t-5 -21q0 -12 5 -19.5t17 -15t34 -15.5t56 -19q41 -13 68.5 -26.5t44 -30t23.5 -37t7 -47.5q0 -35 -14 -64.5t-44 -52t-77.5 -34.5t-115.5 -12q-49 0 -94.5 6t-83.5 16zM372 755l127 -132l-52 -58l-91 84l-115 -82l-39 57z" />
    <glyph glyph-name="scaron" unicode="&#x161;" 
d="M58 99q38 -10 81.5 -16t85.5 -6q38 0 63 4.5t39.5 12.5t20 19t5.5 24q0 11 -5 19.5t-18 16.5t-36.5 17t-60.5 20q-38 12 -64 25t-42.5 29.5t-23 36t-6.5 45.5q0 34 13 63t42 50.5t75 33.5t111 12q45 0 85.5 -5.5t69.5 -13.5l-19 -86q-30 8 -68.5 13t-75.5 5
q-35 0 -57.5 -4t-36 -12t-18.5 -18t-5 -21q0 -12 5 -19.5t17 -15t34 -15.5t56 -19q41 -13 68.5 -26.5t44 -30t23.5 -37t7 -47.5q0 -35 -14 -64.5t-44 -52t-77.5 -34.5t-115.5 -12q-49 0 -94.5 6t-83.5 16zM267 750l90 -84l116 82l39 -57l-170 -131l-128 132z" />
    <glyph glyph-name="scommaaccent" unicode="&#x219;" 
d="M58 99q38 -10 81.5 -16t85.5 -6q38 0 63 4.5t39.5 12.5t20 19t5.5 24q0 11 -5 19.5t-18 16.5t-36.5 17t-60.5 20q-38 12 -64 25t-42.5 29.5t-23 36t-6.5 45.5q0 34 13 63t42 50.5t75 33.5t111 12q45 0 85.5 -5.5t69.5 -13.5l-19 -86q-30 8 -68.5 13t-75.5 5
q-35 0 -57.5 -4t-36 -12t-18.5 -18t-5 -21q0 -12 5 -19.5t17 -15t34 -15.5t56 -19q41 -13 68.5 -26.5t44 -30t23.5 -37t7 -47.5q0 -35 -14 -64.5t-44 -52t-77.5 -34.5t-115.5 -12q-49 0 -94.5 6t-83.5 16zM40 -167q12 4 29.5 9t35 10.5t33 10.5t25.5 9q3 33 17.5 47.5
t46.5 14.5q25 0 36 -9.5t11 -28.5v-10t-2 -13q-3 -18 -10.5 -29t-22.5 -18.5t-39.5 -13.5t-61.5 -12q-9 -2 -21 -4t-24 -3.5t-24.5 -4t-22.5 -3.5z" />
    <glyph glyph-name="t" unicode="t" 
d="M215 495l31 156l123 16l-34 -172h210l-17 -90h-210l-46 -233q-2 -10 -3 -18t-1 -16q0 -30 19.5 -43t65.5 -13q35 0 63 6t47 11v-86q-24 -7 -62.5 -14.5t-88.5 -7.5q-86 0 -126 30t-40 92q0 11 2 25.5t5 30.5l45 236h-128l17 90h128z" />
    <glyph glyph-name="tbar" unicode="&#x167;" 
d="M219 495l30 156l122 16l-33 -172h209l-17 -90h-209l-16 -78h197l-17 -87h-196l-15 -76q-2 -8 -2.5 -14.5t-0.5 -11.5q0 -30 19.5 -43t65.5 -13q34 0 62.5 6t47.5 11v-86q-25 -7 -63.5 -14.5t-86.5 -7.5q-86 0 -126.5 30t-40.5 92q0 11 1.5 25t4.5 27l14 75h-116l17 87
h116l15 78h-128l17 90h129z" />
    <glyph glyph-name="tcaron" unicode="&#x165;" 
d="M205 495l31 156l122 16l-33 -172h209l-18 -90h-208l-46 -233q-2 -10 -3 -18t-1 -16q0 -30 19 -43t66 -13q34 0 62.5 6t47.5 11l-1 -86q-25 -7 -63.5 -14.5t-86.5 -7.5q-86 0 -126.5 30t-40.5 92q0 11 2 25.5t5 30.5l46 236h-118l17 90h118zM530 807l92 -30l-116 -203
l-68 21z" />
    <glyph glyph-name="tcommaaccent" unicode="&#x21b;" 
d="M215 495l31 156l123 16l-34 -172h210l-17 -90h-210l-46 -233q-2 -10 -3 -18t-1 -16q0 -30 19.5 -43t65.5 -13q35 0 63 6t47 11v-86q-24 -7 -62.5 -14.5t-88.5 -7.5q-86 0 -126 30t-40 92q0 11 2 25.5t5 30.5l45 236h-128l17 90h128zM70 -167q12 4 29.5 9t35 10.5t33 10.5
t25.5 9q3 33 17.5 47.5t46.5 14.5q25 0 36 -9.5t11 -28.5v-10t-2 -13q-3 -18 -10.5 -29t-22.5 -18.5t-39.5 -13.5t-61.5 -12q-9 -2 -21 -4t-24 -3.5t-24.5 -4t-22.5 -3.5z" />
    <glyph glyph-name="uni0163" unicode="&#x163;" 
d="M87 495h128l31 156l123 16l-34 -172h210l-17 -90h-210l-46 -233q-2 -10 -3 -18t-1 -16q0 -30 19.5 -43t65.5 -13q35 0 63 6t47 11v-86q-24 -7 -61 -14t-85 -7h-6l-11 -38q43 -3 62 -22t19 -47q0 -23 -11.5 -43t-31.5 -33.5t-47.5 -21t-60.5 -7.5q-21 0 -38.5 1.5
t-31.5 5.5l13 57q14 -3 28.5 -4.5t31.5 -1.5q33 0 46 12t13 28q0 12 -11.5 18.5t-39.5 6.5h-28l30 95q-45 11 -71 37.5t-26 77.5q0 11 2 25.5t5 30.5l45 236h-128z" />
    <glyph glyph-name="u" unicode="u" 
d="M342 68q-17 -16 -36 -30t-41 -24.5t-47 -17t-51 -6.5q-63 0 -94 31t-31 90q0 13 1.5 27.5t4.5 30.5l63 326h120l-61 -315q-2 -11 -3.5 -21t-1.5 -22q0 -26 12 -38t37 -12q31 0 66.5 26t71.5 70l60 312h120l-95 -495h-99z" />
    <glyph glyph-name="uogonek" unicode="&#x173;" 
d="M437 0q-26 -15 -47.5 -29.5t-38.5 -29.5t-26 -30t-9 -29q0 -15 9 -21.5t26 -6.5q18 0 35 3.5t31 8.5l3 -69q-24 -8 -51 -13.5t-54 -5.5q-50 0 -75.5 21t-25.5 58q0 22 10.5 43t28 39.5t39.5 34t46 28.5l5 67q-16 -16 -35.5 -30.5t-42 -25t-47.5 -17t-51 -6.5
q-63 0 -94 31t-31 90q0 13 1.5 27.5t4.5 30.5l63 326h120l-61 -315q-2 -11 -3.5 -21t-1.5 -22q0 -26 12 -38t37 -12q31 0 66.5 26t71.5 70l60 312h120z" />
    <glyph glyph-name="ugrave" unicode="&#xf9;" 
d="M342 68q-17 -16 -36 -30t-41 -24.5t-47 -17t-51 -6.5q-63 0 -94 31t-31 90q0 13 1.5 27.5t4.5 30.5l63 326h120l-61 -315q-2 -11 -3.5 -21t-1.5 -22q0 -26 12 -38t37 -12q31 0 66.5 26t71.5 70l60 312h120l-95 -495h-99zM283 766l117 -156l-55 -49l-134 141z" />
    <glyph glyph-name="uacute" unicode="&#xfa;" 
d="M342 68q-17 -16 -36 -30t-41 -24.5t-47 -17t-51 -6.5q-63 0 -94 31t-31 90q0 13 1.5 27.5t4.5 30.5l63 326h120l-61 -315q-2 -11 -3.5 -21t-1.5 -22q0 -26 12 -38t37 -12q31 0 66.5 26t71.5 70l60 312h120l-95 -495h-99zM431 757l61 -71l-165 -123l-46 53z" />
    <glyph glyph-name="ucircumflex" unicode="&#xfb;" 
d="M342 68q-17 -16 -36 -30t-41 -24.5t-47 -17t-51 -6.5q-63 0 -94 31t-31 90q0 13 1.5 27.5t4.5 30.5l63 326h120l-61 -315q-2 -11 -3.5 -21t-1.5 -22q0 -26 12 -38t37 -12q31 0 66.5 26t71.5 70l60 312h120l-95 -495h-99zM363 755l127 -132l-52 -58l-91 84l-115 -82
l-39 57z" />
    <glyph glyph-name="udieresis" unicode="&#xfc;" 
d="M342 68q-17 -16 -36 -30t-41 -24.5t-47 -17t-51 -6.5q-63 0 -94 31t-31 90q0 13 1.5 27.5t4.5 30.5l63 326h120l-61 -315q-2 -11 -3.5 -21t-1.5 -22q0 -26 12 -38t37 -12q31 0 66.5 26t71.5 70l60 312h120l-95 -495h-99zM315 680q0 -11 -3 -28q-6 -35 -22.5 -48
t-51.5 -13q-59 0 -59 39q0 11 3 28q6 34 23 47.5t53 13.5q57 0 57 -39zM523 680q0 -11 -3 -28q-6 -35 -22.5 -48t-51.5 -13q-59 0 -59 39q0 11 3 28q6 34 23 47.5t53 13.5q57 0 57 -39z" />
    <glyph glyph-name="utilde" unicode="&#x169;" 
d="M342 68q-17 -16 -36 -30t-41 -24.5t-47 -17t-51 -6.5q-63 0 -94 31t-31 90q0 13 1.5 27.5t4.5 30.5l63 326h120l-61 -315q-2 -11 -3.5 -21t-1.5 -22q0 -26 12 -38t37 -12q31 0 66.5 26t71.5 70l60 312h120l-95 -495h-99zM173 631q10 18 23.5 34.5t29.5 28.5t34 18.5
t37 6.5q21 0 35.5 -7.5t27 -16.5t23.5 -16.5t23 -7.5q16 0 31 12t29 33l50 -42q-12 -18 -25 -34.5t-29 -28t-34 -18.5t-37 -7q-20 0 -35 7.5t-27.5 17t-23.5 16.5t-23 7q-16 0 -31 -11.5t-28 -33.5z" />
    <glyph glyph-name="ubreve" unicode="&#x16d;" 
d="M342 68q-17 -16 -36 -30t-41 -24.5t-47 -17t-51 -6.5q-63 0 -94 31t-31 90q0 13 1.5 27.5t4.5 30.5l63 326h120l-61 -315q-2 -11 -3.5 -21t-1.5 -22q0 -26 12 -38t37 -12q31 0 66.5 26t71.5 70l60 312h120l-95 -495h-99zM299 727q-5 -32 7 -52.5t41 -20.5q28 0 46.5 20.5
t24.5 52.5h81q-11 -69 -53.5 -110.5t-108.5 -41.5q-68 0 -97.5 41.5t-16.5 110.5h76z" />
    <glyph glyph-name="umacron" unicode="&#x16b;" 
d="M342 68q-17 -16 -36 -30t-41 -24.5t-47 -17t-51 -6.5q-63 0 -94 31t-31 90q0 13 1.5 27.5t4.5 30.5l63 326h120l-61 -315q-2 -11 -3.5 -21t-1.5 -22q0 -26 12 -38t37 -12q31 0 66.5 26t71.5 70l60 312h120l-95 -495h-99zM217 695h280l-17 -87h-280z" />
    <glyph glyph-name="ucaron" unicode="&#x1d4;" 
d="M342 68q-17 -16 -36 -30t-41 -24.5t-47 -17t-51 -6.5q-63 0 -94 31t-31 90q0 13 1.5 27.5t4.5 30.5l63 326h120l-61 -315q-2 -11 -3.5 -21t-1.5 -22q0 -26 12 -38t37 -12q31 0 66.5 26t71.5 70l60 312h120l-95 -495h-99zM257 750l90 -84l116 82l39 -57l-170 -131
l-128 132z" />
    <glyph glyph-name="uring" unicode="&#x16f;" 
d="M342 68q-17 -16 -36 -30t-41 -24.5t-47 -17t-51 -6.5q-63 0 -94 31t-31 90q0 13 1.5 27.5t4.5 30.5l63 326h120l-61 -315q-2 -11 -3.5 -21t-1.5 -22q0 -26 12 -38t37 -12q31 0 66.5 26t71.5 70l60 312h120l-95 -495h-99zM469 670q0 -25 -9.5 -47t-25 -37.5t-37 -25
t-47.5 -9.5q-49 0 -79 29.5t-30 77.5q0 26 9 47.5t25 37.5t38 24.5t46 8.5q49 0 79.5 -29t30.5 -77zM402 668q0 23 -11.5 36.5t-33.5 13.5t-36 -15.5t-14 -42.5q0 -23 12 -36t33 -13q23 0 36.5 15t13.5 42z" />
    <glyph glyph-name="uhungarumlaut" unicode="&#x171;" 
d="M342 68q-17 -16 -36 -30t-41 -24.5t-47 -17t-51 -6.5q-63 0 -94 31t-31 90q0 13 1.5 27.5t4.5 30.5l63 326h120l-61 -315q-2 -11 -3.5 -21t-1.5 -22q0 -26 12 -38t37 -12q31 0 66.5 26t71.5 70l60 312h120l-95 -495h-99zM337 757l68 -53l-142 -142l-52 40zM519 749
l62 -61l-154 -128l-48 44z" />
    <glyph glyph-name="v" unicode="v" 
d="M188 495l35 -250q4 -23 6 -43t4 -39.5t3.5 -39.5t3.5 -44h2q11 24 20 44.5t19 40t19.5 39.5t21.5 42l135 250h120l-266 -495h-168l-74 495h119z" />
    <glyph glyph-name="w" unicode="w" 
d="M163 495l-20 -287q-2 -29 -6 -59t-9 -63h5q7 22 12.5 40t12.5 35l80 219h128l-6 -219q0 -20 -1 -35.5t-3 -39.5h4q8 34 16.5 64t17.5 58l92 287h109l-168 -495h-152l6 218q0 18 0.5 33.5t2.5 35.5h-3q-5 -19 -10 -34.5t-11 -34.5l-80 -218h-152l25 495h110z" />
    <glyph glyph-name="wcircumflex" unicode="&#x175;" 
d="M163 495l-20 -287q-2 -29 -6 -59t-9 -63h5q7 22 12.5 40t12.5 35l80 219h128l-6 -219q0 -20 -1 -35.5t-3 -39.5h4q8 34 16.5 64t17.5 58l92 287h109l-168 -495h-152l6 218q0 18 0.5 33.5t2.5 35.5h-3q-5 -19 -10 -34.5t-11 -34.5l-80 -218h-152l25 495h110zM363 755
l127 -132l-52 -58l-91 84l-115 -82l-39 57z" />
    <glyph glyph-name="x" unicode="x" 
d="M204 495l88 -181l1 -1q10 14 20.5 27.5t22.5 27.5l104 127h132l-214 -247l124 -248h-133l-90 193l-2 1q-10 -16 -20.5 -30t-23.5 -29l-108 -135h-132l220 257l-116 238h127z" />
    <glyph glyph-name="y" unicode="y" 
d="M193 495l36 -231q2 -23 4.5 -42.5t4 -39t3 -40t2.5 -44.5h2q11 24 20 45t18.5 40.5l19 39t21.5 41.5l125 231h128l-308 -546q-28 -51 -53.5 -84t-53 -52.5t-60 -27.5t-74.5 -8q-20 0 -42 2.5t-40 7.5l20 89q15 -3 31.5 -4.5t33.5 -1.5q18 0 33.5 3t30.5 12.5t29 25.5
t29 41l30 48h-36l-78 495h124z" />
    <glyph glyph-name="yacute" unicode="&#xfd;" 
d="M193 495l36 -231q2 -23 4.5 -42.5t4 -39t3 -40t2.5 -44.5h2q11 24 20 45t18.5 40.5l19 39t21.5 41.5l125 231h128l-308 -546q-28 -51 -53.5 -84t-53 -52.5t-60 -27.5t-74.5 -8q-20 0 -42 2.5t-40 7.5l20 89q15 -3 31.5 -4.5t33.5 -1.5q18 0 33.5 3t30.5 12.5t29 25.5
t29 41l30 48h-36l-78 495h124zM435 757l61 -71l-165 -123l-46 53z" />
    <glyph glyph-name="ycircumflex" unicode="&#x177;" 
d="M193 495l36 -231q2 -23 4.5 -42.5t4 -39t3 -40t2.5 -44.5h2q11 24 20 45t18.5 40.5l19 39t21.5 41.5l125 231h128l-308 -546q-28 -51 -53.5 -84t-53 -52.5t-60 -27.5t-74.5 -8q-20 0 -42 2.5t-40 7.5l20 89q15 -3 31.5 -4.5t33.5 -1.5q18 0 33.5 3t30.5 12.5t29 25.5
t29 41l30 48h-36l-78 495h124zM363 755l127 -132l-52 -58l-91 84l-115 -82l-39 57z" />
    <glyph glyph-name="ydieresis" unicode="&#xff;" 
d="M193 495l36 -231q2 -23 4.5 -42.5t4 -39t3 -40t2.5 -44.5h2q11 24 20 45t18.5 40.5l19 39t21.5 41.5l125 231h128l-308 -546q-28 -51 -53.5 -84t-53 -52.5t-60 -27.5t-74.5 -8q-20 0 -42 2.5t-40 7.5l20 89q15 -3 31.5 -4.5t33.5 -1.5q18 0 33.5 3t30.5 12.5t29 25.5
t29 41l30 48h-36l-78 495h124zM313 680q0 -11 -3 -28q-6 -35 -22.5 -48t-51.5 -13q-59 0 -59 39q0 11 3 28q6 34 23 47.5t53 13.5q57 0 57 -39zM521 680q0 -11 -3 -28q-6 -35 -22.5 -48t-51.5 -13q-59 0 -59 39q0 11 3 28q6 34 23 47.5t53 13.5q57 0 57 -39z" />
    <glyph glyph-name="ymacron" unicode="&#x233;" 
d="M193 495l36 -231q2 -23 4.5 -42.5t4 -39t3 -40t2.5 -44.5h2q11 24 20 45t18.5 40.5l19 39t21.5 41.5l125 231h128l-308 -546q-28 -51 -53.5 -84t-53 -52.5t-60 -27.5t-74.5 -8q-20 0 -42 2.5t-40 7.5l20 89q15 -3 31.5 -4.5t33.5 -1.5q18 0 33.5 3t30.5 12.5t29 25.5
t29 41l30 48h-36l-78 495h124zM218 695h280l-17 -87h-280z" />
    <glyph glyph-name="z" unicode="z" 
d="M23 75l322 326h-240l18 94h407l-15 -73l-324 -330h269l-18 -92h-433z" />
    <glyph glyph-name="zacute" unicode="&#x17a;" 
d="M23 75l322 326h-240l18 94h407l-15 -73l-324 -330h269l-18 -92h-433zM436 757l61 -71l-165 -123l-46 53z" />
    <glyph glyph-name="zcaron" unicode="&#x17e;" 
d="M23 75l322 326h-240l18 94h407l-15 -73l-324 -330h269l-18 -92h-433zM266 750l90 -84l116 82l39 -57l-170 -131l-128 132z" />
    <glyph glyph-name="zdotaccent" unicode="&#x17c;" 
d="M23 75l322 326h-240l18 94h407l-15 -73l-324 -330h269l-18 -92h-433zM435 678q0 -6 -0.5 -12t-2.5 -13q-6 -36 -22 -49t-53 -13q-30 0 -44.5 10t-14.5 31q0 11 3 26q5 35 21 48t54 13q30 0 44.5 -9.5t14.5 -31.5z" />
    <glyph glyph-name="A" unicode="A" 
d="M272 695h181l40 -695h-123l-10 178h-198l-79 -178h-121zM362 270l-7 180q-3 45 -5 84.5t-3 84.5h-2q-10 -22 -18.5 -43t-17 -41t-18 -41t-19.5 -44l-76 -180h166z" />
    <glyph glyph-name="Aogonek" unicode="&#x104;" 
d="M272 695h181l40 -695q-26 -16 -47.5 -30.5t-38 -29t-25 -29t-8.5 -28.5q0 -27 35 -27q18 0 34.5 3.5t30.5 8.5l2 -72q-24 -8 -50.5 -13t-53.5 -5q-50 0 -76.5 20.5t-26.5 58.5q0 22 9.5 42t27 38t39.5 34t46 29h-21l-10 178h-198l-79 -178h-121zM362 270l-7 180
q-3 45 -5 84.5t-3 84.5h-2q-10 -22 -18.5 -43t-17 -41t-18 -41t-19.5 -44l-76 -180h166z" />
    <glyph glyph-name="AE" unicode="&#xc6;" 
d="M250 695h370l-19 -95h-136l-39 -196h127l-17 -94h-127l-42 -215h136l-18 -95h-256l34 180h-117l-74 -180h-119zM282 273l64 332h-24l-139 -332h99z" />
    <glyph glyph-name="Agrave" unicode="&#xc0;" 
d="M272 695h181l40 -695h-123l-10 178h-198l-79 -178h-121zM362 270l-7 180q-3 45 -5 84.5t-3 84.5h-2q-10 -22 -18.5 -43t-17 -41t-18 -41t-19.5 -44l-76 -180h166zM277 915l178 -98l-35 -64l-188 80z" />
    <glyph glyph-name="Aacute" unicode="&#xc1;" 
d="M272 695h181l40 -695h-123l-10 178h-198l-79 -178h-121zM362 270l-7 180q-3 45 -5 84.5t-3 84.5h-2q-10 -22 -18.5 -43t-17 -41t-18 -41t-19.5 -44l-76 -180h166zM491 910l31 -83l-196 -72l-26 64z" />
    <glyph glyph-name="Acircumflex" unicode="&#xc2;" 
d="M272 695h181l40 -695h-123l-10 178h-198l-79 -178h-121zM362 270l-7 180q-3 45 -5 84.5t-3 84.5h-2q-10 -22 -18.5 -43t-17 -41t-18 -41t-19.5 -44l-76 -180h166zM393 909l136 -88l-42 -65l-107 60l-127 -60l-26 65z" />
    <glyph glyph-name="Adieresis" unicode="&#xc4;" 
d="M272 695h181l40 -695h-123l-10 178h-198l-79 -178h-121zM362 270l-7 180q-3 45 -5 84.5t-3 84.5h-2q-10 -22 -18.5 -43t-17 -41t-18 -41t-19.5 -44l-76 -180h166zM336 853q0 -12 -4 -28q-3 -17 -8.5 -28.5t-14 -18.5t-20.5 -9.5t-30 -2.5q-58 0 -58 40q0 12 4 28
q4 17 9 28.5t13 18.5t20 9.5t30 2.5q59 0 59 -40zM569 853q0 -12 -4 -28q-3 -17 -8.5 -28.5t-13.5 -18.5t-20.5 -9.5t-30.5 -2.5q-58 0 -58 40q0 12 4 28q4 17 9 28.5t13 18.5t20.5 9.5t30.5 2.5q58 0 58 -40z" />
    <glyph glyph-name="Atilde" unicode="&#xc3;" 
d="M272 695h181l40 -695h-123l-10 178h-198l-79 -178h-121zM362 270l-7 180q-3 45 -5 84.5t-3 84.5h-2q-10 -22 -18.5 -43t-17 -41t-18 -41t-19.5 -44l-76 -180h166zM207 819q23 29 53.5 48t70.5 19q20 0 35.5 -5t28 -12t24.5 -12.5t26 -5.5q17 0 34.5 8.5t33.5 25.5l42 -49
q-24 -29 -54 -48t-71 -19q-20 0 -35.5 5.5t-28 12t-24 12t-25.5 5.5q-18 0 -35.5 -8.5t-32.5 -25.5z" />
    <glyph glyph-name="Abreve" unicode="&#x102;" 
d="M272 695h181l40 -695h-123l-10 178h-198l-79 -178h-121zM362 270l-7 180q-3 45 -5 84.5t-3 84.5h-2q-10 -22 -18.5 -43t-17 -41t-18 -41t-19.5 -44l-76 -180h166zM319 892q-2 -26 12.5 -43.5t47.5 -17.5t53 17.5t25 43.5h80q-5 -29 -18.5 -54t-35 -43.5t-50.5 -29
t-65 -10.5t-61.5 10.5t-40.5 29t-20.5 43.5t-0.5 54h74z" />
    <glyph glyph-name="Amacron" unicode="&#x100;" 
d="M272 695h181l40 -695h-123l-10 178h-198l-79 -178h-121zM362 270l-7 180q-3 45 -5 84.5t-3 84.5h-2q-10 -22 -18.5 -43t-17 -41t-18 -41t-19.5 -44l-76 -180h166zM228 868h326l-15 -80h-326z" />
    <glyph glyph-name="Acaron" unicode="&#x1cd;" 
d="M272 695h181l40 -695h-123l-10 178h-198l-79 -178h-121zM362 270l-7 180q-3 45 -5 84.5t-3 84.5h-2q-10 -22 -18.5 -43t-17 -41t-18 -41t-19.5 -44l-76 -180h166zM271 902l107 -59l126 59l26 -65l-166 -88l-136 88z" />
    <glyph glyph-name="Adotaccent" unicode="&#x226;" 
d="M272 695h181l40 -695h-123l-10 178h-198l-79 -178h-121zM362 270l-7 180q-3 45 -5 84.5t-3 84.5h-2q-10 -22 -18.5 -43t-17 -41t-18 -41t-19.5 -44l-76 -180h166zM447 852q0 -7 -0.5 -14t-2.5 -13q-3 -18 -8 -29t-13.5 -18t-21 -9.5t-30.5 -2.5q-31 0 -44.5 9.5
t-13.5 31.5q0 7 1 14t2 13q3 17 8.5 28.5t13.5 18.5t21 9.5t31 2.5q30 0 43.5 -9t13.5 -32z" />
    <glyph glyph-name="Aring" unicode="&#xc5;" 
d="M272 695h181l40 -695h-123l-10 178h-198l-79 -178h-121zM362 270l-7 180q-3 45 -5 84.5t-3 84.5h-2q-10 -22 -18.5 -43t-17 -41t-18 -41t-19.5 -44l-76 -180h166zM493 844q0 -25 -9 -45.5t-25 -36.5t-38 -25t-48 -9q-22 0 -42 7.5t-34.5 20.5t-23 32.5t-8.5 44.5
q0 24 9 45t25 37t37.5 24.5t46.5 8.5q46 0 78 -27.5t32 -76.5zM427 841q0 23 -12.5 35t-34.5 12q-21 0 -35 -13.5t-14 -38.5q0 -24 12.5 -35.5t32.5 -11.5q23 0 37 13t14 39z" />
    <glyph glyph-name="AEacute" unicode="&#x1fc;" 
d="M250 695h370l-19 -95h-136l-39 -196h127l-17 -94h-127l-42 -215h136l-18 -95h-256l34 180h-117l-74 -180h-119zM282 273l64 332h-24l-139 -332h99zM551 910l31 -83l-196 -72l-26 64z" />
    <glyph glyph-name="AEmacron" unicode="&#x1e2;" 
d="M250 695h370l-19 -95h-136l-39 -196h127l-17 -94h-127l-42 -215h136l-18 -95h-256l34 180h-117l-74 -180h-119zM282 273l64 332h-24l-139 -332h99zM287 868h326l-15 -80h-326z" />
    <glyph glyph-name="B" unicode="B" 
d="M148 695h191q60 0 101.5 -9t67.5 -27.5t37.5 -45t11.5 -63.5t-12 -68t-31.5 -54t-45 -39.5t-52.5 -24.5q46 -11 71.5 -43t25.5 -80q0 -54 -19 -99t-56 -76.5t-93 -48.5t-130 -17h-202zM227 92q81 0 121 35t40 103q0 20 -6 35.5t-20 26t-37 16t-56 5.5h-75l-43 -221h76z
M278 404q41 0 70.5 10t48 27.5t27.5 40.5t9 49q0 17 -6 30.5t-18.5 22.5t-33.5 14t-52 5h-73l-39 -199h67z" />
    <glyph glyph-name="C" unicode="C" 
d="M458 12q-32 -8 -79 -15.5t-93 -7.5q-60 0 -104 11.5t-73.5 37t-44 64.5t-14.5 94q0 36 4 71t13 81q20 103 53 172t78 110.5t102 58.5t125 17q48 0 89 -6t70 -14l-28 -92q-22 6 -58 12t-76 6q-43 0 -79 -12.5t-65.5 -43t-52 -82t-36.5 -129.5q-8 -39 -12 -71t-4 -68
q0 -66 34.5 -94.5t105.5 -28.5q34 0 73 5.5t71 14.5z" />
    <glyph glyph-name="Ccedilla" unicode="&#xc7;" 
d="M208 -5q-36 6 -65 20t-50 38t-32 59t-11 84q0 36 4 71t13 81q20 103 53 172t78 110.5t102 58.5t125 17q48 0 89 -6t70 -14l-28 -92q-22 6 -58 12t-76 6q-43 0 -79 -12.5t-65.5 -43t-52 -82t-36.5 -129.5q-8 -39 -12 -71t-4 -68q0 -66 34.5 -94.5t105.5 -28.5q34 0 73 5.5
t71 14.5l1 -91q-32 -8 -77 -15.5t-92 -7.5h-10l-11 -35q46 -3 66 -21t20 -50q0 -21 -9.5 -40.5t-29 -33.5t-48.5 -22t-68 -8q-19 0 -38.5 1.5t-34.5 5.5l14 57q14 -3 28.5 -4.5t31.5 -1.5q37 0 51.5 12.5t14.5 28.5q0 12 -11.5 18t-42.5 6h-33z" />
    <glyph glyph-name="Cacute" unicode="&#x106;" 
d="M458 12q-32 -8 -79 -15.5t-93 -7.5q-60 0 -104 11.5t-73.5 37t-44 64.5t-14.5 94q0 36 4 71t13 81q20 103 53 172t78 110.5t102 58.5t125 17q48 0 89 -6t70 -14l-28 -92q-22 6 -58 12t-76 6q-43 0 -79 -12.5t-65.5 -43t-52 -82t-36.5 -129.5q-8 -39 -12 -71t-4 -68
q0 -66 34.5 -94.5t105.5 -28.5q34 0 73 5.5t71 14.5zM534 910l31 -83l-196 -72l-26 64z" />
    <glyph glyph-name="Ccircumflex" unicode="&#x108;" 
d="M458 12q-32 -8 -79 -15.5t-93 -7.5q-60 0 -104 11.5t-73.5 37t-44 64.5t-14.5 94q0 36 4 71t13 81q20 103 53 172t78 110.5t102 58.5t125 17q48 0 89 -6t70 -14l-28 -92q-22 6 -58 12t-76 6q-43 0 -79 -12.5t-65.5 -43t-52 -82t-36.5 -129.5q-8 -39 -12 -71t-4 -68
q0 -66 34.5 -94.5t105.5 -28.5q34 0 73 5.5t71 14.5zM441 909l136 -88l-42 -65l-107 60l-127 -60l-26 65z" />
    <glyph glyph-name="Ccaron" unicode="&#x10c;" 
d="M458 12q-32 -8 -79 -15.5t-93 -7.5q-60 0 -104 11.5t-73.5 37t-44 64.5t-14.5 94q0 36 4 71t13 81q20 103 53 172t78 110.5t102 58.5t125 17q48 0 89 -6t70 -14l-28 -92q-22 6 -58 12t-76 6q-43 0 -79 -12.5t-65.5 -43t-52 -82t-36.5 -129.5q-8 -39 -12 -71t-4 -68
q0 -66 34.5 -94.5t105.5 -28.5q34 0 73 5.5t71 14.5zM320 902l107 -59l126 59l26 -65l-166 -88l-136 88z" />
    <glyph glyph-name="Cdotaccent" unicode="&#x10a;" 
d="M458 12q-32 -8 -79 -15.5t-93 -7.5q-60 0 -104 11.5t-73.5 37t-44 64.5t-14.5 94q0 36 4 71t13 81q20 103 53 172t78 110.5t102 58.5t125 17q48 0 89 -6t70 -14l-28 -92q-22 6 -58 12t-76 6q-43 0 -79 -12.5t-65.5 -43t-52 -82t-36.5 -129.5q-8 -39 -12 -71t-4 -68
q0 -66 34.5 -94.5t105.5 -28.5q34 0 73 5.5t71 14.5zM491 852q0 -7 -0.5 -14t-2.5 -13q-3 -18 -8 -29t-13.5 -18t-21 -9.5t-30.5 -2.5q-31 0 -44.5 9.5t-13.5 31.5q0 7 1 14t2 13q3 17 8.5 28.5t13.5 18.5t21 9.5t31 2.5q30 0 43.5 -9t13.5 -32z" />
    <glyph glyph-name="D" unicode="D" 
d="M139 695h192q56 0 98.5 -10t70 -32.5t41.5 -60.5t14 -93q0 -33 -5 -69t-13 -80q-17 -96 -46.5 -162.5t-71 -108t-97 -60.5t-127.5 -19h-191zM204 95q41 0 74.5 12t59 41.5t44.5 79t34 124.5q3 18 6.5 36.5t5.5 36.5t3.5 34t1.5 28q0 32 -7.5 54t-23 35t-37.5 18.5
t-52 5.5h-72l-98 -505h61z" />
    <glyph glyph-name="Eth" unicode="&#xd0;" 
d="M83 318h-59l17 91h59l56 286h183q53 0 93.5 -10t67.5 -32.5t41 -60.5t14 -93q0 -33 -5 -69t-13 -80q-17 -96 -46.5 -162.5t-70.5 -108t-95 -60.5t-121 -19h-183zM211 95q38 0 69.5 12t57 41.5t44.5 79t34 124.5q3 18 6.5 36.5t5.5 36.5t3.5 34t1.5 28q0 32 -7.5 54
t-22 35t-35 18.5t-46.5 5.5h-63l-37 -191h99l-17 -91h-100l-44 -223h51z" />
    <glyph glyph-name="Dcaron" unicode="&#x10e;" 
d="M139 695h192q56 0 98.5 -10t70 -32.5t41.5 -60.5t14 -93q0 -33 -5 -69t-13 -80q-17 -96 -46.5 -162.5t-71 -108t-97 -60.5t-127.5 -19h-191zM204 95q41 0 74.5 12t59 41.5t44.5 79t34 124.5q3 18 6.5 36.5t5.5 36.5t3.5 34t1.5 28q0 32 -7.5 54t-23 35t-37.5 18.5
t-52 5.5h-72l-98 -505h61zM240 902l107 -59l126 59l26 -65l-166 -88l-136 88z" />
    <glyph glyph-name="Dcroat" unicode="&#x110;" 
d="M83 318h-59l17 91h59l56 286h183q53 0 93.5 -10t67.5 -32.5t41 -60.5t14 -93q0 -33 -5 -69t-13 -80q-17 -96 -46.5 -162.5t-70.5 -108t-95 -60.5t-121 -19h-183zM211 95q38 0 69.5 12t57 41.5t44.5 79t34 124.5q3 18 6.5 36.5t5.5 36.5t3.5 34t1.5 28q0 32 -7.5 54
t-22 35t-35 18.5t-46.5 5.5h-63l-37 -191h99l-17 -91h-100l-44 -223h51z" />
    <glyph glyph-name="E" unicode="E" 
d="M165 695h410l-18 -95h-289l-38 -196h267l-17 -94h-268l-43 -215h289l-18 -95h-410z" />
    <glyph glyph-name="Eogonek" unicode="&#x118;" 
d="M165 695h410l-18 -95h-289l-38 -196h267l-17 -94h-268l-43 -215h289l-18 -95q-27 -16 -48.5 -30.5t-37.5 -29t-24.5 -28.5t-8.5 -27q-3 -30 33 -30q16 0 33 4t34 9l1 -72q-26 -9 -52 -13.5t-54 -4.5q-53 0 -78.5 21.5t-19.5 63.5q2 22 12.5 41t26.5 36.5t37 32t43 27.5
h-307z" />
    <glyph glyph-name="Egrave" unicode="&#xc8;" 
d="M165 695h410l-18 -95h-289l-38 -196h267l-17 -94h-268l-43 -215h289l-18 -95h-410zM276 915l178 -98l-35 -64l-188 80z" />
    <glyph glyph-name="Eacute" unicode="&#xc9;" 
d="M165 695h410l-18 -95h-289l-38 -196h267l-17 -94h-268l-43 -215h289l-18 -95h-410zM499 910l31 -83l-196 -72l-26 64z" />
    <glyph glyph-name="Ecircumflex" unicode="&#xca;" 
d="M165 695h410l-18 -95h-289l-38 -196h267l-17 -94h-268l-43 -215h289l-18 -95h-410zM404 909l136 -88l-42 -65l-107 60l-127 -60l-26 65z" />
    <glyph glyph-name="Edieresis" unicode="&#xcb;" 
d="M165 695h410l-18 -95h-289l-38 -196h267l-17 -94h-268l-43 -215h289l-18 -95h-410zM341 853q0 -12 -4 -28q-3 -17 -8.5 -28.5t-14 -18.5t-20.5 -9.5t-30 -2.5q-58 0 -58 40q0 12 4 28q4 17 9 28.5t13 18.5t20 9.5t30 2.5q59 0 59 -40zM574 853q0 -12 -4 -28
q-3 -17 -8.5 -28.5t-13.5 -18.5t-20.5 -9.5t-30.5 -2.5q-58 0 -58 40q0 12 4 28q4 17 9 28.5t13 18.5t20.5 9.5t30.5 2.5q58 0 58 -40z" />
    <glyph glyph-name="Ebreve" unicode="&#x114;" 
d="M165 695h410l-18 -95h-289l-38 -196h267l-17 -94h-268l-43 -215h289l-18 -95h-410zM326 892q-2 -26 12.5 -43.5t47.5 -17.5t53 17.5t25 43.5h80q-5 -29 -18.5 -54t-35 -43.5t-50.5 -29t-65 -10.5t-61.5 10.5t-40.5 29t-20.5 43.5t-0.5 54h74z" />
    <glyph glyph-name="Emacron" unicode="&#x112;" 
d="M165 695h410l-18 -95h-289l-38 -196h267l-17 -94h-268l-43 -215h289l-18 -95h-410zM232 868h326l-15 -80h-326z" />
    <glyph glyph-name="Ecaron" unicode="&#x11a;" 
d="M165 695h410l-18 -95h-289l-38 -196h267l-17 -94h-268l-43 -215h289l-18 -95h-410zM283 902l107 -59l126 59l26 -65l-166 -88l-136 88z" />
    <glyph glyph-name="Edotaccent" unicode="&#x116;" 
d="M165 695h410l-18 -95h-289l-38 -196h267l-17 -94h-268l-43 -215h289l-18 -95h-410zM460 852q0 -7 -0.5 -14t-2.5 -13q-3 -18 -8 -29t-13.5 -18t-21 -9.5t-30.5 -2.5q-31 0 -44.5 9.5t-13.5 31.5q0 7 1 14t2 13q3 17 8.5 28.5t13.5 18.5t21 9.5t31 2.5q30 0 43.5 -9
t13.5 -32z" />
    <glyph glyph-name="F" unicode="F" 
d="M171 695h410l-19 -95h-290l-38 -196h265l-18 -94h-264l-60 -310h-121z" />
    <glyph glyph-name="G" unicode="G" 
d="M457 25q-21 -9 -46 -15.5t-51.5 -11t-54.5 -7.5t-55 -3q-53 0 -93.5 10t-67.5 34.5t-41 63.5t-14 97q0 34 4.5 72t13.5 83q20 100 51.5 168t74.5 110.5t97.5 61t120.5 18.5q48 0 92.5 -6t79.5 -17l-27 -93q-33 10 -70 16t-75 6q-43 0 -77 -12.5t-61 -43t-48 -82
t-38 -130.5q-8 -42 -13 -79t-5 -68q0 -33 7 -55.5t21 -35.5t34.5 -18.5t47.5 -5.5q25 0 49.5 4.5t41.5 11.5l41 210h-114l18 94h230z" />
    <glyph glyph-name="Gacute" unicode="&#x1f4;" 
d="M457 25q-21 -9 -46 -15.5t-51.5 -11t-54.5 -7.5t-55 -3q-53 0 -93.5 10t-67.5 34.5t-41 63.5t-14 97q0 34 4.5 72t13.5 83q20 100 51.5 168t74.5 110.5t97.5 61t120.5 18.5q48 0 92.5 -6t79.5 -17l-27 -93q-33 10 -70 16t-75 6q-43 0 -77 -12.5t-61 -43t-48 -82
t-38 -130.5q-8 -42 -13 -79t-5 -68q0 -33 7 -55.5t21 -35.5t34.5 -18.5t47.5 -5.5q25 0 49.5 4.5t41.5 11.5l41 210h-114l18 94h230zM518 910l31 -83l-196 -72l-26 64z" />
    <glyph glyph-name="Gcircumflex" unicode="&#x11c;" 
d="M457 25q-21 -9 -46 -15.5t-51.5 -11t-54.5 -7.5t-55 -3q-53 0 -93.5 10t-67.5 34.5t-41 63.5t-14 97q0 34 4.5 72t13.5 83q20 100 51.5 168t74.5 110.5t97.5 61t120.5 18.5q48 0 92.5 -6t79.5 -17l-27 -93q-33 10 -70 16t-75 6q-43 0 -77 -12.5t-61 -43t-48 -82
t-38 -130.5q-8 -42 -13 -79t-5 -68q0 -33 7 -55.5t21 -35.5t34.5 -18.5t47.5 -5.5q25 0 49.5 4.5t41.5 11.5l41 210h-114l18 94h230zM417 909l136 -88l-42 -65l-107 60l-127 -60l-26 65z" />
    <glyph glyph-name="Gbreve" unicode="&#x11e;" 
d="M457 25q-21 -9 -46 -15.5t-51.5 -11t-54.5 -7.5t-55 -3q-53 0 -93.5 10t-67.5 34.5t-41 63.5t-14 97q0 34 4.5 72t13.5 83q20 100 51.5 168t74.5 110.5t97.5 61t120.5 18.5q48 0 92.5 -6t79.5 -17l-27 -93q-33 10 -70 16t-75 6q-43 0 -77 -12.5t-61 -43t-48 -82
t-38 -130.5q-8 -42 -13 -79t-5 -68q0 -33 7 -55.5t21 -35.5t34.5 -18.5t47.5 -5.5q25 0 49.5 4.5t41.5 11.5l41 210h-114l18 94h230zM343 892q-2 -26 12.5 -43.5t47.5 -17.5t53 17.5t25 43.5h80q-5 -29 -18.5 -54t-35 -43.5t-50.5 -29t-65 -10.5t-61.5 10.5t-40.5 29
t-20.5 43.5t-0.5 54h74z" />
    <glyph glyph-name="Gcaron" unicode="&#x1e6;" 
d="M457 25q-21 -9 -46 -15.5t-51.5 -11t-54.5 -7.5t-55 -3q-53 0 -93.5 10t-67.5 34.5t-41 63.5t-14 97q0 34 4.5 72t13.5 83q20 100 51.5 168t74.5 110.5t97.5 61t120.5 18.5q48 0 92.5 -6t79.5 -17l-27 -93q-33 10 -70 16t-75 6q-43 0 -77 -12.5t-61 -43t-48 -82
t-38 -130.5q-8 -42 -13 -79t-5 -68q0 -33 7 -55.5t21 -35.5t34.5 -18.5t47.5 -5.5q25 0 49.5 4.5t41.5 11.5l41 210h-114l18 94h230zM300 902l107 -59l126 59l26 -65l-166 -88l-136 88z" />
    <glyph glyph-name="Gdotaccent" unicode="&#x120;" 
d="M457 25q-21 -9 -46 -15.5t-51.5 -11t-54.5 -7.5t-55 -3q-53 0 -93.5 10t-67.5 34.5t-41 63.5t-14 97q0 34 4.5 72t13.5 83q20 100 51.5 168t74.5 110.5t97.5 61t120.5 18.5q48 0 92.5 -6t79.5 -17l-27 -93q-33 10 -70 16t-75 6q-43 0 -77 -12.5t-61 -43t-48 -82
t-38 -130.5q-8 -42 -13 -79t-5 -68q0 -33 7 -55.5t21 -35.5t34.5 -18.5t47.5 -5.5q25 0 49.5 4.5t41.5 11.5l41 210h-114l18 94h230zM469 852q0 -7 -0.5 -14t-2.5 -13q-3 -18 -8 -29t-13.5 -18t-21 -9.5t-30.5 -2.5q-31 0 -44.5 9.5t-13.5 31.5q0 7 1 14t2 13q3 17 8.5 28.5
t13.5 18.5t21 9.5t31 2.5q30 0 43.5 -9t13.5 -32z" />
    <glyph glyph-name="Gcommaaccent" unicode="&#x122;" 
d="M457 25q-21 -9 -46 -15.5t-51.5 -11t-54.5 -7.5t-55 -3q-53 0 -93.5 10t-67.5 34.5t-41 63.5t-14 97q0 34 4.5 72t13.5 83q20 100 51.5 168t74.5 110.5t97.5 61t120.5 18.5q48 0 92.5 -6t79.5 -17l-27 -93q-33 10 -70 16t-75 6q-43 0 -77 -12.5t-61 -43t-48 -82
t-38 -130.5q-8 -42 -13 -79t-5 -68q0 -33 7 -55.5t21 -35.5t34.5 -18.5t47.5 -5.5q25 0 49.5 4.5t41.5 11.5l41 210h-114l18 94h230zM56 -167q12 4 29.5 9t35 10.5t33 10.5t25.5 9q3 33 17.5 47.5t46.5 14.5q25 0 36 -9.5t11 -28.5v-10t-2 -13q-3 -18 -10.5 -29t-22.5 -18.5
t-39.5 -13.5t-61.5 -12q-9 -2 -21 -4t-24 -3.5t-24.5 -4t-22.5 -3.5z" />
    <glyph glyph-name="H" unicode="H" 
d="M139 695h121l-56 -288h204l56 288h122l-135 -695h-122l61 308h-205l-60 -308h-121z" />
    <glyph glyph-name="Hbar" unicode="&#x126;" 
d="M117 494h-59l17 88h59l22 113h120l-21 -113h171l23 113h120l-23 -113h59l-17 -88h-59l-95 -494h-120l54 285h-172l-55 -285h-120zM386 377l23 117h-172l-23 -117h172z" />
    <glyph glyph-name="Hcircumflex" unicode="&#x124;" 
d="M139 695h121l-56 -288h204l56 288h122l-135 -695h-122l61 308h-205l-60 -308h-121zM396 909l136 -88l-42 -65l-107 60l-127 -60l-26 65z" />
    <glyph glyph-name="Hcaron" unicode="&#x21e;" 
d="M139 695h121l-56 -288h204l56 288h122l-135 -695h-122l61 308h-205l-60 -308h-121zM274 902l107 -59l126 59l26 -65l-166 -88l-136 88z" />
    <glyph glyph-name="I" unicode="I" 
d="M33 98h153l97 499h-152l19 98h425l-19 -98h-152l-97 -499h151l-18 -98h-426z" />
    <glyph glyph-name="Iogonek" unicode="&#x12e;" 
d="M33 98h153l97 499h-152l19 98h425l-19 -98h-152l-97 -499h151l-18 -98h-151q-26 -16 -48 -30.5t-38 -29t-25 -29t-9 -28.5q0 -27 36 -27q18 0 34.5 3.5t30.5 8.5l2 -72q-24 -8 -50.5 -13t-53.5 -5q-49 0 -76 20.5t-27 58.5q0 22 10 42t26.5 38t38.5 34t45 29h-171z" />
    <glyph glyph-name="Igrave" unicode="&#xcc;" 
d="M33 98h153l97 499h-152l19 98h425l-19 -98h-152l-97 -499h151l-18 -98h-426zM271 915l178 -98l-35 -64l-188 80z" />
    <glyph glyph-name="Iacute" unicode="&#xcd;" 
d="M33 98h153l97 499h-152l19 98h425l-19 -98h-152l-97 -499h151l-18 -98h-426zM487 910l31 -83l-196 -72l-26 64z" />
    <glyph glyph-name="Icircumflex" unicode="&#xce;" 
d="M33 98h153l97 499h-152l19 98h425l-19 -98h-152l-97 -499h151l-18 -98h-426zM395 909l136 -88l-42 -65l-107 60l-127 -60l-26 65z" />
    <glyph glyph-name="Idieresis" unicode="&#xcf;" 
d="M33 98h153l97 499h-152l19 98h425l-19 -98h-152l-97 -499h151l-18 -98h-426zM337 853q0 -12 -4 -28q-3 -17 -8.5 -28.5t-14 -18.5t-20.5 -9.5t-30 -2.5q-58 0 -58 40q0 12 4 28q4 17 9 28.5t13 18.5t20 9.5t30 2.5q59 0 59 -40zM570 853q0 -12 -4 -28q-3 -17 -8.5 -28.5
t-13.5 -18.5t-20.5 -9.5t-30.5 -2.5q-58 0 -58 40q0 12 4 28q4 17 9 28.5t13 18.5t20.5 9.5t30.5 2.5q58 0 58 -40z" />
    <glyph glyph-name="Itilde" unicode="&#x128;" 
d="M33 98h153l97 499h-152l19 98h425l-19 -98h-152l-97 -499h151l-18 -98h-426zM209 819q23 29 53.5 48t70.5 19q20 0 35.5 -5t28 -12t24.5 -12.5t26 -5.5q17 0 34.5 8.5t33.5 25.5l42 -49q-24 -29 -54 -48t-71 -19q-20 0 -35.5 5.5t-28 12t-24 12t-25.5 5.5
q-18 0 -35.5 -8.5t-32.5 -25.5z" />
    <glyph glyph-name="Ibreve" unicode="&#x12c;" 
d="M33 98h153l97 499h-152l19 98h425l-19 -98h-152l-97 -499h151l-18 -98h-426zM322 892q-2 -26 12.5 -43.5t47.5 -17.5t53 17.5t25 43.5h80q-5 -29 -18.5 -54t-35 -43.5t-50.5 -29t-65 -10.5t-61.5 10.5t-40.5 29t-20.5 43.5t-0.5 54h74z" />
    <glyph glyph-name="Imacron" unicode="&#x12a;" 
d="M33 98h153l97 499h-152l19 98h425l-19 -98h-152l-97 -499h151l-18 -98h-426zM229 868h326l-15 -80h-326z" />
    <glyph glyph-name="Icaron" unicode="&#x1cf;" 
d="M33 98h153l97 499h-152l19 98h425l-19 -98h-152l-97 -499h151l-18 -98h-426zM273 902l107 -59l126 59l26 -65l-166 -88l-136 88z" />
    <glyph glyph-name="Idotaccent" unicode="&#x130;" 
d="M33 98h153l97 499h-152l19 98h425l-19 -98h-152l-97 -499h151l-18 -98h-426zM452 852q0 -7 -0.5 -14t-2.5 -13q-3 -18 -8 -29t-13.5 -18t-21 -9.5t-30.5 -2.5q-31 0 -44.5 9.5t-13.5 31.5q0 7 1 14t2 13q3 17 8.5 28.5t13.5 18.5t21 9.5t31 2.5q30 0 43.5 -9t13.5 -32z
" />
    <glyph glyph-name="IJ" unicode="&#x132;" 
d="M155 695h122l-135 -695h-122zM574 695l-101 -517q-10 -52 -25.5 -88t-37.5 -57.5t-52 -31t-69 -9.5q-22 0 -44 2.5t-41 7.5l21 92q14 -2 24.5 -3t22.5 -1q33 0 51.5 18.5t27.5 65.5l101 521h122z" />
    <glyph glyph-name="J" unicode="J" 
d="M166 597l19 98h368l-95 -493q-12 -59 -34 -99t-55.5 -65t-80 -35.5t-108.5 -10.5q-42 0 -82 4.5t-78 13.5l22 96q29 -8 62 -12t68 -4q38 0 65.5 6t47.5 20.5t32.5 37.5t19.5 56l75 387h-246z" />
    <glyph glyph-name="Jcircumflex" unicode="&#x134;" 
d="M166 597l19 98h368l-95 -493q-12 -59 -34 -99t-55.5 -65t-80 -35.5t-108.5 -10.5q-42 0 -82 4.5t-78 13.5l22 96q29 -8 62 -12t68 -4q38 0 65.5 6t47.5 20.5t32.5 37.5t19.5 56l75 387h-246zM433 909l136 -88l-42 -65l-107 60l-127 -60l-26 65z" />
    <glyph glyph-name="K" unicode="K" 
d="M153 695h121l-64 -328l273 328h137l-288 -342l161 -353h-133l-154 343l-67 -343h-121z" />
    <glyph glyph-name="Kcaron" unicode="&#x1e8;" 
d="M153 695h121l-64 -328l273 328h137l-288 -342l161 -353h-133l-154 343l-67 -343h-121zM280 902l107 -59l126 59l26 -65l-166 -88l-136 88z" />
    <glyph glyph-name="Kcommaaccent" unicode="&#x136;" 
d="M153 695h121l-64 -328l273 328h137l-288 -342l161 -353h-133l-154 343l-67 -343h-121zM47 -167q12 4 29.5 9t35 10.5t33 10.5t25.5 9q3 33 17.5 47.5t46.5 14.5q25 0 36 -9.5t11 -28.5v-10t-2 -13q-3 -18 -10.5 -29t-22.5 -18.5t-39.5 -13.5t-61.5 -12q-9 -2 -21 -4
t-24 -3.5t-24.5 -4t-22.5 -3.5z" />
    <glyph glyph-name="L" unicode="L" 
d="M173 695h121l-116 -597h288l-19 -98h-409z" />
    <glyph glyph-name="Lslash" unicode="&#x141;" 
d="M131 318l-64 -29l-24 86l108 48l53 272h121l-42 -214l108 50l25 -86l-154 -69l-54 -278h258l-19 -98h-378z" />
    <glyph glyph-name="Lacute" unicode="&#x139;" 
d="M173 695h121l-116 -597h288l-19 -98h-409zM471 910l31 -83l-196 -72l-26 64z" />
    <glyph glyph-name="Lcaron" unicode="&#x13d;" 
d="M173 695h121l-116 -597h288l-19 -98h-409zM418 791l91 -25l-93 -212l-70 20z" />
    <glyph glyph-name="Ldot" unicode="&#x13f;" 
d="M173 695h121l-116 -597h288l-19 -98h-409zM509 406q0 -7 -1 -15t-3 -16q-4 -22 -10 -36.5t-16.5 -23.5t-25.5 -12t-39 -3q-38 0 -54.5 12t-16.5 40q0 7 0.5 15t2.5 16q4 22 10 36.5t16.5 23.5t25.5 12t39 3q38 0 55 -12t17 -40z" />
    <glyph glyph-name="Lcommaaccent" unicode="&#x13b;" 
d="M173 695h121l-116 -597h288l-19 -98h-409zM56 -167q12 4 29.5 9t35 10.5t33 10.5t25.5 9q3 33 17.5 47.5t46.5 14.5q25 0 36 -9.5t11 -28.5v-10t-2 -13q-3 -18 -10.5 -29t-22.5 -18.5t-39.5 -13.5t-61.5 -12q-9 -2 -21 -4t-24 -3.5t-24.5 -4t-22.5 -3.5z" />
    <glyph glyph-name="M" unicode="M" 
d="M126 695h161l-1 -325q0 -23 -1 -42.5t-5 -53.5h4q9 34 15.5 53.5t15.5 42.5l126 325h159l-114 -695h-99l66 400q9 53 19 100t22 97h-4q-11 -29 -19.5 -53t-18.5 -52l-129 -332h-124l-1 332q1 29 1 52.5t2 52.5h-4q-8 -51 -16 -97.5t-20 -99.5l-88 -400h-103z" />
    <glyph glyph-name="N" unicode="N" 
d="M134 695h156l70 -402q4 -23 7 -41.5t6 -37.5t5.5 -39t5.5 -43l6 1q4 49 9.5 93t13.5 89l74 380h105l-135 -695h-157l-70 402q-4 22 -7 41t-6 37.5t-5.5 38.5t-6.5 44l-5 -1q-5 -49 -9.5 -93t-13.5 -89l-73 -380h-105z" />
    <glyph glyph-name="Eng" unicode="&#x14a;" 
d="M134 695h156l70 -402q4 -23 7 -41.5t6 -37.5t5.5 -39t5.5 -43l6 1q4 49 9 93t14 89l74 380h105l-143 -735q-11 -51 -28 -85.5t-42.5 -56.5t-58.5 -32t-74 -10q-24 0 -45.5 2.5t-44.5 7.5l20 93q16 -3 29.5 -4.5t28.5 -1.5q38 0 60 19t33 69l8 39h-35l-70 402
q-4 22 -7 40.5t-6 37.5t-5.5 39t-6.5 44l-5 -1q-5 -49 -9.5 -93t-13.5 -89l-73 -380h-105z" />
    <glyph glyph-name="Ngrave" unicode="&#x1f8;" 
d="M134 695h156l70 -402q4 -23 7 -41.5t6 -37.5t5.5 -39t5.5 -43l6 1q4 49 9.5 93t13.5 89l74 380h105l-135 -695h-157l-70 402q-4 22 -7 41t-6 37.5t-5.5 38.5t-6.5 44l-5 -1q-5 -49 -9.5 -93t-13.5 -89l-73 -380h-105zM271 915l178 -98l-35 -64l-188 80z" />
    <glyph glyph-name="Nacute" unicode="&#x143;" 
d="M134 695h156l70 -402q4 -23 7 -41.5t6 -37.5t5.5 -39t5.5 -43l6 1q4 49 9.5 93t13.5 89l74 380h105l-135 -695h-157l-70 402q-4 22 -7 41t-6 37.5t-5.5 38.5t-6.5 44l-5 -1q-5 -49 -9.5 -93t-13.5 -89l-73 -380h-105zM511 910l31 -83l-196 -72l-26 64z" />
    <glyph glyph-name="Ntilde" unicode="&#xd1;" 
d="M134 695h156l70 -402q4 -23 7 -41.5t6 -37.5t5.5 -39t5.5 -43l6 1q4 49 9.5 93t13.5 89l74 380h105l-135 -695h-157l-70 402q-4 22 -7 41t-6 37.5t-5.5 38.5t-6.5 44l-5 -1q-5 -49 -9.5 -93t-13.5 -89l-73 -380h-105zM213 819q23 29 53.5 48t70.5 19q20 0 35.5 -5t28 -12
t24.5 -12.5t26 -5.5q17 0 34.5 8.5t33.5 25.5l42 -49q-24 -29 -54 -48t-71 -19q-20 0 -35.5 5.5t-28 12t-24 12t-25.5 5.5q-18 0 -35.5 -8.5t-32.5 -25.5z" />
    <glyph glyph-name="Ncaron" unicode="&#x147;" 
d="M134 695h156l70 -402q4 -23 7 -41.5t6 -37.5t5.5 -39t5.5 -43l6 1q4 49 9.5 93t13.5 89l74 380h105l-135 -695h-157l-70 402q-4 22 -7 41t-6 37.5t-5.5 38.5t-6.5 44l-5 -1q-5 -49 -9.5 -93t-13.5 -89l-73 -380h-105zM283 902l107 -59l126 59l26 -65l-166 -88l-136 88z
" />
    <glyph glyph-name="Ncommaaccent" unicode="&#x145;" 
d="M134 695h156l70 -402q4 -23 7 -41.5t6 -37.5t5.5 -39t5.5 -43l6 1q4 49 9.5 93t13.5 89l74 380h105l-135 -695h-157l-70 402q-4 22 -7 41t-6 37.5t-5.5 38.5t-6.5 44l-5 -1q-5 -49 -9.5 -93t-13.5 -89l-73 -380h-105zM50 -167q12 4 29.5 9t35 10.5t33 10.5t25.5 9
q3 33 17.5 47.5t46.5 14.5q25 0 36 -9.5t11 -28.5v-10t-2 -13q-3 -18 -10.5 -29t-22.5 -18.5t-39.5 -13.5t-61.5 -12q-9 -2 -21 -4t-24 -3.5t-24.5 -4t-22.5 -3.5z" />
    <glyph glyph-name="O" unicode="O" 
d="M555 508q0 -33 -5.5 -75.5t-13.5 -84.5q-19 -99 -44 -167t-61 -112t-85 -63.5t-117 -19.5q-102 0 -148.5 48.5t-46.5 152.5q0 33 5 75.5t13 84.5q19 99 44.5 167t61 112t85 63.5t116.5 19.5q102 0 149 -48.5t47 -152.5zM435 501q0 58 -20 85.5t-69 27.5q-35 0 -60.5 -14
t-45.5 -46.5t-36 -83.5t-31 -125q-3 -18 -6.5 -38t-6.5 -40t-4.5 -39.5t-1.5 -33.5q0 -59 19.5 -86t68.5 -27q35 0 60.5 14t45.5 46.5t36 83.5t31 125q4 18 7.5 38t6.5 40t4.5 39.5t1.5 33.5z" />
    <glyph glyph-name="OE" unicode="&#x152;" 
d="M340 604q-9 3 -20 5t-26 2q-21 0 -39.5 -9t-35 -37t-32.5 -80.5t-34 -139.5q-12 -64 -18.5 -108t-6.5 -72q0 -46 14 -63.5t47 -17.5q16 0 28.5 2t23.5 5zM241 0q-18 -5 -38.5 -8.5t-43.5 -3.5q-36 0 -63 8.5t-46 28.5t-28.5 52.5t-9.5 80.5q0 40 5.5 88t16.5 104
q21 111 47.5 181t59 109t72.5 53t88 14q23 0 45.5 -3.5t39.5 -8.5h234l-19 -95h-142l-38 -196h132l-18 -94h-131l-42 -215h141l-18 -95h-244z" />
    <glyph glyph-name="Oslash" unicode="&#xd8;" 
d="M69 51q-17 24 -26 56.5t-9 79.5q0 33 5 75t13 85q19 99 44.5 167t61 112t85 63.5t116.5 19.5q30 0 54 -4t40 -12l61 102l73 -38l-67 -112q17 -24 26 -57t9 -80q0 -33 -5 -74t-14 -86q-19 -99 -44 -167t-61 -112t-85 -63.5t-117 -19.5q-29 0 -53 4t-41 12l-58 -98l-73 38z
M407 611q-12 6 -26.5 9t-33.5 3q-39 0 -67.5 -15t-50.5 -48t-39 -86t-32 -129q-7 -34 -12 -73.5t-6 -67.5q0 -10 -0.5 -19.5t-0.5 -20.5zM182 84q12 -6 26.5 -9t33.5 -3q38 0 66.5 15t50.5 48t39 86t32 129q6 34 12 73.5t7 67.5q0 10 0.5 19.5t0.5 20.5z" />
    <glyph glyph-name="Ograve" unicode="&#xd2;" 
d="M555 508q0 -33 -5.5 -75.5t-13.5 -84.5q-19 -99 -44 -167t-61 -112t-85 -63.5t-117 -19.5q-102 0 -148.5 48.5t-46.5 152.5q0 33 5 75.5t13 84.5q19 99 44.5 167t61 112t85 63.5t116.5 19.5q102 0 149 -48.5t47 -152.5zM435 501q0 58 -20 85.5t-69 27.5q-35 0 -60.5 -14
t-45.5 -46.5t-36 -83.5t-31 -125q-3 -18 -6.5 -38t-6.5 -40t-4.5 -39.5t-1.5 -33.5q0 -59 19.5 -86t68.5 -27q35 0 60.5 14t45.5 46.5t36 83.5t31 125q4 18 7.5 38t6.5 40t4.5 39.5t1.5 33.5zM266 915l178 -98l-35 -64l-188 80z" />
    <glyph glyph-name="Oacute" unicode="&#xd3;" 
d="M555 508q0 -33 -5.5 -75.5t-13.5 -84.5q-19 -99 -44 -167t-61 -112t-85 -63.5t-117 -19.5q-102 0 -148.5 48.5t-46.5 152.5q0 33 5 75.5t13 84.5q19 99 44.5 167t61 112t85 63.5t116.5 19.5q102 0 149 -48.5t47 -152.5zM435 501q0 58 -20 85.5t-69 27.5q-35 0 -60.5 -14
t-45.5 -46.5t-36 -83.5t-31 -125q-3 -18 -6.5 -38t-6.5 -40t-4.5 -39.5t-1.5 -33.5q0 -59 19.5 -86t68.5 -27q35 0 60.5 14t45.5 46.5t36 83.5t31 125q4 18 7.5 38t6.5 40t4.5 39.5t1.5 33.5zM504 910l31 -83l-196 -72l-26 64z" />
    <glyph glyph-name="Ocircumflex" unicode="&#xd4;" 
d="M555 508q0 -33 -5.5 -75.5t-13.5 -84.5q-19 -99 -44 -167t-61 -112t-85 -63.5t-117 -19.5q-102 0 -148.5 48.5t-46.5 152.5q0 33 5 75.5t13 84.5q19 99 44.5 167t61 112t85 63.5t116.5 19.5q102 0 149 -48.5t47 -152.5zM435 501q0 58 -20 85.5t-69 27.5q-35 0 -60.5 -14
t-45.5 -46.5t-36 -83.5t-31 -125q-3 -18 -6.5 -38t-6.5 -40t-4.5 -39.5t-1.5 -33.5q0 -59 19.5 -86t68.5 -27q35 0 60.5 14t45.5 46.5t36 83.5t31 125q4 18 7.5 38t6.5 40t4.5 39.5t1.5 33.5zM400 909l136 -88l-42 -65l-107 60l-127 -60l-26 65z" />
    <glyph glyph-name="Odieresis" unicode="&#xd6;" 
d="M555 508q0 -33 -5.5 -75.5t-13.5 -84.5q-19 -99 -44 -167t-61 -112t-85 -63.5t-117 -19.5q-102 0 -148.5 48.5t-46.5 152.5q0 33 5 75.5t13 84.5q19 99 44.5 167t61 112t85 63.5t116.5 19.5q102 0 149 -48.5t47 -152.5zM435 501q0 58 -20 85.5t-69 27.5q-35 0 -60.5 -14
t-45.5 -46.5t-36 -83.5t-31 -125q-3 -18 -6.5 -38t-6.5 -40t-4.5 -39.5t-1.5 -33.5q0 -59 19.5 -86t68.5 -27q35 0 60.5 14t45.5 46.5t36 83.5t31 125q4 18 7.5 38t6.5 40t4.5 39.5t1.5 33.5zM335 853q0 -12 -4 -28q-3 -17 -8.5 -28.5t-14 -18.5t-20.5 -9.5t-30 -2.5
q-58 0 -58 40q0 12 4 28q4 17 9 28.5t13 18.5t20 9.5t30 2.5q59 0 59 -40zM568 853q0 -12 -4 -28q-3 -17 -8.5 -28.5t-13.5 -18.5t-20.5 -9.5t-30.5 -2.5q-58 0 -58 40q0 12 4 28q4 17 9 28.5t13 18.5t20.5 9.5t30.5 2.5q58 0 58 -40z" />
    <glyph glyph-name="Otilde" unicode="&#xd5;" 
d="M555 508q0 -33 -5.5 -75.5t-13.5 -84.5q-19 -99 -44 -167t-61 -112t-85 -63.5t-117 -19.5q-102 0 -148.5 48.5t-46.5 152.5q0 33 5 75.5t13 84.5q19 99 44.5 167t61 112t85 63.5t116.5 19.5q102 0 149 -48.5t47 -152.5zM435 501q0 58 -20 85.5t-69 27.5q-35 0 -60.5 -14
t-45.5 -46.5t-36 -83.5t-31 -125q-3 -18 -6.5 -38t-6.5 -40t-4.5 -39.5t-1.5 -33.5q0 -59 19.5 -86t68.5 -27q35 0 60.5 14t45.5 46.5t36 83.5t31 125q4 18 7.5 38t6.5 40t4.5 39.5t1.5 33.5zM207 819q23 29 53.5 48t70.5 19q20 0 35.5 -5t28 -12t24.5 -12.5t26 -5.5
q17 0 34.5 8.5t33.5 25.5l42 -49q-24 -29 -54 -48t-71 -19q-20 0 -35.5 5.5t-28 12t-24 12t-25.5 5.5q-18 0 -35.5 -8.5t-32.5 -25.5z" />
    <glyph glyph-name="Obreve" unicode="&#x14e;" 
d="M555 508q0 -33 -5.5 -75.5t-13.5 -84.5q-19 -99 -44 -167t-61 -112t-85 -63.5t-117 -19.5q-102 0 -148.5 48.5t-46.5 152.5q0 33 5 75.5t13 84.5q19 99 44.5 167t61 112t85 63.5t116.5 19.5q102 0 149 -48.5t47 -152.5zM435 501q0 58 -20 85.5t-69 27.5q-35 0 -60.5 -14
t-45.5 -46.5t-36 -83.5t-31 -125q-3 -18 -6.5 -38t-6.5 -40t-4.5 -39.5t-1.5 -33.5q0 -59 19.5 -86t68.5 -27q35 0 60.5 14t45.5 46.5t36 83.5t31 125q4 18 7.5 38t6.5 40t4.5 39.5t1.5 33.5zM320 892q-2 -26 12.5 -43.5t47.5 -17.5t53 17.5t25 43.5h80q-5 -29 -18.5 -54
t-35 -43.5t-50.5 -29t-65 -10.5t-61.5 10.5t-40.5 29t-20.5 43.5t-0.5 54h74z" />
    <glyph glyph-name="Omacron" unicode="&#x14c;" 
d="M555 508q0 -33 -5.5 -75.5t-13.5 -84.5q-19 -99 -44 -167t-61 -112t-85 -63.5t-117 -19.5q-102 0 -148.5 48.5t-46.5 152.5q0 33 5 75.5t13 84.5q19 99 44.5 167t61 112t85 63.5t116.5 19.5q102 0 149 -48.5t47 -152.5zM435 501q0 58 -20 85.5t-69 27.5q-35 0 -60.5 -14
t-45.5 -46.5t-36 -83.5t-31 -125q-3 -18 -6.5 -38t-6.5 -40t-4.5 -39.5t-1.5 -33.5q0 -59 19.5 -86t68.5 -27q35 0 60.5 14t45.5 46.5t36 83.5t31 125q4 18 7.5 38t6.5 40t4.5 39.5t1.5 33.5zM229 868h326l-15 -80h-326z" />
    <glyph glyph-name="Ocaron" unicode="&#x1d1;" 
d="M555 508q0 -33 -5.5 -75.5t-13.5 -84.5q-19 -99 -44 -167t-61 -112t-85 -63.5t-117 -19.5q-102 0 -148.5 48.5t-46.5 152.5q0 33 5 75.5t13 84.5q19 99 44.5 167t61 112t85 63.5t116.5 19.5q102 0 149 -48.5t47 -152.5zM435 501q0 58 -20 85.5t-69 27.5q-35 0 -60.5 -14
t-45.5 -46.5t-36 -83.5t-31 -125q-3 -18 -6.5 -38t-6.5 -40t-4.5 -39.5t-1.5 -33.5q0 -59 19.5 -86t68.5 -27q35 0 60.5 14t45.5 46.5t36 83.5t31 125q4 18 7.5 38t6.5 40t4.5 39.5t1.5 33.5zM275 902l107 -59l126 59l26 -65l-166 -88l-136 88z" />
    <glyph glyph-name="Odotaccent" unicode="&#x22e;" 
d="M555 508q0 -33 -5.5 -75.5t-13.5 -84.5q-19 -99 -44 -167t-61 -112t-85 -63.5t-117 -19.5q-102 0 -148.5 48.5t-46.5 152.5q0 33 5 75.5t13 84.5q19 99 44.5 167t61 112t85 63.5t116.5 19.5q102 0 149 -48.5t47 -152.5zM435 501q0 58 -20 85.5t-69 27.5q-35 0 -60.5 -14
t-45.5 -46.5t-36 -83.5t-31 -125q-3 -18 -6.5 -38t-6.5 -40t-4.5 -39.5t-1.5 -33.5q0 -59 19.5 -86t68.5 -27q35 0 60.5 14t45.5 46.5t36 83.5t31 125q4 18 7.5 38t6.5 40t4.5 39.5t1.5 33.5zM450 852q0 -7 -0.5 -14t-2.5 -13q-3 -18 -8 -29t-13.5 -18t-21 -9.5t-30.5 -2.5
q-31 0 -44.5 9.5t-13.5 31.5q0 7 1 14t2 13q3 17 8.5 28.5t13.5 18.5t21 9.5t31 2.5q30 0 43.5 -9t13.5 -32z" />
    <glyph glyph-name="Ohungarumlaut" unicode="&#x150;" 
d="M555 508q0 -33 -5.5 -75.5t-13.5 -84.5q-19 -99 -44 -167t-61 -112t-85 -63.5t-117 -19.5q-102 0 -148.5 48.5t-46.5 152.5q0 33 5 75.5t13 84.5q19 99 44.5 167t61 112t85 63.5t116.5 19.5q102 0 149 -48.5t47 -152.5zM435 501q0 58 -20 85.5t-69 27.5q-35 0 -60.5 -14
t-45.5 -46.5t-36 -83.5t-31 -125q-3 -18 -6.5 -38t-6.5 -40t-4.5 -39.5t-1.5 -33.5q0 -59 19.5 -86t68.5 -27q35 0 60.5 14t45.5 46.5t36 83.5t31 125q4 18 7.5 38t6.5 40t4.5 39.5t1.5 33.5zM387 931l52 -63l-168 -119l-39 49zM600 917l43 -72l-179 -98l-36 55z" />
    <glyph glyph-name="Oslashacute" unicode="&#x1fe;" 
d="M437 935l61 -71l-165 -123l-46 53zM69 51q-17 24 -26 56.5t-9 79.5q0 33 5 75t13 85q19 99 44.5 167t61 112t85 63.5t116.5 19.5q30 0 54 -4t40 -12l61 102l73 -38l-67 -112q17 -24 26 -57t9 -80q0 -33 -5 -74t-14 -86q-19 -99 -44 -167t-61 -112t-85 -63.5t-117 -19.5
q-29 0 -53 4t-41 12l-58 -98l-73 38zM407 611q-12 6 -26.5 9t-33.5 3q-39 0 -67.5 -15t-50.5 -48t-39 -86t-32 -129q-7 -34 -12 -73.5t-6 -67.5q0 -10 -0.5 -19.5t-0.5 -20.5zM182 84q12 -6 26.5 -9t33.5 -3q38 0 66.5 15t50.5 48t39 86t32 129q6 34 12 73.5t7 67.5
q0 10 0.5 19.5t0.5 20.5z" />
    <glyph glyph-name="P" unicode="P" 
d="M150 695h201q61 0 103 -9.5t68.5 -29t38 -47t11.5 -63.5q0 -129 -77.5 -198t-221.5 -69h-82l-54 -279h-122zM283 371q42 0 73 11.5t51.5 32t31 49.5t10.5 65q0 38 -25 56t-84 18h-86l-46 -232h75z" />
    <glyph glyph-name="Thorn" unicode="&#xde;" 
d="M150 695h122l-27 -135h80q61 0 103 -9.5t68 -28.5t38 -46.5t12 -63.5q0 -130 -77.5 -199t-221.5 -69h-83l-27 -144h-122zM258 237q41 0 72 11t51.5 31.5t31 50t10.5 64.5q0 38 -24.5 56t-84.5 18h-87l-45 -231h76z" />
    <glyph glyph-name="Q" unicode="Q" 
d="M343 128q24 34 40 87.5t33 134.5q4 18 7.5 38t6.5 40t4.5 39.5t1.5 33.5q0 58 -20.5 85.5t-69.5 27.5q-35 0 -60.5 -14t-45.5 -46t-36.5 -83.5t-31.5 -125.5q-4 -18 -7.5 -38.5t-6 -40.5t-4 -39.5t-1.5 -34.5q0 -59 19.5 -86t68.5 -27q7 0 14.5 0.5t12.5 1.5l-48 105
l82 36zM434 -82l-81 -36l-49 113q-13 -5 -31.5 -7t-43.5 -2q-102 0 -148.5 48.5t-46.5 152.5q0 33 5 75.5t13 84.5q19 99 44.5 167t61 112t85 63.5t116.5 19.5q102 0 149 -48.5t47 -152.5q0 -33 -5.5 -75.5t-13.5 -84.5q-14 -69 -29 -120t-33 -89t-40 -65t-49 -46z" />
    <glyph glyph-name="R" unicode="R" 
d="M144 695h198q62 0 104.5 -9.5t68 -28t36.5 -44.5t11 -60q0 -50 -13.5 -90t-39.5 -68.5t-62 -46t-80 -23.5l112 -325h-128l-104 310h-56l-60 -310h-122zM286 403q40 0 69 8.5t48 25t27.5 40.5t8.5 55q0 19 -5 32t-18 21.5t-34.5 13t-52.5 4.5h-81l-39 -200h77z" />
    <glyph glyph-name="Racute" unicode="&#x154;" 
d="M144 695h198q62 0 104.5 -9.5t68 -28t36.5 -44.5t11 -60q0 -50 -13.5 -90t-39.5 -68.5t-62 -46t-80 -23.5l112 -325h-128l-104 310h-56l-60 -310h-122zM286 403q40 0 69 8.5t48 25t27.5 40.5t8.5 55q0 19 -5 32t-18 21.5t-34.5 13t-52.5 4.5h-81l-39 -200h77zM480 910
l31 -83l-196 -72l-26 64z" />
    <glyph glyph-name="Rcaron" unicode="&#x158;" 
d="M144 695h198q62 0 104.5 -9.5t68 -28t36.5 -44.5t11 -60q0 -50 -13.5 -90t-39.5 -68.5t-62 -46t-80 -23.5l112 -325h-128l-104 310h-56l-60 -310h-122zM286 403q40 0 69 8.5t48 25t27.5 40.5t8.5 55q0 19 -5 32t-18 21.5t-34.5 13t-52.5 4.5h-81l-39 -200h77zM256 902
l107 -59l126 59l26 -65l-166 -88l-136 88z" />
    <glyph glyph-name="Rcommaaccent" unicode="&#x156;" 
d="M144 695h198q62 0 104.5 -9.5t68 -28t36.5 -44.5t11 -60q0 -50 -13.5 -90t-39.5 -68.5t-62 -46t-80 -23.5l112 -325h-128l-104 310h-56l-60 -310h-122zM286 403q40 0 69 8.5t48 25t27.5 40.5t8.5 55q0 19 -5 32t-18 21.5t-34.5 13t-52.5 4.5h-81l-39 -200h77zM36 -167
q12 4 29.5 9t35 10.5t33 10.5t25.5 9q3 33 17.5 47.5t46.5 14.5q25 0 36 -9.5t11 -28.5v-10t-2 -13q-3 -18 -10.5 -29t-22.5 -18.5t-39.5 -13.5t-61.5 -12q-9 -2 -21 -4t-24 -3.5t-24.5 -4t-22.5 -3.5z" />
    <glyph glyph-name="S" unicode="S" 
d="M35 104q19 -5 41 -9.5t44 -7.5t45 -5t44 -2q90 0 129 28.5t39 78.5q0 18 -5.5 31.5t-19.5 26.5t-37.5 27.5t-60.5 34.5q-45 24 -75 43.5t-48.5 41.5t-26.5 48t-8 62q0 97 71 151t215 54q21 0 43.5 -1.5t44.5 -4.5t42 -7t36 -8l-23 -92q-29 8 -68.5 14.5t-82.5 6.5
q-83 0 -119.5 -25t-36.5 -69q0 -17 5 -30.5t18 -26t37 -26.5t61 -34q45 -24 75.5 -44t49.5 -42.5t27 -48.5t8 -62q0 -104 -74 -161.5t-223 -57.5q-53 0 -99 6.5t-88 17.5z" />
    <glyph glyph-name="Scedilla" unicode="&#x15e;" 
d="M164 -11q-38 2 -77.5 8t-71.5 15l20 92q19 -5 41 -9.5t44 -7.5t45 -5t44 -2q90 0 129 28.5t39 78.5q0 18 -5.5 31.5t-19.5 26.5t-37.5 27.5t-60.5 34.5q-45 24 -75 43.5t-48.5 41.5t-26.5 48t-8 62q0 97 71 151t215 54q21 0 43.5 -1.5t44.5 -4.5t42 -7t36 -8l-23 -92
q-29 8 -68.5 14.5t-82.5 6.5q-83 0 -119.5 -25t-36.5 -69q0 -17 5 -30.5t18 -26t37 -26.5t61 -34q45 -24 75.5 -44t49.5 -42.5t27 -48.5t8 -62q0 -101 -68 -156.5t-194 -61.5l-10 -35q45 -3 65 -21t20 -50q0 -21 -9.5 -40.5t-29 -33.5t-48.5 -22t-68 -8q-19 0 -38.5 1.5
t-34.5 5.5l14 57q14 -3 28.5 -4.5t31.5 -1.5q37 0 51.5 12.5t14.5 28.5q0 12 -11.5 18t-42.5 6h-33z" />
    <glyph glyph-name="uni1E9E" unicode="&#x1e9e;" 
d="M135 695h431l-17 -85l-146 -199q55 -16 85 -57t30 -106q0 -60 -17.5 -107t-50 -80.5t-78.5 -51.5t-103 -18q-27 0 -52 3.5t-45 9.5l23 87q16 -4 30 -6.5t33 -2.5q33 0 58 11.5t42 32.5t25 48.5t8 59.5q0 23 -7 41.5t-21.5 32t-38.5 21t-58 7.5l15 83l136 184h-180
l-116 -603h-121z" />
    <glyph glyph-name="Sacute" unicode="&#x15a;" 
d="M35 104q19 -5 41 -9.5t44 -7.5t45 -5t44 -2q90 0 129 28.5t39 78.5q0 18 -5.5 31.5t-19.5 26.5t-37.5 27.5t-60.5 34.5q-45 24 -75 43.5t-48.5 41.5t-26.5 48t-8 62q0 97 71 151t215 54q21 0 43.5 -1.5t44.5 -4.5t42 -7t36 -8l-23 -92q-29 8 -68.5 14.5t-82.5 6.5
q-83 0 -119.5 -25t-36.5 -69q0 -17 5 -30.5t18 -26t37 -26.5t61 -34q45 -24 75.5 -44t49.5 -42.5t27 -48.5t8 -62q0 -104 -74 -161.5t-223 -57.5q-53 0 -99 6.5t-88 17.5zM492 910l31 -83l-196 -72l-26 64z" />
    <glyph glyph-name="Scircumflex" unicode="&#x15c;" 
d="M35 104q19 -5 41 -9.5t44 -7.5t45 -5t44 -2q90 0 129 28.5t39 78.5q0 18 -5.5 31.5t-19.5 26.5t-37.5 27.5t-60.5 34.5q-45 24 -75 43.5t-48.5 41.5t-26.5 48t-8 62q0 97 71 151t215 54q21 0 43.5 -1.5t44.5 -4.5t42 -7t36 -8l-23 -92q-29 8 -68.5 14.5t-82.5 6.5
q-83 0 -119.5 -25t-36.5 -69q0 -17 5 -30.5t18 -26t37 -26.5t61 -34q45 -24 75.5 -44t49.5 -42.5t27 -48.5t8 -62q0 -104 -74 -161.5t-223 -57.5q-53 0 -99 6.5t-88 17.5zM395 909l136 -88l-42 -65l-107 60l-127 -60l-26 65z" />
    <glyph glyph-name="Scaron" unicode="&#x160;" 
d="M35 104q19 -5 41 -9.5t44 -7.5t45 -5t44 -2q90 0 129 28.5t39 78.5q0 18 -5.5 31.5t-19.5 26.5t-37.5 27.5t-60.5 34.5q-45 24 -75 43.5t-48.5 41.5t-26.5 48t-8 62q0 97 71 151t215 54q21 0 43.5 -1.5t44.5 -4.5t42 -7t36 -8l-23 -92q-29 8 -68.5 14.5t-82.5 6.5
q-83 0 -119.5 -25t-36.5 -69q0 -17 5 -30.5t18 -26t37 -26.5t61 -34q45 -24 75.5 -44t49.5 -42.5t27 -48.5t8 -62q0 -104 -74 -161.5t-223 -57.5q-53 0 -99 6.5t-88 17.5zM273 902l107 -59l126 59l26 -65l-166 -88l-136 88z" />
    <glyph glyph-name="Scommaaccent" unicode="&#x218;" 
d="M35 104q19 -5 41 -9.5t44 -7.5t45 -5t44 -2q90 0 129 28.5t39 78.5q0 18 -5.5 31.5t-19.5 26.5t-37.5 27.5t-60.5 34.5q-45 24 -75 43.5t-48.5 41.5t-26.5 48t-8 62q0 97 71 151t215 54q21 0 43.5 -1.5t44.5 -4.5t42 -7t36 -8l-23 -92q-29 8 -68.5 14.5t-82.5 6.5
q-83 0 -119.5 -25t-36.5 -69q0 -17 5 -30.5t18 -26t37 -26.5t61 -34q45 -24 75.5 -44t49.5 -42.5t27 -48.5t8 -62q0 -104 -74 -161.5t-223 -57.5q-53 0 -99 6.5t-88 17.5zM36 -167q12 4 29.5 9t35 10.5t33 10.5t25.5 9q3 33 17.5 47.5t46.5 14.5q25 0 36 -9.5t11 -28.5v-10
t-2 -13q-3 -18 -10.5 -29t-22.5 -18.5t-39.5 -13.5t-61.5 -12q-9 -2 -21 -4t-24 -3.5t-24.5 -4t-22.5 -3.5z" />
    <glyph glyph-name="T" unicode="T" 
d="M282 597h-190l19 98h503l-20 -98h-190l-115 -597h-121z" />
    <glyph glyph-name="Tbar" unicode="&#x166;" 
d="M225 298h-135l17 88h135l40 211h-190l19 98h503l-20 -98h-190l-41 -211h134l-16 -88h-135l-57 -298h-121z" />
    <glyph glyph-name="Tcaron" unicode="&#x164;" 
d="M282 597h-190l19 98h503l-20 -98h-190l-115 -597h-121zM269 902l107 -59l126 59l26 -65l-166 -88l-136 88z" />
    <glyph glyph-name="Tcommaaccent" unicode="&#x21a;" 
d="M282 597h-190l19 98h503l-20 -98h-190l-115 -597h-121zM35 -167q12 4 29.5 9t35 10.5t33 10.5t25.5 9q3 33 17.5 47.5t46.5 14.5q25 0 36 -9.5t11 -28.5v-10t-2 -13q-3 -18 -10.5 -29t-22.5 -18.5t-39.5 -13.5t-61.5 -12q-9 -2 -21 -4t-24 -3.5t-24.5 -4t-22.5 -3.5z" />
    <glyph glyph-name="uni0162" unicode="&#x162;" 
d="M282 597h-190l19 98h503l-20 -98h-190l-115 -597h-28l-14 -46q46 -3 66 -21t20 -50q0 -21 -10 -40.5t-29 -33.5t-48 -22t-67 -8q-21 0 -40.5 1.5t-33.5 5.5l14 57q14 -3 28 -4.5t31 -1.5q37 0 51.5 12.5t14.5 28.5q0 12 -11.5 18t-41.5 6h-34l31 98h-20z" />
    <glyph glyph-name="U" unicode="U" 
d="M257 695l-90 -458q-4 -21 -6.5 -39t-2.5 -35q0 -40 19 -61t64 -21q32 0 54.5 9.5t39.5 29.5t27.5 50t18.5 71l88 454h121l-90 -460q-13 -66 -34 -112.5t-54 -77t-78 -45t-106 -14.5q-96 0 -143.5 42t-47.5 127q0 22 3 45t8 50l87 445h122z" />
    <glyph glyph-name="Uogonek" unicode="&#x172;" 
d="M257 695l-90 -458q-4 -21 -6.5 -39t-2.5 -35q0 -40 19 -61t64 -21q32 0 54.5 9.5t39.5 29.5t27.5 50t18.5 71l88 454h121l-90 -460q-9 -49 -22 -85t-31.5 -64t-42.5 -48t-55 -36q-22 -11 -43.5 -25t-38 -30t-27.5 -32.5t-11 -31.5q0 -27 35 -27q18 0 34.5 3.5t31.5 8.5
l3 -72q-24 -8 -51 -13t-54 -5q-50 0 -76.5 20.5t-26.5 58.5q0 21 9.5 41t24 36.5t32.5 30.5t34 24q-7 -1 -11 -1h-8q-39 0 -70.5 10t-53.5 31.5t-33.5 52.5t-11.5 73q0 22 3 45.5t8 49.5l87 445h122z" />
    <glyph glyph-name="Ugrave" unicode="&#xd9;" 
d="M257 695l-90 -458q-4 -21 -6.5 -39t-2.5 -35q0 -40 19 -61t64 -21q32 0 54.5 9.5t39.5 29.5t27.5 50t18.5 71l88 454h121l-90 -460q-13 -66 -34 -112.5t-54 -77t-78 -45t-106 -14.5q-96 0 -143.5 42t-47.5 127q0 22 3 45t8 50l87 445h122zM262 915l178 -98l-35 -64
l-188 80z" />
    <glyph glyph-name="Uacute" unicode="&#xda;" 
d="M257 695l-90 -458q-4 -21 -6.5 -39t-2.5 -35q0 -40 19 -61t64 -21q32 0 54.5 9.5t39.5 29.5t27.5 50t18.5 71l88 454h121l-90 -460q-13 -66 -34 -112.5t-54 -77t-78 -45t-106 -14.5q-96 0 -143.5 42t-47.5 127q0 22 3 45t8 50l87 445h122zM508 910l31 -83l-196 -72
l-26 64z" />
    <glyph glyph-name="Ucircumflex" unicode="&#xdb;" 
d="M257 695l-90 -458q-4 -21 -6.5 -39t-2.5 -35q0 -40 19 -61t64 -21q32 0 54.5 9.5t39.5 29.5t27.5 50t18.5 71l88 454h121l-90 -460q-13 -66 -34 -112.5t-54 -77t-78 -45t-106 -14.5q-96 0 -143.5 42t-47.5 127q0 22 3 45t8 50l87 445h122zM398 909l136 -88l-42 -65
l-107 60l-127 -60l-26 65z" />
    <glyph glyph-name="Udieresis" unicode="&#xdc;" 
d="M257 695l-90 -458q-4 -21 -6.5 -39t-2.5 -35q0 -40 19 -61t64 -21q32 0 54.5 9.5t39.5 29.5t27.5 50t18.5 71l88 454h121l-90 -460q-13 -66 -34 -112.5t-54 -77t-78 -45t-106 -14.5q-96 0 -143.5 42t-47.5 127q0 22 3 45t8 50l87 445h122zM338 853q0 -12 -4 -28
q-3 -17 -8.5 -28.5t-14 -18.5t-20.5 -9.5t-30 -2.5q-58 0 -58 40q0 12 4 28q4 17 9 28.5t13 18.5t20 9.5t30 2.5q59 0 59 -40zM571 853q0 -12 -4 -28q-3 -17 -8.5 -28.5t-13.5 -18.5t-20.5 -9.5t-30.5 -2.5q-58 0 -58 40q0 12 4 28q4 17 9 28.5t13 18.5t20.5 9.5t30.5 2.5
q58 0 58 -40z" />
    <glyph glyph-name="Utilde" unicode="&#x168;" 
d="M257 695l-90 -458q-4 -21 -6.5 -39t-2.5 -35q0 -40 19 -61t64 -21q32 0 54.5 9.5t39.5 29.5t27.5 50t18.5 71l88 454h121l-90 -460q-13 -66 -34 -112.5t-54 -77t-78 -45t-106 -14.5q-96 0 -143.5 42t-47.5 127q0 22 3 45t8 50l87 445h122zM210 819q23 29 53.5 48t70.5 19
q20 0 35.5 -5t28 -12t24.5 -12.5t26 -5.5q17 0 34.5 8.5t33.5 25.5l42 -49q-24 -29 -54 -48t-71 -19q-20 0 -35.5 5.5t-28 12t-24 12t-25.5 5.5q-18 0 -35.5 -8.5t-32.5 -25.5z" />
    <glyph glyph-name="Ubreve" unicode="&#x16c;" 
d="M257 695l-90 -458q-4 -21 -6.5 -39t-2.5 -35q0 -40 19 -61t64 -21q32 0 54.5 9.5t39.5 29.5t27.5 50t18.5 71l88 454h121l-90 -460q-13 -66 -34 -112.5t-54 -77t-78 -45t-106 -14.5q-96 0 -143.5 42t-47.5 127q0 22 3 45t8 50l87 445h122zM326 892q-2 -26 12.5 -43.5
t47.5 -17.5t53 17.5t25 43.5h80q-5 -29 -18.5 -54t-35 -43.5t-50.5 -29t-65 -10.5t-61.5 10.5t-40.5 29t-20.5 43.5t-0.5 54h74z" />
    <glyph glyph-name="Umacron" unicode="&#x16a;" 
d="M257 695l-90 -458q-4 -21 -6.5 -39t-2.5 -35q0 -40 19 -61t64 -21q32 0 54.5 9.5t39.5 29.5t27.5 50t18.5 71l88 454h121l-90 -460q-13 -66 -34 -112.5t-54 -77t-78 -45t-106 -14.5q-96 0 -143.5 42t-47.5 127q0 22 3 45t8 50l87 445h122zM229 868h326l-15 -80h-326z" />
    <glyph glyph-name="Ucaron" unicode="&#x1d3;" 
d="M257 695l-90 -458q-4 -21 -6.5 -39t-2.5 -35q0 -40 19 -61t64 -21q32 0 54.5 9.5t39.5 29.5t27.5 50t18.5 71l88 454h121l-90 -460q-13 -66 -34 -112.5t-54 -77t-78 -45t-106 -14.5q-96 0 -143.5 42t-47.5 127q0 22 3 45t8 50l87 445h122zM275 902l107 -59l126 59l26 -65
l-166 -88l-136 88z" />
    <glyph glyph-name="Uring" unicode="&#x16e;" 
d="M257 695l-90 -458q-4 -21 -6.5 -39t-2.5 -35q0 -40 19 -61t64 -21q32 0 54.5 9.5t39.5 29.5t27.5 50t18.5 71l88 454h121l-90 -460q-13 -66 -34 -112.5t-54 -77t-78 -45t-106 -14.5q-96 0 -143.5 42t-47.5 127q0 22 3 45t8 50l87 445h122zM500 844q0 -25 -9 -45.5
t-25 -36.5t-38 -25t-48 -9q-22 0 -42 7.5t-34.5 20.5t-23 32.5t-8.5 44.5q0 24 9 45t25 37t37.5 24.5t46.5 8.5q46 0 78 -27.5t32 -76.5zM434 841q0 23 -12.5 35t-34.5 12q-21 0 -35 -13.5t-14 -38.5q0 -24 12.5 -35.5t32.5 -11.5q23 0 37 13t14 39z" />
    <glyph glyph-name="Uhungarumlaut" unicode="&#x170;" 
d="M257 695l-90 -458q-4 -21 -6.5 -39t-2.5 -35q0 -40 19 -61t64 -21q32 0 54.5 9.5t39.5 29.5t27.5 50t18.5 71l88 454h121l-90 -460q-13 -66 -34 -112.5t-54 -77t-78 -45t-106 -14.5q-96 0 -143.5 42t-47.5 127q0 22 3 45t8 50l87 445h122zM386 931l52 -63l-168 -119
l-39 49zM599 917l43 -72l-179 -98l-36 55z" />
    <glyph glyph-name="V" unicode="V" 
d="M220 695l19 -379q3 -53 4 -112t0 -124h2q26 65 49 124t46 111l167 380h121l-310 -695h-181l-40 695h123z" />
    <glyph glyph-name="W" unicode="W" 
d="M189 695l-39 -400q-3 -23 -5.5 -45.5t-5.5 -46t-7 -48t-8 -51.5h5q7 26 15 52t16 53l105 326h131l-20 -326q-2 -27 -4 -53t-5 -52h4q6 26 12 50.5t12 48.5t12.5 46.5t11.5 45.5l117 400h102l-202 -695h-159l21 324q1 29 4 49t7 46h-3q-3 -13 -6 -24l-6 -22t-6.5 -23
t-7.5 -26l-104 -324h-156l68 695h101z" />
    <glyph glyph-name="Wcircumflex" unicode="&#x174;" 
d="M189 695l-39 -400q-3 -23 -5.5 -45.5t-5.5 -46t-7 -48t-8 -51.5h5q7 26 15 52t16 53l105 326h131l-20 -326q-2 -27 -4 -53t-5 -52h4q6 26 12 50.5t12 48.5t12.5 46.5t11.5 45.5l117 400h102l-202 -695h-159l21 324q1 29 4 49t7 46h-3q-3 -13 -6 -24l-6 -22t-6.5 -23
t-7.5 -26l-104 -324h-156l68 695h101zM394 909l136 -88l-42 -65l-107 60l-127 -60l-26 65z" />
    <glyph glyph-name="X" unicode="X" 
d="M233 695l85 -267h3q14 23 26 44t27 43l119 180h128l-241 -349l113 -346h-129l-93 281h-2q-14 -23 -25 -42.5t-26 -41.5l-130 -197h-126l248 363l-106 332h129z" />
    <glyph glyph-name="Y" unicode="Y" 
d="M212 695l55 -186q10 -40 17 -68.5t14 -65.5h2q11 19 21 35.5t19 32t19 32t22 34.5l121 186h128l-295 -447l-48 -248h-122l49 249l-119 446h117z" />
    <glyph glyph-name="Yacute" unicode="&#xdd;" 
d="M212 695l55 -186q10 -40 17 -68.5t14 -65.5h2q11 19 21 35.5t19 32t19 32t22 34.5l121 186h128l-295 -447l-48 -248h-122l49 249l-119 446h117zM506 910l31 -83l-196 -72l-26 64z" />
    <glyph glyph-name="Ycircumflex" unicode="&#x176;" 
d="M212 695l55 -186q10 -40 17 -68.5t14 -65.5h2q11 19 21 35.5t19 32t19 32t22 34.5l121 186h128l-295 -447l-48 -248h-122l49 249l-119 446h117zM392 909l136 -88l-42 -65l-107 60l-127 -60l-26 65z" />
    <glyph glyph-name="Ydieresis" unicode="&#x178;" 
d="M212 695l55 -186q10 -40 17 -68.5t14 -65.5h2q11 19 21 35.5t19 32t19 32t22 34.5l121 186h128l-295 -447l-48 -248h-122l49 249l-119 446h117zM334 853q0 -12 -4 -28q-3 -17 -8.5 -28.5t-14 -18.5t-20.5 -9.5t-30 -2.5q-58 0 -58 40q0 12 4 28q4 17 9 28.5t13 18.5
t20 9.5t30 2.5q59 0 59 -40zM567 853q0 -12 -4 -28q-3 -17 -8.5 -28.5t-13.5 -18.5t-20.5 -9.5t-30.5 -2.5q-58 0 -58 40q0 12 4 28q4 17 9 28.5t13 18.5t20.5 9.5t30.5 2.5q58 0 58 -40z" />
    <glyph glyph-name="Ymacron" unicode="&#x232;" 
d="M212 695l55 -186q10 -40 17 -68.5t14 -65.5h2q11 19 21 35.5t19 32t19 32t22 34.5l121 186h128l-295 -447l-48 -248h-122l49 249l-119 446h117zM229 868h326l-15 -80h-326z" />
    <glyph glyph-name="Z" unicode="Z" 
d="M10 86l404 511h-289l20 98h443l-17 -86l-406 -511h313l-18 -98h-466z" />
    <glyph glyph-name="Zacute" unicode="&#x179;" 
d="M10 86l404 511h-289l20 98h443l-17 -86l-406 -511h313l-18 -98h-466zM508 910l31 -83l-196 -72l-26 64z" />
    <glyph glyph-name="Zcaron" unicode="&#x17d;" 
d="M10 86l404 511h-289l20 98h443l-17 -86l-406 -511h313l-18 -98h-466zM288 902l107 -59l126 59l26 -65l-166 -88l-136 88z" />
    <glyph glyph-name="Zdotaccent" unicode="&#x17b;" 
d="M10 86l404 511h-289l20 98h443l-17 -86l-406 -511h313l-18 -98h-466zM461 852q0 -7 -0.5 -14t-2.5 -13q-3 -18 -8 -29t-13.5 -18t-21 -9.5t-30.5 -2.5q-31 0 -44.5 9.5t-13.5 31.5q0 7 1 14t2 13q3 17 8.5 28.5t13.5 18.5t21 9.5t31 2.5q30 0 43.5 -9t13.5 -32z" />
    <glyph glyph-name="grave" unicode="`" 
d="M333 766l117 -156l-55 -49l-134 141z" />
    <glyph glyph-name="grave.cap" 
d="M322 915l178 -98l-35 -64l-188 80z" />
    <glyph glyph-name="acute" unicode="&#xb4;" 
d="M400 757l61 -71l-165 -123l-46 53z" />
    <glyph glyph-name="acute.cap" 
d="M467 910l31 -83l-196 -72l-26 64z" />
    <glyph glyph-name="circumflex" unicode="&#x2c6;" 
d="M368 755l127 -132l-52 -58l-91 84l-115 -82l-39 57z" />
    <glyph glyph-name="circumflex.cap" 
d="M401 909l136 -88l-42 -65l-107 60l-127 -60l-26 65z" />
    <glyph glyph-name="dieresis" unicode="&#xa8;" 
d="M317 680q0 -11 -3 -28q-6 -35 -22.5 -48t-51.5 -13q-59 0 -59 39q0 11 3 28q6 34 23 47.5t53 13.5q57 0 57 -39zM525 680q0 -11 -3 -28q-6 -35 -22.5 -48t-51.5 -13q-59 0 -59 39q0 11 3 28q6 34 23 47.5t53 13.5q57 0 57 -39z" />
    <glyph glyph-name="dieresis.cap" 
d="M339 853q0 -12 -4 -28q-3 -17 -8.5 -28.5t-14 -18.5t-20.5 -9.5t-30 -2.5q-58 0 -58 40q0 12 4 28q4 17 9 28.5t13 18.5t20 9.5t30 2.5q59 0 59 -40zM572 853q0 -12 -4 -28q-3 -17 -8.5 -28.5t-13.5 -18.5t-20.5 -9.5t-30.5 -2.5q-58 0 -58 40q0 12 4 28q4 17 9 28.5
t13 18.5t20.5 9.5t30.5 2.5q58 0 58 -40z" />
    <glyph glyph-name="tilde" unicode="&#x2dc;" 
d="M183 631q10 18 23.5 34.5t29.5 28.5t34 18.5t37 6.5q21 0 35.5 -7.5t27 -16.5t23.5 -16.5t23 -7.5q16 0 31 12t29 33l50 -42q-12 -18 -25 -34.5t-29 -28t-34 -18.5t-37 -7q-20 0 -35 7.5t-27.5 17t-23.5 16.5t-23 7q-16 0 -31 -11.5t-28 -33.5z" />
    <glyph glyph-name="tilde.cap" 
d="M214 819q23 29 53.5 48t70.5 19q20 0 35.5 -5t28 -12t24.5 -12.5t26 -5.5q17 0 34.5 8.5t33.5 25.5l42 -49q-24 -29 -54 -48t-71 -19q-20 0 -35.5 5.5t-28 12t-24 12t-25.5 5.5q-18 0 -35.5 -8.5t-32.5 -25.5z" />
    <glyph glyph-name="breve" unicode="&#x2d8;" 
d="M306 727q-5 -32 7 -52.5t41 -20.5q28 0 46.5 20.5t24.5 52.5h81q-11 -69 -53.5 -110.5t-108.5 -41.5q-68 0 -97.5 41.5t-16.5 110.5h76z" />
    <glyph glyph-name="breve.cap" 
d="M330 892q-2 -26 12.5 -43.5t47.5 -17.5t53 17.5t25 43.5h80q-5 -29 -18.5 -54t-35 -43.5t-50.5 -29t-65 -10.5t-61.5 10.5t-40.5 29t-20.5 43.5t-0.5 54h74z" />
    <glyph glyph-name="macron" unicode="&#xaf;" 
d="M222 695h280l-17 -87h-280z" />
    <glyph glyph-name="macron" unicode="&#x2c9;" 
d="M222 695h280l-17 -87h-280z" />
    <glyph glyph-name="macron" unicode="&#x2c9;" 
d="M222 695h280l-17 -87h-280z" />
    <glyph glyph-name="macron.cap" 
d="M232 868h326l-15 -80h-326z" />
    <glyph glyph-name="caron" unicode="&#x2c7;" 
d="M266 750l90 -84l116 82l39 -57l-170 -131l-128 132z" />
    <glyph glyph-name="caron.cap" 
d="M281 902l107 -59l126 59l26 -65l-166 -88l-136 88z" />
    <glyph glyph-name="apostrophe" unicode="&#x2bc;" 
d="M265 558q19 24 37 49t32 47q-8 5 -12 13.5t-4 20.5v10.5t2 10.5q3 15 7.5 25t11.5 15.5t18 8.5t28 3q28 0 38 -9.5t10 -27.5v-8t-1 -12q-3 -18 -8 -30t-17 -26q-20 -26 -48.5 -57t-58.5 -60z" />
    <glyph glyph-name="dotaccent" unicode="&#x2d9;" 
d="M423 678q0 -6 -0.5 -12t-2.5 -13q-6 -36 -22 -49t-53 -13q-30 0 -44.5 10t-14.5 31q0 11 3 26q5 35 21 48t54 13q30 0 44.5 -9.5t14.5 -31.5z" />
    <glyph glyph-name="dotaccent.cap" 
d="M455 852q0 -7 -0.5 -14t-2.5 -13q-3 -18 -8 -29t-13.5 -18t-21 -9.5t-30.5 -2.5q-31 0 -44.5 9.5t-13.5 31.5q0 7 1 14t2 13q3 17 8.5 28.5t13.5 18.5t21 9.5t31 2.5q30 0 43.5 -9t13.5 -32z" />
    <glyph glyph-name="ring" unicode="&#x2da;" 
d="M470 670q0 -25 -9.5 -47t-25 -37.5t-37 -25t-47.5 -9.5q-49 0 -79 29.5t-30 77.5q0 26 9 47.5t25 37.5t38 24.5t46 8.5q49 0 79.5 -29t30.5 -77zM403 668q0 23 -11.5 36.5t-33.5 13.5t-36 -15.5t-14 -42.5q0 -23 12 -36t33 -13q23 0 36.5 15t13.5 42z" />
    <glyph glyph-name="ring.cap" 
d="M503 844q0 -25 -9 -45.5t-25 -36.5t-38 -25t-48 -9q-22 0 -42 7.5t-34.5 20.5t-23 32.5t-8.5 44.5q0 24 9 45t25 37t37.5 24.5t46.5 8.5q46 0 78 -27.5t32 -76.5zM437 841q0 23 -12.5 35t-34.5 12q-21 0 -35 -13.5t-14 -38.5q0 -24 12.5 -35.5t32.5 -11.5q23 0 37 13
t14 39z" />
    <glyph glyph-name="hungarumlaut" unicode="&#x2dd;" 
d="M292 757l68 -53l-142 -142l-52 40zM474 749l62 -61l-154 -128l-48 44z" />
    <glyph glyph-name="hungarumlaut.cap" 
d="M331 931l52 -63l-168 -119l-39 49zM544 917l43 -72l-179 -98l-36 55z" />
    <glyph glyph-name="uni0315" unicode="&#x315;" 
d="M347 791l91 -25l-93 -212l-70 20z" />
    <glyph glyph-name="uni0312" unicode="&#x312;" 
d="M465 677q-13 -3 -30.5 -8t-35 -10.5t-33 -11t-25.5 -8.5q-2 -33 -16.5 -47.5t-46.5 -14.5q-26 0 -37 9.5t-11 28.5v10t2 13q4 17 11.5 28t22.5 18.5t39 13.5t62 13q9 1 20.5 3.5t24 4t24.5 4t23 3.5z" />
    <glyph glyph-name="uni0326" unicode="&#x326;" 
d="M73 -167q12 4 29.5 9t35 10.5t33 10.5t25.5 9q3 33 17.5 47.5t46.5 14.5q25 0 36 -9.5t11 -28.5v-10t-2 -13q-3 -18 -10.5 -29t-22.5 -18.5t-39.5 -13.5t-61.5 -12q-9 -2 -21 -4t-24 -3.5t-24.5 -4t-22.5 -3.5z" />
    <glyph glyph-name="ogonek" unicode="&#x2db;" 
d="M317 0q-25 -15 -47 -29.5t-38 -29.5t-26 -30t-10 -29q0 -15 9 -21.5t28 -6.5q18 0 34 3.5t30 8.5l3 -69q-24 -8 -51 -13.5t-54 -5.5q-49 0 -74.5 21t-25.5 58q0 22 10.5 43t27.5 39t38.5 33.5t43.5 27.5h102z" />
    <glyph glyph-name="ogonek.cap" 
d="M318 0q-26 -16 -48 -30.5t-38 -29t-25 -29t-9 -28.5q0 -27 36 -27q18 0 34 3.5t30 8.5l3 -72q-24 -8 -51 -13t-53 -5q-49 0 -76 20.5t-27 58.5q0 22 10 42t26.5 38t38 34t45.5 29h104z" />
    <glyph glyph-name="cedilla" unicode="&#xb8;" 
d="M169 0h71l-14 -46q43 -3 61.5 -22t18.5 -47q0 -23 -11.5 -43t-31.5 -33.5t-47.5 -21t-60.5 -7.5q-19 0 -37 1.5t-33 5.5l15 57q14 -3 27.5 -4.5t30.5 -1.5q34 0 47.5 12t13.5 28q0 12 -12 18.5t-40 6.5h-29z" />
    <glyph glyph-name="cedilla.cap" 
d="M163 0h74l-14 -46q45 -3 65.5 -21t20.5 -50q0 -21 -10 -40.5t-29.5 -33.5t-48.5 -22t-67 -8q-20 0 -39.5 1.5t-33.5 5.5l14 57q14 -3 28 -4.5t31 -1.5q37 0 51.5 12.5t14.5 28.5q0 12 -11.5 18t-41.5 6h-34z" />
    <glyph glyph-name="period" unicode="." 
d="M324 97q0 -7 -1 -15t-3 -16q-4 -22 -10 -36.5t-16.5 -23t-26 -11.5t-38.5 -3q-38 0 -55 12t-17 40q0 7 1 15t3 16q4 22 9.5 36.5t16 23t26 11.5t39.5 3q38 0 55 -12t17 -40z" />
    <glyph glyph-name="comma" unicode="," 
d="M10 -150q48 40 90.5 77.5t77.5 75.5q-8 6 -13.5 15t-5.5 26q0 7 1 15t3 16q4 22 10 36.5t16.5 23t25.5 11.5t38 3q38 0 55 -12t17 -40q0 -7 -0.5 -15t-2.5 -16q-3 -15 -6.5 -25.5t-7.5 -18.5t-9.5 -15.5t-12.5 -14.5q-14 -17 -40 -40t-58 -49t-68 -52t-70 -51z" />
    <glyph glyph-name="colon" unicode=":" 
d="M324 97q0 -7 -1 -15t-3 -16q-4 -22 -10 -36.5t-16.5 -23t-26 -11.5t-38.5 -3q-38 0 -55 12t-17 40q0 7 1 15t3 16q4 22 9.5 36.5t16 23t26 11.5t39.5 3q38 0 55 -12t17 -40zM385 412q0 -8 -1 -15.5t-3 -16.5q-4 -22 -10 -36.5t-16.5 -23t-25.5 -12t-38 -3.5
q-38 0 -55.5 12t-17.5 41q0 6 1 14.5t3 16.5q4 23 10 37t16.5 22.5t26 11.5t38.5 3q38 0 55 -12t17 -39z" />
    <glyph glyph-name="semicolon" unicode=";" 
d="M385 412q0 -8 -1 -15.5t-3 -16.5q-4 -22 -10 -36.5t-16.5 -23t-25.5 -12t-38 -3.5q-38 0 -55.5 12t-17.5 41q0 6 1 14.5t3 16.5q4 23 10 37t16.5 22.5t26 11.5t38.5 3q38 0 55 -12t17 -39zM9 -150q48 40 90 77.5t77 75.5q-8 6 -13.5 15t-5.5 26q0 7 1 15t3 16
q4 22 9.5 36.5t16 23t26 11.5t39.5 3q38 0 55 -12t17 -40q0 -7 -1 -15t-3 -16q-3 -15 -6.5 -25.5t-7.5 -18.5t-9.5 -15.5t-11.5 -14.5q-15 -17 -40.5 -40t-58 -49t-68.5 -52t-70 -51z" />
    <glyph glyph-name="ellipsis" unicode="&#x2026;" 
d="M121 80q0 -10 -3 -26q-3 -17 -7.5 -29t-12.5 -19.5t-20 -10.5t-29 -3q-28 0 -40 9t-12 29q0 12 3 27q3 18 8 30t12.5 19t19.5 10t30 3q27 0 39 -9t12 -30zM299 80q0 -10 -3 -26q-3 -17 -7.5 -29t-12.5 -19.5t-19.5 -10.5t-29.5 -3q-28 0 -39.5 9t-11.5 29q0 12 3 27
q4 18 8.5 30t12 19t19.5 10t30 3q27 0 38.5 -9t11.5 -30zM479 80q0 -10 -3 -26q-4 -17 -9 -29t-12.5 -19.5t-19.5 -10.5t-30 -3q-27 0 -38.5 9t-11.5 29q0 12 3 27q3 18 7.5 30t12.5 19t19.5 10t29.5 3q28 0 40 -9t12 -30z" />
    <glyph glyph-name="periodcentered" unicode="&#xb7;" 
d="M361 287q0 -7 -1 -15t-3 -16q-4 -22 -10 -36.5t-16.5 -23.5t-25.5 -12t-39 -3q-38 0 -54.5 12t-16.5 40q0 7 0.5 15t2.5 16q4 22 10 36.5t16.5 23.5t25.5 12t39 3q38 0 55 -12t17 -40z" />
    <glyph glyph-name="bullet" unicode="&#x2022;" 
d="M411 397q0 -10 -1 -20t-3 -23q-6 -32 -15.5 -53.5t-24 -34t-36.5 -17.5t-53 -5q-52 0 -74.5 17.5t-22.5 57.5q0 9 1 19.5t3 22.5q7 33 16 54t24 33.5t36.5 18t53.5 5.5q52 0 74 -18t22 -57z" />
    <glyph glyph-name="hyphen" unicode="-" 
d="M124 317h328l-19 -103h-328z" />
    <glyph glyph-name="uni00AD" unicode="&#xad;" 
d="M124 317h328l-19 -103h-328z" />
    <glyph glyph-name="endash" unicode="&#x2013;" 
d="M56 317h466l-21 -103h-466z" />
    <glyph glyph-name="emdash" unicode="&#x2014;" 
d="M14 317h550l-21 -103h-550z" />
    <glyph glyph-name="uni2015" unicode="&#x2015;" 
d="M14 317h550l-21 -103h-550z" />
    <glyph glyph-name="underscore" unicode="_" 
d="M-72 -131h549l-19 -99h-549z" />
    <glyph glyph-name="exclam" unicode="!" 
d="M304 738h133l-108 -474h-102zM317 92q0 -8 -0.5 -15t-2.5 -16q-4 -21 -10 -34t-15 -21t-24 -11t-37 -3q-37 0 -52 10.5t-15 35.5q0 8 1 15.5t3 14.5q4 21 9.5 35t15 21.5t24.5 11t37 3.5q37 0 51.5 -10.5t14.5 -36.5z" />
    <glyph glyph-name="exclamdown" unicode="&#xa1;" 
d="M229 269h102l-79 -481h-132zM396 495q0 -7 -0.5 -14.5t-2.5 -15.5q-4 -21 -10 -34t-15.5 -21t-24 -11t-36.5 -3q-37 0 -52 10t-15 36q0 7 1 14.5t2 15.5q4 21 10 34.5t15 21.5t24.5 11t37.5 3q37 0 51.5 -10.5t14.5 -36.5z" />
    <glyph glyph-name="question" unicode="?" 
d="M195 304q4 25 11 44.5t20 38.5t35.5 38t56.5 44q28 19 48.5 35t34 30t20 28t6.5 29q0 14 -5.5 25.5t-18 20t-32 13.5t-46.5 5q-40 0 -76 -6t-78 -17l-4 88q46 12 93 19t99 7q99 0 146 -35t47 -94q0 -32 -9.5 -57.5t-28.5 -48.5t-46.5 -46t-62.5 -48q-27 -19 -45.5 -34
t-31 -28.5t-19.5 -27.5t-10 -31l-6 -32h-104zM280 92q0 -8 -0.5 -15t-2.5 -16q-5 -21 -10.5 -34t-15 -21t-24.5 -11t-37 -3q-36 0 -51.5 10.5t-15.5 35.5q0 8 0.5 15.5t2.5 14.5q5 21 10.5 35t15 21.5t24 11t37.5 3.5q36 0 51.5 -10.5t15.5 -36.5z" />
    <glyph glyph-name="questiondown" unicode="&#xbf;" 
d="M375 227q-4 -26 -10.5 -46.5t-20 -38.5t-35.5 -37t-57 -43q-29 -19 -49 -34.5t-33.5 -30t-20 -29t-6.5 -33.5q0 -30 23 -46.5t78 -16.5q40 0 76.5 6t77.5 16l5 -88q-47 -12 -94 -19.5t-100 -7.5q-98 0 -144.5 34.5t-46.5 97.5q0 34 10 60.5t29 49.5t46 45t63 47
q27 19 45.5 34t30.5 28.5t18.5 28t10.5 32.5l7 34h104zM447 495q0 -7 -1 -14.5t-3 -15.5q-4 -21 -9.5 -34t-15 -21t-24.5 -11t-37 -3q-37 0 -52 10t-15 36q0 7 1 14.5t3 15.5q4 21 10 34.5t15.5 21.5t24 11t36.5 3q37 0 52 -10.5t15 -36.5z" />
    <glyph glyph-name="quotesingle" unicode="'" 
d="M315 738h111l-64 -268h-87z" />
    <glyph glyph-name="quotedbl" unicode="&#x22;" 
d="M214 738h111l-64 -268h-87zM417 738h111l-64 -268h-87z" />
    <glyph glyph-name="quotesinglbase" unicode="&#x201a;" 
d="M10 -150q48 40 90.5 77.5t77.5 75.5q-8 6 -13.5 15t-5.5 26q0 7 1 15t3 16q4 22 10 36.5t16.5 23t25.5 11.5t38 3q38 0 55 -12t17 -40q0 -7 -0.5 -15t-2.5 -16q-3 -15 -6.5 -25.5t-7.5 -18.5t-9.5 -15.5t-12.5 -14.5q-14 -17 -40 -40t-58 -49t-68 -52t-70 -51z" />
    <glyph glyph-name="quoteright" unicode="&#x2019;" 
d="M164 459q48 40 90 77.5t77 75.5q-8 6 -13.5 15t-5.5 25q0 8 1 15.5t3 16.5q4 22 10 36.5t16 23t25.5 11.5t39.5 3q38 0 55 -11.5t17 -40.5q0 -7 -1 -15l-2 -16q-3 -15 -7 -25.5t-8 -18.5t-9.5 -15.5t-11.5 -14.5q-14 -17 -40 -40t-58.5 -49t-68.5 -52t-70 -51z" />
    <glyph glyph-name="quoteleft" unicode="&#x2018;" 
d="M547 744q-47 -41 -90 -79t-77 -75q8 -5 14 -14t6 -26q0 -7 -1.5 -15t-3.5 -16q-4 -22 -9.5 -36.5t-16 -23.5t-26 -12t-38.5 -3q-38 0 -55 12t-17 40q0 7 0.5 15t2.5 17q3 15 6.5 25.5t7.5 18.5t9.5 14.5t12.5 15.5q14 17 40 40t58 48.5t68 52t70 50.5z" />
    <glyph glyph-name="quotedblbase" unicode="&#x201e;" 
d="M-65 -148q43 39 78.5 74t68.5 75q-8 5 -12.5 13t-4.5 22q0 7 0.5 14t2.5 15q4 19 9.5 32t14.5 21t22 11t33 3q32 0 45.5 -10t13.5 -34q0 -6 -0.5 -14t-2.5 -16q-5 -25 -12.5 -40t-22.5 -31q-16 -18 -37 -39t-46.5 -44.5t-54 -47t-58.5 -47.5zM161 -148q43 39 78 74t69 75
q-8 5 -12.5 13t-4.5 22q0 7 0.5 14t2.5 15q4 19 9.5 32t14 21t21.5 11t33 3q32 0 46 -10t14 -34q0 -6 -0.5 -14t-2.5 -16q-6 -25 -13 -40t-22 -31q-16 -18 -37 -39t-46.5 -44.5t-54 -47t-58.5 -47.5z" />
    <glyph glyph-name="quotedblright" unicode="&#x201d;" 
d="M86 479q43 39 78 74t69 75q-8 6 -12.5 13.5t-4.5 22.5q0 6 0.5 13t2.5 16q4 19 9.5 32t14 21t21.5 11t33 3q32 0 46 -10.5t14 -34.5q0 -6 -0.5 -13.5t-2.5 -15.5q-6 -26 -13 -41t-22 -31q-16 -18 -37 -39.5t-46.5 -44.5t-54 -47t-58.5 -46zM312 479q42 39 77.5 74
t69.5 75q-8 6 -13 13.5t-5 22.5q0 6 1 13t3 16q4 19 9 32t14 21t22 11t33 3q31 0 45 -10.5t14 -34.5q0 -6 -0.5 -13.5t-2.5 -15.5q-5 -26 -12.5 -41t-21.5 -31q-17 -18 -38 -39.5t-46.5 -44.5t-53.5 -47t-59 -46z" />
    <glyph glyph-name="quotedblleft" unicode="&#x201c;" 
d="M396 736q-43 -39 -78 -74.5t-69 -74.5q8 -6 12.5 -13.5t4.5 -22.5q0 -6 -0.5 -13t-2.5 -16q-4 -19 -9 -32t-14 -21t-22.5 -11t-32.5 -3q-32 0 -46 10t-14 34q0 7 0.5 14.5t2.5 15.5q5 26 13 41t21 31q16 18 37.5 39.5t47.5 44.5t54 46.5t59 46.5zM622 736
q-44 -39 -79 -74.5t-68 -74.5q8 -6 12.5 -13.5t4.5 -22.5q0 -6 -0.5 -13t-2.5 -16q-4 -19 -9.5 -32t-14.5 -21t-22 -11t-32 -3q-33 0 -46.5 10t-13.5 34q0 7 0.5 14.5t2.5 15.5q5 26 12.5 41t21.5 31q16 18 37.5 39.5t47 44.5t54 46.5t58.5 46.5z" />
    <glyph glyph-name="guilsinglleft" unicode="&#x2039;" 
d="M90 252l319 230l56 -71l-228 -169l157 -175l-75 -57z" />
    <glyph glyph-name="guilsinglright" unicode="&#x203a;" 
d="M460 239l-319 -229l-56 71l228 168l-157 175l75 58z" />
    <glyph glyph-name="guillemotleft" unicode="&#xab;" 
d="M268 245l183 227l85 -45l-142 -187l65 -183l-95 -34zM46 247l189 236l84 -45l-144 -196l74 -195l-95 -37z" />
    <glyph glyph-name="guillemotright" unicode="&#xbb;" 
d="M283 247l-183 -226l-84 45l141 186l-65 183l95 34zM505 244l-189 -236l-84 46l144 196l-73 195l94 36z" />
    <glyph glyph-name="parenleft" unicode="(" 
d="M293 -183q-30 39 -55 80.5t-42.5 86.5t-28 94.5t-10.5 105.5q0 99 25 186.5t69 165t104 145.5t129 127l70 -56q-63 -55 -114.5 -117t-89.5 -132t-59 -148.5t-21 -166.5q0 -47 7.5 -90t21.5 -82.5t34 -76.5t45 -73z" />
    <glyph glyph-name="parenright" unicode=")" 
d="M281 806q30 -40 55 -81.5t43.5 -86.5t28 -94.5t9.5 -104.5q0 -99 -25 -187t-69 -165.5t-103.5 -145t-128.5 -127.5l-70 58q62 54 114.5 116t90 131.5t58.5 148.5t21 167q0 47 -7.5 90t-21 82.5t-34 76.5t-46.5 73z" />
    <glyph glyph-name="braceleft" unicode="{" 
d="M402 -158q-10 -2 -20.5 -2.5t-24.5 -0.5q-89 0 -135 31t-46 98q0 15 1.5 27t4.5 26l21 110q4 17 4 33q0 18 -7.5 33t-24 26.5t-42.5 20.5t-62 13l18 89q45 6 78 18t54 29.5t33.5 40t17.5 49.5l20 105q8 40 24.5 70.5t44 51.5t68.5 31.5t96 10.5q15 0 29.5 -0.5t23.5 -1.5
l-15 -81q-47 0 -76.5 -6.5t-48 -19t-28 -31.5t-13.5 -44l-21 -103q-6 -34 -18.5 -60t-32.5 -46t-47 -34.5t-63 -24.5q56 -15 78.5 -44.5t22.5 -69.5q0 -14 -1 -28t-5 -32l-20 -104q-2 -11 -3 -19t-1 -16q0 -18 7 -30t22.5 -20t40.5 -11.5t62 -3.5z" />
    <glyph glyph-name="braceright" unicode="}" 
d="M167 750q9 1 20 1.5t25 0.5q89 0 134.5 -31t45.5 -99q0 -14 -1 -26t-4 -27l-19 -96q-4 -17 -4 -34q0 -34 32 -58.5t104 -34.5l-17 -89q-45 -5 -78 -17.5t-54 -29.5t-33.5 -39.5t-17.5 -50.5l-23 -116q-8 -41 -24.5 -72t-44.5 -51.5t-69 -31t-96 -10.5q-15 0 -29.5 0.5
t-23.5 2.5l16 80q46 0 76 6.5t48.5 19t27.5 31t14 43.5l23 117q13 66 51 104.5t110 59.5q-55 14 -78 44t-23 70q0 15 1.5 29t4.5 32l17 91q4 19 4 35q0 17 -7 29.5t-22.5 20.5t-40.5 11.5t-61 3.5z" />
    <glyph glyph-name="bracketleft" unicode="[" 
d="M248 752h299l-16 -83h-193l-145 -747h192l-16 -83h-298z" />
    <glyph glyph-name="bracketright" unicode="]" 
d="M38 -78h192l146 747h-193l16 83h299l-178 -913h-298z" />
    <glyph glyph-name="slash" unicode="/" 
d="M476 738h118l-518 -849h-117z" />
    <glyph glyph-name="backslash" unicode="\" 
d="M148 738h104l201 -849h-104z" />
    <glyph glyph-name="bar" unicode="|" 
d="M313 738h115l-184 -950h-116z" />
    <glyph glyph-name="brokenbar" unicode="&#xa6;" 
d="M313 738h115l-75 -385h-115zM201 164h116l-73 -376h-116z" />
    <glyph glyph-name="ampersand" unicode="&#x26;" 
d="M450 137q16 -23 32.5 -45t37.5 -49l-88 -61q-16 21 -27.5 37t-24.5 35q-29 -27 -73.5 -47.5t-106.5 -20.5q-87 0 -138.5 46t-51.5 129q0 45 14.5 84t38 70.5t53 55.5t60.5 42q-11 31 -18 65t-7 63q0 43 12 81.5t36.5 67.5t64 45.5t94.5 16.5q42 0 72 -10t49 -28t28 -41.5
t9 -50.5q0 -40 -18 -75t-45 -61l-74 55q12 16 19.5 33t7.5 36q0 23 -15.5 38t-45.5 15q-21 0 -37.5 -9.5t-27 -25t-16 -36.5t-5.5 -45q0 -34 10.5 -73.5t28.5 -81t43 -85.5t53 -88q17 36 28 71t22 85h97q-16 -66 -38.5 -127t-52.5 -111zM330 125q-28 41 -60 94t-58 108
q-20 -11 -36.5 -27.5t-28.5 -36t-19 -43t-7 -49.5q0 -46 25 -70.5t71 -24.5q38 0 65.5 14.5t47.5 34.5z" />
    <glyph glyph-name="at" unicode="@" 
d="M394 621q-62 0 -113.5 -37.5t-88 -103.5t-57 -156.5t-20.5 -195.5q0 -47 8 -81.5t25 -56.5t42.5 -33t61.5 -11q27 0 50 4t45 11l7 -83q-26 -8 -56 -13.5t-66 -5.5q-104 0 -159 66t-55 196q0 120 25 226.5t74 187t123.5 127.5t173.5 47q42 0 72 -10.5t49 -29t28 -44.5
t9 -56q0 -14 -1.5 -29.5t-4.5 -34.5l-76 -390h-81l3 49q-24 -23 -52 -40.5t-63 -17.5q-47 0 -76.5 31.5t-29.5 94.5q0 40 12 80t40 71.5t73 51t110 19.5h28l10 47q3 14 4 25t1 23q0 32 -16 52t-59 20zM418 376q-37 0 -61 -11t-38.5 -29t-20.5 -40.5t-6 -45.5q0 -30 11 -43.5
t31 -13.5q19 0 37.5 13.5t42.5 37.5l25 132h-21z" />
    <glyph glyph-name="section" unicode="&#xa7;" 
d="M61 -14q28 -8 61.5 -12t64.5 -4q30 0 50.5 4t33.5 12t18.5 18t5.5 24q0 12 -6.5 22t-20.5 20t-35 21.5t-50 25.5q-37 19 -62.5 36.5t-41 35.5t-21.5 38t-6 46q0 51 32 88.5t83 62.5q-10 15 -16 32t-6 42q0 35 14.5 64t43.5 50.5t73.5 33.5t104.5 12q37 0 74.5 -5.5
t65.5 -13.5l-25 -90q-28 8 -61.5 12.5t-64.5 4.5q-30 0 -50.5 -4.5t-33.5 -12t-19 -18.5t-6 -23q0 -13 7 -23t21 -20t35 -21t50 -26q37 -19 62.5 -36.5t41 -35t21.5 -38.5t6 -46q0 -49 -30 -86.5t-85 -65.5q10 -14 16 -31.5t6 -42.5q0 -34 -14.5 -63t-43.5 -50.5t-73.5 -34
t-104.5 -12.5q-37 0 -74.5 5.5t-65.5 14.5zM388 245q0 12 -5 22t-16.5 21t-32 23t-52.5 28q-13 7 -24.5 14t-22.5 15q-33 -14 -49.5 -33.5t-16.5 -44.5q0 -11 5 -21.5t16.5 -21t32 -23t52.5 -27.5q14 -9 25.5 -16t21.5 -14q33 15 49.5 34.5t16.5 43.5z" />
    <glyph glyph-name="dagger" unicode="&#x2020;" 
d="M243 383h-157l17 88h157l33 174h117l-33 -174h158l-17 -88h-158l-74 -383h-117z" />
    <glyph glyph-name="daggerdbl" unicode="&#x2021;" 
d="M198 155h-157l17 88h157l31 158h-157l17 88h157l30 156h117l-30 -156h158l-17 -88h-157l-31 -158h157l-17 -88h-158l-29 -155h-117z" />
    <glyph glyph-name="asterisk" unicode="*" 
d="M278 376l-176 -114l-37 85l202 68l-176 78l56 83l145 -122l6 191h109l-70 -192l176 114l36 -85l-201 -68l175 -78l-55 -83l-145 122l-6 -191h-110z" />
    <glyph glyph-name="uni2117" unicode="&#x2117;" 
d="M215 509h113q60 0 87 -23t27 -68q0 -35 -10 -64t-30.5 -51t-50.5 -34t-71 -12h-29l-25 -128h-85zM281 321q39 0 56 25t17 64q0 19 -10.5 26t-31.5 7h-25l-23 -122h17zM568 434q0 -84 -19.5 -164.5t-60.5 -143t-105 -101t-153 -38.5q-47 0 -87 13.5t-69.5 41t-45.5 70
t-16 100.5q0 84 19.5 164t60.5 142.5t104.5 101t152.5 38.5q48 0 88 -13t69.5 -40.5t45.5 -70t16 -100.5zM484 430q0 75 -35 113.5t-107 38.5q-67 0 -114 -32.5t-76.5 -85t-42.5 -118t-13 -131.5q0 -74 35 -113t107 -39q67 0 114 33t76.5 85.5t42.5 117.5t13 131z" />
    <glyph glyph-name="copyright" unicode="&#xa9;" 
d="M356 145q-22 -8 -44.5 -12.5t-46.5 -4.5q-62 0 -90 31.5t-28 91.5q0 34 7.5 79.5t28 87t58 70.5t98.5 29q24 0 45 -4t38 -11l-19 -73q-31 12 -62 12q-34 0 -54 -20t-31.5 -48t-15.5 -58t-4 -50q0 -35 12.5 -48t41.5 -13q17 0 32.5 3.5t33.5 9.5v-72zM568 434
q0 -84 -19.5 -164.5t-60.5 -143t-105 -101t-153 -38.5q-47 0 -87 13.5t-69.5 41t-45.5 70t-16 100.5q0 84 19.5 164t60.5 142.5t104.5 101t152.5 38.5q48 0 88 -13t69.5 -40.5t45.5 -70t16 -100.5zM484 430q0 75 -35 113.5t-107 38.5q-67 0 -114 -32.5t-76.5 -85t-42.5 -118
t-13 -131.5q0 -74 35 -113t107 -39q67 0 114 33t76.5 85.5t42.5 117.5t13 131z" />
    <glyph glyph-name="registered" unicode="&#xae;" 
d="M524 568q0 -42 -14 -82.5t-42 -72t-71 -51t-100 -19.5q-77 0 -120 38t-43 103q0 42 14 82.5t42 72t71.5 51t100.5 19.5q75 0 118.5 -38t43.5 -103zM469 566q0 45 -27 70.5t-86 25.5q-46 0 -78 -14.5t-51.5 -39.5t-28.5 -56.5t-9 -65.5q0 -45 27 -70.5t86 -25.5
q46 0 78 14.5t52 39.5t28.5 56.5t8.5 65.5zM274 627h75q42 0 59 -13.5t17 -38.5q0 -27 -17.5 -43.5t-41.5 -22.5l31 -82h-53l-28 78h-17l-14 -78h-50zM331 539q24 0 32.5 10t8.5 23q0 9 -6 13.5t-24 4.5h-26l-9 -51h24z" />
    <glyph glyph-name="trademark" unicode="&#x2122;" 
d="M149 640h-65l11 55h189l-11 -55h-60l-57 -292h-65zM316 695h93l7 -154l2 -76l32 77l65 153h101l-56 -347h-64l36 211l18 87l-37 -87l-63 -141h-79l-8 141l-4 87l-16 -87l-46 -211h-61z" />
    <glyph glyph-name="servicemark" unicode="&#x2120;" 
d="M43 404q13 -5 27 -8t31 -3q27 0 43.5 14t16.5 36q0 8 -1 14.5t-5.5 13.5t-12 15t-20.5 19q-28 24 -38.5 44t-10.5 44q0 50 31 78.5t89 28.5q20 0 37 -2.5t30 -7.5l-12 -50q-12 5 -26 7.5t-28 2.5q-28 0 -42 -12t-14 -32q0 -8 1.5 -14.5t5.5 -13t11.5 -14t20.5 -16.5
q27 -23 37.5 -43.5t10.5 -47.5q0 -24 -7.5 -45t-23 -36t-39 -24t-54.5 -9q-20 0 -38 3.5t-33 8.5zM315 695h94l7 -154l2 -76l32 77l65 153h101l-56 -347h-64l36 211l18 87l-37 -87l-63 -141h-79l-8 141l-4 87l-16 -87l-46 -211h-61z" />
    <glyph glyph-name="ordfeminine" unicode="&#xaa;" 
d="M117 234h325l-15 -75h-325zM378 345q-25 -23 -59 -39.5t-73 -16.5q-48 0 -79 30t-31 88q0 51 14 97t40.5 80t65.5 53.5t87 19.5q29 0 53 -7.5t40 -17.5l7 17h72l-68 -351h-72zM412 567q-13 9 -30 15.5t-37 6.5q-29 0 -51.5 -14t-37.5 -38t-23 -54.5t-8 -62.5
q0 -30 13.5 -44.5t38.5 -14.5q27 0 56.5 20t50.5 49z" />
    <glyph glyph-name="ordmasculine" unicode="&#xba;" 
d="M113 234h319l-15 -75h-318zM505 537q0 -15 -1.5 -30t-5.5 -35q-10 -50 -28.5 -85.5t-46 -58.5t-62.5 -33.5t-77 -10.5q-74 0 -113 30t-39 93q0 14 1 28.5t5 34.5q10 51 29 86.5t46.5 58t62 32.5t77.5 10q74 0 113 -28.5t39 -91.5zM415 527q0 35 -19 48t-52 13
q-22 0 -40 -5t-33 -19t-26 -36.5t-18 -57.5q-3 -14 -4.5 -27.5t-1.5 -26.5q0 -35 19 -49t52 -14q22 0 40 5.5t33 19.5t26 37t18 57q3 15 4.5 28.5t1.5 26.5z" />
    <glyph glyph-name="uni2116" unicode="&#x2116;" 
d="M92 645h101l22 -379q1 -38 1.5 -71.5t-0.5 -81.5l4 1q2 24 4.5 44t4.5 38t4.5 35.5t6.5 37.5l73 376h69l-125 -645h-100l-22 379q-1 38 -1.5 71.5t-0.5 82.5l-4 -1q-3 -25 -5 -44.5t-4 -38t-4.5 -36t-6.5 -37.5l-72 -376h-70zM596 565q0 -33 -9 -81t-20.5 -80t-27 -51.5
t-36.5 -27.5t-47 -8q-39 0 -59 19t-20 65q0 33 9 81t20.5 80t27 51.5t36 27.5t46.5 8q40 0 60 -19t20 -65zM533 563q0 19 -6.5 25.5t-17.5 6.5q-10 0 -17.5 -4t-14 -16t-13 -34t-13.5 -59q-5 -28 -8 -46.5t-3 -32.5q0 -19 6 -25t17 -6q10 0 18 4t14 15.5t12.5 34t14.5 58.5
q5 28 8 46.5t3 32.5zM360 284h175l-10 -56h-175z" />
    <glyph glyph-name="paragraph" unicode="&#xb6;" 
d="M230 216q-88 3 -125.5 37.5t-37.5 105.5q0 25 4.5 55.5t10.5 61.5q12 65 31 107t49.5 67t74.5 35t109 10h273l-11 -62h-73l-154 -794h-75l154 794h-73l-155 -794h-75z" />
    <glyph glyph-name="numbersign" unicode="#" 
d="M303 168h-137l-61 -168h-75l61 168h-92l14 66h100l65 176h-96l14 67h103l61 168h76l-62 -168h137l61 168h74l-61 -168h95l-13 -67h-104l-64 -176h97l-13 -66h-106l-61 -168h-75zM188 234h136l65 176h-137z" />
    <glyph glyph-name="zero" unicode="0" 
d="M544 480q0 -18 -1 -35.5t-3.5 -37t-6 -41t-8.5 -47.5q-20 -105 -48 -170t-65 -101.5t-83 -49t-103 -12.5q-97 0 -144 43t-47 137q0 35 4 71.5t15 88.5q20 105 48 170.5t65 101.5t83 48.5t103 12.5q97 0 144 -43t47 -136zM401 563q-11 6 -26.5 9.5t-35.5 3.5
q-30 0 -56 -8.5t-49 -35t-42 -76.5t-34 -133q-8 -44 -13 -80.5t-5 -66.5q0 -5 -0.5 -9t-0.5 -11zM178 82q11 -6 26.5 -9.5t35.5 -3.5q30 0 56 8t49 35t42 76.5t34 133.5q8 44 13 81t5 66v9t1 11z" />
    <glyph glyph-name="one" unicode="1" 
d="M28 97h184l82 420l-165 -81l-31 74l241 135h98l-107 -548h144l-19 -97h-445z" />
    <glyph glyph-name="two" unicode="2" 
d="M19 84l206 183q40 34 72 64.5t55 57.5t35.5 53t12.5 53q0 35 -23.5 53.5t-78.5 18.5q-36 0 -74.5 -6t-71.5 -16l-9 87q42 11 92 19t99 8q51 0 87.5 -9.5t60.5 -27.5t35 -45.5t11 -61.5q0 -41 -14.5 -78t-41 -72t-65 -70.5t-84.5 -73.5l-143 -121h274l-20 -100h-431z" />
    <glyph glyph-name="three" unicode="3" 
d="M28 97q32 -8 70.5 -13t76.5 -5q42 0 75.5 9t57 25t36 38.5t12.5 49.5q0 22 -7.5 39.5t-29 29t-61 17t-104.5 5.5l18 90q55 0 97.5 8.5t71 24t43.5 36.5t15 47q0 32 -22.5 49.5t-77.5 17.5q-35 0 -72 -4.5t-74 -15.5l-9 86q46 13 94 19.5t95 6.5q96 0 141 -35.5t45 -101.5
q0 -37 -15 -66t-38.5 -51t-52 -36.5t-55.5 -21.5q58 -13 88.5 -47.5t30.5 -93.5q0 -50 -21 -90t-60.5 -68.5t-94.5 -43.5t-122 -15q-44 0 -89.5 5t-81.5 13z" />
    <glyph glyph-name="four" unicode="4" 
d="M310 147h-291l19 99l314 399h162l-76 -398h74l-20 -100h-75l-28 -147h-107zM330 247l58 302l-242 -302h184z" />
    <glyph glyph-name="five" unicode="5" 
d="M536 645l-20 -100h-262l-31 -162q23 3 42 4.5t37 1.5q96 0 140 -41t44 -120q0 -63 -23 -108.5t-64 -75t-97.5 -43.5t-123.5 -14q-39 0 -80.5 4.5t-76.5 12.5l20 91q33 -7 72 -11.5t75 -4.5q39 0 72 8t56.5 24t37 40.5t13.5 58.5q0 43 -27 65t-97 22q-32 0 -66 -3t-70 -8
l69 359h360z" />
    <glyph glyph-name="six" unicode="6" 
d="M518 552q-26 6 -54.5 9.5t-58.5 3.5q-47 0 -80.5 -13t-57.5 -39.5t-39.5 -66.5t-27.5 -94q31 18 66 28.5t72 10.5q79 0 118.5 -39.5t39.5 -112.5q0 -61 -20.5 -108.5t-55.5 -79.5t-82.5 -48.5t-100.5 -16.5q-43 0 -76 10.5t-56.5 32t-36 54t-12.5 75.5q0 28 3.5 56.5
t8.5 59.5q20 107 47.5 180.5t68 118.5t95.5 64.5t131 19.5q35 0 69.5 -4t61.5 -12zM378 223q0 37 -19.5 57t-58.5 20q-29 0 -59.5 -11.5t-58.5 -30.5q-6 -25 -9 -47t-3 -43q0 -46 19 -68.5t61 -22.5q29 0 53 12t40.5 32t25.5 46.5t9 55.5z" />
    <glyph glyph-name="seven" unicode="7" 
d="M98 0q44 76 84.5 145t80.5 135.5t80 131.5t84 133h-311l19 100h438l-16 -85q-46 -72 -88 -141t-83 -137.5t-80 -138t-81 -143.5h-127z" />
    <glyph glyph-name="eight" unicode="8" 
d="M489 188q0 -41 -16 -77.5t-48 -64.5t-79 -44t-110 -16q-46 0 -83 11.5t-62.5 32.5t-39 49t-13.5 62q0 39 14 69.5t37 54t53.5 41t64.5 31.5q-40 26 -61 59.5t-21 77.5q0 40 14.5 73.5t44 58.5t72.5 39t100 14q45 0 79.5 -11t57.5 -30t34 -44t11 -53q0 -35 -12 -63.5
t-33 -50.5t-48 -39.5t-57 -31.5q50 -25 75.5 -63t25.5 -85zM313 387q23 11 43 22.5t34 25.5t22 30.5t8 36.5q0 29 -19.5 47.5t-60.5 18.5q-23 0 -41 -6.5t-31 -18t-20 -26.5t-7 -33q0 -30 16.5 -52.5t55.5 -44.5zM282 286q-24 -11 -47 -23t-39.5 -28t-27 -34.5t-10.5 -42.5
q0 -40 26.5 -60.5t69.5 -20.5q30 0 52 8.5t37.5 23t22.5 33t7 37.5q0 33 -21.5 59t-69.5 48z" />
    <glyph glyph-name="nine" unicode="9" 
d="M39 98q30 -10 65 -14.5t66 -4.5q49 0 83 13t58 39.5t39.5 66.5t28.5 94q-31 -17 -66 -28t-72 -11q-80 0 -119 40t-39 112q0 62 20.5 109t55.5 79.5t82.5 48.5t100.5 16q43 0 76 -10.5t56.5 -32t36 -53.5t12.5 -75q0 -28 -3.5 -56.5t-8.5 -60.5q-20 -107 -47.5 -180.5
t-69 -118t-98.5 -64.5t-136 -20q-17 0 -36 1.5t-37.5 3.5t-36.5 5.5t-33 8.5zM201 421q0 -37 19.5 -56.5t58.5 -19.5q29 0 59.5 11t58.5 31q6 25 9 46.5t3 43.5q0 46 -19 68t-61 22q-28 0 -52 -11.5t-41 -32t-26 -47t-9 -55.5z" />
    <glyph glyph-name="currency" unicode="&#xa4;" 
d="M94 204q-5 13 -8 30.5t-3 36.5q0 59 16.5 106.5t39.5 79.5l-67 93l72 56l64 -86q24 15 53 25t69 10q37 0 63.5 -10t43.5 -23l83 75l55 -64l-87 -80q5 -14 8 -31.5t3 -33.5q0 -59 -17 -107t-39 -81l67 -93l-73 -57l-64 87q-23 -13 -52.5 -23.5t-66.5 -10.5q-36 0 -62 8.5
t-45 24.5l-85 -77l-56 64zM405 376q0 49 -22.5 72t-66.5 23q-32 0 -57.5 -14t-43.5 -38.5t-28 -59.5t-10 -77q0 -50 23.5 -72.5t66.5 -22.5q31 0 57 13.5t43.5 38.5t27.5 59.5t10 77.5z" />
    <glyph glyph-name="dollar" unicode="$" 
d="M110 -7q-27 3 -51 8.5t-44 12.5l24 90q26 -8 53 -13.5t58 -10.5l92 214q-36 18 -62.5 35.5t-43 37t-24.5 43t-8 52.5q0 44 17.5 80.5t52 62.5t85.5 40t117 14h21l43 98h83l-46 -105q20 -2 39 -6.5t36 -9.5l-27 -90q-22 6 -43 10.5t-44 7.5l-86 -199q37 -18 63.5 -35.5
t42.5 -38t23.5 -45t7.5 -54.5q0 -46 -18 -83.5t-53.5 -65t-88 -42.5t-120.5 -15h-19l-41 -97h-84zM227 76h7q34 0 60.5 7t45 20.5t28 31t9.5 38.5q0 13 -4 24.5t-12 22.5t-21.5 21t-33.5 20zM360 569h-9q-33 0 -58 -6.5t-42 -17.5t-25.5 -27.5t-8.5 -36.5q0 -14 4.5 -25.5
t13.5 -21t22 -18.5t30 -18z" />
    <glyph glyph-name="Euro" unicode="&#x20ac;" 
d="M47 286h67q2 16 6 37.5t9 37.5h-67l15 81h73q22 67 52.5 109t69.5 65.5t86 32t104 8.5q38 0 72.5 -4t61.5 -12l-27 -91q-24 6 -52 10.5t-64 4.5q-31 0 -58 -4.5t-50 -17.5t-42 -37t-33 -64h201l-15 -81h-211q-5 -17 -8.5 -37.5t-6.5 -37.5h211l-16 -81h-200q-1 -6 -1 -11
v-10q0 -26 7 -46t22.5 -32.5t40.5 -19t60 -6.5q36 0 66.5 4.5t57.5 12.5l3 -90q-31 -8 -69 -13.5t-80 -5.5q-68 0 -111.5 13.5t-69 39.5t-35.5 61.5t-10 81.5v9.5t1 11.5h-76z" />
    <glyph glyph-name="cent" unicode="&#xa2;" 
d="M224 92q-80 13 -114 53t-34 111q0 19 2 35t6 36q11 60 34.5 104.5t61 73t89.5 42t121 13.5l34 95h80l-36 -100q20 -3 37.5 -6.5t32.5 -8.5l-25 -90q-16 5 -35.5 9t-42.5 6l-100 -284q29 0 61.5 5t61.5 12l3 -89q-16 -5 -36.5 -9t-41.5 -7t-42.5 -4.5t-39.5 -1.5l-34 -97
h-79zM357 467q-32 -2 -57.5 -10t-45.5 -24.5t-33.5 -42.5t-19.5 -63q-3 -13 -4.5 -25t-1.5 -26q0 -38 14 -59t49 -30z" />
    <glyph glyph-name="sterling" unicode="&#xa3;" 
d="M289 288q-7 -56 -30 -104t-56 -88h262l-18 -96h-446l19 96h61q36 42 60 90.5t32 101.5h-91l19 93h74q0 22 -2.5 41t-2.5 39q0 48 16.5 84.5t49 61.5t79 37.5t106.5 12.5q42 0 79.5 -4t63.5 -10l-21 -91q-28 6 -61.5 9.5t-66.5 3.5q-30 0 -54 -6.5t-40.5 -19.5
t-25.5 -32.5t-9 -46.5q0 -19 1.5 -38t2.5 -41h192l-18 -93h-175z" />
    <glyph glyph-name="yen" unicode="&#xa5;" 
d="M184 83h-143l16 81h143l13 68h-143l15 80h125l-93 333h121l38 -136q3 -18 7 -32.5t7 -28.5t6 -28.5t6 -31.5h1q10 18 18.5 32.5t16.5 28t16.5 28t18.5 32.5l86 136h128l-221 -333h124l-15 -80h-143l-13 -68h143l-16 -81h-143l-16 -83h-118z" />
    <glyph glyph-name="florin" unicode="&#x192;" 
d="M218 400l13 75q9 52 27 87t45 56t62.5 30t81.5 9q33 0 63 -4.5t54 -11.5l-24 -88q-20 5 -42.5 9t-44.5 4q-21 0 -38 -5t-29.5 -16t-21.5 -29t-13 -44l-15 -72h156l-17 -87h-155l-51 -253q-11 -52 -28 -87.5t-42 -57.5t-59 -31t-77 -9q-27 0 -53.5 4t-49.5 11l24 89
q17 -5 35.5 -8t39.5 -3q16 0 30.5 4.5t26 15.5t20 30t14.5 47l51 248h-131l16 87h132z" />
    <glyph glyph-name="zero.inferior" unicode="&#x2080;" 
d="M436 232q0 -12 -1 -27t-4 -32q-9 -52 -26.5 -87t-43.5 -56t-59.5 -30t-74.5 -9q-68 0 -105.5 31t-37.5 94q0 12 1.5 27t4.5 32q9 52 26.5 87t43.5 56t59.5 30t75.5 9q67 0 104 -31t37 -94zM313 297q-6 1 -12 1.5t-16 0.5q-20 0 -38 -5.5t-32.5 -19t-25.5 -37.5t-18 -62
q-2 -12 -4 -25t-2 -27q0 -10 1 -19.5t3 -20.5zM208 51q5 -1 11.5 -1.5t15.5 -0.5q21 0 39 5.5t32.5 19t25 37.5t18.5 62q2 12 4 25t2 27q0 10 -1 19.5t-3 20.5z" />
    <glyph glyph-name="one.inferior" unicode="&#x2081;" 
d="M95 71h115l37 190l-105 -29l-14 61l151 55h76l-54 -277h103l-13 -71h-310z" />
    <glyph glyph-name="two.inferior" unicode="&#x2082;" 
d="M102 70l100 71q23 15 41 28t31 25.5t20 24.5t7 25q0 17 -12.5 26.5t-41.5 9.5q-20 0 -40.5 -2.5t-41.5 -7.5l-2 70q56 14 120 14t95.5 -22.5t31.5 -63.5q0 -23 -8 -42.5t-23 -37t-37.5 -34.5t-50.5 -34l-68 -45h158l-14 -75h-279z" />
    <glyph glyph-name="three.inferior" unicode="&#x2083;" 
d="M107 70q20 -5 43.5 -7t43.5 -2q49 0 74.5 12t25.5 35q0 10 -5.5 17t-19.5 11.5t-37.5 7.5t-60.5 3l13 64q38 0 63.5 4t40.5 10.5t20.5 14.5t5.5 18q0 15 -14 22t-47 7q-21 0 -43 -3t-44 -8l-2 65q29 6 58 9.5t54 3.5q75 0 105.5 -22t30.5 -60q0 -18 -7 -32.5t-19 -26
t-29 -19.5t-36 -12q36 -7 53.5 -25.5t17.5 -47.5q0 -52 -48 -83.5t-140 -31.5q-28 0 -57 2t-54 7z" />
    <glyph glyph-name="four.inferior" unicode="&#x2084;" 
d="M86 143l188 205h131l-40 -209h62l-14 -75h-62l-13 -64h-89l13 64h-191zM276 139l28 142l-133 -142h105z" />
    <glyph glyph-name="five.inferior" unicode="&#x2085;" 
d="M417 348l-13 -68h-163l-13 -70q13 2 23 2.5t23 0.5q60 0 89 -22.5t29 -68.5q0 -31 -14 -55t-40 -40t-62.5 -24.5t-82.5 -8.5q-28 0 -53 2t-50 7l12 66q21 -4 43.5 -6t42.5 -2q50 0 75.5 13t25.5 39q0 18 -15.5 27t-54.5 9q-20 0 -39 -1t-44 -3l39 203h242z" />
    <glyph glyph-name="six.inferior" unicode="&#x2086;" 
d="M405 278q-20 5 -44.5 7t-44.5 2q-30 0 -49 -5.5t-32 -16.5t-20 -27t-13 -36q20 7 41 11.5t44 4.5q56 0 86 -23.5t30 -68.5q0 -31 -13.5 -56t-36 -42.5t-54.5 -27t-69 -9.5q-61 0 -96 28t-35 83q0 13 1 24.5t3 25.5q9 50 24 88t41 63t64.5 38t95.5 13q25 0 49.5 -2
t42.5 -7zM313 118q0 21 -14.5 30t-40.5 9q-15 0 -32 -4t-34 -11q-3 -11 -4.5 -20t-1.5 -19q0 -26 14.5 -36.5t39.5 -10.5q14 0 27.5 4t23.5 12t16 19.5t6 26.5z" />
    <glyph glyph-name="seven.inferior" unicode="&#x2087;" 
d="M150 348h292l-13 -71q-30 -37 -56 -70.5t-51 -67t-49.5 -68t-49.5 -71.5h-105q28 41 55 77t52 69t50.5 64.5t51.5 62.5h-191z" />
    <glyph glyph-name="eight.inferior" unicode="&#x2088;" 
d="M398 102q0 -52 -44 -81.5t-118 -29.5q-73 0 -108 25.5t-35 65.5q0 19 7.5 34t20 27t29 21.5t33.5 16.5q-48 25 -48 73q0 25 12.5 44t33 32.5t49 20t62.5 6.5q64 0 97.5 -24t33.5 -60q0 -34 -23.5 -56.5t-58.5 -36.5q25 -12 41 -31.5t16 -46.5zM273 207q31 10 48.5 23
t17.5 32q0 15 -14 25.5t-42 10.5q-27 0 -45 -10.5t-18 -29.5q0 -16 12.5 -27t40.5 -24zM248 150q-29 -10 -49 -23.5t-20 -35.5q0 -18 17 -29t45 -11q35 0 52.5 13.5t17.5 32.5q0 17 -15 29t-48 24z" />
    <glyph glyph-name="nine.inferior" unicode="&#x2089;" 
d="M105 72q23 -5 49.5 -8t51.5 -3q29 0 48.5 5.5t32 16.5t20 27t13.5 36q-20 -7 -40.5 -11.5t-43.5 -4.5q-56 0 -86 23.5t-30 68.5q0 31 13 56t36 42.5t54.5 27t68.5 9.5q62 0 96.5 -28t34.5 -83q0 -13 -1 -24.5t-3 -25.5q-9 -50 -24 -88t-40.5 -63t-65 -38t-96.5 -13
q-26 0 -53.5 3t-51.5 8zM210 230q0 -21 14 -30t39 -9q16 0 33.5 4t34.5 11q3 11 4.5 20t1.5 19q0 26 -15 36.5t-40 10.5q-14 0 -27.5 -4t-23.5 -12t-15.5 -19.5t-5.5 -26.5z" />
    <glyph glyph-name="zero.superior" unicode="&#x2070;" 
d="M503 580q0 -12 -1 -27t-4 -32q-9 -52 -26.5 -87t-43.5 -56t-59.5 -30t-74.5 -9q-68 0 -105.5 31t-37.5 94q0 12 1.5 27t4.5 32q9 52 26.5 87t43.5 56t59.5 30t75.5 9q67 0 104 -31t37 -94zM380 645q-6 1 -12 1.5t-16 0.5q-20 0 -38 -5.5t-32.5 -19t-25.5 -37.5t-18 -62
q-2 -12 -4 -25t-2 -27q0 -10 1 -19.5t3 -20.5zM275 399q5 -1 11.5 -1.5t15.5 -0.5q21 0 39 5.5t32.5 19t25 37.5t18.5 62q2 12 4 25t2 27q0 10 -1 19.5t-3 20.5z" />
    <glyph glyph-name="one.superior" unicode="&#xb9;" 
d="M162 419h115l37 190l-105 -29l-14 61l151 55h76l-54 -277h103l-13 -71h-310z" />
    <glyph glyph-name="two.superior" unicode="&#xb2;" 
d="M169 418l100 71q23 15 41 28t31 25.5t20 24.5t7 25q0 17 -12.5 26.5t-41.5 9.5q-20 0 -40.5 -2.5t-41.5 -7.5l-2 70q56 14 120 14t95.5 -22.5t31.5 -63.5q0 -23 -8 -42.5t-23 -37t-37.5 -34.5t-50.5 -34l-68 -45h158l-14 -75h-279z" />
    <glyph glyph-name="three.superior" unicode="&#xb3;" 
d="M175 418q20 -5 43.5 -7t43.5 -2q49 0 74.5 12t25.5 35q0 10 -5.5 17t-19.5 11.5t-37.5 7.5t-60.5 3l13 64q38 0 63.5 4t40.5 10.5t20.5 14.5t5.5 18q0 15 -14 22t-47 7q-21 0 -43 -3t-44 -8l-2 65q29 6 58 9.5t54 3.5q75 0 105.5 -22t30.5 -60q0 -18 -7 -32.5t-19 -26
t-29 -19.5t-36 -12q36 -7 53.5 -25.5t17.5 -47.5q0 -52 -48 -83.5t-140 -31.5q-28 0 -57 2t-54 7z" />
    <glyph glyph-name="four.superior" unicode="&#x2074;" 
d="M154 491l188 205h131l-40 -209h62l-14 -75h-62l-13 -64h-89l13 64h-191zM344 487l28 142l-133 -142h105z" />
    <glyph glyph-name="five.superior" unicode="&#x2075;" 
d="M485 696l-13 -68h-163l-13 -70q13 2 23 2.5t23 0.5q60 0 89 -22.5t29 -68.5q0 -31 -14 -55t-40 -40t-62.5 -24.5t-82.5 -8.5q-28 0 -53 2t-50 7l12 66q21 -4 43.5 -6t42.5 -2q50 0 75.5 13t25.5 39q0 18 -15.5 27t-54.5 9q-20 0 -39 -1t-44 -3l39 203h242z" />
    <glyph glyph-name="six.superior" unicode="&#x2076;" 
d="M472 626q-20 5 -44.5 7t-44.5 2q-30 0 -49 -5.5t-32 -16.5t-20 -27t-13 -36q20 7 41 11.5t44 4.5q56 0 86 -23.5t30 -68.5q0 -31 -13.5 -56t-36 -42.5t-54.5 -27t-69 -9.5q-61 0 -96 28t-35 83q0 13 1 24.5t3 25.5q9 50 24 88t41 63t64.5 38t95.5 13q25 0 49.5 -2
t42.5 -7zM380 466q0 21 -14.5 30t-40.5 9q-15 0 -32 -4t-34 -11q-3 -11 -4.5 -20t-1.5 -19q0 -26 14.5 -36.5t39.5 -10.5q14 0 27.5 4t23.5 12t16 19.5t6 26.5z" />
    <glyph glyph-name="seven.superior" unicode="&#x2077;" 
d="M218 696h292l-13 -71q-30 -37 -56 -70.5t-51 -67t-49.5 -68t-49.5 -71.5h-105q28 41 55 77t52 69t50.5 64.5t51.5 62.5h-191z" />
    <glyph glyph-name="eight.superior" unicode="&#x2078;" 
d="M465 450q0 -52 -44 -81.5t-118 -29.5q-73 0 -108 25.5t-35 65.5q0 19 7.5 34t20 27t29 21.5t33.5 16.5q-48 25 -48 73q0 25 12.5 44t33 32.5t49 20t62.5 6.5q64 0 97.5 -24t33.5 -60q0 -34 -23.5 -56.5t-58.5 -36.5q25 -12 41 -31.5t16 -46.5zM340 555q31 10 48.5 23
t17.5 32q0 15 -14 25.5t-42 10.5q-27 0 -45 -10.5t-18 -29.5q0 -16 12.5 -27t40.5 -24zM315 498q-29 -10 -49 -23.5t-20 -35.5q0 -18 17 -29t45 -11q35 0 52.5 13.5t17.5 32.5q0 17 -15 29t-48 24z" />
    <glyph glyph-name="nine.superior" unicode="&#x2079;" 
d="M172 420q23 -5 49.5 -8t51.5 -3q29 0 48.5 5.5t32 16.5t20 27t13.5 36q-20 -7 -40.5 -11.5t-43.5 -4.5q-56 0 -86 23.5t-30 68.5q0 31 13 56t36 42.5t54.5 27t68.5 9.5q62 0 96.5 -28t34.5 -83q0 -13 -1 -24.5t-3 -25.5q-9 -50 -24 -88t-40.5 -63t-65 -38t-96.5 -13
q-26 0 -53.5 3t-51.5 8zM277 578q0 -21 14 -30t39 -9q16 0 33.5 4t34.5 11q3 11 4.5 20t1.5 19q0 26 -15 36.5t-40 10.5q-14 0 -27.5 -4t-23.5 -12t-15.5 -19.5t-5.5 -26.5z" />
    <glyph glyph-name="zero.frac" 
d="M379 226q0 -17 -2.5 -35t-6.5 -37q-9 -48 -22 -79t-30.5 -49.5t-40 -26t-49.5 -7.5q-44 0 -67 23t-23 72q0 17 2 35t6 37q9 48 22.5 79t30.5 49.5t39.5 26t50.5 7.5q44 0 67 -23t23 -72zM308 222q0 22 -7.5 31.5t-20.5 9.5q-10 0 -18.5 -4.5t-16 -16t-14 -32t-13.5 -52.5
q-4 -19 -6.5 -37.5t-2.5 -29.5q0 -22 7 -31.5t21 -9.5q9 0 17.5 4.5t16.5 16t14.5 32t13.5 52.5q4 19 6.5 37.5t2.5 29.5z" />
    <glyph glyph-name="one.frac" 
d="M267 227l-52 -28l-23 49l105 65h71l-60 -313h-85z" />
    <glyph glyph-name="two.frac" 
d="M142 68l62 59q31 30 47.5 52t16.5 45q0 27 -31 27q-11 0 -22.5 -2t-23.5 -7l2 64q20 6 42 9.5t44 3.5q45 0 67 -19.5t22 -56.5t-24 -69.5t-59 -63.5l-47 -40h99l-13 -70h-194z" />
    <glyph glyph-name="three.frac" 
d="M146 62q23 -6 47 -6q27 0 43 11.5t16 31.5q0 17 -15 25t-50 8l12 59q39 0 57 11.5t18 30.5q0 24 -33 24q-11 0 -23 -1.5t-26 -6.5l1 60q19 5 39 7.5t38 2.5q49 0 71.5 -19.5t22.5 -48.5q0 -16 -5.5 -29t-14.5 -24t-21.5 -19t-26.5 -13q23 -7 34.5 -23.5t11.5 -41.5
q0 -46 -35 -76.5t-98 -30.5q-20 0 -40 2t-36 6z" />
    <glyph glyph-name="four.frac" 
d="M125 125l133 188h118l-39 -198h31l-12 -61h-30l-10 -54h-78l10 54h-137zM260 115l28 143l-102 -143h74z" />
    <glyph glyph-name="five.frac" 
d="M373 313l-12 -63h-103l-11 -59q6 1 11.5 1.5t11.5 0.5q37 0 57.5 -21t20.5 -60q0 -52 -37.5 -85t-106.5 -33q-19 0 -39 2t-36 6l13 60q24 -6 54 -6q32 0 47 13t15 35q0 30 -40 30q-13 0 -25.5 -1.5t-26.5 -3.5l35 184h172z" />
    <glyph glyph-name="six.frac" 
d="M367 251q-14 3 -29 5t-29 2q-22 0 -36 -5.5t-23 -15.5t-13.5 -23.5t-8.5 -29.5q15 7 28.5 10t28.5 3q35 0 55 -19.5t20 -58.5q0 -28 -9 -51.5t-26 -40t-40.5 -26t-53.5 -9.5q-49 0 -71 25t-22 74q0 11 1.5 23t3.5 26q9 45 21 78.5t31.5 55.5t48 33.5t68.5 11.5
q39 0 67 -7zM285 111q0 30 -28 30q-10 0 -19 -2t-19 -8q-2 -9 -5 -22t-3 -23q0 -18 7.5 -27t20.5 -9q18 0 32 17.5t14 43.5z" />
    <glyph glyph-name="seven.frac" 
d="M183 313h214l-12 -65q-22 -33 -41 -63.5t-36.5 -60t-35.5 -60t-36 -64.5h-88q21 36 39.5 68.5t36.5 62t36 57.5l36 56h-127z" />
    <glyph glyph-name="eight.frac" 
d="M356 92q-1 -45 -34 -72.5t-88 -27.5q-52 0 -77 23t-25 58q0 16 6 30t15 25t21 20t25 16q-15 11 -23 26t-8 35q0 23 9 41.5t24.5 30.5t36.5 18t46 6q50 0 72.5 -20.5t22.5 -53.5q0 -31 -19.5 -52.5t-41.5 -32.5q17 -11 27.5 -28.5t10.5 -41.5zM270 188q15 8 26.5 22
t11.5 30q0 13 -7.5 21t-23.5 8t-27.5 -10.5t-11.5 -28.5q0 -13 7 -22.5t25 -19.5zM248 134q-18 -11 -31 -24.5t-13 -30.5t10 -25t25 -8q18 0 30.5 11.5t12.5 30.5q0 29 -34 46z" />
    <glyph glyph-name="nine.frac" 
d="M142 62q13 -4 29 -6t33 -2q24 0 39 5.5t24 15.5t14.5 23.5t8.5 29.5q-14 -7 -28 -10t-29 -3q-35 0 -55 19.5t-20 57.5q0 29 9 52.5t25.5 40t41 26t53.5 9.5q48 0 71 -25.5t23 -73.5q0 -11 -1.5 -23t-4.5 -26q-8 -45 -20.5 -78.5t-32.5 -56t-49.5 -33.5t-71.5 -11
q-21 0 -39 2t-33 6zM233 201q0 -30 29 -30q8 0 17.5 1.5t20.5 8.5q2 9 4.5 22t2.5 23q0 18 -7.5 27t-20.5 9q-19 0 -32.5 -17.5t-13.5 -43.5z" />
    <glyph glyph-name="fraction" unicode="&#x2044;" 
d="M500 669l51 -34l-491 -659l-51 34z" />
    <glyph glyph-name="onehalf" unicode="&#xbd;" 
d="M500 669l51 -34l-491 -659l-51 34zM165 559l-52 -28l-23 49l105 65h71l-60 -313h-85zM294 68l62 59q31 30 47.5 52t16.5 45q0 27 -31 27q-11 0 -22.5 -2t-23.5 -7l2 64q20 6 42 9.5t44 3.5q45 0 67 -19.5t22 -56.5t-24 -69.5t-59 -63.5l-47 -40h99l-13 -70h-194z" />
    <glyph glyph-name="onethird" unicode="&#x2153;" 
d="M500 669l51 -34l-491 -659l-51 34zM165 559l-52 -28l-23 49l105 65h71l-60 -313h-85zM300 62q23 -6 47 -6q27 0 43 11.5t16 31.5q0 17 -15 25t-50 8l12 59q39 0 57 11.5t18 30.5q0 24 -33 24q-11 0 -23 -1.5t-26 -6.5l1 60q19 5 39 7.5t38 2.5q49 0 71.5 -19.5
t22.5 -48.5q0 -16 -5.5 -29t-14.5 -24t-21.5 -19t-26.5 -13q23 -7 34.5 -23.5t11.5 -41.5q0 -46 -35 -76.5t-98 -30.5q-20 0 -40 2t-36 6z" />
    <glyph glyph-name="onequarter" unicode="&#xbc;" 
d="M511 669l51 -34l-491 -659l-51 34zM165 559l-52 -28l-23 49l105 65h71l-60 -313h-85zM256 125l133 188h118l-39 -198h31l-12 -61h-30l-10 -54h-78l10 54h-137zM391 115l28 143l-102 -143h74z" />
    <glyph glyph-name="onefifths" unicode="&#x2155;" 
d="M497 669l51 -34l-491 -659l-51 34zM160 559l-52 -28l-23 49l105 65h71l-60 -313h-85zM523 313l-12 -63h-103l-11 -59q6 1 11.5 1.5t11.5 0.5q37 0 57.5 -21t20.5 -60q0 -52 -37.5 -85t-106.5 -33q-19 0 -39 2t-36 6l13 60q24 -6 54 -6q32 0 47 13t15 35q0 30 -40 30
q-13 0 -25.5 -1.5t-26.5 -3.5l35 184h172z" />
    <glyph glyph-name="onesixth" unicode="&#x2159;" 
d="M501 669l51 -34l-491 -659l-51 34zM162 559l-52 -28l-23 49l105 65h71l-60 -313h-85zM505 251q-14 3 -29 5t-29 2q-22 0 -36 -5.5t-23 -15.5t-13.5 -23.5t-8.5 -29.5q15 7 28.5 10t28.5 3q35 0 55 -19.5t20 -58.5q0 -28 -9 -51.5t-26 -40t-40.5 -26t-53.5 -9.5
q-49 0 -71 25t-22 74q0 11 1.5 23t3.5 26q9 45 21 78.5t31.5 55.5t48 33.5t68.5 11.5q39 0 67 -7zM423 111q0 30 -28 30q-10 0 -19 -2t-19 -8q-2 -9 -5 -22t-3 -23q0 -18 7.5 -27t20.5 -9q18 0 32 17.5t14 43.5z" />
    <glyph glyph-name="oneeighth" unicode="&#x215b;" 
d="M495 669l51 -34l-491 -659l-51 34zM162 559l-52 -28l-23 49l105 65h71l-60 -313h-85zM495 92q-1 -45 -34 -72.5t-88 -27.5q-52 0 -77 23t-25 58q0 16 6 30t15 25t21 20t25 16q-15 11 -23 26t-8 35q0 23 9 41.5t24.5 30.5t36.5 18t46 6q50 0 72.5 -20.5t22.5 -53.5
q0 -31 -19.5 -52.5t-41.5 -32.5q17 -11 27.5 -28.5t10.5 -41.5zM409 188q15 8 26.5 22t11.5 30q0 13 -7.5 21t-23.5 8t-27.5 -10.5t-11.5 -28.5q0 -13 7 -22.5t25 -19.5zM387 134q-18 -11 -31 -24.5t-13 -30.5t10 -25t25 -8q18 0 30.5 11.5t12.5 30.5q0 29 -34 46z" />
    <glyph glyph-name="twothirds" unicode="&#x2154;" 
d="M513 669l51 -34l-491 -659l-51 34zM51 400l62 59q31 30 47.5 52t16.5 45q0 27 -31 27q-11 0 -22.5 -2t-23.5 -7l2 64q20 6 42 9.5t44 3.5q45 0 67 -19.5t22 -56.5t-24 -69.5t-59 -63.5l-47 -40h99l-13 -70h-194zM304 62q23 -6 47 -6q27 0 43 11.5t16 31.5q0 17 -15 25
t-50 8l12 59q39 0 57 11.5t18 30.5q0 24 -33 24q-11 0 -23 -1.5t-26 -6.5l1 60q19 5 39 7.5t38 2.5q49 0 71.5 -19.5t22.5 -48.5q0 -16 -5.5 -29t-14.5 -24t-21.5 -19t-26.5 -13q23 -7 34.5 -23.5t11.5 -41.5q0 -46 -35 -76.5t-98 -30.5q-20 0 -40 2t-36 6z" />
    <glyph glyph-name="twofifths" unicode="&#x2156;" 
d="M512 669l51 -34l-491 -659l-51 34zM51 400l62 59q31 30 47.5 52t16.5 45q0 27 -31 27q-11 0 -22.5 -2t-23.5 -7l2 64q20 6 42 9.5t44 3.5q45 0 67 -19.5t22 -56.5t-24 -69.5t-59 -63.5l-47 -40h99l-13 -70h-194zM528 313l-12 -63h-103l-11 -59q6 1 11.5 1.5t11.5 0.5
q37 0 57.5 -21t20.5 -60q0 -52 -37.5 -85t-106.5 -33q-19 0 -39 2t-36 6l13 60q24 -6 54 -6q32 0 47 13t15 35q0 30 -40 30q-13 0 -25.5 -1.5t-26.5 -3.5l35 184h172z" />
    <glyph glyph-name="threequarters" unicode="&#xbe;" 
d="M508 669l51 -34l-491 -659l-51 34zM256 125l133 188h118l-39 -198h31l-12 -61h-30l-10 -54h-78l10 54h-137zM391 115l28 143l-102 -143h74zM60 394q23 -6 47 -6q27 0 43 11.5t16 31.5q0 17 -15 25t-50 8l12 59q39 0 57 11.5t18 30.5q0 24 -33 24q-11 0 -23 -1.5t-26 -6.5
l1 60q19 5 39 7.5t38 2.5q49 0 71.5 -19.5t22.5 -48.5q0 -16 -5.5 -29t-14.5 -24t-21.5 -19t-26.5 -13q23 -7 34.5 -23.5t11.5 -41.5q0 -46 -35 -76.5t-98 -30.5q-20 0 -40 2t-36 6z" />
    <glyph glyph-name="threefifths" unicode="&#x2157;" 
d="M499 669l51 -34l-491 -659l-51 34zM528 313l-12 -63h-103l-11 -59q6 1 11.5 1.5t11.5 0.5q37 0 57.5 -21t20.5 -60q0 -52 -37.5 -85t-106.5 -33q-19 0 -39 2t-36 6l13 60q24 -6 54 -6q32 0 47 13t15 35q0 30 -40 30q-13 0 -25.5 -1.5t-26.5 -3.5l35 184h172zM56 394
q23 -6 47 -6q27 0 43 11.5t16 31.5q0 17 -15 25t-50 8l12 59q39 0 57 11.5t18 30.5q0 24 -33 24q-11 0 -23 -1.5t-26 -6.5l1 60q19 5 39 7.5t38 2.5q49 0 71.5 -19.5t22.5 -48.5q0 -16 -5.5 -29t-14.5 -24t-21.5 -19t-26.5 -13q23 -7 34.5 -23.5t11.5 -41.5q0 -46 -35 -76.5
t-98 -30.5q-20 0 -40 2t-36 6z" />
    <glyph glyph-name="threeeighths" unicode="&#x215c;" 
d="M498 669l51 -34l-491 -659l-51 34zM499 92q-1 -45 -34 -72.5t-88 -27.5q-52 0 -77 23t-25 58q0 16 6 30t15 25t21 20t25 16q-15 11 -23 26t-8 35q0 23 9 41.5t24.5 30.5t36.5 18t46 6q50 0 72.5 -20.5t22.5 -53.5q0 -31 -19.5 -52.5t-41.5 -32.5q17 -11 27.5 -28.5
t10.5 -41.5zM413 188q15 8 26.5 22t11.5 30q0 13 -7.5 21t-23.5 8t-27.5 -10.5t-11.5 -28.5q0 -13 7 -22.5t25 -19.5zM391 134q-18 -11 -31 -24.5t-13 -30.5t10 -25t25 -8q18 0 30.5 11.5t12.5 30.5q0 29 -34 46zM56 394q23 -6 47 -6q27 0 43 11.5t16 31.5q0 17 -15 25
t-50 8l12 59q39 0 57 11.5t18 30.5q0 24 -33 24q-11 0 -23 -1.5t-26 -6.5l1 60q19 5 39 7.5t38 2.5q49 0 71.5 -19.5t22.5 -48.5q0 -16 -5.5 -29t-14.5 -24t-21.5 -19t-26.5 -13q23 -7 34.5 -23.5t11.5 -41.5q0 -46 -35 -76.5t-98 -30.5q-20 0 -40 2t-36 6z" />
    <glyph glyph-name="fourfifths" unicode="&#x2158;" 
d="M532 309l-12 -62h-104l-11 -58q6 1 11.5 1.5t11.5 0.5q38 0 58 -21t20 -60q0 -52 -37 -84.5t-100 -32.5q-22 0 -40.5 2t-34.5 6l12 60q26 -6 55 -6q31 0 46.5 13t15.5 35q0 30 -40 30q-13 0 -26 -1.5t-27 -3.5l35 181h167zM60 473l128 172h110l-36 -187h32l-12 -61h-32
l-10 -54h-72l10 54h-133zM189 458l28 135l-101 -135h73zM523 669l51 -34l-492 -659l-51 34z" />
    <glyph glyph-name="fivesixths" unicode="&#x215a;" 
d="M503 669l51 -34l-491 -659l-51 34zM509 251q-14 3 -29 5t-29 2q-22 0 -36 -5.5t-23 -15.5t-13.5 -23.5t-8.5 -29.5q15 7 28.5 10t28.5 3q35 0 55 -19.5t20 -58.5q0 -28 -9 -51.5t-26 -40t-40.5 -26t-53.5 -9.5q-49 0 -71 25t-22 74q0 11 1.5 23t3.5 26q9 45 21 78.5
t31.5 55.5t48 33.5t68.5 11.5q39 0 67 -7zM427 111q0 30 -28 30q-10 0 -19 -2t-19 -8q-2 -9 -5 -22t-3 -23q0 -18 7.5 -27t20.5 -9q18 0 32 17.5t14 43.5zM285 645l-12 -63h-103l-11 -59q6 1 11.5 1.5t11.5 0.5q37 0 57.5 -21t20.5 -60q0 -52 -37.5 -85t-106.5 -33
q-19 0 -39 2t-36 6l13 60q24 -6 54 -6q32 0 47 13t15 35q0 30 -40 30q-13 0 -25.5 -1.5t-26.5 -3.5l35 184h172z" />
    <glyph glyph-name="fiveeighths" unicode="&#x215d;" 
d="M500 669l51 -34l-491 -659l-51 34zM285 645l-12 -63h-103l-11 -59q6 1 11.5 1.5t11.5 0.5q37 0 57.5 -21t20.5 -60q0 -52 -37.5 -85t-106.5 -33q-19 0 -39 2t-36 6l13 60q24 -6 54 -6q32 0 47 13t15 35q0 30 -40 30q-13 0 -25.5 -1.5t-26.5 -3.5l35 184h172zM499 92
q-1 -45 -34 -72.5t-88 -27.5q-52 0 -77 23t-25 58q0 16 6 30t15 25t21 20t25 16q-15 11 -23 26t-8 35q0 23 9 41.5t24.5 30.5t36.5 18t46 6q50 0 72.5 -20.5t22.5 -53.5q0 -31 -19.5 -52.5t-41.5 -32.5q17 -11 27.5 -28.5t10.5 -41.5zM413 188q15 8 26.5 22t11.5 30
q0 13 -7.5 21t-23.5 8t-27.5 -10.5t-11.5 -28.5q0 -13 7 -22.5t25 -19.5zM391 134q-18 -11 -31 -24.5t-13 -30.5t10 -25t25 -8q18 0 30.5 11.5t12.5 30.5q0 29 -34 46z" />
    <glyph glyph-name="seveneighths" unicode="&#x215e;" 
d="M476 669l51 -34l-491 -659l-51 34zM499 92q-1 -45 -34 -72.5t-88 -27.5q-52 0 -77 23t-25 58q0 16 6 30t15 25t21 20t25 16q-15 11 -23 26t-8 35q0 23 9 41.5t24.5 30.5t36.5 18t46 6q50 0 72.5 -20.5t22.5 -53.5q0 -31 -19.5 -52.5t-41.5 -32.5q17 -11 27.5 -28.5
t10.5 -41.5zM413 188q15 8 26.5 22t11.5 30q0 13 -7.5 21t-23.5 8t-27.5 -10.5t-11.5 -28.5q0 -13 7 -22.5t25 -19.5zM391 134q-18 -11 -31 -24.5t-13 -30.5t10 -25t25 -8q18 0 30.5 11.5t12.5 30.5q0 29 -34 46zM99 645h214l-12 -65q-22 -33 -41 -63.5t-36.5 -60t-35.5 -60
t-36 -64.5h-88q21 36 39.5 68.5t36.5 62t36 57.5l36 56h-127z" />
    <glyph glyph-name="percent" unicode="%" 
d="M532 670l48 -36l-533 -659l-48 36zM310 515q-7 -39 -18.5 -66t-28.5 -43.5t-39 -23.5t-49 -7q-46 0 -69 21t-23 70q0 10 1 21.5t3 26.5q6 39 17.5 65t28.5 42.5t39.5 24t50.5 7.5q44 0 68 -21t24 -69q0 -11 -1 -22t-4 -26zM237 513q3 13 5 24.5t2 22.5q0 19 -8 26.5
t-22 7.5q-9 0 -17 -3t-14.5 -12t-12.5 -24t-11 -39q-3 -13 -4.5 -24.5t-1.5 -22.5q0 -20 7.5 -27.5t21.5 -7.5q9 0 17 3t14.5 11.5t12.5 24t11 40.5zM492 131q-6 -38 -17.5 -65t-28.5 -43.5t-39.5 -23.5t-50.5 -7q-44 0 -68 21t-24 69q0 11 1 22.5t4 26.5q7 38 18.5 64.5
t28.5 43t39 24t49 7.5q46 0 69 -21t23 -70q0 -10 -1 -21.5t-3 -26.5zM420 129q3 13 4.5 24.5t1.5 22.5q0 20 -7.5 27.5t-21.5 7.5q-9 0 -17 -3.5t-14.5 -12t-12.5 -24t-11 -38.5q-3 -14 -5 -25.5t-2 -21.5q0 -20 8 -28t22 -8q9 0 17 3.5t14.5 12t12.5 24t11 39.5z" />
    <glyph glyph-name="perthousand" unicode="&#x2030;" 
d="M555 429l9 -53l-528 -104l-10 52zM316 563q0 -11 -1.5 -21.5t-3.5 -23.5q-6 -35 -18 -59.5t-29.5 -40t-41 -22.5t-51.5 -7q-49 0 -73.5 21.5t-24.5 69.5q0 10 1 21t3 23q6 35 18.5 60t30 40t40.5 22t52 7q48 0 73 -21t25 -69zM244 560q0 21 -9.5 29t-25.5 8
q-21 0 -35 -14t-24 -59q-2 -13 -3.5 -23t-1.5 -18q0 -21 9 -29.5t25 -8.5q11 0 19.5 3t15.5 11.5t13 22.5t11 37q3 12 4.5 22t1.5 19zM239 165q0 -10 -1.5 -20.5t-3.5 -22.5q-6 -36 -18 -61t-29.5 -40t-41 -22t-51.5 -7q-49 0 -73.5 21t-24.5 69q0 10 1 21t3 24
q6 36 18.5 60t30 39.5t40.5 23t52 7.5q48 0 73 -22t25 -70zM166 162q0 22 -9 30.5t-25 8.5q-21 0 -35 -15t-24 -60q-2 -13 -3.5 -23t-1.5 -17q0 -22 9 -30t24 -8q12 0 20.5 2.5t15.5 11t13 23t11 37.5q2 12 3.5 22t1.5 18zM507 165q0 -10 -1.5 -20.5t-3.5 -22.5
q-6 -36 -18 -61t-29.5 -40t-41 -22t-52.5 -7q-48 0 -72.5 21t-24.5 69q0 10 1 21t3 24q6 36 18.5 60t30 39.5t41 23t51.5 7.5q49 0 73.5 -22t24.5 -70zM435 162q0 22 -9.5 30.5t-25.5 8.5q-21 0 -35 -15t-24 -60q-2 -13 -3.5 -23t-1.5 -17q0 -22 9 -30t25 -8q11 0 19.5 2.5
t15.5 11t13 23t11 37.5q3 12 4.5 22t1.5 18z" />
    <glyph glyph-name="plus" unicode="+" 
d="M63 332h179l37 184h95l-35 -184h181l-17 -90h-181l-36 -184h-96l35 184h-180z" />
    <glyph glyph-name="minus" unicode="&#x2212;" 
d="M63 332h457l-17 -90h-458z" />
    <glyph glyph-name="plusminus" unicode="&#xb1;" 
d="M91 426h170l34 173h96l-34 -173h171l-17 -90h-171l-34 -175h-96l34 175h-171zM25 89h439l-17 -89h-439z" />
    <glyph glyph-name="multiply" unicode="&#xd7;" 
d="M292 352l182 150l56 -69l-182 -149l128 -152l-75 -63l-129 153l-182 -150l-56 68l182 149l-126 153l75 62z" />
    <glyph glyph-name="divide" unicode="&#xf7;" 
d="M63 332h457l-17 -90h-458zM384 476q0 -6 -1 -12.5t-3 -14.5q-3 -19 -8 -30.5t-14 -19t-22.5 -10t-32.5 -2.5q-31 0 -44.5 9.5t-13.5 30.5q0 12 3 27q3 18 8.5 30.5t14.5 19.5t22 10t32 3q31 0 45 -10t14 -31zM320 146q0 -6 -0.5 -13t-2.5 -15q-3 -18 -8.5 -29.5
t-14.5 -18.5t-22 -10t-32 -3q-31 0 -44.5 9.5t-13.5 30.5q0 6 0.5 12.5t1.5 15.5q3 18 9 30t15 19t22 9.5t32 2.5q31 0 44.5 -9.5t13.5 -30.5z" />
    <glyph glyph-name="less" unicode="&#x3c;" 
d="M91 339l429 205l-22 -109l-313 -152l254 -156l-20 -98l-348 208z" />
    <glyph glyph-name="lessequal" unicode="&#x2264;" 
d="M25 89h439l-17 -89h-439zM91 428l472 175l-21 -103l-358 -127l310 -130l-19 -93l-403 177z" />
    <glyph glyph-name="equal" unicode="=" 
d="M54 233h437l-17 -90h-438zM91 431h439l-18 -90h-438z" />
    <glyph glyph-name="notequal" unicode="&#x2260;" 
d="M377 341l-85 -108h199l-17 -90h-245l-95 -126l-74 44l64 82h-88l18 90h133l85 108h-198l17 90h244l96 127l74 -44l-64 -83h89l-18 -90h-135z" />
    <glyph glyph-name="approxequal" unicode="&#x2248;" 
d="M32 199q31 34 68.5 54t85.5 20q32 0 54 -8.5t40.5 -18.5t36.5 -18.5t41 -8.5q31 0 52.5 12.5t40.5 31.5l49 -66q-33 -35 -69.5 -55t-84.5 -20q-32 0 -54 8.5t-41 18.5t-36.5 18.5t-40.5 8.5q-31 0 -52 -12.5t-41 -31.5zM70 401q31 35 68.5 55t86.5 20q31 0 53 -8.5
t40.5 -19t37 -18.5t40.5 -8q32 0 52.5 12.5t40.5 31.5l50 -67q-33 -34 -69.5 -54t-85.5 -20q-31 0 -53 8.5t-41 18.5t-37 18.5t-40 8.5q-32 0 -52.5 -12.5t-40.5 -32.5z" />
    <glyph glyph-name="greaterequal" unicode="&#x2265;" 
d="M25 89h439l-17 -89h-439zM57 251l359 130l-310 127l19 95l404 -175l-19 -101l-473 -177z" />
    <glyph glyph-name="greater" unicode="&#x3e;" 
d="M67 138l313 152l-254 155l20 99l347 -207l-19 -102l-428 -206z" />
    <glyph glyph-name="logicalnot" unicode="&#xac;" 
d="M76 332h421l-43 -219h-96l26 129h-326z" />
    <glyph glyph-name="radical" unicode="&#x221a;" 
d="M105 405h-48l17 90h141l13 -250q1 -24 1.5 -43.5l1 -39t1.5 -39.5t0 -44h1q10 24 18.5 44t16.5 39.5t16 39.5t18 43l198 450h116l-311 -695h-172z" />
    <glyph glyph-name="infinity" unicode="&#x221e;" 
d="M554 330q0 -48 -12.5 -87.5t-34 -68t-52 -44.5t-65.5 -16q-26 0 -45 6.5t-33.5 19t-25 30t-19.5 39.5q-30 -44 -65 -70t-84 -26q-28 0 -48 10.5t-33 28t-19 42t-6 53.5q0 48 12.5 87.5t34 68t52 44.5t65.5 16q25 0 44.5 -6.5t34 -19t25 -30t19.5 -39.5q30 44 65 70t84 26
q28 0 48 -10t33 -28t19 -43t6 -53zM235 287q-12 38 -26.5 61.5t-39.5 23.5q-13 0 -24.5 -8t-21 -23.5t-14.5 -37t-5 -47.5q0 -25 9 -37.5t26 -12.5q24 0 47.5 19t48.5 62zM331 290q12 -38 26.5 -61t39.5 -23q12 0 24 8t21.5 23t14.5 36.5t5 47.5t-9 38.5t-26 12.5
q-24 0 -47.5 -19.5t-48.5 -62.5z" />
    <glyph glyph-name="partialdiff" unicode="&#x2202;" 
d="M274 752q49 0 87 -11.5t65.5 -32.5t46 -49t29.5 -60t15.5 -67t4.5 -70q0 -48 -4.5 -102t-16.5 -106.5t-33 -101.5t-53.5 -85.5t-77.5 -58.5t-106 -22q-93 0 -139 44t-46 135q0 39 7 78.5t21 75.5t35.5 67.5t50 54.5t65 36.5t80.5 13.5q33 0 58.5 -5.5t44.5 -14.5
q-1 43 -9.5 78.5t-26 60.5t-47 39.5t-72.5 15.5zM242 77q43 0 72 27.5t48 70.5t29 95.5t13 105.5q-18 10 -40 17t-49 7q-29 0 -52 -11t-39.5 -30t-28 -42.5t-19 -48.5t-10.5 -50.5t-3 -46.5q0 -53 20.5 -73.5t58.5 -20.5z" />
    <glyph glyph-name="integral" unicode="&#x222b;" 
d="M-38 -127q16 -2 31 -3t34 -1q57 0 86.5 23t40.5 82l115 589q10 51 30 86.5t50 58t72 32.5t97 10q21 0 42 -1.5t38 -3.5l-18 -91q-16 2 -31 3.5t-33 1.5q-58 0 -88 -24t-40 -82l-115 -589q-20 -102 -80 -145t-169 -43q-20 0 -41.5 1.5t-38.5 3.5z" />
    <glyph glyph-name="product" unicode="&#x220f;" 
d="M169 648h-76l18 90h518l-17 -90h-76l-167 -860h-111l167 860h-144l-167 -860h-111z" />
    <glyph glyph-name="summation" unicode="&#x2211;" 
d="M-32 -124l302 408l-137 363l17 91h443l-18 -91h-311l141 -369l-297 -398h326l-17 -92h-465z" />
    <glyph glyph-name="lozenge" unicode="&#x25ca;" 
d="M62 372l227 366h163l83 -371l-224 -367h-163zM420 372l-65 287l-176 -292l62 -288z" />
    <glyph glyph-name="asciicircum" unicode="^" 
d="M302 695h121l114 -338h-107l-84 239l-179 -239h-112z" />
    <glyph glyph-name="asciitilde" unicode="~" 
d="M24 189q6 40 20.5 78t37 66.5t53 46t68.5 17.5q27 0 46.5 -9t33.5 -23t24.5 -30t20.5 -30t20.5 -23t25.5 -9t28.5 10t24.5 26t18 36.5t12 40.5h85q-6 -40 -20 -78t-36.5 -66.5t-53 -46t-68.5 -17.5q-28 0 -47 9.5t-33 23t-24.5 29.5t-20.5 30t-21 23.5t-26 9.5t-28 -10.5
t-24 -26t-18.5 -36t-11.5 -41.5h-86z" />
    <glyph glyph-name="degree" unicode="&#xb0;" 
d="M495 512q0 -39 -14.5 -70t-39 -52.5t-58 -33.5t-70.5 -12q-73 0 -115.5 37t-42.5 110q0 38 14.5 69t39 53t57.5 33.5t72 11.5q72 0 114.5 -37t42.5 -109zM406 506q0 37 -19 58t-56 21q-19 0 -35 -7t-27.5 -18.5t-18 -28t-6.5 -35.5q0 -37 19 -57.5t56 -20.5q19 0 35 6.5
t28 18t18 27.5t6 36z" />
    <glyph glyph-name="mu" unicode="&#xb5;" 
d="M111 495h120l-61 -315q-2 -11 -3.5 -21t-1.5 -22q0 -26 12 -38t37 -12q31 0 66.5 26t71.5 70l61 312h119l-95 -495h-99l4 65q-15 -14 -31 -27.5t-34.5 -23.5t-38.5 -16t-40 -6q-24 0 -39 8t-24 21l-1 -1q-2 -28 -6 -54t-9 -54l-24 -124h-120z" />
    <glyph glyph-name="mu" unicode="&#x3bc;" 
d="M111 495h120l-61 -315q-2 -11 -3.5 -21t-1.5 -22q0 -26 12 -38t37 -12q31 0 66.5 26t71.5 70l61 312h119l-95 -495h-99l4 65q-15 -14 -31 -27.5t-34.5 -23.5t-38.5 -16t-40 -6q-24 0 -39 8t-24 21l-1 -1q-2 -28 -6 -54t-9 -54l-24 -124h-120z" />
    <glyph glyph-name="mu" unicode="&#x3bc;" 
d="M111 495h120l-61 -315q-2 -11 -3.5 -21t-1.5 -22q0 -26 12 -38t37 -12q31 0 66.5 26t71.5 70l61 312h119l-95 -495h-99l4 65q-15 -14 -31 -27.5t-34.5 -23.5t-38.5 -16t-40 -6q-24 0 -39 8t-24 21l-1 -1q-2 -28 -6 -54t-9 -54l-24 -124h-120z" />
    <glyph glyph-name="pi" unicode="&#x3c0;" 
d="M120 406h-64l17 89h500l-17 -89h-64l-79 -406h-111l79 406h-150l-78 -406h-111z" />
    <glyph glyph-name="Delta" unicode="&#x394;" 
d="M272 695h181l40 -695h-531zM372 95l-16 353q-4 45 -6 86t-3 85h-2q-10 -22 -18.5 -43t-17 -41.5t-17.5 -41.5t-20 -44l-155 -354h255z" />
    <glyph glyph-name="Delta" unicode="&#x2206;" 
d="M272 695h181l40 -695h-531zM372 95l-16 353q-4 45 -6 86t-3 85h-2q-10 -22 -18.5 -43t-17 -41.5t-17.5 -41.5t-20 -44l-155 -354h255z" />
    <glyph glyph-name="Delta" unicode="&#x2206;" 
d="M272 695h181l40 -695h-531zM372 95l-16 353q-4 45 -6 86t-3 85h-2q-10 -22 -18.5 -43t-17 -41.5t-17.5 -41.5t-20 -44l-155 -354h255z" />
    <glyph glyph-name="Omega" unicode="&#x3a9;" 
d="M-7 95h103q-11 14 -20 30.5t-15.5 37.5t-10.5 45.5t-4 54.5q0 26 3 54.5t10 65.5q18 97 46 159.5t65.5 99.5t85 52t106.5 15q100 0 149 -46.5t48 -148.5q0 -33 -4 -65.5t-12 -74.5q-11 -53 -26 -95t-33.5 -76t-39.5 -60.5t-44 -47.5h108l-18 -95h-223l17 95q23 15 43 40
t37.5 58.5t31.5 77t25 98.5q8 41 12.5 71.5t4.5 60.5q0 61 -22.5 87t-67.5 26q-31 0 -57 -12t-47.5 -41.5t-38.5 -77.5t-30 -120q-3 -19 -5.5 -35t-4 -31t-2.5 -30.5t-1 -32.5q0 -26 3.5 -47.5t9.5 -38.5t14 -30t19 -23l-18 -95h-214z" />
    <glyph glyph-name="Omega" unicode="&#x2126;" 
d="M-7 95h103q-11 14 -20 30.5t-15.5 37.5t-10.5 45.5t-4 54.5q0 26 3 54.5t10 65.5q18 97 46 159.5t65.5 99.5t85 52t106.5 15q100 0 149 -46.5t48 -148.5q0 -33 -4 -65.5t-12 -74.5q-11 -53 -26 -95t-33.5 -76t-39.5 -60.5t-44 -47.5h108l-18 -95h-223l17 95q23 15 43 40
t37.5 58.5t31.5 77t25 98.5q8 41 12.5 71.5t4.5 60.5q0 61 -22.5 87t-67.5 26q-31 0 -57 -12t-47.5 -41.5t-38.5 -77.5t-30 -120q-3 -19 -5.5 -35t-4 -31t-2.5 -30.5t-1 -32.5q0 -26 3.5 -47.5t9.5 -38.5t14 -30t19 -23l-18 -95h-214z" />
    <glyph glyph-name="Omega" unicode="&#x2126;" 
d="M-7 95h103q-11 14 -20 30.5t-15.5 37.5t-10.5 45.5t-4 54.5q0 26 3 54.5t10 65.5q18 97 46 159.5t65.5 99.5t85 52t106.5 15q100 0 149 -46.5t48 -148.5q0 -33 -4 -65.5t-12 -74.5q-11 -53 -26 -95t-33.5 -76t-39.5 -60.5t-44 -47.5h108l-18 -95h-223l17 95q23 15 43 40
t37.5 58.5t31.5 77t25 98.5q8 41 12.5 71.5t4.5 60.5q0 61 -22.5 87t-67.5 26q-31 0 -57 -12t-47.5 -41.5t-38.5 -77.5t-30 -120q-3 -19 -5.5 -35t-4 -31t-2.5 -30.5t-1 -32.5q0 -26 3.5 -47.5t9.5 -38.5t14 -30t19 -23l-18 -95h-214z" />
    <glyph glyph-name="arrowup" unicode="&#x2191;" 
d="M223 483l-26 -29l-118 -119l-63 62l259 260l259 -260l-64 -64l-117 117l-26 30v-443h-104v446z" />
    <glyph glyph-name="arrowdown" unicode="&#x2193;" 
d="M80 353l117 -117l26 -29v442h104v-446l26 30l118 119l63 -63l-259 -259l-259 259z" />
    <glyph glyph-name="arrowupdn" unicode="&#x2195;" 
d="M97 242l100 -99l28 -29v469l-28 -29l-101 -100l-62 63l241 235l241 -235l-63 -65l-100 99l-28 29v-469l28 28l101 101l62 -63l-241 -235l-241 235z" />
    <glyph glyph-name="arrowleft" unicode="&#x2190;" 
d="M269 638l75 -61l-138 -151l-30 -29h369v-96h-365l30 -31l136 -148l-77 -63l-264 289z" />
    <glyph glyph-name="arrowright" unicode="&#x2192;" 
d="M5 397h365l-30 29l-136 149l77 63l264 -290l-264 -289l-75 61l138 150l30 31h-369v96z" />
    <glyph glyph-name="arrowboth" unicode="&#x2194;" 
d="M133 586l80 -41l-64 -119l-18 -31h285l-18 31l-63 118l82 42l128 -238l-128 -238l-80 41l64 119l18 31h-285l18 -31l63 -118l-82 -42l-128 238z" />
    <glyph glyph-name="arrownortheast" unicode="&#x2197;" 
d="M357 487l-57 -2h-182v91h398v-409h-100v188l2 57l-325 -325l-69 68z" />
    <glyph glyph-name="arrowsoutheast" unicode="&#x2198;" 
d="M118 188h182l57 -2l-333 332l69 69l325 -325l-2 56v188h100v-409h-398v91z" />
    <glyph glyph-name="arrowsouthwest" unicode="&#x2199;" 
d="M34 506h100v-188l-2 -56l325 325l69 -69l-333 -332l57 2h182v-91h-398v409z" />
    <glyph glyph-name="arrownorthwest" unicode="&#x2196;" 
d="M34 576h398v-91h-182l-57 2l333 -332l-69 -68l-325 325l2 -57v-188h-100v409z" />
    <glyph glyph-name="apple" unicode="&#xf8ff;" 
d="M106 263q0 36 13 67.5t35.5 54t53.5 35.5t67 13t67.5 -13t54 -35.5t35.5 -54t13 -67.5t-13 -67t-35.5 -53.5t-54 -35.5t-67.5 -13t-67 13t-53.5 35.5t-35.5 53.5t-13 67zM279 336h47l5 -16q4 -13 13 -13q10 0 10 14v16v3q0 13 -3 16q-4 4 -14 4h-110q-13 0 -13 -10
t13 -14l16 -5v-131q0 -22 -15 -22q-7 0 -11 3.5t-7 8t-6.5 8t-7.5 3.5q-8 0 -12.5 -5t-4.5 -12q0 -12 11.5 -20.5t31.5 -8.5q57 0 57 62v33h33l2 -7q3 -11 11 -11q10 0 10 12v36q0 13 -10 13q-8 0 -11 -11l-2 -8h-33v62z" />
    <glyph glyph-name="uni25AE" unicode="&#x25ae;" 
d="M0 1050h550v-1300h-550v1300z" />
    <glyph glyph-name="alignment" 
d="M38 752h475v-14h-475v14zM38 709h475v-14h-475v14zM38 659h475v-14h-475v14zM38 548h475v-14h-475v14zM38 509h475v-14h-475v14zM38 0h475v-14h-475v14zM38 -111h475v-14h-475v14zM38 -212h475v-14h-475v14z" />
  </font>
</defs>
</svg>
